G04 (created by PCBNEW (2013-07-07 BZR 4022)-stable) date 03/11/2015 04:39:32 PM*
%MOIN*%
G04 Gerber Fmt 3.4, Leading zero omitted, Abs format*
%FSLAX34Y34*%
G01*
G70*
G90*
G04 APERTURE LIST*
%ADD10C,0.00590551*%
%ADD11C,0.01125*%
%ADD12C,0.01*%
%ADD13C,0.00787402*%
%ADD14C,0.0001*%
G04 APERTURE END LIST*
G54D10*
G54D11*
X76937Y-68672D02*
X76937Y-68222D01*
X77194Y-68672D01*
X77194Y-68222D01*
X77408Y-68222D02*
X77408Y-68586D01*
X77430Y-68629D01*
X77451Y-68650D01*
X77494Y-68672D01*
X77580Y-68672D01*
X77622Y-68650D01*
X77644Y-68629D01*
X77665Y-68586D01*
X77665Y-68222D01*
X77880Y-68672D02*
X77880Y-68222D01*
X78030Y-68543D01*
X78180Y-68222D01*
X78180Y-68672D01*
X78372Y-68543D02*
X78587Y-68543D01*
X78330Y-68672D02*
X78480Y-68222D01*
X78630Y-68672D01*
X78715Y-68222D02*
X78972Y-68222D01*
X78844Y-68672D02*
X78844Y-68222D01*
X79208Y-68222D02*
X79294Y-68222D01*
X79337Y-68243D01*
X79380Y-68286D01*
X79401Y-68372D01*
X79401Y-68522D01*
X79380Y-68607D01*
X79337Y-68650D01*
X79294Y-68672D01*
X79208Y-68672D01*
X79165Y-68650D01*
X79122Y-68607D01*
X79101Y-68522D01*
X79101Y-68372D01*
X79122Y-68286D01*
X79165Y-68243D01*
X79208Y-68222D01*
X80151Y-68672D02*
X79937Y-68672D01*
X79937Y-68222D01*
X80280Y-68543D02*
X80494Y-68543D01*
X80237Y-68672D02*
X80387Y-68222D01*
X80537Y-68672D01*
X80837Y-68436D02*
X80901Y-68457D01*
X80922Y-68479D01*
X80944Y-68522D01*
X80944Y-68586D01*
X80922Y-68629D01*
X80901Y-68650D01*
X80858Y-68672D01*
X80687Y-68672D01*
X80687Y-68222D01*
X80837Y-68222D01*
X80880Y-68243D01*
X80901Y-68265D01*
X80922Y-68307D01*
X80922Y-68350D01*
X80901Y-68393D01*
X80880Y-68415D01*
X80837Y-68436D01*
X80687Y-68436D01*
X77022Y-68964D02*
X77108Y-68964D01*
X77151Y-68986D01*
X77194Y-69028D01*
X77215Y-69114D01*
X77215Y-69264D01*
X77194Y-69350D01*
X77151Y-69393D01*
X77108Y-69414D01*
X77022Y-69414D01*
X76980Y-69393D01*
X76937Y-69350D01*
X76915Y-69264D01*
X76915Y-69114D01*
X76937Y-69028D01*
X76980Y-68986D01*
X77022Y-68964D01*
X77408Y-69114D02*
X77408Y-69564D01*
X77408Y-69136D02*
X77451Y-69114D01*
X77537Y-69114D01*
X77580Y-69136D01*
X77601Y-69157D01*
X77622Y-69200D01*
X77622Y-69328D01*
X77601Y-69371D01*
X77580Y-69393D01*
X77537Y-69414D01*
X77451Y-69414D01*
X77408Y-69393D01*
X77794Y-69393D02*
X77837Y-69414D01*
X77922Y-69414D01*
X77965Y-69393D01*
X77987Y-69350D01*
X77987Y-69328D01*
X77965Y-69286D01*
X77922Y-69264D01*
X77858Y-69264D01*
X77815Y-69243D01*
X77794Y-69200D01*
X77794Y-69178D01*
X77815Y-69136D01*
X77858Y-69114D01*
X77922Y-69114D01*
X77965Y-69136D01*
X78180Y-69414D02*
X78180Y-69114D01*
X78180Y-68964D02*
X78158Y-68986D01*
X78180Y-69007D01*
X78201Y-68986D01*
X78180Y-68964D01*
X78180Y-69007D01*
X78372Y-69393D02*
X78415Y-69414D01*
X78501Y-69414D01*
X78544Y-69393D01*
X78565Y-69350D01*
X78565Y-69328D01*
X78544Y-69286D01*
X78501Y-69264D01*
X78437Y-69264D01*
X78394Y-69243D01*
X78372Y-69200D01*
X78372Y-69178D01*
X78394Y-69136D01*
X78437Y-69114D01*
X78501Y-69114D01*
X78544Y-69136D01*
X79037Y-68964D02*
X79294Y-68964D01*
X79165Y-69414D02*
X79165Y-68964D01*
X79530Y-68964D02*
X79615Y-68964D01*
X79658Y-68986D01*
X79701Y-69028D01*
X79722Y-69114D01*
X79722Y-69264D01*
X79701Y-69350D01*
X79658Y-69393D01*
X79615Y-69414D01*
X79530Y-69414D01*
X79487Y-69393D01*
X79444Y-69350D01*
X79422Y-69264D01*
X79422Y-69114D01*
X79444Y-69028D01*
X79487Y-68986D01*
X79530Y-68964D01*
X80065Y-69178D02*
X79915Y-69178D01*
X79915Y-69414D02*
X79915Y-68964D01*
X80130Y-68964D01*
X80301Y-69178D02*
X80451Y-69178D01*
X80515Y-69414D02*
X80301Y-69414D01*
X80301Y-68964D01*
X80515Y-68964D01*
X81030Y-69286D02*
X81244Y-69286D01*
X80987Y-69414D02*
X81137Y-68964D01*
X81287Y-69414D01*
X81630Y-69414D02*
X81630Y-68964D01*
X81630Y-69393D02*
X81587Y-69414D01*
X81501Y-69414D01*
X81458Y-69393D01*
X81437Y-69371D01*
X81415Y-69328D01*
X81415Y-69200D01*
X81437Y-69157D01*
X81458Y-69136D01*
X81501Y-69114D01*
X81587Y-69114D01*
X81630Y-69136D01*
X82037Y-69414D02*
X82037Y-69178D01*
X82015Y-69136D01*
X81972Y-69114D01*
X81887Y-69114D01*
X81844Y-69136D01*
X82037Y-69393D02*
X81994Y-69414D01*
X81887Y-69414D01*
X81844Y-69393D01*
X81822Y-69350D01*
X81822Y-69307D01*
X81844Y-69264D01*
X81887Y-69243D01*
X81994Y-69243D01*
X82037Y-69221D01*
X82251Y-69114D02*
X82251Y-69564D01*
X82251Y-69136D02*
X82294Y-69114D01*
X82380Y-69114D01*
X82422Y-69136D01*
X82444Y-69157D01*
X82465Y-69200D01*
X82465Y-69328D01*
X82444Y-69371D01*
X82422Y-69393D01*
X82380Y-69414D01*
X82294Y-69414D01*
X82251Y-69393D01*
X82594Y-69114D02*
X82765Y-69114D01*
X82658Y-68964D02*
X82658Y-69350D01*
X82680Y-69393D01*
X82722Y-69414D01*
X82765Y-69414D01*
X83087Y-69393D02*
X83044Y-69414D01*
X82958Y-69414D01*
X82915Y-69393D01*
X82894Y-69350D01*
X82894Y-69178D01*
X82915Y-69136D01*
X82958Y-69114D01*
X83044Y-69114D01*
X83087Y-69136D01*
X83108Y-69178D01*
X83108Y-69221D01*
X82894Y-69264D01*
X83301Y-69414D02*
X83301Y-69114D01*
X83301Y-69200D02*
X83322Y-69157D01*
X83344Y-69136D01*
X83387Y-69114D01*
X83430Y-69114D01*
X76894Y-69857D02*
X76980Y-70157D01*
X77065Y-69942D01*
X77151Y-70157D01*
X77237Y-69857D01*
X77365Y-69857D02*
X77451Y-70157D01*
X77537Y-69942D01*
X77622Y-70157D01*
X77708Y-69857D01*
X77837Y-69857D02*
X77922Y-70157D01*
X78008Y-69942D01*
X78094Y-70157D01*
X78180Y-69857D01*
X78351Y-70114D02*
X78372Y-70135D01*
X78351Y-70157D01*
X78330Y-70135D01*
X78351Y-70114D01*
X78351Y-70157D01*
X78565Y-69857D02*
X78565Y-70157D01*
X78565Y-69900D02*
X78587Y-69878D01*
X78630Y-69857D01*
X78694Y-69857D01*
X78737Y-69878D01*
X78758Y-69921D01*
X78758Y-70157D01*
X79165Y-69857D02*
X79165Y-70157D01*
X78972Y-69857D02*
X78972Y-70092D01*
X78994Y-70135D01*
X79037Y-70157D01*
X79101Y-70157D01*
X79144Y-70135D01*
X79165Y-70114D01*
X79380Y-70157D02*
X79380Y-69857D01*
X79380Y-69900D02*
X79401Y-69878D01*
X79444Y-69857D01*
X79508Y-69857D01*
X79551Y-69878D01*
X79572Y-69921D01*
X79572Y-70157D01*
X79572Y-69921D02*
X79594Y-69878D01*
X79637Y-69857D01*
X79701Y-69857D01*
X79744Y-69878D01*
X79765Y-69921D01*
X79765Y-70157D01*
X80172Y-70157D02*
X80172Y-69921D01*
X80151Y-69878D01*
X80108Y-69857D01*
X80022Y-69857D01*
X79980Y-69878D01*
X80172Y-70135D02*
X80130Y-70157D01*
X80022Y-70157D01*
X79980Y-70135D01*
X79958Y-70092D01*
X79958Y-70050D01*
X79980Y-70007D01*
X80022Y-69985D01*
X80130Y-69985D01*
X80172Y-69964D01*
X80322Y-69857D02*
X80494Y-69857D01*
X80387Y-69707D02*
X80387Y-70092D01*
X80408Y-70135D01*
X80451Y-70157D01*
X80494Y-70157D01*
X80708Y-70157D02*
X80665Y-70135D01*
X80644Y-70114D01*
X80622Y-70071D01*
X80622Y-69942D01*
X80644Y-69900D01*
X80665Y-69878D01*
X80708Y-69857D01*
X80772Y-69857D01*
X80815Y-69878D01*
X80837Y-69900D01*
X80858Y-69942D01*
X80858Y-70071D01*
X80837Y-70114D01*
X80815Y-70135D01*
X80772Y-70157D01*
X80708Y-70157D01*
X81051Y-70114D02*
X81072Y-70135D01*
X81051Y-70157D01*
X81030Y-70135D01*
X81051Y-70114D01*
X81051Y-70157D01*
X81458Y-70135D02*
X81415Y-70157D01*
X81330Y-70157D01*
X81287Y-70135D01*
X81265Y-70114D01*
X81244Y-70071D01*
X81244Y-69942D01*
X81265Y-69900D01*
X81287Y-69878D01*
X81330Y-69857D01*
X81415Y-69857D01*
X81458Y-69878D01*
X81715Y-70157D02*
X81672Y-70135D01*
X81651Y-70114D01*
X81630Y-70071D01*
X81630Y-69942D01*
X81651Y-69900D01*
X81672Y-69878D01*
X81715Y-69857D01*
X81780Y-69857D01*
X81822Y-69878D01*
X81844Y-69900D01*
X81865Y-69942D01*
X81865Y-70071D01*
X81844Y-70114D01*
X81822Y-70135D01*
X81780Y-70157D01*
X81715Y-70157D01*
X82058Y-70157D02*
X82058Y-69857D01*
X82058Y-69900D02*
X82080Y-69878D01*
X82122Y-69857D01*
X82187Y-69857D01*
X82230Y-69878D01*
X82251Y-69921D01*
X82251Y-70157D01*
X82251Y-69921D02*
X82272Y-69878D01*
X82315Y-69857D01*
X82380Y-69857D01*
X82422Y-69878D01*
X82444Y-69921D01*
X82444Y-70157D01*
G54D12*
X89669Y-68711D02*
X89536Y-68521D01*
X89440Y-68711D02*
X89440Y-68311D01*
X89593Y-68311D01*
X89631Y-68330D01*
X89650Y-68350D01*
X89669Y-68388D01*
X89669Y-68445D01*
X89650Y-68483D01*
X89631Y-68502D01*
X89593Y-68521D01*
X89440Y-68521D01*
X89993Y-68692D02*
X89955Y-68711D01*
X89879Y-68711D01*
X89840Y-68692D01*
X89821Y-68654D01*
X89821Y-68502D01*
X89840Y-68464D01*
X89879Y-68445D01*
X89955Y-68445D01*
X89993Y-68464D01*
X90012Y-68502D01*
X90012Y-68540D01*
X89821Y-68578D01*
X90145Y-68445D02*
X90240Y-68711D01*
X90336Y-68445D01*
X90698Y-68711D02*
X90469Y-68711D01*
X90583Y-68711D02*
X90583Y-68311D01*
X90545Y-68369D01*
X90507Y-68407D01*
X90469Y-68426D01*
G54D13*
X68516Y-74084D02*
X68516Y-71328D01*
X68516Y-71328D02*
X68516Y-69162D01*
X68516Y-69162D02*
X68418Y-69064D01*
X68418Y-69064D02*
G75*
G03X67040Y-69064I-688J-688D01*
G74*
G01*
X88693Y-71820D02*
X73634Y-71820D01*
X88693Y-74084D02*
X88693Y-71820D01*
X73634Y-74084D02*
X88693Y-74084D01*
X73634Y-70540D02*
X73634Y-74084D01*
X72945Y-70540D02*
X73634Y-70540D01*
X72945Y-70540D02*
X72945Y-74084D01*
X72945Y-71820D02*
X68516Y-71820D01*
X68516Y-74084D02*
X72945Y-74084D01*
G54D14*
G36*
X76741Y-70216D02*
X76641Y-70216D01*
X76641Y-69217D01*
X76616Y-68969D01*
X76547Y-68720D01*
X76441Y-68500D01*
X76441Y-68499D01*
X76397Y-68437D01*
X76348Y-68401D01*
X76273Y-68380D01*
X76156Y-68365D01*
X75897Y-68362D01*
X75672Y-68413D01*
X75488Y-68512D01*
X75347Y-68657D01*
X75254Y-68845D01*
X75213Y-69072D01*
X75211Y-69150D01*
X75216Y-69251D01*
X75229Y-69357D01*
X75246Y-69456D01*
X75265Y-69536D01*
X75283Y-69585D01*
X75297Y-69592D01*
X75304Y-69546D01*
X75332Y-69423D01*
X75398Y-69277D01*
X75490Y-69126D01*
X75597Y-68993D01*
X75678Y-68916D01*
X75786Y-68842D01*
X75913Y-68772D01*
X76042Y-68713D01*
X76157Y-68673D01*
X76239Y-68659D01*
X76258Y-68662D01*
X76295Y-68707D01*
X76328Y-68802D01*
X76355Y-68931D01*
X76371Y-69078D01*
X76375Y-69175D01*
X76355Y-69404D01*
X76290Y-69598D01*
X76205Y-69724D01*
X76205Y-69269D01*
X76196Y-69062D01*
X76144Y-68900D01*
X76105Y-68821D01*
X76081Y-68798D01*
X76063Y-68822D01*
X76059Y-68833D01*
X75928Y-69122D01*
X75755Y-69364D01*
X75543Y-69554D01*
X75374Y-69655D01*
X75274Y-69700D01*
X75200Y-69727D01*
X75170Y-69730D01*
X75151Y-69694D01*
X75122Y-69610D01*
X75090Y-69501D01*
X75047Y-69235D01*
X75061Y-68980D01*
X75131Y-68747D01*
X75252Y-68543D01*
X75407Y-68390D01*
X75549Y-68281D01*
X75403Y-68302D01*
X75179Y-68362D01*
X75001Y-68468D01*
X74869Y-68623D01*
X74784Y-68825D01*
X74768Y-68891D01*
X74748Y-69010D01*
X74748Y-69119D01*
X74766Y-69248D01*
X74781Y-69322D01*
X74834Y-69523D01*
X74896Y-69701D01*
X74964Y-69845D01*
X75032Y-69943D01*
X75081Y-69981D01*
X75215Y-70011D01*
X75383Y-70015D01*
X75559Y-69996D01*
X75718Y-69954D01*
X75762Y-69936D01*
X75935Y-69821D01*
X76069Y-69662D01*
X76161Y-69474D01*
X76205Y-69269D01*
X76205Y-69724D01*
X76174Y-69771D01*
X76000Y-69936D01*
X75974Y-69956D01*
X75858Y-70046D01*
X76008Y-70048D01*
X76189Y-70018D01*
X76280Y-69974D01*
X76444Y-69840D01*
X76558Y-69665D01*
X76623Y-69448D01*
X76641Y-69217D01*
X76641Y-70216D01*
X75658Y-70216D01*
X74575Y-70216D01*
X74575Y-69183D01*
X74575Y-68150D01*
X75658Y-68150D01*
X76741Y-68150D01*
X76741Y-69183D01*
X76741Y-70216D01*
X76741Y-70216D01*
X76741Y-70216D01*
G37*
M02*
