M48
;DRILL file {Pcbnew (2013-07-07 BZR 4022)-stable} date 03/11/2015 04:39:34 PM
;FORMAT={-:-/ absolute / inch / decimal}
FMAT,2
INCH,TZ
T1C0.010
T2C0.031
%
G90
G05
M72
T1
X6.9147Y-7.1559
X6.9375Y-7.0344
X6.9495Y-7.1553
X7.0164Y-7.1391
X7.0338Y-6.3399
X7.0341Y-6.4098
X7.0886Y-7.1358
X7.1512Y-6.3357
X7.1652Y-7.0628
X7.1656Y-7.1382
X7.17Y-6.77
X7.1718Y-7.0168
X7.227Y-6.9876
X7.23Y-6.765
X7.2334Y-7.1273
X7.2966Y-6.9843
X7.3116Y-6.7545
X7.3353Y-6.3329
X7.4154Y-7.1316
X7.519Y-6.331
X7.5282Y-7.1382
X7.5312Y-6.7626
X7.6272Y-7.1514
X7.7252Y-7.115
X7.741Y-6.34
X7.8057Y-7.1121
X7.8834Y-7.1115
X7.9637Y-7.1105
X7.9772Y-6.3382
X8.0397Y-7.1082
X8.1114Y-6.7776
X8.1416Y-6.8343
X8.1568Y-6.7846
X8.1624Y-7.1105
X8.1822Y-6.8925
X8.2478Y-6.3382
X8.2755Y-7.1154
X8.28Y-6.8181
X8.3543Y-7.1181
X8.4328Y-7.119
X8.4832Y-6.3382
X8.5154Y-7.1188
X8.5912Y-7.1186
X8.6723Y-7.1186
X8.7497Y-7.1181
X8.7626Y-6.3382
X8.8332Y-7.1182
X8.9584Y-6.9146
X9.0112Y-6.3932
X9.0156Y-6.7628
X9.0398Y-6.5692
T2
X6.8703Y-6.5278
X6.8703Y-6.6262
X6.9097Y-6.449
X6.9097Y-6.705
X6.9491Y-6.5278
X6.9491Y-6.6262
X6.9884Y-6.449
X6.9884Y-6.705
X7.0278Y-6.5278
X7.0278Y-6.6262
X7.0672Y-6.449
X7.0672Y-6.705
X7.1066Y-6.5278
X7.1066Y-6.6262
X7.1459Y-6.449
X7.1459Y-6.705
X7.1853Y-6.5278
X7.1853Y-6.6262
X7.2247Y-6.449
X7.2247Y-6.705
X7.264Y-6.5278
X7.264Y-6.6262
X7.3821Y-6.449
X7.3821Y-6.705
X7.4215Y-6.5278
X7.4215Y-6.6262
X7.4609Y-6.449
X7.4609Y-6.705
X7.5003Y-6.5278
X7.5003Y-6.6262
X7.5396Y-6.449
X7.5396Y-6.705
X7.579Y-6.5278
X7.579Y-6.6262
X7.6184Y-6.449
X7.6184Y-6.705
X7.6577Y-6.5278
X7.6577Y-6.6262
X7.6971Y-6.449
X7.6971Y-6.705
X7.7365Y-6.5278
X7.7365Y-6.6262
X7.7759Y-6.449
X7.7759Y-6.705
X7.8152Y-6.5278
X7.8152Y-6.6262
X7.8546Y-6.449
X7.8546Y-6.705
X7.894Y-6.5278
X7.894Y-6.6262
X7.9333Y-6.449
X7.9333Y-6.705
X7.9727Y-6.5278
X7.9727Y-6.6262
X8.0121Y-6.449
X8.0121Y-6.705
X8.0514Y-6.5278
X8.0514Y-6.6262
X8.0908Y-6.449
X8.0908Y-6.705
X8.1302Y-6.5278
X8.1302Y-6.6262
X8.1696Y-6.449
X8.1696Y-6.705
X8.2089Y-6.5278
X8.2089Y-6.6262
X8.2483Y-6.449
X8.2483Y-6.705
X8.2877Y-6.5278
X8.2877Y-6.6262
X8.327Y-6.449
X8.327Y-6.705
X8.3664Y-6.5278
X8.3664Y-6.6262
X8.4058Y-6.449
X8.4058Y-6.705
X8.4451Y-6.5278
X8.4451Y-6.6262
X8.4845Y-6.449
X8.4845Y-6.705
X8.5239Y-6.5278
X8.5239Y-6.6262
X8.5633Y-6.449
X8.5633Y-6.705
X8.6026Y-6.5278
X8.6026Y-6.6262
X8.642Y-6.449
X8.642Y-6.705
X8.6814Y-6.5278
X8.6814Y-6.6262
X8.7207Y-6.449
X8.7207Y-6.705
X8.7601Y-6.5278
X8.7601Y-6.6262
X8.7995Y-6.449
X8.7995Y-6.705
X8.8388Y-6.5278
X8.8388Y-6.6262
T0
M30
