M48
;DRILL file {KiCad 4.0.2+e4-6225~38~ubuntu14.04.1-stable} date Mon Aug  1 23:16:18 2016
;FORMAT={-:-/ absolute / metric / decimal}
FMAT,2
METRIC,TZ
T1C0.300
T2C0.780
%
G90
G05
M71
T1
X175.633Y-181.76
X176.213Y-178.674
X176.517Y-181.745
X178.217Y-181.333
X178.5Y-161.
X178.5Y-162.75
X180.05Y-174.9
X180.05Y-181.249
X182.006Y-181.31
X182.025Y-178.25
X182.025Y-179.375
X182.118Y-171.958
X182.25Y-161.
X183.566Y-177.485
X183.728Y-181.033
X183.75Y-171.75
X185.334Y-177.401
X185.75Y-171.75
X186.4Y-176.2
X186.5Y-161.
X188.35Y-180.5
X191.Y-161.
X191.25Y-171.75
X191.25Y-180.5
X193.75Y-180.5
X196.25Y-180.5
X196.75Y-161.
X198.25Y-180.5
X200.25Y-180.5
X202.25Y-180.5
X202.5Y-161.
X204.25Y-180.5
X206.1Y-173.625
X207.4Y-180.5
X207.5Y-171.75
X207.828Y-175.07
X209.25Y-161.
X210.25Y-180.5
X210.312Y-173.18
X212.25Y-180.5
X214.25Y-180.5
X215.5Y-161.
X216.25Y-180.5
X218.25Y-180.5
X220.25Y-180.5
X222.25Y-180.5
X223.Y-161.
X224.5Y-180.5
X227.5Y-175.5
X229.5Y-162.5
X229.5Y-166.75
X229.5Y-172.
T2
X174.507Y-165.806
X174.507Y-168.306
X175.507Y-163.806
X175.507Y-170.306
X176.507Y-165.806
X176.507Y-168.306
X177.507Y-163.806
X177.507Y-170.306
X178.507Y-165.806
X178.507Y-168.306
X179.507Y-163.806
X179.507Y-170.306
X180.507Y-165.806
X180.507Y-168.306
X181.507Y-163.806
X181.507Y-170.306
X182.507Y-165.806
X182.507Y-168.306
X183.507Y-163.806
X183.507Y-170.306
X184.507Y-165.806
X184.507Y-168.306
X187.507Y-163.806
X187.507Y-170.306
X188.507Y-165.806
X188.507Y-168.306
X189.507Y-163.806
X189.507Y-170.306
X190.507Y-165.806
X190.507Y-168.306
X191.507Y-163.806
X191.507Y-170.306
X192.507Y-165.806
X192.507Y-168.306
X193.507Y-163.806
X193.507Y-170.306
X194.507Y-165.806
X194.507Y-168.306
X195.507Y-163.806
X195.507Y-170.306
X196.507Y-165.806
X196.507Y-168.306
X197.507Y-163.806
X197.507Y-170.306
X198.507Y-165.806
X198.507Y-168.306
X199.507Y-163.806
X199.507Y-170.306
X200.507Y-165.806
X200.507Y-168.306
X201.507Y-163.806
X201.507Y-170.306
X202.507Y-165.806
X202.507Y-168.306
X203.507Y-163.806
X203.507Y-170.306
X204.507Y-165.806
X204.507Y-168.306
X205.507Y-163.806
X205.507Y-170.306
X206.507Y-165.806
X206.507Y-168.306
X207.507Y-163.806
X207.507Y-170.306
X208.507Y-165.806
X208.507Y-168.306
X209.507Y-163.806
X209.507Y-170.306
X210.507Y-165.806
X210.507Y-168.306
X211.507Y-163.806
X211.507Y-170.306
X212.507Y-165.806
X212.507Y-168.306
X213.507Y-163.806
X213.507Y-170.306
X214.507Y-165.806
X214.507Y-168.306
X215.507Y-163.806
X215.507Y-170.306
X216.507Y-165.806
X216.507Y-168.306
X217.507Y-163.806
X217.507Y-170.306
X218.507Y-165.806
X218.507Y-168.306
X219.507Y-163.806
X219.507Y-170.306
X220.507Y-165.806
X220.507Y-168.306
X221.507Y-163.806
X221.507Y-170.306
X222.507Y-165.806
X222.507Y-168.306
X223.507Y-163.806
X223.507Y-170.306
X224.507Y-165.806
X224.507Y-168.306
T0
M30
