G04 #@! TF.FileFunction,Soldermask,Bot*
%FSLAX46Y46*%
G04 Gerber Fmt 4.6, Leading zero omitted, Abs format (unit mm)*
G04 Created by KiCad (PCBNEW 4.0.2+e4-6225~38~ubuntu14.04.1-stable) date Mon Aug  1 23:16:18 2016*
%MOMM*%
G01*
G04 APERTURE LIST*
%ADD10C,0.350000*%
%ADD11C,0.100000*%
%ADD12R,0.650240X3.599180*%
%ADD13R,0.650240X4.599940*%
%ADD14O,0.650240X0.650240*%
%ADD15C,2.450000*%
%ADD16R,1.200000X1.200000*%
%ADD17C,1.200000*%
G04 APERTURE END LIST*
D10*
D11*
X174000000Y-175677360D02*
X173750000Y-175427360D01*
X174000000Y-175720060D02*
X174000000Y-188150000D01*
X185250000Y-179150000D02*
X185250000Y-188150000D01*
X162250000Y-159804100D02*
X162250000Y-181250000D01*
X170225720Y-175488600D02*
X170225720Y-181250000D01*
X170172380Y-181250000D02*
X162250000Y-181250000D01*
X225247200Y-177250000D02*
X231165400Y-177250000D01*
X231162860Y-159804100D02*
X162250000Y-159804100D01*
X231165400Y-177241200D02*
X231165400Y-159806640D01*
X225250000Y-177250000D02*
X225250000Y-177500000D01*
X185250000Y-188150000D02*
X174000000Y-188150000D01*
X187000000Y-179150000D02*
X185250000Y-179150000D01*
X187000000Y-188150000D02*
X187000000Y-179150000D01*
X225250000Y-188150000D02*
X187000000Y-188150000D01*
X225250000Y-177250000D02*
X225250000Y-188150000D01*
X173795515Y-175473408D02*
G75*
G03X170265240Y-175442600I-1780275J-1719192D01*
G01*
D12*
X174714620Y-184436540D03*
D13*
X175715380Y-184936920D03*
X176713600Y-184936920D03*
X177714360Y-184936920D03*
X178715120Y-184936920D03*
X179713340Y-184936920D03*
X180714100Y-184936920D03*
X181714860Y-184936920D03*
X182713080Y-184936920D03*
X183713840Y-184936920D03*
X184714600Y-184936920D03*
X187714340Y-184936920D03*
X188715100Y-184936920D03*
X189713320Y-184936920D03*
X190714080Y-184936920D03*
X191714840Y-184936920D03*
X192713060Y-184936920D03*
X193714220Y-184936920D03*
X194714220Y-184936920D03*
X195714220Y-184936920D03*
X196714220Y-184936920D03*
X197714220Y-184936920D03*
X198714220Y-184936920D03*
X199714220Y-184936920D03*
X200714220Y-184936920D03*
X201714220Y-184936920D03*
X202714220Y-184936920D03*
X203714220Y-184936920D03*
X204714220Y-184936920D03*
X205714220Y-184936920D03*
X206714220Y-184936920D03*
X207714220Y-184936920D03*
X208714220Y-184936920D03*
X209714220Y-184936920D03*
X210714220Y-184936920D03*
X211714220Y-184936920D03*
X212714220Y-184936920D03*
X213714220Y-184936920D03*
X214714220Y-184936920D03*
X215714220Y-184936920D03*
X216714220Y-184936920D03*
X217714220Y-184936920D03*
X218714220Y-184936920D03*
X219714220Y-184936920D03*
X220714220Y-184936920D03*
X221714220Y-184936920D03*
X222714220Y-184936920D03*
X223714220Y-184936920D03*
X224714220Y-184936920D03*
D14*
X175715380Y-187238160D03*
X176713600Y-187238160D03*
X177714360Y-187238160D03*
X178715120Y-187238160D03*
X179713340Y-187238160D03*
X180714100Y-187238160D03*
X181714860Y-187238160D03*
X182713080Y-187238160D03*
X183713840Y-187238160D03*
X184714600Y-187238160D03*
X187714340Y-187238160D03*
X188715100Y-187238160D03*
X189713320Y-187238160D03*
X190714080Y-187238160D03*
X191714840Y-187238160D03*
X192713060Y-187238160D03*
X193713820Y-187238160D03*
X194714220Y-187238160D03*
X195714220Y-187238160D03*
X196714220Y-187238160D03*
X197714220Y-187238160D03*
X198714220Y-187238160D03*
X199714220Y-187238160D03*
X200714220Y-187238160D03*
X201714220Y-187238160D03*
X202714220Y-187238160D03*
X203714220Y-187238160D03*
X204714220Y-187238160D03*
X205714220Y-187238160D03*
X206714220Y-187238160D03*
X207714220Y-187238160D03*
X208714220Y-187238160D03*
X209714220Y-187238160D03*
X210714220Y-187238160D03*
X211714220Y-187238160D03*
X212714220Y-187238160D03*
X213714220Y-187238160D03*
X214714220Y-187238160D03*
X215714220Y-187238160D03*
X216714220Y-187238160D03*
X217714220Y-187238160D03*
X218714220Y-187238160D03*
X219714220Y-187238160D03*
X220714220Y-187238160D03*
X221714220Y-187238160D03*
X222714220Y-187238160D03*
X223714220Y-187238160D03*
X224714220Y-187238160D03*
D15*
X226306600Y-167055800D03*
X186156600Y-167055800D03*
D16*
X174506600Y-168305800D03*
D17*
X175506600Y-170305800D03*
X176506600Y-168305800D03*
X177506600Y-170305800D03*
X178506600Y-168305800D03*
X179506600Y-170305800D03*
X180506600Y-168305800D03*
X181506600Y-170305800D03*
X182506600Y-168305800D03*
X183506600Y-170305800D03*
X184506600Y-168305800D03*
X187506600Y-170305800D03*
X188506600Y-168305800D03*
X189506600Y-170305800D03*
X190506600Y-168305800D03*
X191506600Y-170305800D03*
X192506600Y-168305800D03*
X193506600Y-170305800D03*
X194506600Y-168305800D03*
X195506600Y-170305800D03*
X196506600Y-168305800D03*
X197506600Y-170305800D03*
X198506600Y-168305800D03*
X199506600Y-170305800D03*
X200506600Y-168305800D03*
X201506600Y-170305800D03*
X202506600Y-168305800D03*
X203506600Y-170305800D03*
X204506600Y-168305800D03*
X205506600Y-170305800D03*
X206506600Y-168305800D03*
X207506600Y-170305800D03*
X208506600Y-168305800D03*
X209506600Y-170305800D03*
X210506600Y-168305800D03*
X211506600Y-170305800D03*
X212506600Y-168305800D03*
X213506600Y-170305800D03*
X214506600Y-168305800D03*
X215506600Y-170305800D03*
X216506600Y-168305800D03*
X217506600Y-170305800D03*
X218506600Y-168305800D03*
X219506600Y-170305800D03*
X220506600Y-168305800D03*
X221506600Y-170305800D03*
X222506600Y-168305800D03*
X223506600Y-170305800D03*
X174506600Y-165805800D03*
X175506600Y-163805800D03*
X176506600Y-165805800D03*
X177506600Y-163805800D03*
X178506600Y-165805800D03*
X179506600Y-163805800D03*
X180506600Y-165805800D03*
X181506600Y-163805800D03*
X182506600Y-165805800D03*
X183506600Y-163805800D03*
X184506600Y-165805800D03*
X187506600Y-163805800D03*
X188506600Y-165805800D03*
X189506600Y-163805800D03*
X190506600Y-165805800D03*
X191506600Y-163805800D03*
X192506600Y-165805800D03*
X193506600Y-163805800D03*
X194506600Y-165805800D03*
X195506600Y-163805800D03*
X196506600Y-165805800D03*
X197506600Y-163805800D03*
X198506600Y-165805800D03*
X199506600Y-163805800D03*
X200506600Y-165805800D03*
X201506600Y-163805800D03*
X202506600Y-165805800D03*
X203506600Y-163805800D03*
X204506600Y-165805800D03*
X205506600Y-163805800D03*
X206506600Y-165805800D03*
X207506600Y-163805800D03*
X208506600Y-165805800D03*
X209506600Y-163805800D03*
X210506600Y-165805800D03*
X211506600Y-163805800D03*
X212506600Y-165805800D03*
X213506600Y-163805800D03*
X214506600Y-165805800D03*
X215506600Y-163805800D03*
X216506600Y-165805800D03*
X217506600Y-163805800D03*
X218506600Y-165805800D03*
X219506600Y-163805800D03*
X220506600Y-165805800D03*
X221506600Y-163805800D03*
X222506600Y-165805800D03*
X223506600Y-163805800D03*
X224506600Y-168305800D03*
X224506600Y-165805800D03*
M02*
