G04 #@! TF.FileFunction,Copper,L1,Top,Signal*
%FSLAX46Y46*%
G04 Gerber Fmt 4.6, Leading zero omitted, Abs format (unit mm)*
G04 Created by KiCad (PCBNEW 4.0.4+e1-6308~48~ubuntu14.04.1-stable) date Sat Oct 15 18:13:20 2016*
%MOMM*%
%LPD*%
G01*
G04 APERTURE LIST*
%ADD10C,0.350000*%
%ADD11C,0.100000*%
%ADD12R,0.650240X3.599180*%
%ADD13R,0.650240X4.599940*%
%ADD14O,0.650240X0.650240*%
%ADD15C,0.650240*%
%ADD16C,0.600000*%
%ADD17C,0.600000*%
%ADD18C,0.152400*%
%ADD19C,0.300000*%
G04 APERTURE END LIST*
D10*
D11*
X148500000Y-88575000D02*
X148500000Y-76900000D01*
X148800000Y-89075000D02*
X148500000Y-89575000D01*
X148500000Y-88575000D02*
X148800000Y-89075000D01*
X199550000Y-89050000D02*
X199750000Y-88550000D01*
X199750000Y-89550000D02*
X199550000Y-89050000D01*
X199750000Y-88550000D02*
X199750000Y-76900000D01*
X199250000Y-101800000D02*
X199750000Y-101300000D01*
X162050000Y-101800000D02*
X161550000Y-101300000D01*
X159150000Y-101800000D02*
X159650000Y-101300000D01*
X149000000Y-101800000D02*
X148500000Y-101300000D01*
X199750000Y-76900000D02*
X199250000Y-76400000D01*
X159650000Y-76900000D02*
X159150000Y-76400000D01*
X161550000Y-76900000D02*
X162050000Y-76400000D01*
X148500000Y-76900000D02*
X149000000Y-76400000D01*
X159650000Y-92400000D02*
X161550000Y-92400000D01*
X159650000Y-85950000D02*
X161550000Y-85950000D01*
X162050000Y-101800000D02*
X199250000Y-101800000D01*
X161550000Y-92400000D02*
X161550000Y-101300000D01*
X159650000Y-101300000D02*
X159650000Y-92400000D01*
X149000000Y-101800000D02*
X159150000Y-101800000D01*
X148500000Y-89575000D02*
X148500000Y-101300000D01*
X159150000Y-76400000D02*
X149000000Y-76400000D01*
X159650000Y-85950000D02*
X159650000Y-76900000D01*
X161550000Y-76900000D02*
X161550000Y-85950000D01*
X199250000Y-76400000D02*
X162050000Y-76400000D01*
X199750000Y-101300000D02*
X199750000Y-89550000D01*
D12*
X149111000Y-80225620D03*
D13*
X150111000Y-79725620D03*
X151111000Y-79725620D03*
X152111000Y-79725620D03*
X153111000Y-79725620D03*
X154111000Y-79725620D03*
X155111000Y-79725620D03*
X156111000Y-79725620D03*
X157111000Y-79725620D03*
X158111000Y-79725620D03*
X159111000Y-79725620D03*
X162111000Y-79725620D03*
X163111000Y-79725620D03*
X164111000Y-79725620D03*
X165111000Y-79725620D03*
X166111000Y-79725620D03*
X167111000Y-79725620D03*
X168111000Y-79725620D03*
X169111000Y-79725620D03*
X170111000Y-79725620D03*
X171111000Y-79725620D03*
X172111000Y-79725620D03*
X173111000Y-79725620D03*
X174111000Y-79725620D03*
X175111000Y-79725620D03*
X176111000Y-79725620D03*
X177111000Y-79725620D03*
X178111000Y-79725620D03*
X179111000Y-79725620D03*
X180111000Y-79725620D03*
X181111000Y-79725620D03*
X182111000Y-79725620D03*
X183111000Y-79725620D03*
X184111000Y-79725620D03*
X185111000Y-79725620D03*
X186111000Y-79725620D03*
X187111000Y-79725620D03*
X188111000Y-79725620D03*
X189111000Y-79725620D03*
X190111000Y-79725620D03*
X191111000Y-79725620D03*
X192111000Y-79725620D03*
X193111000Y-79725620D03*
X194111000Y-79725620D03*
X195111000Y-79725620D03*
X196111000Y-79725620D03*
X197111000Y-79725620D03*
X198111000Y-79725620D03*
X199111000Y-79725620D03*
D14*
X150111000Y-77424380D03*
X151111000Y-77424380D03*
X152111000Y-77424380D03*
X153111000Y-77424380D03*
X154111000Y-77424380D03*
X155111000Y-77424380D03*
X156111000Y-77424380D03*
X157111000Y-77424380D03*
X158111000Y-77424380D03*
X159111000Y-77424380D03*
X162111000Y-77424380D03*
X163111000Y-77424380D03*
X164111000Y-77424380D03*
X165111000Y-77424380D03*
X166111000Y-77424380D03*
X167111000Y-77424380D03*
X168111000Y-77424380D03*
X169111000Y-77424380D03*
X170111000Y-77424380D03*
X171111000Y-77424380D03*
X172111000Y-77424380D03*
X173111000Y-77424380D03*
X174111000Y-77424380D03*
X175111000Y-77424380D03*
X176111000Y-77424380D03*
X177111000Y-77424380D03*
X178111000Y-77424380D03*
X179111000Y-77424380D03*
X180111000Y-77424380D03*
X181111000Y-77424380D03*
X182111000Y-77424380D03*
X183111000Y-77424380D03*
X184111000Y-77424380D03*
X185111000Y-77424380D03*
X186111000Y-77424380D03*
X187111000Y-77424380D03*
X188111000Y-77424380D03*
X189111000Y-77424380D03*
X190111000Y-77424380D03*
X191111000Y-77424380D03*
X192111000Y-77424380D03*
X193111000Y-77424380D03*
X194111000Y-77424380D03*
X195111000Y-77424380D03*
X196111000Y-77424380D03*
X197111000Y-77424380D03*
X198111000Y-77424380D03*
X199111000Y-77424380D03*
D13*
X149111000Y-98476000D03*
X150111000Y-98476000D03*
X151111000Y-98476000D03*
X152111000Y-98476000D03*
X153111000Y-98476000D03*
X154111000Y-98476000D03*
X155111000Y-98476000D03*
X156111000Y-98476000D03*
X157111000Y-98476000D03*
X158111000Y-98476000D03*
X159111000Y-98476000D03*
X162111000Y-98476000D03*
X163111000Y-98476000D03*
X164111000Y-98476000D03*
X165111000Y-98476000D03*
X166111000Y-98476000D03*
D12*
X167111000Y-97976000D03*
D13*
X168111000Y-98476000D03*
X169111000Y-98476000D03*
X170111000Y-98476000D03*
X171111000Y-98476000D03*
X172111000Y-98476000D03*
X173111000Y-98476000D03*
X174111000Y-98476000D03*
X175111000Y-98476000D03*
X176111000Y-98476000D03*
X177111000Y-98476000D03*
X178111000Y-98476000D03*
X179111000Y-98476000D03*
X180111000Y-98476000D03*
D12*
X181111000Y-97976000D03*
D13*
X182111000Y-98476000D03*
X183111000Y-98476000D03*
X184111000Y-98476000D03*
X185111000Y-98476000D03*
X186111000Y-98476000D03*
X187111000Y-98476000D03*
X188111000Y-98476000D03*
X189111000Y-98476000D03*
X190111000Y-98476000D03*
X191111000Y-98476000D03*
X192111000Y-98476000D03*
X193111000Y-98476000D03*
X194111000Y-98476000D03*
X195111000Y-98476000D03*
X196111000Y-98476000D03*
X197111000Y-98476000D03*
D12*
X198111000Y-97976000D03*
D13*
X199111000Y-98476000D03*
D15*
X149111000Y-100777240D03*
X150111000Y-100777240D03*
X151111000Y-100777240D03*
X152111000Y-100777240D03*
X153111000Y-100777240D03*
X154111000Y-100777240D03*
X155111000Y-100777240D03*
X156111000Y-100777240D03*
X157111000Y-100777240D03*
X158111000Y-100777240D03*
X159111000Y-100777240D03*
X162111000Y-100777240D03*
X163111000Y-100777240D03*
X164111000Y-100777240D03*
X165111000Y-100777240D03*
X166111000Y-100777240D03*
X168111000Y-100777240D03*
X169111000Y-100777240D03*
X170111000Y-100777240D03*
X171111000Y-100777240D03*
X172111000Y-100777240D03*
X173111000Y-100777240D03*
X174111000Y-100777240D03*
X175111000Y-100777240D03*
X176111000Y-100777240D03*
X177111000Y-100777240D03*
X178111000Y-100777240D03*
X179111000Y-100777240D03*
X180111000Y-100777240D03*
X182111000Y-100777240D03*
X183111000Y-100777240D03*
X184111000Y-100777240D03*
X185111000Y-100777240D03*
X186111000Y-100777240D03*
X187111000Y-100777240D03*
X188111000Y-100777240D03*
X189111000Y-100777240D03*
X190111000Y-100777240D03*
X191111000Y-100777240D03*
X192111000Y-100777240D03*
X193111000Y-100777240D03*
X194111000Y-100777240D03*
X195111000Y-100777240D03*
X196111000Y-100777240D03*
X197111000Y-100777240D03*
X199111000Y-100777240D03*
D16*
X168097500Y-92824500D03*
X151111000Y-82696000D03*
X151111000Y-95333000D03*
X148984000Y-92761000D03*
X149111000Y-83871000D03*
X149111000Y-87046000D03*
X150000000Y-90094000D03*
X150000000Y-88062000D03*
X152730500Y-88379500D03*
X152667000Y-89713000D03*
X154318000Y-89713000D03*
X172733000Y-89967000D03*
X174701500Y-89903500D03*
X176733500Y-89903500D03*
X178384500Y-89903500D03*
X170574000Y-90475000D03*
X168034000Y-90475000D03*
X167145000Y-89840000D03*
X165621000Y-89840000D03*
X164097000Y-89840000D03*
X182575500Y-85776000D03*
X182448500Y-88316000D03*
X182448500Y-92888000D03*
X182448500Y-89776500D03*
X181559500Y-85204500D03*
X181559500Y-87109500D03*
X190513000Y-95428000D03*
X194577000Y-95301000D03*
X198387000Y-90157500D03*
X198323500Y-87554000D03*
X196609000Y-88316000D03*
X194640500Y-88316000D03*
X192545000Y-88316000D03*
X190576500Y-88316000D03*
X188608000Y-88316000D03*
X186576000Y-88316000D03*
X184798000Y-88316000D03*
X180480000Y-95555000D03*
X180226000Y-88316000D03*
X180226000Y-89903500D03*
X172606000Y-95301000D03*
X168859500Y-85649000D03*
X174701500Y-82982000D03*
X172606000Y-82728000D03*
X178321000Y-88316000D03*
X176670000Y-88316000D03*
X174638000Y-88316000D03*
X172733000Y-88316000D03*
X170574000Y-88316000D03*
X168034000Y-84760000D03*
X168034000Y-87173000D03*
X167145000Y-88316000D03*
X165621000Y-88316000D03*
X164097000Y-88316000D03*
X158572500Y-94729500D03*
X155080000Y-84887000D03*
X158763000Y-88316000D03*
X158763000Y-89840000D03*
X198323500Y-85268000D03*
X154318000Y-88379500D03*
X156500000Y-88379500D03*
X156500000Y-89776500D03*
X184861500Y-89776500D03*
X186639500Y-89776500D03*
X188608000Y-89776500D03*
X190576500Y-89776500D03*
X192545000Y-89776500D03*
X194640500Y-89713000D03*
X196672500Y-89776500D03*
X161366500Y-91745000D03*
X159906000Y-91745000D03*
X159906000Y-89840000D03*
X161430000Y-89840000D03*
X161430000Y-88316000D03*
X159906000Y-88316000D03*
X159906000Y-86665000D03*
X161366500Y-86665000D03*
X198387000Y-93015000D03*
X154699000Y-82728000D03*
X196615000Y-82722000D03*
X199111000Y-82639000D03*
X194577000Y-82728000D03*
X178384500Y-82664500D03*
X192545000Y-95301000D03*
X188608000Y-95428000D03*
X190640000Y-82728000D03*
X186576000Y-82728000D03*
X184671000Y-82653000D03*
X181623000Y-82724000D03*
X176797000Y-82728000D03*
X170701000Y-82646000D03*
X168111000Y-82651000D03*
X165621000Y-82728000D03*
X162636500Y-82855000D03*
X196609000Y-95301000D03*
X184671000Y-95428000D03*
X181686500Y-95428000D03*
X178575000Y-95400000D03*
X174638000Y-95428000D03*
X170574000Y-95301000D03*
X168111000Y-95351000D03*
X165621000Y-95319000D03*
X162700000Y-95331000D03*
X152111000Y-82680000D03*
X154826000Y-95459000D03*
X152111000Y-95349000D03*
X199111000Y-95301000D03*
X156477000Y-82728000D03*
X158111000Y-82711000D03*
X158111000Y-95445000D03*
X156477000Y-95428000D03*
X149619000Y-89078000D03*
X167780000Y-89078000D03*
X181750000Y-83871000D03*
X198768000Y-83871000D03*
X198700000Y-89078000D03*
X181432500Y-89141500D03*
X167780000Y-83871000D03*
X149619000Y-93904000D03*
X158382000Y-93904000D03*
X152159000Y-83871000D03*
X154635500Y-83553500D03*
X156985000Y-83871000D03*
X159111000Y-83871000D03*
X162111000Y-83871000D03*
X164351000Y-83871000D03*
X165113000Y-83871000D03*
X169304000Y-83871000D03*
X170066000Y-83871000D03*
X173241000Y-83871000D03*
X174130000Y-83871000D03*
X177051000Y-83871000D03*
X177940000Y-83871000D03*
X180607000Y-83871000D03*
X183591500Y-83871000D03*
X184417000Y-83871000D03*
X187084000Y-83871000D03*
X187973000Y-83871000D03*
X191021000Y-83871000D03*
X191910000Y-83871000D03*
X195212000Y-83871000D03*
X196101000Y-83871000D03*
X153175000Y-93904000D03*
X154064000Y-93904000D03*
X155207000Y-93904000D03*
X156096000Y-93904000D03*
X163081000Y-93904000D03*
X163970000Y-93904000D03*
X166256000Y-93904000D03*
X167145000Y-93904000D03*
X168542000Y-93904000D03*
X171209000Y-93904000D03*
X172098000Y-93904000D03*
X175146000Y-93904000D03*
X176035000Y-93904000D03*
X179210000Y-93904000D03*
X179972000Y-93904000D03*
X182131000Y-93904000D03*
X182893000Y-94666000D03*
X185179000Y-93904000D03*
X186068000Y-93904000D03*
X189243000Y-93904000D03*
X190005000Y-93904000D03*
X193180000Y-93904000D03*
X193942000Y-93904000D03*
X197244000Y-93904000D03*
X198006000Y-93904000D03*
D17*
X150111000Y-79725620D02*
X150111000Y-77424380D01*
X151111000Y-79725620D02*
X151111000Y-77424380D01*
X150762000Y-82696000D02*
X151111000Y-82696000D01*
X150127000Y-82696000D02*
X150762000Y-82696000D01*
X150127000Y-95333000D02*
X150762000Y-95333000D01*
X150762000Y-95333000D02*
X151111000Y-95333000D01*
X150762000Y-82696000D02*
X150762000Y-95333000D01*
X151111000Y-100777240D02*
X151111000Y-98476000D01*
X150111000Y-100777240D02*
X150111000Y-98476000D01*
X149111000Y-100777240D02*
X149111000Y-98476000D01*
X149333000Y-95333000D02*
X150127000Y-95333000D01*
X150111000Y-98476000D02*
X150111000Y-95349000D01*
X150111000Y-95349000D02*
X150127000Y-95333000D01*
X149111000Y-95555000D02*
X149333000Y-95333000D01*
X149111000Y-98476000D02*
X149111000Y-95555000D01*
X150111000Y-82712000D02*
X150127000Y-82696000D01*
X150111000Y-79725620D02*
X150111000Y-82712000D01*
X151095000Y-82712000D02*
X151111000Y-82696000D01*
X151095000Y-95317000D02*
X151111000Y-95333000D01*
X151111000Y-79725620D02*
X151111000Y-82696000D01*
X151111000Y-98476000D02*
X151111000Y-95333000D01*
D18*
X168034000Y-87173000D02*
X168288000Y-87427000D01*
X168288000Y-90221000D02*
X168034000Y-90475000D01*
X168288000Y-87427000D02*
X168288000Y-88570000D01*
X168288000Y-88570000D02*
X168415000Y-88697000D01*
X168415000Y-88697000D02*
X168415000Y-89459000D01*
X168288000Y-89586000D02*
X168288000Y-90221000D01*
X168415000Y-89459000D02*
X168288000Y-89586000D01*
X180226000Y-89903500D02*
X180353000Y-89903500D01*
X180353000Y-89903500D02*
X180543500Y-90094000D01*
D17*
X152111000Y-79725620D02*
X152111000Y-77424380D01*
X162111000Y-79725620D02*
X162111000Y-77424380D01*
X165111000Y-79725620D02*
X165111000Y-77424380D01*
X168111000Y-79725620D02*
X168111000Y-77424380D01*
X173111000Y-79725620D02*
X173111000Y-77424380D01*
X174111000Y-79725620D02*
X174111000Y-77424380D01*
X178111000Y-79725620D02*
X178111000Y-77424380D01*
X177111000Y-79725620D02*
X177111000Y-77424380D01*
X184111000Y-79725620D02*
X184111000Y-77424380D01*
X181111000Y-79725620D02*
X181111000Y-77424380D01*
X187111000Y-79725620D02*
X187111000Y-77424380D01*
X188111000Y-79725620D02*
X188111000Y-77424380D01*
X191111000Y-79725620D02*
X191111000Y-77424380D01*
X192111000Y-79725620D02*
X192111000Y-77424380D01*
X199111000Y-79725620D02*
X199111000Y-77424380D01*
X196111000Y-79725620D02*
X196111000Y-77424380D01*
X163111000Y-100777240D02*
X163111000Y-98476000D01*
X172606000Y-95301000D02*
X172251000Y-95301000D01*
X172251000Y-95301000D02*
X172111000Y-95441000D01*
X179111000Y-100777240D02*
X179111000Y-98476000D01*
X182111000Y-100777240D02*
X182111000Y-98476000D01*
X185111000Y-100777240D02*
X185111000Y-98476000D01*
X186111000Y-100777240D02*
X186111000Y-98476000D01*
X189111000Y-100777240D02*
X189111000Y-98476000D01*
X190111000Y-100777240D02*
X190111000Y-98476000D01*
X193111000Y-100777240D02*
X193111000Y-98476000D01*
X194111000Y-100777240D02*
X194111000Y-98476000D01*
X197111000Y-100777240D02*
X197111000Y-98476000D01*
D18*
X148984000Y-92634000D02*
X148984000Y-92761000D01*
X148984000Y-88697000D02*
X148984000Y-92634000D01*
X149111000Y-88570000D02*
X148984000Y-88697000D01*
X149111000Y-87046000D02*
X149111000Y-88570000D01*
X149111000Y-87046000D02*
X149111000Y-83871000D01*
X169177000Y-94666000D02*
X168492000Y-95351000D01*
X168492000Y-95351000D02*
X168111000Y-95351000D01*
X169177000Y-86411000D02*
X169177000Y-94666000D01*
X168859500Y-86093500D02*
X169177000Y-86411000D01*
X168859500Y-85649000D02*
X168859500Y-86093500D01*
X181559500Y-87109500D02*
X181559500Y-85204500D01*
X179972000Y-83363000D02*
X180611000Y-82724000D01*
X180611000Y-82724000D02*
X181623000Y-82724000D01*
X179972000Y-87998500D02*
X179972000Y-83363000D01*
X180226000Y-88252500D02*
X179972000Y-87998500D01*
X180226000Y-88316000D02*
X180226000Y-88252500D01*
X181115000Y-87998500D02*
X181115000Y-88697000D01*
X180670500Y-84633000D02*
X180670500Y-87554000D01*
X180670500Y-87554000D02*
X181115000Y-87998500D01*
X181051500Y-84252000D02*
X180670500Y-84633000D01*
X181115000Y-84061500D02*
X181115000Y-84252000D01*
X181115000Y-84252000D02*
X181051500Y-84252000D01*
X183020000Y-83172500D02*
X183539500Y-82653000D01*
X183539500Y-82653000D02*
X184671000Y-82653000D01*
X183020000Y-84061500D02*
X183020000Y-83172500D01*
X183464500Y-84506000D02*
X183020000Y-84061500D01*
X183464500Y-94983500D02*
X183464500Y-84506000D01*
X183020000Y-95428000D02*
X183464500Y-94983500D01*
X181750000Y-95428000D02*
X183020000Y-95428000D01*
X181623000Y-82724000D02*
X181178500Y-83168500D01*
X180480000Y-95237500D02*
X180480000Y-95555000D01*
X181178500Y-83168500D02*
X181178500Y-83998000D01*
X181178500Y-89649500D02*
X181178500Y-94539000D01*
X181178500Y-83998000D02*
X181115000Y-84061500D01*
X181115000Y-88697000D02*
X180861000Y-88951000D01*
X180861000Y-88951000D02*
X180861000Y-89332000D01*
X180861000Y-89332000D02*
X181178500Y-89649500D01*
X181178500Y-94539000D02*
X180480000Y-95237500D01*
X188608000Y-95428000D02*
X190513000Y-95428000D01*
X192545000Y-95301000D02*
X194577000Y-95301000D01*
X198387000Y-90157500D02*
X198387000Y-89459000D01*
X198387000Y-93015000D02*
X198387000Y-90157500D01*
X180543500Y-90094000D02*
X180543500Y-94221500D01*
X180543500Y-94221500D02*
X179365000Y-95400000D01*
X179365000Y-95400000D02*
X178575000Y-95400000D01*
X174447500Y-82728000D02*
X174701500Y-82982000D01*
X172606000Y-82728000D02*
X174447500Y-82728000D01*
X172606000Y-84252000D02*
X172606000Y-82728000D01*
X172733000Y-84379000D02*
X172606000Y-84252000D01*
X172733000Y-88316000D02*
X172733000Y-84379000D01*
X159017000Y-94285000D02*
X158572500Y-94729500D01*
X159017000Y-93523000D02*
X159017000Y-94285000D01*
X158763000Y-93269000D02*
X159017000Y-93523000D01*
X158763000Y-89840000D02*
X158763000Y-93269000D01*
X154064000Y-83299500D02*
X154064000Y-88189000D01*
X154064000Y-88189000D02*
X154254500Y-88379500D01*
X154635500Y-82728000D02*
X154064000Y-83299500D01*
X154699000Y-82728000D02*
X154635500Y-82728000D01*
X155207000Y-85712500D02*
X155207000Y-87744500D01*
X155080000Y-84950500D02*
X155080000Y-85585500D01*
X155080000Y-85585500D02*
X155207000Y-85712500D01*
X155207000Y-83172500D02*
X155207000Y-84252000D01*
X155080000Y-84950500D02*
X155080000Y-84379000D01*
X155080000Y-84379000D02*
X155207000Y-84252000D01*
X155207000Y-92761000D02*
X155080000Y-92888000D01*
X155207000Y-87744500D02*
X155207000Y-92761000D01*
X154762500Y-82728000D02*
X155207000Y-83172500D01*
X154699000Y-82728000D02*
X154762500Y-82728000D01*
X198133000Y-85014000D02*
X198323500Y-85204500D01*
X198323500Y-85204500D02*
X198323500Y-85268000D01*
X198133000Y-84950500D02*
X198133000Y-85014000D01*
X198133000Y-83617000D02*
X198133000Y-84950500D01*
X199111000Y-82639000D02*
X198133000Y-83617000D01*
X159779000Y-91745000D02*
X161366500Y-91745000D01*
X161430000Y-91745000D02*
X161366500Y-91745000D01*
X159779000Y-89840000D02*
X159779000Y-91745000D01*
X161430000Y-89840000D02*
X159779000Y-89840000D01*
D17*
X195111000Y-79725620D02*
X195111000Y-77424380D01*
X170111000Y-79725620D02*
X170111000Y-77424380D01*
X166111000Y-98476000D02*
X166111000Y-100777240D01*
X168111000Y-98476000D02*
X168111000Y-100777240D01*
X171111000Y-98476000D02*
X171111000Y-100777240D01*
X172111000Y-98476000D02*
X172111000Y-100777240D01*
X175111000Y-98476000D02*
X175111000Y-100777240D01*
X176111000Y-98476000D02*
X176111000Y-100777240D01*
X155111000Y-98476000D02*
X155111000Y-100777240D01*
X152111000Y-100777240D02*
X152111000Y-98476000D01*
X172111000Y-95441000D02*
X172000000Y-95330000D01*
X172000000Y-95330000D02*
X171111000Y-95330000D01*
X172111000Y-98476000D02*
X172111000Y-95441000D01*
X176111000Y-95504000D02*
X176070000Y-95463000D01*
X176070000Y-95463000D02*
X175111000Y-95463000D01*
X176111000Y-98476000D02*
X176111000Y-95504000D01*
X186111000Y-95471000D02*
X186086000Y-95496000D01*
X186086000Y-95496000D02*
X185111000Y-95496000D01*
X186111000Y-98476000D02*
X186111000Y-95471000D01*
X190111000Y-95576000D02*
X189968000Y-95433000D01*
X189968000Y-95433000D02*
X189111000Y-95433000D01*
X190111000Y-98476000D02*
X190111000Y-95576000D01*
X189111000Y-98476000D02*
X189111000Y-95433000D01*
X189111000Y-95433000D02*
X189106000Y-95428000D01*
X189106000Y-95428000D02*
X188608000Y-95428000D01*
X193942000Y-95301000D02*
X193180000Y-95301000D01*
X193180000Y-95301000D02*
X192545000Y-95301000D01*
X193111000Y-98476000D02*
X193111000Y-95370000D01*
X193111000Y-95370000D02*
X193180000Y-95301000D01*
X194111000Y-95470000D02*
X193942000Y-95301000D01*
X194111000Y-98476000D02*
X194111000Y-95470000D01*
X196615000Y-82722000D02*
X196101000Y-82722000D01*
X196101000Y-82722000D02*
X195085000Y-82722000D01*
X196111000Y-79725620D02*
X196111000Y-82712000D01*
X196111000Y-82712000D02*
X196101000Y-82722000D01*
X195085000Y-82722000D02*
X194583000Y-82722000D01*
X195111000Y-79725620D02*
X195111000Y-82696000D01*
X195111000Y-82696000D02*
X195085000Y-82722000D01*
X194583000Y-82722000D02*
X194577000Y-82728000D01*
X191910000Y-82728000D02*
X191148000Y-82728000D01*
X191148000Y-82728000D02*
X190640000Y-82728000D01*
X191111000Y-79725620D02*
X191111000Y-82691000D01*
X191111000Y-82691000D02*
X191148000Y-82728000D01*
X192111000Y-82527000D02*
X191910000Y-82728000D01*
X192111000Y-79725620D02*
X192111000Y-82527000D01*
X187973000Y-82728000D02*
X187084000Y-82728000D01*
X187084000Y-82728000D02*
X186576000Y-82728000D01*
X187111000Y-79725620D02*
X187111000Y-82701000D01*
X187111000Y-82701000D02*
X187084000Y-82728000D01*
X188111000Y-82590000D02*
X187973000Y-82728000D01*
X188111000Y-79725620D02*
X188111000Y-82590000D01*
X177051000Y-82601000D02*
X178067000Y-82601000D01*
X178067000Y-82601000D02*
X178603000Y-82601000D01*
X178111000Y-79725620D02*
X178111000Y-82557000D01*
X178111000Y-82557000D02*
X178067000Y-82601000D01*
X178603000Y-82601000D02*
X178702000Y-82700000D01*
X174111000Y-82455000D02*
X174089000Y-82477000D01*
X174089000Y-82477000D02*
X173111000Y-82477000D01*
X174111000Y-79725620D02*
X174111000Y-82455000D01*
X173111000Y-79725620D02*
X173111000Y-82477000D01*
X173111000Y-82477000D02*
X172860000Y-82728000D01*
X170111000Y-82646000D02*
X170701000Y-82646000D01*
X175111000Y-95463000D02*
X174638000Y-95463000D01*
X171111000Y-95330000D02*
X170603000Y-95330000D01*
X170603000Y-95330000D02*
X170574000Y-95301000D01*
X197111000Y-95307000D02*
X196615000Y-95307000D01*
X196615000Y-95307000D02*
X196609000Y-95301000D01*
X185111000Y-95496000D02*
X184739000Y-95496000D01*
X184739000Y-95496000D02*
X184671000Y-95428000D01*
X182258000Y-95428000D02*
X181790000Y-95428000D01*
X181643000Y-95448000D02*
X181623000Y-95428000D01*
X179111000Y-95400000D02*
X178575000Y-95400000D01*
X177051000Y-82601000D02*
X176543000Y-82601000D01*
X199111000Y-79725620D02*
X199111000Y-82639000D01*
X199111000Y-95301000D02*
X199111000Y-98476000D01*
X181623000Y-82724000D02*
X181111000Y-82724000D01*
X193111000Y-98476000D02*
X193111000Y-95867000D01*
X184111000Y-82653000D02*
X184671000Y-82653000D01*
X177051000Y-82601000D02*
X177051000Y-82213000D01*
X177051000Y-82213000D02*
X177111000Y-82153000D01*
X165621000Y-95319000D02*
X166111000Y-95319000D01*
X165621000Y-82728000D02*
X165113000Y-82728000D01*
X165113000Y-82728000D02*
X165111000Y-82726000D01*
X162700000Y-95331000D02*
X163111000Y-95331000D01*
X162111000Y-82728000D02*
X162573000Y-82728000D01*
X184111000Y-79725620D02*
X184111000Y-82653000D01*
X181111000Y-79725620D02*
X181111000Y-82724000D01*
X177111000Y-79725620D02*
X177111000Y-82153000D01*
X162111000Y-79725620D02*
X162111000Y-82728000D01*
X170111000Y-79725620D02*
X170111000Y-82646000D01*
X168111000Y-79725620D02*
X168111000Y-82651000D01*
X165111000Y-79725620D02*
X165111000Y-82726000D01*
X197111000Y-98476000D02*
X197111000Y-95307000D01*
X185111000Y-98476000D02*
X185111000Y-95496000D01*
X182111000Y-98476000D02*
X182111000Y-95448000D01*
X179111000Y-98476000D02*
X179111000Y-95400000D01*
X175111000Y-98476000D02*
X175111000Y-95463000D01*
X171111000Y-98476000D02*
X171111000Y-95330000D01*
X168111000Y-98476000D02*
X168111000Y-95351000D01*
X166111000Y-98476000D02*
X166111000Y-95319000D01*
X163111000Y-98476000D02*
X163111000Y-95331000D01*
X155111000Y-98476000D02*
X155111000Y-95744000D01*
X155111000Y-95744000D02*
X154826000Y-95459000D01*
X152111000Y-79725620D02*
X152111000Y-82680000D01*
X152111000Y-98476000D02*
X152111000Y-95349000D01*
X158111000Y-79725620D02*
X158111000Y-77424380D01*
X157747000Y-82711000D02*
X157747000Y-84315500D01*
X157747000Y-84315500D02*
X157620000Y-84442500D01*
X157620000Y-84442500D02*
X157620000Y-94983500D01*
X157620000Y-94983500D02*
X158081500Y-95445000D01*
X158081500Y-95445000D02*
X158111000Y-95445000D01*
X157111000Y-79725620D02*
X157111000Y-77424380D01*
X158111000Y-100777240D02*
X158111000Y-98476000D01*
X156111000Y-98476000D02*
X156111000Y-100777240D01*
X157111000Y-82727000D02*
X156478000Y-82727000D01*
X156478000Y-82727000D02*
X156477000Y-82728000D01*
X157127000Y-82711000D02*
X157747000Y-82711000D01*
X157747000Y-82711000D02*
X158111000Y-82711000D01*
X157111000Y-82727000D02*
X157127000Y-82711000D01*
X157111000Y-79725620D02*
X157111000Y-82727000D01*
X156111000Y-98476000D02*
X156111000Y-95667000D01*
X156111000Y-95667000D02*
X156350000Y-95428000D01*
X158111000Y-79725620D02*
X158111000Y-82711000D01*
X158111000Y-98476000D02*
X158111000Y-95445000D01*
D18*
X149619000Y-93904000D02*
X149619000Y-90665500D01*
X149619000Y-90665500D02*
X149365000Y-90411500D01*
X149365000Y-90411500D02*
X149365000Y-89840000D01*
X149365000Y-89840000D02*
X149620000Y-89585000D01*
X149620000Y-89585000D02*
X149620000Y-89079000D01*
X149620000Y-89079000D02*
X149619000Y-89078000D01*
X181432500Y-88697000D02*
X181432500Y-87808000D01*
X180988000Y-87363500D02*
X181432500Y-87808000D01*
X180988000Y-84950500D02*
X180988000Y-87363500D01*
X181432500Y-84506000D02*
X181432500Y-84188500D01*
X181432500Y-84506000D02*
X180988000Y-84950500D01*
X181496000Y-93586500D02*
X181496000Y-89205000D01*
X181496000Y-89205000D02*
X181432500Y-89141500D01*
X181432500Y-88697000D02*
X181432500Y-89141500D01*
X181750000Y-83871000D02*
X181432500Y-84188500D01*
X181496000Y-94793000D02*
X181051500Y-95237500D01*
X181496000Y-93586500D02*
X181496000Y-94793000D01*
X181051500Y-95237500D02*
X181051500Y-95872500D01*
X181051500Y-95872500D02*
X181115000Y-95936000D01*
X181115000Y-95936000D02*
X181115000Y-97972000D01*
X181115000Y-97972000D02*
X181111000Y-97976000D01*
X198111000Y-97976000D02*
X198111000Y-95450000D01*
X198958500Y-89713000D02*
X198768000Y-89522500D01*
X198111000Y-95450000D02*
X198958500Y-94602500D01*
X198958500Y-94602500D02*
X198958500Y-89713000D01*
X198768000Y-89522500D02*
X198768000Y-89078000D01*
X167780000Y-83871000D02*
X167462500Y-84188500D01*
X167462500Y-84188500D02*
X167462500Y-87808000D01*
X167462500Y-87808000D02*
X167780000Y-88125500D01*
X167780000Y-88125500D02*
X167780000Y-89078000D01*
X167111000Y-97976000D02*
X167111000Y-95081000D01*
X167111000Y-95081000D02*
X167780000Y-94412000D01*
X167780000Y-94412000D02*
X167780000Y-93523000D01*
X167780000Y-89967000D02*
X167780000Y-89078000D01*
X167780000Y-93523000D02*
X167462500Y-93205500D01*
X167462500Y-93205500D02*
X167462500Y-90284500D01*
X167462500Y-90284500D02*
X167780000Y-89967000D01*
X149619000Y-89078000D02*
X149619000Y-88506500D01*
X149619000Y-88506500D02*
X149428500Y-88316000D01*
X149428500Y-88316000D02*
X149428500Y-87744500D01*
X149428500Y-87744500D02*
X149682500Y-87490500D01*
X149682500Y-87490500D02*
X149682500Y-83553500D01*
X149682500Y-83553500D02*
X149111000Y-82982000D01*
X149111000Y-82982000D02*
X149111000Y-80225620D01*
X198768000Y-84696500D02*
X198958500Y-84887000D01*
X198958500Y-87998500D02*
X198768000Y-88189000D01*
X198958500Y-84887000D02*
X198958500Y-87998500D01*
X198768000Y-83871000D02*
X198768000Y-84696500D01*
X198768000Y-88189000D02*
X198768000Y-89078000D01*
X198133000Y-97954000D02*
X198111000Y-97976000D01*
X159111000Y-79725620D02*
X159111000Y-82634000D01*
X159111000Y-82634000D02*
X158318500Y-83426500D01*
X158318500Y-83426500D02*
X158318500Y-84506000D01*
X158191500Y-84633000D02*
X158191500Y-93586500D01*
X158318500Y-84506000D02*
X158191500Y-84633000D01*
X158191500Y-93586500D02*
X158509000Y-93904000D01*
X159111000Y-77424380D02*
X159111000Y-79725620D01*
X153111000Y-100777240D02*
X153111000Y-98476000D01*
X153111000Y-98476000D02*
X153111000Y-95364000D01*
X153111000Y-95364000D02*
X151905000Y-94158000D01*
X151905000Y-94158000D02*
X151905000Y-84633000D01*
X151905000Y-84633000D02*
X152159000Y-84379000D01*
X152159000Y-84379000D02*
X152159000Y-83871000D01*
X153048000Y-98413000D02*
X153111000Y-98476000D01*
X154635500Y-83553500D02*
X154635500Y-84379000D01*
X154889500Y-90221000D02*
X154635500Y-90475000D01*
X154635500Y-84379000D02*
X154508500Y-84506000D01*
X154635500Y-94539000D02*
X154111000Y-95063500D01*
X154508500Y-84506000D02*
X154508500Y-87681000D01*
X154635500Y-90475000D02*
X154635500Y-94539000D01*
X154508500Y-87681000D02*
X154889500Y-88062000D01*
X154889500Y-88062000D02*
X154889500Y-90221000D01*
X154111000Y-95063500D02*
X154111000Y-98476000D01*
X154111000Y-100777240D02*
X154111000Y-98476000D01*
X157111000Y-98476000D02*
X157111000Y-95936000D01*
X157048500Y-84444500D02*
X157048500Y-95873500D01*
X157048500Y-95873500D02*
X157111000Y-95936000D01*
X156984000Y-84380000D02*
X157048500Y-84444500D01*
X156985000Y-84380000D02*
X156984000Y-84380000D01*
X156985000Y-83871000D02*
X156985000Y-84380000D01*
X157111000Y-100777240D02*
X157111000Y-98476000D01*
X159111000Y-84315500D02*
X159111000Y-83871000D01*
X159111000Y-84315500D02*
X159334500Y-84539000D01*
X159334500Y-84539000D02*
X159334500Y-95649000D01*
X159334500Y-95649000D02*
X159111000Y-95872500D01*
X159111000Y-95872500D02*
X159111000Y-99459000D01*
X159111000Y-100777240D02*
X159111000Y-98476000D01*
X162111000Y-83871000D02*
X162111000Y-98476000D01*
X164111000Y-98476000D02*
X164111000Y-96049000D01*
X164111000Y-96049000D02*
X164668500Y-95491500D01*
X164668500Y-95491500D02*
X164668500Y-84188500D01*
X164668500Y-84188500D02*
X164351000Y-83871000D01*
X164111000Y-98476000D02*
X164111000Y-100777240D01*
X165111000Y-98476000D02*
X165111000Y-100777240D01*
X165111000Y-98476000D02*
X165111000Y-96061000D01*
X165111000Y-96061000D02*
X164984000Y-95934000D01*
X164984000Y-95934000D02*
X164984000Y-84000000D01*
X164984000Y-84000000D02*
X165113000Y-83871000D01*
X169111000Y-98476000D02*
X169111000Y-100777240D01*
X169492000Y-84186000D02*
X169492000Y-84059000D01*
X169492000Y-84059000D02*
X169304000Y-83871000D01*
X169111000Y-98476000D02*
X169111000Y-96002000D01*
X169111000Y-96002000D02*
X169492000Y-95621000D01*
X169492000Y-95621000D02*
X169492000Y-84186000D01*
X170111000Y-98476000D02*
X170111000Y-100777240D01*
X169812000Y-84379000D02*
X169812000Y-84125000D01*
X169812000Y-84125000D02*
X170066000Y-83871000D01*
X169812000Y-95809000D02*
X169812000Y-84379000D01*
X170066000Y-96063000D02*
X169812000Y-95809000D01*
X170111000Y-96063000D02*
X170111000Y-98476000D01*
X170111000Y-96063000D02*
X170066000Y-96063000D01*
X173111000Y-98476000D02*
X173111000Y-100777240D01*
X173495000Y-95555000D02*
X173495000Y-84379000D01*
X173495000Y-84379000D02*
X173495000Y-84252000D01*
X173495000Y-84125000D02*
X173495000Y-84379000D01*
X173241000Y-83871000D02*
X173495000Y-84125000D01*
X173111000Y-95939000D02*
X173495000Y-95555000D01*
X173111000Y-98476000D02*
X173111000Y-95939000D01*
X173812500Y-95491500D02*
X173812500Y-84188500D01*
X173812500Y-84188500D02*
X174130000Y-83871000D01*
X173876000Y-95555000D02*
X173812500Y-95491500D01*
X173876000Y-95574000D02*
X173876000Y-95555000D01*
X173876000Y-95574000D02*
X173876000Y-95491500D01*
X174111000Y-98476000D02*
X174111000Y-100777240D01*
X173876000Y-95574000D02*
X174111000Y-95809000D01*
X174111000Y-95809000D02*
X174111000Y-98476000D01*
X177111000Y-98476000D02*
X177111000Y-100777240D01*
X177432000Y-95428000D02*
X177432000Y-84252000D01*
X177051000Y-83871000D02*
X177432000Y-84252000D01*
X177111000Y-95749000D02*
X177432000Y-95428000D01*
X177111000Y-98476000D02*
X177111000Y-95749000D01*
X178111000Y-98476000D02*
X178111000Y-95726000D01*
X178111000Y-95726000D02*
X177749500Y-95364500D01*
X177749500Y-95364500D02*
X177749500Y-84061500D01*
X177749500Y-84061500D02*
X177940000Y-83871000D01*
X178111000Y-98476000D02*
X178111000Y-100777240D01*
X180797500Y-88125500D02*
X180797500Y-88570000D01*
X180353000Y-87744500D02*
X180416500Y-87744500D01*
X180416500Y-87744500D02*
X180797500Y-88125500D01*
X180353000Y-84125000D02*
X180353000Y-87744500D01*
X180607000Y-83871000D02*
X180353000Y-84125000D01*
X180797500Y-88570000D02*
X180543500Y-88824000D01*
X180861000Y-89776500D02*
X180861000Y-94424000D01*
X180543500Y-88824000D02*
X180543500Y-89459000D01*
X179908500Y-95376500D02*
X179908500Y-95809000D01*
X180099000Y-95999500D02*
X180111000Y-95999500D01*
X180111000Y-95999500D02*
X180111000Y-98476000D01*
X180543500Y-89459000D02*
X180861000Y-89776500D01*
X179908500Y-95809000D02*
X180099000Y-95999500D01*
X180861000Y-94424000D02*
X179908500Y-95376500D01*
X180111000Y-100777240D02*
X180111000Y-98476000D01*
X183782000Y-84379000D02*
X183782000Y-84061500D01*
X183782000Y-84061500D02*
X183591500Y-83871000D01*
X183528000Y-95555000D02*
X183782000Y-95301000D01*
X183782000Y-95301000D02*
X183782000Y-84379000D01*
X183111000Y-98476000D02*
X183111000Y-100777240D01*
X183401000Y-95682000D02*
X183528000Y-95555000D01*
X183111000Y-95972000D02*
X183401000Y-95682000D01*
X183111000Y-98476000D02*
X183111000Y-95972000D01*
X184111000Y-98476000D02*
X184111000Y-84188500D01*
X184417000Y-83871000D02*
X184417000Y-83882500D01*
X184417000Y-83882500D02*
X184111000Y-84188500D01*
X184111000Y-98476000D02*
X184111000Y-100777240D01*
X187084000Y-83871000D02*
X187084000Y-83998000D01*
X187084000Y-83998000D02*
X187401500Y-84315500D01*
X187401500Y-84315500D02*
X187401500Y-95491500D01*
X187401500Y-95491500D02*
X187111000Y-95782000D01*
X187111000Y-95782000D02*
X187111000Y-98476000D01*
X187111000Y-100777240D02*
X187111000Y-98476000D01*
X188111000Y-100777240D02*
X188111000Y-98476000D01*
X187719000Y-95555000D02*
X187719000Y-84252000D01*
X187973000Y-83871000D02*
X187973000Y-83998000D01*
X187973000Y-83998000D02*
X187719000Y-84252000D01*
X188111000Y-95947000D02*
X187719000Y-95555000D01*
X188111000Y-98476000D02*
X188111000Y-95947000D01*
X191111000Y-100777240D02*
X191111000Y-98476000D01*
X191021000Y-83871000D02*
X191338500Y-84188500D01*
X191338500Y-84188500D02*
X191338500Y-95581500D01*
X191338500Y-95581500D02*
X191111000Y-95809000D01*
X191111000Y-95809000D02*
X191111000Y-98476000D01*
X192111000Y-100777240D02*
X192111000Y-98476000D01*
X191656000Y-84379000D02*
X191656000Y-84125000D01*
X191656000Y-84125000D02*
X191910000Y-83871000D01*
X191656000Y-95428000D02*
X191656000Y-84379000D01*
X192111000Y-95883000D02*
X191656000Y-95428000D01*
X192111000Y-98476000D02*
X192111000Y-95883000D01*
X195529500Y-84252000D02*
X195529500Y-95364500D01*
X195529500Y-95364500D02*
X195111000Y-95783000D01*
X195466000Y-84188500D02*
X195529500Y-84252000D01*
X195466000Y-84125000D02*
X195466000Y-84188500D01*
X195111000Y-100777240D02*
X195111000Y-98476000D01*
X195212000Y-83871000D02*
X195466000Y-84125000D01*
X195111000Y-95783000D02*
X195111000Y-98476000D01*
X196111000Y-100777240D02*
X196111000Y-98476000D01*
X195847000Y-95555000D02*
X195847000Y-84379000D01*
X195847000Y-84379000D02*
X195847000Y-84252000D01*
X195847000Y-84125000D02*
X195847000Y-84379000D01*
X196101000Y-83871000D02*
X195847000Y-84125000D01*
X196111000Y-95819000D02*
X195847000Y-95555000D01*
X196111000Y-98476000D02*
X196111000Y-95819000D01*
X153111000Y-79725620D02*
X153111000Y-77424380D01*
X153111000Y-79725620D02*
X153111000Y-82156000D01*
X153111000Y-82156000D02*
X153429000Y-82474000D01*
X153429000Y-82474000D02*
X153429000Y-93650000D01*
X153429000Y-93650000D02*
X153175000Y-93904000D01*
X154064000Y-93904000D02*
X153746500Y-93586500D01*
X153746500Y-93586500D02*
X153746500Y-82584500D01*
X153746500Y-82584500D02*
X154111000Y-82220000D01*
X154111000Y-82220000D02*
X154111000Y-79725620D01*
X154111000Y-79725620D02*
X154111000Y-77424380D01*
X155111000Y-79725620D02*
X155111000Y-82124000D01*
X155111000Y-82124000D02*
X155524500Y-82537500D01*
X155524500Y-82537500D02*
X155524500Y-84315500D01*
X155524500Y-84315500D02*
X155651500Y-84442500D01*
X155651500Y-84442500D02*
X155651500Y-93459500D01*
X155651500Y-93459500D02*
X155461000Y-93650000D01*
X155461000Y-93650000D02*
X155207000Y-93904000D01*
X155111000Y-79725620D02*
X155111000Y-77424380D01*
X156096000Y-93904000D02*
X156096000Y-93523000D01*
X156096000Y-93523000D02*
X155969000Y-93396000D01*
X155969000Y-93396000D02*
X155969000Y-84252000D01*
X155969000Y-84252000D02*
X155842000Y-84125000D01*
X155842000Y-84125000D02*
X155842000Y-82601000D01*
X155842000Y-82601000D02*
X156111000Y-82332000D01*
X156111000Y-82332000D02*
X156111000Y-82093000D01*
X156111000Y-82093000D02*
X156111000Y-79725620D01*
X156111000Y-77424380D02*
X156111000Y-79725620D01*
X163081000Y-93904000D02*
X163081000Y-93713500D01*
X163111000Y-82220000D02*
X163111000Y-79725620D01*
X163081000Y-93713500D02*
X163208000Y-93586500D01*
X163208000Y-93586500D02*
X163208000Y-82317000D01*
X163208000Y-82317000D02*
X163111000Y-82220000D01*
X163111000Y-79725620D02*
X163111000Y-77424380D01*
X163970000Y-93904000D02*
X163525500Y-93459500D01*
X163525500Y-93459500D02*
X163525500Y-82791500D01*
X163525500Y-82791500D02*
X164111000Y-82206000D01*
X164111000Y-82206000D02*
X164111000Y-79725620D01*
X164111000Y-79725620D02*
X164111000Y-77424380D01*
X166256000Y-82347000D02*
X166111000Y-82202000D01*
X166256000Y-93904000D02*
X166256000Y-82347000D01*
X166111000Y-79725620D02*
X166111000Y-77424380D01*
X166111000Y-82202000D02*
X166111000Y-79725620D01*
X167145000Y-93904000D02*
X166573500Y-93332500D01*
X166573500Y-93332500D02*
X166573500Y-82757500D01*
X166573500Y-82757500D02*
X167111000Y-82220000D01*
X167111000Y-82220000D02*
X167111000Y-79725620D01*
X167111000Y-79725620D02*
X167111000Y-77424380D01*
X168542000Y-93523000D02*
X168542000Y-93459500D01*
X168542000Y-93459500D02*
X168669000Y-93332500D01*
X168669000Y-93332500D02*
X168669000Y-89713000D01*
X168669000Y-89713000D02*
X168796000Y-89586000D01*
X168288000Y-86538000D02*
X168288000Y-85395000D01*
X168288000Y-85395000D02*
X168669000Y-85014000D01*
X168796000Y-89586000D02*
X168796000Y-88570000D01*
X168669000Y-83236000D02*
X169111000Y-82794000D01*
X168796000Y-88570000D02*
X168669000Y-88443000D01*
X168669000Y-85014000D02*
X168669000Y-83236000D01*
X168669000Y-88443000D02*
X168669000Y-86919000D01*
X168669000Y-86919000D02*
X168288000Y-86538000D01*
X169111000Y-82794000D02*
X169111000Y-79725620D01*
X169111000Y-79725620D02*
X169111000Y-77424380D01*
X168542000Y-93523000D02*
X168542000Y-93650000D01*
X168542000Y-93904000D02*
X168542000Y-93523000D01*
X171111000Y-79725620D02*
X171111000Y-77424380D01*
X171111000Y-79725620D02*
X171111000Y-82249000D01*
X171111000Y-82249000D02*
X171463000Y-82601000D01*
X171463000Y-82601000D02*
X171463000Y-93650000D01*
X171463000Y-93650000D02*
X171209000Y-93904000D01*
X172098000Y-93904000D02*
X171780500Y-93586500D01*
X171780500Y-93586500D02*
X171780500Y-82537500D01*
X171780500Y-82537500D02*
X172111000Y-82207000D01*
X172111000Y-82207000D02*
X172111000Y-79725620D01*
X172111000Y-79725620D02*
X172111000Y-77424380D01*
X175111000Y-79725620D02*
X175111000Y-77424380D01*
X175146000Y-93904000D02*
X175527000Y-93523000D01*
X175527000Y-93523000D02*
X175527000Y-82636000D01*
X175527000Y-82636000D02*
X175111000Y-82220000D01*
X175111000Y-82220000D02*
X175111000Y-79725620D01*
X176035000Y-93904000D02*
X175908000Y-93777000D01*
X175908000Y-93777000D02*
X175908000Y-93459500D01*
X175908000Y-93459500D02*
X175844500Y-93396000D01*
X175844500Y-93396000D02*
X175844500Y-82410500D01*
X175844500Y-82410500D02*
X176111000Y-82144000D01*
X176111000Y-82144000D02*
X176111000Y-79725620D01*
X176111000Y-79725620D02*
X176111000Y-77424380D01*
X179337000Y-82474000D02*
X179111000Y-82248000D01*
X179210000Y-93713500D02*
X179337000Y-93586500D01*
X179337000Y-93586500D02*
X179337000Y-82474000D01*
X179210000Y-93904000D02*
X179210000Y-93713500D01*
X179111000Y-79725620D02*
X179111000Y-77424380D01*
X179111000Y-82248000D02*
X179111000Y-79725620D01*
X179972000Y-93904000D02*
X179972000Y-93650000D01*
X179972000Y-93650000D02*
X179654500Y-93332500D01*
X179654500Y-93332500D02*
X179654500Y-82676500D01*
X179654500Y-82676500D02*
X180111000Y-82220000D01*
X180111000Y-82220000D02*
X180111000Y-79725620D01*
X180111000Y-79725620D02*
X180111000Y-77424380D01*
X181813500Y-89649500D02*
X181813500Y-93586500D01*
X181813500Y-93586500D02*
X182131000Y-93904000D01*
X182004000Y-89459000D02*
X181813500Y-89649500D01*
X182004000Y-88824000D02*
X182004000Y-89459000D01*
X181750000Y-88570000D02*
X182004000Y-88824000D01*
X181750000Y-87808000D02*
X181750000Y-88570000D01*
X182131000Y-87427000D02*
X181750000Y-87808000D01*
X182131000Y-86919000D02*
X182131000Y-87427000D01*
X181877000Y-86665000D02*
X182131000Y-86919000D01*
X181877000Y-85712500D02*
X181877000Y-86665000D01*
X182131000Y-85458500D02*
X181877000Y-85712500D01*
X182131000Y-84379000D02*
X182131000Y-85458500D01*
X182258000Y-84252000D02*
X182131000Y-84379000D01*
X182321500Y-82410500D02*
X182321500Y-84252000D01*
X182321500Y-84252000D02*
X182258000Y-84252000D01*
X182111000Y-79725620D02*
X182111000Y-82200000D01*
X182111000Y-82200000D02*
X182321500Y-82410500D01*
X182111000Y-79725620D02*
X182111000Y-77424380D01*
X183111000Y-79725620D02*
X183111000Y-82220000D01*
X183111000Y-82220000D02*
X182702500Y-82628500D01*
X183147000Y-94475500D02*
X182956500Y-94666000D01*
X182702500Y-82628500D02*
X182702500Y-84252000D01*
X182702500Y-84252000D02*
X183147000Y-84696500D01*
X183147000Y-84696500D02*
X183147000Y-94475500D01*
X183111000Y-79725620D02*
X183111000Y-77424380D01*
X185496500Y-93523000D02*
X185496500Y-82537500D01*
X185496500Y-82537500D02*
X185111000Y-82152000D01*
X185433000Y-93586500D02*
X185496500Y-93523000D01*
X185433000Y-93650000D02*
X185433000Y-93586500D01*
X185111000Y-79725620D02*
X185111000Y-77424380D01*
X185179000Y-93904000D02*
X185433000Y-93650000D01*
X185111000Y-79725620D02*
X185111000Y-82152000D01*
X186111000Y-79725620D02*
X186111000Y-77424380D01*
X185814000Y-82474000D02*
X185814000Y-93650000D01*
X186068000Y-93904000D02*
X185814000Y-93650000D01*
X186111000Y-82177000D02*
X185814000Y-82474000D01*
X186111000Y-79725620D02*
X186111000Y-82177000D01*
X189111000Y-79725620D02*
X189111000Y-77424380D01*
X189243000Y-93904000D02*
X189497000Y-93650000D01*
X189497000Y-93650000D02*
X189497000Y-82601000D01*
X189497000Y-82601000D02*
X189111000Y-82215000D01*
X189111000Y-82215000D02*
X189111000Y-79725620D01*
X189814500Y-93523000D02*
X189814500Y-82537500D01*
X189814500Y-82537500D02*
X190111000Y-82241000D01*
X190005000Y-93713500D02*
X189814500Y-93523000D01*
X190005000Y-93904000D02*
X190005000Y-93713500D01*
X190111000Y-79725620D02*
X190111000Y-77424380D01*
X190111000Y-79725620D02*
X190111000Y-82241000D01*
X193111000Y-79725620D02*
X193111000Y-77424380D01*
X193434000Y-93650000D02*
X193180000Y-93904000D01*
X193434000Y-82728000D02*
X193434000Y-93650000D01*
X193111000Y-82405000D02*
X193434000Y-82728000D01*
X193111000Y-79725620D02*
X193111000Y-82405000D01*
X193751500Y-93523000D02*
X193751500Y-82664500D01*
X193751500Y-82664500D02*
X194111000Y-82305000D01*
X193942000Y-93713500D02*
X193751500Y-93523000D01*
X193942000Y-93904000D02*
X193942000Y-93713500D01*
X194111000Y-79725620D02*
X194111000Y-77424380D01*
X194111000Y-79725620D02*
X194111000Y-82305000D01*
X197428500Y-82537500D02*
X197238000Y-82347000D01*
X197428500Y-82537500D02*
X197428500Y-93719500D01*
X197428500Y-93719500D02*
X197244000Y-93904000D01*
X197111000Y-79725620D02*
X197111000Y-77424380D01*
X197365000Y-82474000D02*
X197238000Y-82347000D01*
X197238000Y-82347000D02*
X197111000Y-82220000D01*
X197371000Y-93777000D02*
X197244000Y-93904000D01*
X197371000Y-82474000D02*
X197365000Y-82474000D01*
X197111000Y-82220000D02*
X197111000Y-79725620D01*
X198006000Y-93904000D02*
X197752000Y-93650000D01*
X197752000Y-93650000D02*
X197752000Y-82474000D01*
X197752000Y-82474000D02*
X198111000Y-82115000D01*
X198111000Y-82115000D02*
X198111000Y-79725620D01*
X198111000Y-79725620D02*
X198111000Y-77424380D01*
G36*
X199471400Y-88496346D02*
X199291326Y-88946531D01*
X199281983Y-88996688D01*
X199271420Y-89046603D01*
X199272053Y-89050000D01*
X199271420Y-89053397D01*
X199281983Y-89103312D01*
X199291326Y-89153469D01*
X199471400Y-89603654D01*
X199471400Y-95732800D01*
X198415800Y-95732800D01*
X198415800Y-95576252D01*
X199174026Y-94818026D01*
X199240098Y-94719142D01*
X199263300Y-94602500D01*
X199263300Y-89713000D01*
X199240098Y-89596358D01*
X199174026Y-89497474D01*
X199101077Y-89424525D01*
X199147864Y-89377819D01*
X199228508Y-89183606D01*
X199228692Y-88973316D01*
X199148387Y-88778963D01*
X199072800Y-88703244D01*
X199072800Y-88315252D01*
X199174026Y-88214026D01*
X199224691Y-88138200D01*
X199240098Y-88115142D01*
X199263300Y-87998500D01*
X199263300Y-84887000D01*
X199240098Y-84770358D01*
X199174026Y-84671474D01*
X199072800Y-84570248D01*
X199072800Y-84313634D01*
X199215864Y-84170819D01*
X199296508Y-83976606D01*
X199296692Y-83766316D01*
X199216387Y-83571963D01*
X199067819Y-83423136D01*
X198873606Y-83342492D01*
X198663316Y-83342308D01*
X198468963Y-83422613D01*
X198320136Y-83571181D01*
X198239492Y-83765394D01*
X198239308Y-83975684D01*
X198319613Y-84170037D01*
X198463200Y-84313874D01*
X198463200Y-84696500D01*
X198486402Y-84813142D01*
X198552474Y-84912026D01*
X198653700Y-85013252D01*
X198653700Y-87872248D01*
X198552474Y-87973474D01*
X198486402Y-88072358D01*
X198463200Y-88189000D01*
X198463200Y-88603897D01*
X198400963Y-88629613D01*
X198252136Y-88778181D01*
X198171492Y-88972394D01*
X198171308Y-89182684D01*
X198251613Y-89377037D01*
X198400181Y-89525864D01*
X198469603Y-89554691D01*
X198486402Y-89639142D01*
X198552474Y-89738026D01*
X198653700Y-89839252D01*
X198653700Y-94476248D01*
X197895474Y-95234474D01*
X197829402Y-95333358D01*
X197806200Y-95450000D01*
X197806200Y-95732800D01*
X196398653Y-95732800D01*
X196392598Y-95702358D01*
X196326526Y-95603474D01*
X196151800Y-95428748D01*
X196151800Y-84399645D01*
X196205684Y-84399692D01*
X196400037Y-84319387D01*
X196548864Y-84170819D01*
X196629508Y-83976606D01*
X196629692Y-83766316D01*
X196549387Y-83571963D01*
X196400819Y-83423136D01*
X196206606Y-83342492D01*
X195996316Y-83342308D01*
X195801963Y-83422613D01*
X195656377Y-83567946D01*
X195511819Y-83423136D01*
X195317606Y-83342492D01*
X195107316Y-83342308D01*
X194912963Y-83422613D01*
X194764136Y-83571181D01*
X194683492Y-83765394D01*
X194683308Y-83975684D01*
X194763613Y-84170037D01*
X194912181Y-84318864D01*
X195106394Y-84399508D01*
X195224700Y-84399612D01*
X195224700Y-95238248D01*
X194895474Y-95567474D01*
X194829402Y-95666358D01*
X194816186Y-95732800D01*
X192370175Y-95732800D01*
X192326526Y-95667474D01*
X191960800Y-95301748D01*
X191960800Y-84399645D01*
X192014684Y-84399692D01*
X192209037Y-84319387D01*
X192357864Y-84170819D01*
X192438508Y-83976606D01*
X192438692Y-83766316D01*
X192358387Y-83571963D01*
X192209819Y-83423136D01*
X192015606Y-83342492D01*
X191805316Y-83342308D01*
X191610963Y-83422613D01*
X191465377Y-83567946D01*
X191320819Y-83423136D01*
X191126606Y-83342492D01*
X190916316Y-83342308D01*
X190721963Y-83422613D01*
X190573136Y-83571181D01*
X190492492Y-83765394D01*
X190492308Y-83975684D01*
X190572613Y-84170037D01*
X190721181Y-84318864D01*
X190915394Y-84399508D01*
X191033700Y-84399612D01*
X191033700Y-95455248D01*
X190895474Y-95593474D01*
X190829402Y-95692358D01*
X190821357Y-95732800D01*
X188327412Y-95732800D01*
X188326526Y-95731474D01*
X188023800Y-95428748D01*
X188023800Y-84399645D01*
X188077684Y-84399692D01*
X188272037Y-84319387D01*
X188420864Y-84170819D01*
X188501508Y-83976606D01*
X188501692Y-83766316D01*
X188421387Y-83571963D01*
X188272819Y-83423136D01*
X188078606Y-83342492D01*
X187868316Y-83342308D01*
X187673963Y-83422613D01*
X187528377Y-83567946D01*
X187383819Y-83423136D01*
X187189606Y-83342492D01*
X186979316Y-83342308D01*
X186784963Y-83422613D01*
X186636136Y-83571181D01*
X186555492Y-83765394D01*
X186555308Y-83975684D01*
X186635613Y-84170037D01*
X186784181Y-84318864D01*
X186978394Y-84399508D01*
X187054523Y-84399575D01*
X187096700Y-84441752D01*
X187096700Y-95365248D01*
X186895474Y-95566474D01*
X186829402Y-95665358D01*
X186815987Y-95732800D01*
X184415800Y-95732800D01*
X184415800Y-84399599D01*
X184521684Y-84399692D01*
X184716037Y-84319387D01*
X184864864Y-84170819D01*
X184945508Y-83976606D01*
X184945692Y-83766316D01*
X184865387Y-83571963D01*
X184716819Y-83423136D01*
X184522606Y-83342492D01*
X184312316Y-83342308D01*
X184117963Y-83422613D01*
X184004182Y-83536196D01*
X183891319Y-83423136D01*
X183697106Y-83342492D01*
X183486816Y-83342308D01*
X183292463Y-83422613D01*
X183143636Y-83571181D01*
X183062992Y-83765394D01*
X183062808Y-83975684D01*
X183143113Y-84170037D01*
X183291681Y-84318864D01*
X183477200Y-84395898D01*
X183477200Y-95174748D01*
X182919148Y-95732800D01*
X181356300Y-95732800D01*
X181356300Y-95363752D01*
X181711526Y-95008526D01*
X181777598Y-94909642D01*
X181800800Y-94793000D01*
X181800800Y-94321430D01*
X181831181Y-94351864D01*
X182025394Y-94432508D01*
X182235684Y-94432692D01*
X182430037Y-94352387D01*
X182578864Y-94203819D01*
X182659508Y-94009606D01*
X182659692Y-93799316D01*
X182579387Y-93604963D01*
X182430819Y-93456136D01*
X182236606Y-93375492D01*
X182118300Y-93375388D01*
X182118300Y-89775752D01*
X182219526Y-89674526D01*
X182243169Y-89639142D01*
X182285598Y-89575642D01*
X182308800Y-89459000D01*
X182308800Y-88824000D01*
X182285598Y-88707358D01*
X182219526Y-88608474D01*
X182054800Y-88443748D01*
X182054800Y-87934252D01*
X182346526Y-87642526D01*
X182412598Y-87543642D01*
X182435800Y-87427000D01*
X182435800Y-86919000D01*
X182412598Y-86802358D01*
X182346526Y-86703474D01*
X182181800Y-86538748D01*
X182181800Y-85838752D01*
X182346526Y-85674026D01*
X182412598Y-85575142D01*
X182435800Y-85458500D01*
X182435800Y-84534064D01*
X182438142Y-84533598D01*
X182507022Y-84487574D01*
X182842200Y-84822752D01*
X182842200Y-94137355D01*
X182788316Y-94137308D01*
X182593963Y-94217613D01*
X182445136Y-94366181D01*
X182364492Y-94560394D01*
X182364308Y-94770684D01*
X182444613Y-94965037D01*
X182593181Y-95113864D01*
X182787394Y-95194508D01*
X182997684Y-95194692D01*
X183192037Y-95114387D01*
X183340864Y-94965819D01*
X183421508Y-94771606D01*
X183421656Y-94602532D01*
X183428598Y-94592142D01*
X183451800Y-94475500D01*
X183451800Y-84696500D01*
X183428598Y-84579858D01*
X183362526Y-84480974D01*
X183007300Y-84125748D01*
X183007300Y-82754752D01*
X183326526Y-82435526D01*
X183333905Y-82424482D01*
X184952303Y-82424355D01*
X185191700Y-82663752D01*
X185191700Y-93375411D01*
X185074316Y-93375308D01*
X184879963Y-93455613D01*
X184731136Y-93604181D01*
X184650492Y-93798394D01*
X184650308Y-94008684D01*
X184730613Y-94203037D01*
X184879181Y-94351864D01*
X185073394Y-94432508D01*
X185283684Y-94432692D01*
X185478037Y-94352387D01*
X185623623Y-94207054D01*
X185768181Y-94351864D01*
X185962394Y-94432508D01*
X186172684Y-94432692D01*
X186367037Y-94352387D01*
X186515864Y-94203819D01*
X186596508Y-94009606D01*
X186596692Y-93799316D01*
X186516387Y-93604963D01*
X186367819Y-93456136D01*
X186173606Y-93375492D01*
X186118800Y-93375444D01*
X186118800Y-82600252D01*
X186294803Y-82424249D01*
X188891143Y-82424044D01*
X188895474Y-82430526D01*
X189192200Y-82727252D01*
X189192200Y-93375355D01*
X189138316Y-93375308D01*
X188943963Y-93455613D01*
X188795136Y-93604181D01*
X188714492Y-93798394D01*
X188714308Y-94008684D01*
X188794613Y-94203037D01*
X188943181Y-94351864D01*
X189137394Y-94432508D01*
X189347684Y-94432692D01*
X189542037Y-94352387D01*
X189624013Y-94270554D01*
X189705181Y-94351864D01*
X189899394Y-94432508D01*
X190109684Y-94432692D01*
X190304037Y-94352387D01*
X190452864Y-94203819D01*
X190533508Y-94009606D01*
X190533692Y-93799316D01*
X190453387Y-93604963D01*
X190304819Y-93456136D01*
X190119300Y-93379102D01*
X190119300Y-82663752D01*
X190326526Y-82456526D01*
X190348306Y-82423929D01*
X192809927Y-82423735D01*
X192829402Y-82521642D01*
X192895474Y-82620526D01*
X193129200Y-82854252D01*
X193129200Y-93375355D01*
X193075316Y-93375308D01*
X192880963Y-93455613D01*
X192732136Y-93604181D01*
X192651492Y-93798394D01*
X192651308Y-94008684D01*
X192731613Y-94203037D01*
X192880181Y-94351864D01*
X193074394Y-94432508D01*
X193284684Y-94432692D01*
X193479037Y-94352387D01*
X193561013Y-94270554D01*
X193642181Y-94351864D01*
X193836394Y-94432508D01*
X194046684Y-94432692D01*
X194241037Y-94352387D01*
X194389864Y-94203819D01*
X194470508Y-94009606D01*
X194470692Y-93799316D01*
X194390387Y-93604963D01*
X194241819Y-93456136D01*
X194056300Y-93379102D01*
X194056300Y-82790752D01*
X194326526Y-82520526D01*
X194332318Y-82511858D01*
X194391283Y-82423610D01*
X196887381Y-82423413D01*
X196895474Y-82435526D01*
X197123700Y-82663752D01*
X197123700Y-93381760D01*
X196944963Y-93455613D01*
X196796136Y-93604181D01*
X196715492Y-93798394D01*
X196715308Y-94008684D01*
X196795613Y-94203037D01*
X196944181Y-94351864D01*
X197138394Y-94432508D01*
X197348684Y-94432692D01*
X197543037Y-94352387D01*
X197625013Y-94270554D01*
X197706181Y-94351864D01*
X197900394Y-94432508D01*
X198110684Y-94432692D01*
X198305037Y-94352387D01*
X198453864Y-94203819D01*
X198534508Y-94009606D01*
X198534692Y-93799316D01*
X198454387Y-93604963D01*
X198305819Y-93456136D01*
X198111606Y-93375492D01*
X198056800Y-93375444D01*
X198056800Y-82600252D01*
X198233745Y-82423307D01*
X199471400Y-82423210D01*
X199471400Y-88496346D01*
X199471400Y-88496346D01*
G37*
X199471400Y-88496346D02*
X199291326Y-88946531D01*
X199281983Y-88996688D01*
X199271420Y-89046603D01*
X199272053Y-89050000D01*
X199271420Y-89053397D01*
X199281983Y-89103312D01*
X199291326Y-89153469D01*
X199471400Y-89603654D01*
X199471400Y-95732800D01*
X198415800Y-95732800D01*
X198415800Y-95576252D01*
X199174026Y-94818026D01*
X199240098Y-94719142D01*
X199263300Y-94602500D01*
X199263300Y-89713000D01*
X199240098Y-89596358D01*
X199174026Y-89497474D01*
X199101077Y-89424525D01*
X199147864Y-89377819D01*
X199228508Y-89183606D01*
X199228692Y-88973316D01*
X199148387Y-88778963D01*
X199072800Y-88703244D01*
X199072800Y-88315252D01*
X199174026Y-88214026D01*
X199224691Y-88138200D01*
X199240098Y-88115142D01*
X199263300Y-87998500D01*
X199263300Y-84887000D01*
X199240098Y-84770358D01*
X199174026Y-84671474D01*
X199072800Y-84570248D01*
X199072800Y-84313634D01*
X199215864Y-84170819D01*
X199296508Y-83976606D01*
X199296692Y-83766316D01*
X199216387Y-83571963D01*
X199067819Y-83423136D01*
X198873606Y-83342492D01*
X198663316Y-83342308D01*
X198468963Y-83422613D01*
X198320136Y-83571181D01*
X198239492Y-83765394D01*
X198239308Y-83975684D01*
X198319613Y-84170037D01*
X198463200Y-84313874D01*
X198463200Y-84696500D01*
X198486402Y-84813142D01*
X198552474Y-84912026D01*
X198653700Y-85013252D01*
X198653700Y-87872248D01*
X198552474Y-87973474D01*
X198486402Y-88072358D01*
X198463200Y-88189000D01*
X198463200Y-88603897D01*
X198400963Y-88629613D01*
X198252136Y-88778181D01*
X198171492Y-88972394D01*
X198171308Y-89182684D01*
X198251613Y-89377037D01*
X198400181Y-89525864D01*
X198469603Y-89554691D01*
X198486402Y-89639142D01*
X198552474Y-89738026D01*
X198653700Y-89839252D01*
X198653700Y-94476248D01*
X197895474Y-95234474D01*
X197829402Y-95333358D01*
X197806200Y-95450000D01*
X197806200Y-95732800D01*
X196398653Y-95732800D01*
X196392598Y-95702358D01*
X196326526Y-95603474D01*
X196151800Y-95428748D01*
X196151800Y-84399645D01*
X196205684Y-84399692D01*
X196400037Y-84319387D01*
X196548864Y-84170819D01*
X196629508Y-83976606D01*
X196629692Y-83766316D01*
X196549387Y-83571963D01*
X196400819Y-83423136D01*
X196206606Y-83342492D01*
X195996316Y-83342308D01*
X195801963Y-83422613D01*
X195656377Y-83567946D01*
X195511819Y-83423136D01*
X195317606Y-83342492D01*
X195107316Y-83342308D01*
X194912963Y-83422613D01*
X194764136Y-83571181D01*
X194683492Y-83765394D01*
X194683308Y-83975684D01*
X194763613Y-84170037D01*
X194912181Y-84318864D01*
X195106394Y-84399508D01*
X195224700Y-84399612D01*
X195224700Y-95238248D01*
X194895474Y-95567474D01*
X194829402Y-95666358D01*
X194816186Y-95732800D01*
X192370175Y-95732800D01*
X192326526Y-95667474D01*
X191960800Y-95301748D01*
X191960800Y-84399645D01*
X192014684Y-84399692D01*
X192209037Y-84319387D01*
X192357864Y-84170819D01*
X192438508Y-83976606D01*
X192438692Y-83766316D01*
X192358387Y-83571963D01*
X192209819Y-83423136D01*
X192015606Y-83342492D01*
X191805316Y-83342308D01*
X191610963Y-83422613D01*
X191465377Y-83567946D01*
X191320819Y-83423136D01*
X191126606Y-83342492D01*
X190916316Y-83342308D01*
X190721963Y-83422613D01*
X190573136Y-83571181D01*
X190492492Y-83765394D01*
X190492308Y-83975684D01*
X190572613Y-84170037D01*
X190721181Y-84318864D01*
X190915394Y-84399508D01*
X191033700Y-84399612D01*
X191033700Y-95455248D01*
X190895474Y-95593474D01*
X190829402Y-95692358D01*
X190821357Y-95732800D01*
X188327412Y-95732800D01*
X188326526Y-95731474D01*
X188023800Y-95428748D01*
X188023800Y-84399645D01*
X188077684Y-84399692D01*
X188272037Y-84319387D01*
X188420864Y-84170819D01*
X188501508Y-83976606D01*
X188501692Y-83766316D01*
X188421387Y-83571963D01*
X188272819Y-83423136D01*
X188078606Y-83342492D01*
X187868316Y-83342308D01*
X187673963Y-83422613D01*
X187528377Y-83567946D01*
X187383819Y-83423136D01*
X187189606Y-83342492D01*
X186979316Y-83342308D01*
X186784963Y-83422613D01*
X186636136Y-83571181D01*
X186555492Y-83765394D01*
X186555308Y-83975684D01*
X186635613Y-84170037D01*
X186784181Y-84318864D01*
X186978394Y-84399508D01*
X187054523Y-84399575D01*
X187096700Y-84441752D01*
X187096700Y-95365248D01*
X186895474Y-95566474D01*
X186829402Y-95665358D01*
X186815987Y-95732800D01*
X184415800Y-95732800D01*
X184415800Y-84399599D01*
X184521684Y-84399692D01*
X184716037Y-84319387D01*
X184864864Y-84170819D01*
X184945508Y-83976606D01*
X184945692Y-83766316D01*
X184865387Y-83571963D01*
X184716819Y-83423136D01*
X184522606Y-83342492D01*
X184312316Y-83342308D01*
X184117963Y-83422613D01*
X184004182Y-83536196D01*
X183891319Y-83423136D01*
X183697106Y-83342492D01*
X183486816Y-83342308D01*
X183292463Y-83422613D01*
X183143636Y-83571181D01*
X183062992Y-83765394D01*
X183062808Y-83975684D01*
X183143113Y-84170037D01*
X183291681Y-84318864D01*
X183477200Y-84395898D01*
X183477200Y-95174748D01*
X182919148Y-95732800D01*
X181356300Y-95732800D01*
X181356300Y-95363752D01*
X181711526Y-95008526D01*
X181777598Y-94909642D01*
X181800800Y-94793000D01*
X181800800Y-94321430D01*
X181831181Y-94351864D01*
X182025394Y-94432508D01*
X182235684Y-94432692D01*
X182430037Y-94352387D01*
X182578864Y-94203819D01*
X182659508Y-94009606D01*
X182659692Y-93799316D01*
X182579387Y-93604963D01*
X182430819Y-93456136D01*
X182236606Y-93375492D01*
X182118300Y-93375388D01*
X182118300Y-89775752D01*
X182219526Y-89674526D01*
X182243169Y-89639142D01*
X182285598Y-89575642D01*
X182308800Y-89459000D01*
X182308800Y-88824000D01*
X182285598Y-88707358D01*
X182219526Y-88608474D01*
X182054800Y-88443748D01*
X182054800Y-87934252D01*
X182346526Y-87642526D01*
X182412598Y-87543642D01*
X182435800Y-87427000D01*
X182435800Y-86919000D01*
X182412598Y-86802358D01*
X182346526Y-86703474D01*
X182181800Y-86538748D01*
X182181800Y-85838752D01*
X182346526Y-85674026D01*
X182412598Y-85575142D01*
X182435800Y-85458500D01*
X182435800Y-84534064D01*
X182438142Y-84533598D01*
X182507022Y-84487574D01*
X182842200Y-84822752D01*
X182842200Y-94137355D01*
X182788316Y-94137308D01*
X182593963Y-94217613D01*
X182445136Y-94366181D01*
X182364492Y-94560394D01*
X182364308Y-94770684D01*
X182444613Y-94965037D01*
X182593181Y-95113864D01*
X182787394Y-95194508D01*
X182997684Y-95194692D01*
X183192037Y-95114387D01*
X183340864Y-94965819D01*
X183421508Y-94771606D01*
X183421656Y-94602532D01*
X183428598Y-94592142D01*
X183451800Y-94475500D01*
X183451800Y-84696500D01*
X183428598Y-84579858D01*
X183362526Y-84480974D01*
X183007300Y-84125748D01*
X183007300Y-82754752D01*
X183326526Y-82435526D01*
X183333905Y-82424482D01*
X184952303Y-82424355D01*
X185191700Y-82663752D01*
X185191700Y-93375411D01*
X185074316Y-93375308D01*
X184879963Y-93455613D01*
X184731136Y-93604181D01*
X184650492Y-93798394D01*
X184650308Y-94008684D01*
X184730613Y-94203037D01*
X184879181Y-94351864D01*
X185073394Y-94432508D01*
X185283684Y-94432692D01*
X185478037Y-94352387D01*
X185623623Y-94207054D01*
X185768181Y-94351864D01*
X185962394Y-94432508D01*
X186172684Y-94432692D01*
X186367037Y-94352387D01*
X186515864Y-94203819D01*
X186596508Y-94009606D01*
X186596692Y-93799316D01*
X186516387Y-93604963D01*
X186367819Y-93456136D01*
X186173606Y-93375492D01*
X186118800Y-93375444D01*
X186118800Y-82600252D01*
X186294803Y-82424249D01*
X188891143Y-82424044D01*
X188895474Y-82430526D01*
X189192200Y-82727252D01*
X189192200Y-93375355D01*
X189138316Y-93375308D01*
X188943963Y-93455613D01*
X188795136Y-93604181D01*
X188714492Y-93798394D01*
X188714308Y-94008684D01*
X188794613Y-94203037D01*
X188943181Y-94351864D01*
X189137394Y-94432508D01*
X189347684Y-94432692D01*
X189542037Y-94352387D01*
X189624013Y-94270554D01*
X189705181Y-94351864D01*
X189899394Y-94432508D01*
X190109684Y-94432692D01*
X190304037Y-94352387D01*
X190452864Y-94203819D01*
X190533508Y-94009606D01*
X190533692Y-93799316D01*
X190453387Y-93604963D01*
X190304819Y-93456136D01*
X190119300Y-93379102D01*
X190119300Y-82663752D01*
X190326526Y-82456526D01*
X190348306Y-82423929D01*
X192809927Y-82423735D01*
X192829402Y-82521642D01*
X192895474Y-82620526D01*
X193129200Y-82854252D01*
X193129200Y-93375355D01*
X193075316Y-93375308D01*
X192880963Y-93455613D01*
X192732136Y-93604181D01*
X192651492Y-93798394D01*
X192651308Y-94008684D01*
X192731613Y-94203037D01*
X192880181Y-94351864D01*
X193074394Y-94432508D01*
X193284684Y-94432692D01*
X193479037Y-94352387D01*
X193561013Y-94270554D01*
X193642181Y-94351864D01*
X193836394Y-94432508D01*
X194046684Y-94432692D01*
X194241037Y-94352387D01*
X194389864Y-94203819D01*
X194470508Y-94009606D01*
X194470692Y-93799316D01*
X194390387Y-93604963D01*
X194241819Y-93456136D01*
X194056300Y-93379102D01*
X194056300Y-82790752D01*
X194326526Y-82520526D01*
X194332318Y-82511858D01*
X194391283Y-82423610D01*
X196887381Y-82423413D01*
X196895474Y-82435526D01*
X197123700Y-82663752D01*
X197123700Y-93381760D01*
X196944963Y-93455613D01*
X196796136Y-93604181D01*
X196715492Y-93798394D01*
X196715308Y-94008684D01*
X196795613Y-94203037D01*
X196944181Y-94351864D01*
X197138394Y-94432508D01*
X197348684Y-94432692D01*
X197543037Y-94352387D01*
X197625013Y-94270554D01*
X197706181Y-94351864D01*
X197900394Y-94432508D01*
X198110684Y-94432692D01*
X198305037Y-94352387D01*
X198453864Y-94203819D01*
X198534508Y-94009606D01*
X198534692Y-93799316D01*
X198454387Y-93604963D01*
X198305819Y-93456136D01*
X198111606Y-93375492D01*
X198056800Y-93375444D01*
X198056800Y-82600252D01*
X198233745Y-82423307D01*
X199471400Y-82423210D01*
X199471400Y-88496346D01*
G36*
X182016700Y-82536752D02*
X182016700Y-83409384D01*
X181855606Y-83342492D01*
X181645316Y-83342308D01*
X181450963Y-83422613D01*
X181302136Y-83571181D01*
X181221492Y-83765394D01*
X181221314Y-83968634D01*
X181216974Y-83972974D01*
X181150902Y-84071858D01*
X181127700Y-84188500D01*
X181127700Y-84379748D01*
X180772474Y-84734974D01*
X180706402Y-84833858D01*
X180683200Y-84950500D01*
X180683200Y-87363500D01*
X180706402Y-87480142D01*
X180772474Y-87579026D01*
X181127700Y-87934252D01*
X181127700Y-88698866D01*
X180984636Y-88841681D01*
X180903992Y-89035894D01*
X180903808Y-89246184D01*
X180984113Y-89440537D01*
X181132681Y-89589364D01*
X181191200Y-89613663D01*
X181191200Y-94666748D01*
X180835974Y-95021974D01*
X180769902Y-95120858D01*
X180746700Y-95237500D01*
X180746700Y-95732800D01*
X180263352Y-95732800D01*
X180213300Y-95682748D01*
X180213300Y-95502752D01*
X181076526Y-94639526D01*
X181142598Y-94540642D01*
X181148414Y-94511402D01*
X181165800Y-94424000D01*
X181165800Y-89776500D01*
X181142598Y-89659858D01*
X181076526Y-89560974D01*
X180848300Y-89332748D01*
X180848300Y-88950252D01*
X181013026Y-88785526D01*
X181079098Y-88686642D01*
X181102300Y-88570000D01*
X181102300Y-88125500D01*
X181079098Y-88008858D01*
X181013026Y-87909974D01*
X180657800Y-87554748D01*
X180657800Y-84399645D01*
X180711684Y-84399692D01*
X180906037Y-84319387D01*
X181054864Y-84170819D01*
X181135508Y-83976606D01*
X181135692Y-83766316D01*
X181055387Y-83571963D01*
X180906819Y-83423136D01*
X180712606Y-83342492D01*
X180502316Y-83342308D01*
X180307963Y-83422613D01*
X180159136Y-83571181D01*
X180078492Y-83765394D01*
X180078308Y-83975684D01*
X180084011Y-83989487D01*
X180071402Y-84008358D01*
X180048200Y-84125000D01*
X180048200Y-87744500D01*
X180071402Y-87861142D01*
X180137474Y-87960026D01*
X180236358Y-88026098D01*
X180274666Y-88033718D01*
X180492700Y-88251752D01*
X180492700Y-88443748D01*
X180327974Y-88608474D01*
X180261902Y-88707358D01*
X180238700Y-88824000D01*
X180238700Y-89459000D01*
X180261902Y-89575642D01*
X180327974Y-89674526D01*
X180556200Y-89902752D01*
X180556200Y-94297748D01*
X179692974Y-95160974D01*
X179626902Y-95259858D01*
X179603700Y-95376500D01*
X179603700Y-95732800D01*
X178415800Y-95732800D01*
X178415800Y-95726000D01*
X178392598Y-95609358D01*
X178326526Y-95510474D01*
X178054300Y-95238248D01*
X178054300Y-84395719D01*
X178239037Y-84319387D01*
X178387864Y-84170819D01*
X178468508Y-83976606D01*
X178468692Y-83766316D01*
X178388387Y-83571963D01*
X178239819Y-83423136D01*
X178045606Y-83342492D01*
X177835316Y-83342308D01*
X177640963Y-83422613D01*
X177495377Y-83567946D01*
X177350819Y-83423136D01*
X177156606Y-83342492D01*
X176946316Y-83342308D01*
X176751963Y-83422613D01*
X176603136Y-83571181D01*
X176522492Y-83765394D01*
X176522308Y-83975684D01*
X176602613Y-84170037D01*
X176751181Y-84318864D01*
X176945394Y-84399508D01*
X177127200Y-84399667D01*
X177127200Y-95301748D01*
X176895474Y-95533474D01*
X176829402Y-95632358D01*
X176809422Y-95732800D01*
X174400643Y-95732800D01*
X174392598Y-95692358D01*
X174326526Y-95593474D01*
X174169936Y-95436884D01*
X174157598Y-95374858D01*
X174117300Y-95314548D01*
X174117300Y-84399589D01*
X174234684Y-84399692D01*
X174429037Y-84319387D01*
X174577864Y-84170819D01*
X174658508Y-83976606D01*
X174658692Y-83766316D01*
X174578387Y-83571963D01*
X174429819Y-83423136D01*
X174235606Y-83342492D01*
X174025316Y-83342308D01*
X173830963Y-83422613D01*
X173685377Y-83567946D01*
X173540819Y-83423136D01*
X173346606Y-83342492D01*
X173136316Y-83342308D01*
X172941963Y-83422613D01*
X172793136Y-83571181D01*
X172712492Y-83765394D01*
X172712308Y-83975684D01*
X172792613Y-84170037D01*
X172941181Y-84318864D01*
X173135394Y-84399508D01*
X173190200Y-84399556D01*
X173190200Y-95428748D01*
X172895474Y-95723474D01*
X172889243Y-95732800D01*
X170166852Y-95732800D01*
X170116800Y-95682748D01*
X170116800Y-84399645D01*
X170170684Y-84399692D01*
X170365037Y-84319387D01*
X170513864Y-84170819D01*
X170594508Y-83976606D01*
X170594692Y-83766316D01*
X170514387Y-83571963D01*
X170365819Y-83423136D01*
X170171606Y-83342492D01*
X169961316Y-83342308D01*
X169766963Y-83422613D01*
X169684987Y-83504446D01*
X169603819Y-83423136D01*
X169409606Y-83342492D01*
X169199316Y-83342308D01*
X169004963Y-83422613D01*
X168973800Y-83453722D01*
X168973800Y-83362252D01*
X169326526Y-83009526D01*
X169392598Y-82910642D01*
X169415800Y-82794000D01*
X169415800Y-82425580D01*
X170869375Y-82425465D01*
X170895474Y-82464526D01*
X171158200Y-82727252D01*
X171158200Y-93375355D01*
X171104316Y-93375308D01*
X170909963Y-93455613D01*
X170761136Y-93604181D01*
X170680492Y-93798394D01*
X170680308Y-94008684D01*
X170760613Y-94203037D01*
X170909181Y-94351864D01*
X171103394Y-94432508D01*
X171313684Y-94432692D01*
X171508037Y-94352387D01*
X171653623Y-94207054D01*
X171798181Y-94351864D01*
X171992394Y-94432508D01*
X172202684Y-94432692D01*
X172397037Y-94352387D01*
X172545864Y-94203819D01*
X172626508Y-94009606D01*
X172626692Y-93799316D01*
X172546387Y-93604963D01*
X172397819Y-93456136D01*
X172203606Y-93375492D01*
X172085300Y-93375388D01*
X172085300Y-82663752D01*
X172323701Y-82425351D01*
X174888540Y-82425148D01*
X174895474Y-82435526D01*
X175222200Y-82762252D01*
X175222200Y-93375466D01*
X175041316Y-93375308D01*
X174846963Y-93455613D01*
X174698136Y-93604181D01*
X174617492Y-93798394D01*
X174617308Y-94008684D01*
X174697613Y-94203037D01*
X174846181Y-94351864D01*
X175040394Y-94432508D01*
X175250684Y-94432692D01*
X175445037Y-94352387D01*
X175590623Y-94207054D01*
X175735181Y-94351864D01*
X175929394Y-94432508D01*
X176139684Y-94432692D01*
X176334037Y-94352387D01*
X176482864Y-94203819D01*
X176563508Y-94009606D01*
X176563692Y-93799316D01*
X176483387Y-93604963D01*
X176334819Y-93456136D01*
X176201085Y-93400605D01*
X176189599Y-93342859D01*
X176149300Y-93282547D01*
X176149300Y-82536752D01*
X176261012Y-82425040D01*
X178869621Y-82424834D01*
X178895474Y-82463526D01*
X179032200Y-82600252D01*
X179032200Y-93405519D01*
X178910963Y-93455613D01*
X178762136Y-93604181D01*
X178681492Y-93798394D01*
X178681308Y-94008684D01*
X178761613Y-94203037D01*
X178910181Y-94351864D01*
X179104394Y-94432508D01*
X179314684Y-94432692D01*
X179509037Y-94352387D01*
X179591013Y-94270554D01*
X179672181Y-94351864D01*
X179866394Y-94432508D01*
X180076684Y-94432692D01*
X180271037Y-94352387D01*
X180419864Y-94203819D01*
X180500508Y-94009606D01*
X180500692Y-93799316D01*
X180420387Y-93604963D01*
X180271819Y-93456136D01*
X180164714Y-93411662D01*
X179959300Y-93206248D01*
X179959300Y-82802752D01*
X180326526Y-82435526D01*
X180333747Y-82424719D01*
X181904543Y-82424595D01*
X182016700Y-82536752D01*
X182016700Y-82536752D01*
G37*
X182016700Y-82536752D02*
X182016700Y-83409384D01*
X181855606Y-83342492D01*
X181645316Y-83342308D01*
X181450963Y-83422613D01*
X181302136Y-83571181D01*
X181221492Y-83765394D01*
X181221314Y-83968634D01*
X181216974Y-83972974D01*
X181150902Y-84071858D01*
X181127700Y-84188500D01*
X181127700Y-84379748D01*
X180772474Y-84734974D01*
X180706402Y-84833858D01*
X180683200Y-84950500D01*
X180683200Y-87363500D01*
X180706402Y-87480142D01*
X180772474Y-87579026D01*
X181127700Y-87934252D01*
X181127700Y-88698866D01*
X180984636Y-88841681D01*
X180903992Y-89035894D01*
X180903808Y-89246184D01*
X180984113Y-89440537D01*
X181132681Y-89589364D01*
X181191200Y-89613663D01*
X181191200Y-94666748D01*
X180835974Y-95021974D01*
X180769902Y-95120858D01*
X180746700Y-95237500D01*
X180746700Y-95732800D01*
X180263352Y-95732800D01*
X180213300Y-95682748D01*
X180213300Y-95502752D01*
X181076526Y-94639526D01*
X181142598Y-94540642D01*
X181148414Y-94511402D01*
X181165800Y-94424000D01*
X181165800Y-89776500D01*
X181142598Y-89659858D01*
X181076526Y-89560974D01*
X180848300Y-89332748D01*
X180848300Y-88950252D01*
X181013026Y-88785526D01*
X181079098Y-88686642D01*
X181102300Y-88570000D01*
X181102300Y-88125500D01*
X181079098Y-88008858D01*
X181013026Y-87909974D01*
X180657800Y-87554748D01*
X180657800Y-84399645D01*
X180711684Y-84399692D01*
X180906037Y-84319387D01*
X181054864Y-84170819D01*
X181135508Y-83976606D01*
X181135692Y-83766316D01*
X181055387Y-83571963D01*
X180906819Y-83423136D01*
X180712606Y-83342492D01*
X180502316Y-83342308D01*
X180307963Y-83422613D01*
X180159136Y-83571181D01*
X180078492Y-83765394D01*
X180078308Y-83975684D01*
X180084011Y-83989487D01*
X180071402Y-84008358D01*
X180048200Y-84125000D01*
X180048200Y-87744500D01*
X180071402Y-87861142D01*
X180137474Y-87960026D01*
X180236358Y-88026098D01*
X180274666Y-88033718D01*
X180492700Y-88251752D01*
X180492700Y-88443748D01*
X180327974Y-88608474D01*
X180261902Y-88707358D01*
X180238700Y-88824000D01*
X180238700Y-89459000D01*
X180261902Y-89575642D01*
X180327974Y-89674526D01*
X180556200Y-89902752D01*
X180556200Y-94297748D01*
X179692974Y-95160974D01*
X179626902Y-95259858D01*
X179603700Y-95376500D01*
X179603700Y-95732800D01*
X178415800Y-95732800D01*
X178415800Y-95726000D01*
X178392598Y-95609358D01*
X178326526Y-95510474D01*
X178054300Y-95238248D01*
X178054300Y-84395719D01*
X178239037Y-84319387D01*
X178387864Y-84170819D01*
X178468508Y-83976606D01*
X178468692Y-83766316D01*
X178388387Y-83571963D01*
X178239819Y-83423136D01*
X178045606Y-83342492D01*
X177835316Y-83342308D01*
X177640963Y-83422613D01*
X177495377Y-83567946D01*
X177350819Y-83423136D01*
X177156606Y-83342492D01*
X176946316Y-83342308D01*
X176751963Y-83422613D01*
X176603136Y-83571181D01*
X176522492Y-83765394D01*
X176522308Y-83975684D01*
X176602613Y-84170037D01*
X176751181Y-84318864D01*
X176945394Y-84399508D01*
X177127200Y-84399667D01*
X177127200Y-95301748D01*
X176895474Y-95533474D01*
X176829402Y-95632358D01*
X176809422Y-95732800D01*
X174400643Y-95732800D01*
X174392598Y-95692358D01*
X174326526Y-95593474D01*
X174169936Y-95436884D01*
X174157598Y-95374858D01*
X174117300Y-95314548D01*
X174117300Y-84399589D01*
X174234684Y-84399692D01*
X174429037Y-84319387D01*
X174577864Y-84170819D01*
X174658508Y-83976606D01*
X174658692Y-83766316D01*
X174578387Y-83571963D01*
X174429819Y-83423136D01*
X174235606Y-83342492D01*
X174025316Y-83342308D01*
X173830963Y-83422613D01*
X173685377Y-83567946D01*
X173540819Y-83423136D01*
X173346606Y-83342492D01*
X173136316Y-83342308D01*
X172941963Y-83422613D01*
X172793136Y-83571181D01*
X172712492Y-83765394D01*
X172712308Y-83975684D01*
X172792613Y-84170037D01*
X172941181Y-84318864D01*
X173135394Y-84399508D01*
X173190200Y-84399556D01*
X173190200Y-95428748D01*
X172895474Y-95723474D01*
X172889243Y-95732800D01*
X170166852Y-95732800D01*
X170116800Y-95682748D01*
X170116800Y-84399645D01*
X170170684Y-84399692D01*
X170365037Y-84319387D01*
X170513864Y-84170819D01*
X170594508Y-83976606D01*
X170594692Y-83766316D01*
X170514387Y-83571963D01*
X170365819Y-83423136D01*
X170171606Y-83342492D01*
X169961316Y-83342308D01*
X169766963Y-83422613D01*
X169684987Y-83504446D01*
X169603819Y-83423136D01*
X169409606Y-83342492D01*
X169199316Y-83342308D01*
X169004963Y-83422613D01*
X168973800Y-83453722D01*
X168973800Y-83362252D01*
X169326526Y-83009526D01*
X169392598Y-82910642D01*
X169415800Y-82794000D01*
X169415800Y-82425580D01*
X170869375Y-82425465D01*
X170895474Y-82464526D01*
X171158200Y-82727252D01*
X171158200Y-93375355D01*
X171104316Y-93375308D01*
X170909963Y-93455613D01*
X170761136Y-93604181D01*
X170680492Y-93798394D01*
X170680308Y-94008684D01*
X170760613Y-94203037D01*
X170909181Y-94351864D01*
X171103394Y-94432508D01*
X171313684Y-94432692D01*
X171508037Y-94352387D01*
X171653623Y-94207054D01*
X171798181Y-94351864D01*
X171992394Y-94432508D01*
X172202684Y-94432692D01*
X172397037Y-94352387D01*
X172545864Y-94203819D01*
X172626508Y-94009606D01*
X172626692Y-93799316D01*
X172546387Y-93604963D01*
X172397819Y-93456136D01*
X172203606Y-93375492D01*
X172085300Y-93375388D01*
X172085300Y-82663752D01*
X172323701Y-82425351D01*
X174888540Y-82425148D01*
X174895474Y-82435526D01*
X175222200Y-82762252D01*
X175222200Y-93375466D01*
X175041316Y-93375308D01*
X174846963Y-93455613D01*
X174698136Y-93604181D01*
X174617492Y-93798394D01*
X174617308Y-94008684D01*
X174697613Y-94203037D01*
X174846181Y-94351864D01*
X175040394Y-94432508D01*
X175250684Y-94432692D01*
X175445037Y-94352387D01*
X175590623Y-94207054D01*
X175735181Y-94351864D01*
X175929394Y-94432508D01*
X176139684Y-94432692D01*
X176334037Y-94352387D01*
X176482864Y-94203819D01*
X176563508Y-94009606D01*
X176563692Y-93799316D01*
X176483387Y-93604963D01*
X176334819Y-93456136D01*
X176201085Y-93400605D01*
X176189599Y-93342859D01*
X176149300Y-93282547D01*
X176149300Y-82536752D01*
X176261012Y-82425040D01*
X178869621Y-82424834D01*
X178895474Y-82463526D01*
X179032200Y-82600252D01*
X179032200Y-93405519D01*
X178910963Y-93455613D01*
X178762136Y-93604181D01*
X178681492Y-93798394D01*
X178681308Y-94008684D01*
X178761613Y-94203037D01*
X178910181Y-94351864D01*
X179104394Y-94432508D01*
X179314684Y-94432692D01*
X179509037Y-94352387D01*
X179591013Y-94270554D01*
X179672181Y-94351864D01*
X179866394Y-94432508D01*
X180076684Y-94432692D01*
X180271037Y-94352387D01*
X180419864Y-94203819D01*
X180500508Y-94009606D01*
X180500692Y-93799316D01*
X180420387Y-93604963D01*
X180271819Y-93456136D01*
X180164714Y-93411662D01*
X179959300Y-93206248D01*
X179959300Y-82802752D01*
X180326526Y-82435526D01*
X180333747Y-82424719D01*
X181904543Y-82424595D01*
X182016700Y-82536752D01*
G36*
X169004181Y-84318864D02*
X169187200Y-84394860D01*
X169187200Y-95494748D01*
X168949148Y-95732800D01*
X167415800Y-95732800D01*
X167415800Y-95207252D01*
X167995526Y-94627526D01*
X168061598Y-94528642D01*
X168084800Y-94412000D01*
X168084800Y-94181708D01*
X168093613Y-94203037D01*
X168242181Y-94351864D01*
X168436394Y-94432508D01*
X168646684Y-94432692D01*
X168841037Y-94352387D01*
X168989864Y-94203819D01*
X169070508Y-94009606D01*
X169070692Y-93799316D01*
X168990387Y-93604963D01*
X168904182Y-93518608D01*
X168950598Y-93449142D01*
X168973800Y-93332500D01*
X168973800Y-89839252D01*
X169011526Y-89801526D01*
X169077598Y-89702642D01*
X169100800Y-89586000D01*
X169100800Y-88570000D01*
X169077598Y-88453358D01*
X169011526Y-88354474D01*
X168973800Y-88316748D01*
X168973800Y-86919000D01*
X168950598Y-86802358D01*
X168884526Y-86703474D01*
X168592800Y-86411748D01*
X168592800Y-85521252D01*
X168884526Y-85229526D01*
X168950598Y-85130642D01*
X168973800Y-85014000D01*
X168973800Y-84288430D01*
X169004181Y-84318864D01*
X169004181Y-84318864D01*
G37*
X169004181Y-84318864D02*
X169187200Y-84394860D01*
X169187200Y-95494748D01*
X168949148Y-95732800D01*
X167415800Y-95732800D01*
X167415800Y-95207252D01*
X167995526Y-94627526D01*
X168061598Y-94528642D01*
X168084800Y-94412000D01*
X168084800Y-94181708D01*
X168093613Y-94203037D01*
X168242181Y-94351864D01*
X168436394Y-94432508D01*
X168646684Y-94432692D01*
X168841037Y-94352387D01*
X168989864Y-94203819D01*
X169070508Y-94009606D01*
X169070692Y-93799316D01*
X168990387Y-93604963D01*
X168904182Y-93518608D01*
X168950598Y-93449142D01*
X168973800Y-93332500D01*
X168973800Y-89839252D01*
X169011526Y-89801526D01*
X169077598Y-89702642D01*
X169100800Y-89586000D01*
X169100800Y-88570000D01*
X169077598Y-88453358D01*
X169011526Y-88354474D01*
X168973800Y-88316748D01*
X168973800Y-86919000D01*
X168950598Y-86802358D01*
X168884526Y-86703474D01*
X168592800Y-86411748D01*
X168592800Y-85521252D01*
X168884526Y-85229526D01*
X168950598Y-85130642D01*
X168973800Y-85014000D01*
X168973800Y-84288430D01*
X169004181Y-84318864D01*
G36*
X165951200Y-82473252D02*
X165951200Y-93461366D01*
X165808136Y-93604181D01*
X165727492Y-93798394D01*
X165727308Y-94008684D01*
X165807613Y-94203037D01*
X165956181Y-94351864D01*
X166150394Y-94432508D01*
X166360684Y-94432692D01*
X166555037Y-94352387D01*
X166700623Y-94207054D01*
X166845181Y-94351864D01*
X167039394Y-94432508D01*
X167249684Y-94432692D01*
X167383581Y-94377367D01*
X166895474Y-94865474D01*
X166829402Y-94964358D01*
X166806200Y-95081000D01*
X166806200Y-95732800D01*
X165288800Y-95732800D01*
X165288800Y-84370307D01*
X165412037Y-84319387D01*
X165560864Y-84170819D01*
X165641508Y-83976606D01*
X165641692Y-83766316D01*
X165561387Y-83571963D01*
X165412819Y-83423136D01*
X165218606Y-83342492D01*
X165008316Y-83342308D01*
X164813963Y-83422613D01*
X164731987Y-83504446D01*
X164650819Y-83423136D01*
X164456606Y-83342492D01*
X164246316Y-83342308D01*
X164051963Y-83422613D01*
X163903136Y-83571181D01*
X163830300Y-83746590D01*
X163830300Y-82917752D01*
X164322070Y-82425982D01*
X165903805Y-82425857D01*
X165951200Y-82473252D01*
X165951200Y-82473252D01*
G37*
X165951200Y-82473252D02*
X165951200Y-93461366D01*
X165808136Y-93604181D01*
X165727492Y-93798394D01*
X165727308Y-94008684D01*
X165807613Y-94203037D01*
X165956181Y-94351864D01*
X166150394Y-94432508D01*
X166360684Y-94432692D01*
X166555037Y-94352387D01*
X166700623Y-94207054D01*
X166845181Y-94351864D01*
X167039394Y-94432508D01*
X167249684Y-94432692D01*
X167383581Y-94377367D01*
X166895474Y-94865474D01*
X166829402Y-94964358D01*
X166806200Y-95081000D01*
X166806200Y-95732800D01*
X165288800Y-95732800D01*
X165288800Y-84370307D01*
X165412037Y-84319387D01*
X165560864Y-84170819D01*
X165641508Y-83976606D01*
X165641692Y-83766316D01*
X165561387Y-83571963D01*
X165412819Y-83423136D01*
X165218606Y-83342492D01*
X165008316Y-83342308D01*
X164813963Y-83422613D01*
X164731987Y-83504446D01*
X164650819Y-83423136D01*
X164456606Y-83342492D01*
X164246316Y-83342308D01*
X164051963Y-83422613D01*
X163903136Y-83571181D01*
X163830300Y-83746590D01*
X163830300Y-82917752D01*
X164322070Y-82425982D01*
X165903805Y-82425857D01*
X165951200Y-82473252D01*
G36*
X162895474Y-82435526D02*
X162903200Y-82443252D01*
X162903200Y-93405519D01*
X162781963Y-93455613D01*
X162633136Y-93604181D01*
X162552492Y-93798394D01*
X162552308Y-94008684D01*
X162632613Y-94203037D01*
X162781181Y-94351864D01*
X162975394Y-94432508D01*
X163185684Y-94432692D01*
X163380037Y-94352387D01*
X163525623Y-94207054D01*
X163670181Y-94351864D01*
X163864394Y-94432508D01*
X164074684Y-94432692D01*
X164269037Y-94352387D01*
X164363700Y-94257889D01*
X164363700Y-95365248D01*
X163996148Y-95732800D01*
X162415800Y-95732800D01*
X162415800Y-84313634D01*
X162558864Y-84170819D01*
X162639508Y-83976606D01*
X162639692Y-83766316D01*
X162559387Y-83571963D01*
X162410819Y-83423136D01*
X162216606Y-83342492D01*
X162006316Y-83342308D01*
X161828600Y-83415739D01*
X161828600Y-82426178D01*
X162889172Y-82426095D01*
X162895474Y-82435526D01*
X162895474Y-82435526D01*
G37*
X162895474Y-82435526D02*
X162903200Y-82443252D01*
X162903200Y-93405519D01*
X162781963Y-93455613D01*
X162633136Y-93604181D01*
X162552492Y-93798394D01*
X162552308Y-94008684D01*
X162632613Y-94203037D01*
X162781181Y-94351864D01*
X162975394Y-94432508D01*
X163185684Y-94432692D01*
X163380037Y-94352387D01*
X163525623Y-94207054D01*
X163670181Y-94351864D01*
X163864394Y-94432508D01*
X164074684Y-94432692D01*
X164269037Y-94352387D01*
X164363700Y-94257889D01*
X164363700Y-95365248D01*
X163996148Y-95732800D01*
X162415800Y-95732800D01*
X162415800Y-84313634D01*
X162558864Y-84170819D01*
X162639508Y-83976606D01*
X162639692Y-83766316D01*
X162559387Y-83571963D01*
X162410819Y-83423136D01*
X162216606Y-83342492D01*
X162006316Y-83342308D01*
X161828600Y-83415739D01*
X161828600Y-82426178D01*
X162889172Y-82426095D01*
X162895474Y-82435526D01*
G36*
X152948328Y-82424380D02*
X153124200Y-82600252D01*
X153124200Y-93375355D01*
X153070316Y-93375308D01*
X152875963Y-93455613D01*
X152727136Y-93604181D01*
X152646492Y-93798394D01*
X152646308Y-94008684D01*
X152726613Y-94203037D01*
X152875181Y-94351864D01*
X153069394Y-94432508D01*
X153279684Y-94432692D01*
X153474037Y-94352387D01*
X153619623Y-94207054D01*
X153764181Y-94351864D01*
X153958394Y-94432508D01*
X154168684Y-94432692D01*
X154330700Y-94365748D01*
X154330700Y-94412748D01*
X153895474Y-94847974D01*
X153829402Y-94946858D01*
X153806200Y-95063500D01*
X153806200Y-95728503D01*
X153415800Y-95728825D01*
X153415800Y-95364000D01*
X153412040Y-95345098D01*
X153392599Y-95247359D01*
X153326526Y-95148474D01*
X152209800Y-94031748D01*
X152209800Y-84759252D01*
X152374526Y-84594526D01*
X152440598Y-84495642D01*
X152463800Y-84379000D01*
X152463800Y-84313634D01*
X152606864Y-84170819D01*
X152687508Y-83976606D01*
X152687692Y-83766316D01*
X152607387Y-83571963D01*
X152458819Y-83423136D01*
X152264606Y-83342492D01*
X152054316Y-83342308D01*
X151859963Y-83422613D01*
X151711136Y-83571181D01*
X151630492Y-83765394D01*
X151630308Y-83975684D01*
X151710613Y-84170037D01*
X151823663Y-84283285D01*
X151689474Y-84417474D01*
X151623402Y-84516358D01*
X151600200Y-84633000D01*
X151600200Y-94158000D01*
X151623402Y-94274642D01*
X151689474Y-94373526D01*
X152806200Y-95490252D01*
X152806200Y-95729328D01*
X151639600Y-95730292D01*
X151639600Y-95333000D01*
X151639692Y-95228316D01*
X151559387Y-95033963D01*
X151410819Y-94885136D01*
X151334278Y-94853353D01*
X151297287Y-94828637D01*
X151290600Y-94827307D01*
X151290600Y-83201693D01*
X151297287Y-83200363D01*
X151334107Y-83175761D01*
X151410037Y-83144387D01*
X151468693Y-83085833D01*
X151468777Y-83085777D01*
X151484184Y-83070369D01*
X151558864Y-82995819D01*
X151639508Y-82801606D01*
X151639692Y-82591316D01*
X151639600Y-82591093D01*
X151639600Y-82424025D01*
X152948328Y-82424380D01*
X152948328Y-82424380D01*
G37*
X152948328Y-82424380D02*
X153124200Y-82600252D01*
X153124200Y-93375355D01*
X153070316Y-93375308D01*
X152875963Y-93455613D01*
X152727136Y-93604181D01*
X152646492Y-93798394D01*
X152646308Y-94008684D01*
X152726613Y-94203037D01*
X152875181Y-94351864D01*
X153069394Y-94432508D01*
X153279684Y-94432692D01*
X153474037Y-94352387D01*
X153619623Y-94207054D01*
X153764181Y-94351864D01*
X153958394Y-94432508D01*
X154168684Y-94432692D01*
X154330700Y-94365748D01*
X154330700Y-94412748D01*
X153895474Y-94847974D01*
X153829402Y-94946858D01*
X153806200Y-95063500D01*
X153806200Y-95728503D01*
X153415800Y-95728825D01*
X153415800Y-95364000D01*
X153412040Y-95345098D01*
X153392599Y-95247359D01*
X153326526Y-95148474D01*
X152209800Y-94031748D01*
X152209800Y-84759252D01*
X152374526Y-84594526D01*
X152440598Y-84495642D01*
X152463800Y-84379000D01*
X152463800Y-84313634D01*
X152606864Y-84170819D01*
X152687508Y-83976606D01*
X152687692Y-83766316D01*
X152607387Y-83571963D01*
X152458819Y-83423136D01*
X152264606Y-83342492D01*
X152054316Y-83342308D01*
X151859963Y-83422613D01*
X151711136Y-83571181D01*
X151630492Y-83765394D01*
X151630308Y-83975684D01*
X151710613Y-84170037D01*
X151823663Y-84283285D01*
X151689474Y-84417474D01*
X151623402Y-84516358D01*
X151600200Y-84633000D01*
X151600200Y-94158000D01*
X151623402Y-94274642D01*
X151689474Y-94373526D01*
X152806200Y-95490252D01*
X152806200Y-95729328D01*
X151639600Y-95730292D01*
X151639600Y-95333000D01*
X151639692Y-95228316D01*
X151559387Y-95033963D01*
X151410819Y-94885136D01*
X151334278Y-94853353D01*
X151297287Y-94828637D01*
X151290600Y-94827307D01*
X151290600Y-83201693D01*
X151297287Y-83200363D01*
X151334107Y-83175761D01*
X151410037Y-83144387D01*
X151468693Y-83085833D01*
X151468777Y-83085777D01*
X151484184Y-83070369D01*
X151558864Y-82995819D01*
X151639508Y-82801606D01*
X151639692Y-82591316D01*
X151639600Y-82591093D01*
X151639600Y-82424025D01*
X152948328Y-82424380D01*
G36*
X156177181Y-83175864D02*
X156274712Y-83216362D01*
X156274713Y-83216363D01*
X156274714Y-83216363D01*
X156371394Y-83256508D01*
X156476997Y-83256600D01*
X156477000Y-83256601D01*
X156477003Y-83256600D01*
X156581684Y-83256692D01*
X156584327Y-83255600D01*
X157110995Y-83255600D01*
X157111000Y-83255601D01*
X157191441Y-83239600D01*
X157218400Y-83239600D01*
X157218400Y-83395557D01*
X157090606Y-83342492D01*
X156880316Y-83342308D01*
X156685963Y-83422613D01*
X156537136Y-83571181D01*
X156456492Y-83765394D01*
X156456308Y-83975684D01*
X156536613Y-84170037D01*
X156680200Y-84313874D01*
X156680200Y-84374973D01*
X156679200Y-84380000D01*
X156702402Y-84496642D01*
X156743700Y-84558449D01*
X156743700Y-94966384D01*
X156582606Y-94899492D01*
X156372316Y-94899308D01*
X156364914Y-94902367D01*
X156350000Y-94899400D01*
X156147713Y-94939637D01*
X155976223Y-95054223D01*
X155737223Y-95293223D01*
X155622637Y-95464713D01*
X155582399Y-95667000D01*
X155582400Y-95667005D01*
X155582400Y-95727036D01*
X154415800Y-95727999D01*
X154415800Y-95189752D01*
X154851026Y-94754526D01*
X154917098Y-94655642D01*
X154940300Y-94539000D01*
X154940300Y-94365616D01*
X155101394Y-94432508D01*
X155311684Y-94432692D01*
X155506037Y-94352387D01*
X155651623Y-94207054D01*
X155796181Y-94351864D01*
X155990394Y-94432508D01*
X156200684Y-94432692D01*
X156395037Y-94352387D01*
X156543864Y-94203819D01*
X156624508Y-94009606D01*
X156624692Y-93799316D01*
X156544387Y-93604963D01*
X156395819Y-93456136D01*
X156386751Y-93452371D01*
X156377598Y-93406358D01*
X156311526Y-93307474D01*
X156273800Y-93269748D01*
X156273800Y-84252000D01*
X156250598Y-84135358D01*
X156184526Y-84036474D01*
X156146800Y-83998748D01*
X156146800Y-83145430D01*
X156177181Y-83175864D01*
X156177181Y-83175864D01*
G37*
X156177181Y-83175864D02*
X156274712Y-83216362D01*
X156274713Y-83216363D01*
X156274714Y-83216363D01*
X156371394Y-83256508D01*
X156476997Y-83256600D01*
X156477000Y-83256601D01*
X156477003Y-83256600D01*
X156581684Y-83256692D01*
X156584327Y-83255600D01*
X157110995Y-83255600D01*
X157111000Y-83255601D01*
X157191441Y-83239600D01*
X157218400Y-83239600D01*
X157218400Y-83395557D01*
X157090606Y-83342492D01*
X156880316Y-83342308D01*
X156685963Y-83422613D01*
X156537136Y-83571181D01*
X156456492Y-83765394D01*
X156456308Y-83975684D01*
X156536613Y-84170037D01*
X156680200Y-84313874D01*
X156680200Y-84374973D01*
X156679200Y-84380000D01*
X156702402Y-84496642D01*
X156743700Y-84558449D01*
X156743700Y-94966384D01*
X156582606Y-94899492D01*
X156372316Y-94899308D01*
X156364914Y-94902367D01*
X156350000Y-94899400D01*
X156147713Y-94939637D01*
X155976223Y-95054223D01*
X155737223Y-95293223D01*
X155622637Y-95464713D01*
X155582399Y-95667000D01*
X155582400Y-95667005D01*
X155582400Y-95727036D01*
X154415800Y-95727999D01*
X154415800Y-95189752D01*
X154851026Y-94754526D01*
X154917098Y-94655642D01*
X154940300Y-94539000D01*
X154940300Y-94365616D01*
X155101394Y-94432508D01*
X155311684Y-94432692D01*
X155506037Y-94352387D01*
X155651623Y-94207054D01*
X155796181Y-94351864D01*
X155990394Y-94432508D01*
X156200684Y-94432692D01*
X156395037Y-94352387D01*
X156543864Y-94203819D01*
X156624508Y-94009606D01*
X156624692Y-93799316D01*
X156544387Y-93604963D01*
X156395819Y-93456136D01*
X156386751Y-93452371D01*
X156377598Y-93406358D01*
X156311526Y-93307474D01*
X156273800Y-93269748D01*
X156273800Y-84252000D01*
X156250598Y-84135358D01*
X156184526Y-84036474D01*
X156146800Y-83998748D01*
X156146800Y-83145430D01*
X156177181Y-83175864D01*
G36*
X158662613Y-84170037D02*
X158806200Y-84313874D01*
X158806200Y-84315500D01*
X158829402Y-84432142D01*
X158895474Y-84531026D01*
X159029700Y-84665252D01*
X159029700Y-95522748D01*
X158895474Y-95656974D01*
X158850464Y-95724337D01*
X158639600Y-95724511D01*
X158639600Y-95445000D01*
X158639692Y-95340316D01*
X158559387Y-95145963D01*
X158410819Y-94997136D01*
X158360149Y-94976096D01*
X158148600Y-94764546D01*
X158148600Y-94379443D01*
X158276394Y-94432508D01*
X158486684Y-94432692D01*
X158681037Y-94352387D01*
X158829864Y-94203819D01*
X158910508Y-94009606D01*
X158910692Y-93799316D01*
X158830387Y-93604963D01*
X158681819Y-93456136D01*
X158496300Y-93379102D01*
X158496300Y-84759252D01*
X158534026Y-84721526D01*
X158600098Y-84622642D01*
X158623300Y-84506000D01*
X158623300Y-84074892D01*
X158662613Y-84170037D01*
X158662613Y-84170037D01*
G37*
X158662613Y-84170037D02*
X158806200Y-84313874D01*
X158806200Y-84315500D01*
X158829402Y-84432142D01*
X158895474Y-84531026D01*
X159029700Y-84665252D01*
X159029700Y-95522748D01*
X158895474Y-95656974D01*
X158850464Y-95724337D01*
X158639600Y-95724511D01*
X158639600Y-95445000D01*
X158639692Y-95340316D01*
X158559387Y-95145963D01*
X158410819Y-94997136D01*
X158360149Y-94976096D01*
X158148600Y-94764546D01*
X158148600Y-94379443D01*
X158276394Y-94432508D01*
X158486684Y-94432692D01*
X158681037Y-94352387D01*
X158829864Y-94203819D01*
X158910508Y-94009606D01*
X158910692Y-93799316D01*
X158830387Y-93604963D01*
X158681819Y-93456136D01*
X158496300Y-93379102D01*
X158496300Y-84759252D01*
X158534026Y-84721526D01*
X158600098Y-84622642D01*
X158623300Y-84506000D01*
X158623300Y-84074892D01*
X158662613Y-84170037D01*
G36*
X148806200Y-82423255D02*
X148806200Y-82982000D01*
X148829402Y-83098642D01*
X148895474Y-83197526D01*
X149377700Y-83679752D01*
X149377700Y-87364248D01*
X149212974Y-87528974D01*
X149146902Y-87627858D01*
X149123700Y-87744500D01*
X149123700Y-88316000D01*
X149146902Y-88432642D01*
X149212974Y-88531526D01*
X149314200Y-88632752D01*
X149314200Y-88635366D01*
X149171136Y-88778181D01*
X149090492Y-88972394D01*
X149090308Y-89182684D01*
X149170613Y-89377037D01*
X149283663Y-89490285D01*
X149149474Y-89624474D01*
X149083402Y-89723358D01*
X149060200Y-89840000D01*
X149060200Y-90411500D01*
X149083402Y-90528142D01*
X149149474Y-90627026D01*
X149314200Y-90791752D01*
X149314200Y-93461366D01*
X149171136Y-93604181D01*
X149090492Y-93798394D01*
X149090308Y-94008684D01*
X149170613Y-94203037D01*
X149319181Y-94351864D01*
X149513394Y-94432508D01*
X149723684Y-94432692D01*
X149918037Y-94352387D01*
X150066864Y-94203819D01*
X150147508Y-94009606D01*
X150147692Y-93799316D01*
X150067387Y-93604963D01*
X149923800Y-93461126D01*
X149923800Y-90665500D01*
X149900598Y-90548858D01*
X149834526Y-90449974D01*
X149669800Y-90285248D01*
X149669800Y-89966252D01*
X149835526Y-89800526D01*
X149901598Y-89701642D01*
X149907854Y-89670192D01*
X149924800Y-89585000D01*
X149924800Y-89519636D01*
X150066864Y-89377819D01*
X150147508Y-89183606D01*
X150147692Y-88973316D01*
X150067387Y-88778963D01*
X149923800Y-88635126D01*
X149923800Y-88506500D01*
X149900598Y-88389858D01*
X149834526Y-88290974D01*
X149733300Y-88189748D01*
X149733300Y-87870752D01*
X149898026Y-87706026D01*
X149964098Y-87607142D01*
X149987300Y-87490500D01*
X149987300Y-83553500D01*
X149964098Y-83436858D01*
X149898026Y-83337974D01*
X149415800Y-82855748D01*
X149415800Y-82423421D01*
X149582400Y-82423466D01*
X149582400Y-82711995D01*
X149582399Y-82712000D01*
X149622637Y-82914287D01*
X149737223Y-83085777D01*
X149908713Y-83200363D01*
X150111000Y-83240601D01*
X150191441Y-83224600D01*
X150233400Y-83224600D01*
X150233400Y-94804400D01*
X149333000Y-94804400D01*
X149130714Y-94844637D01*
X148959223Y-94959223D01*
X148959221Y-94959226D01*
X148778600Y-95139846D01*
X148778600Y-89652169D01*
X149038897Y-89218339D01*
X149052745Y-89179694D01*
X149070282Y-89142570D01*
X149070948Y-89128894D01*
X149075566Y-89116005D01*
X149073570Y-89075000D01*
X149075566Y-89033995D01*
X149070948Y-89021106D01*
X149070282Y-89007430D01*
X149052745Y-88970306D01*
X149038897Y-88931661D01*
X148778600Y-88497831D01*
X148778600Y-82423248D01*
X148806200Y-82423255D01*
X148806200Y-82423255D01*
G37*
X148806200Y-82423255D02*
X148806200Y-82982000D01*
X148829402Y-83098642D01*
X148895474Y-83197526D01*
X149377700Y-83679752D01*
X149377700Y-87364248D01*
X149212974Y-87528974D01*
X149146902Y-87627858D01*
X149123700Y-87744500D01*
X149123700Y-88316000D01*
X149146902Y-88432642D01*
X149212974Y-88531526D01*
X149314200Y-88632752D01*
X149314200Y-88635366D01*
X149171136Y-88778181D01*
X149090492Y-88972394D01*
X149090308Y-89182684D01*
X149170613Y-89377037D01*
X149283663Y-89490285D01*
X149149474Y-89624474D01*
X149083402Y-89723358D01*
X149060200Y-89840000D01*
X149060200Y-90411500D01*
X149083402Y-90528142D01*
X149149474Y-90627026D01*
X149314200Y-90791752D01*
X149314200Y-93461366D01*
X149171136Y-93604181D01*
X149090492Y-93798394D01*
X149090308Y-94008684D01*
X149170613Y-94203037D01*
X149319181Y-94351864D01*
X149513394Y-94432508D01*
X149723684Y-94432692D01*
X149918037Y-94352387D01*
X150066864Y-94203819D01*
X150147508Y-94009606D01*
X150147692Y-93799316D01*
X150067387Y-93604963D01*
X149923800Y-93461126D01*
X149923800Y-90665500D01*
X149900598Y-90548858D01*
X149834526Y-90449974D01*
X149669800Y-90285248D01*
X149669800Y-89966252D01*
X149835526Y-89800526D01*
X149901598Y-89701642D01*
X149907854Y-89670192D01*
X149924800Y-89585000D01*
X149924800Y-89519636D01*
X150066864Y-89377819D01*
X150147508Y-89183606D01*
X150147692Y-88973316D01*
X150067387Y-88778963D01*
X149923800Y-88635126D01*
X149923800Y-88506500D01*
X149900598Y-88389858D01*
X149834526Y-88290974D01*
X149733300Y-88189748D01*
X149733300Y-87870752D01*
X149898026Y-87706026D01*
X149964098Y-87607142D01*
X149987300Y-87490500D01*
X149987300Y-83553500D01*
X149964098Y-83436858D01*
X149898026Y-83337974D01*
X149415800Y-82855748D01*
X149415800Y-82423421D01*
X149582400Y-82423466D01*
X149582400Y-82711995D01*
X149582399Y-82712000D01*
X149622637Y-82914287D01*
X149737223Y-83085777D01*
X149908713Y-83200363D01*
X150111000Y-83240601D01*
X150191441Y-83224600D01*
X150233400Y-83224600D01*
X150233400Y-94804400D01*
X149333000Y-94804400D01*
X149130714Y-94844637D01*
X148959223Y-94959223D01*
X148959221Y-94959226D01*
X148778600Y-95139846D01*
X148778600Y-89652169D01*
X149038897Y-89218339D01*
X149052745Y-89179694D01*
X149070282Y-89142570D01*
X149070948Y-89128894D01*
X149075566Y-89116005D01*
X149073570Y-89075000D01*
X149075566Y-89033995D01*
X149070948Y-89021106D01*
X149070282Y-89007430D01*
X149052745Y-88970306D01*
X149038897Y-88931661D01*
X148778600Y-88497831D01*
X148778600Y-82423248D01*
X148806200Y-82423255D01*
G36*
X163902613Y-84170037D02*
X164051181Y-84318864D01*
X164245394Y-84399508D01*
X164363700Y-84399612D01*
X164363700Y-93550181D01*
X164269819Y-93456136D01*
X164075606Y-93375492D01*
X163872366Y-93375314D01*
X163830300Y-93333248D01*
X163830300Y-83995026D01*
X163902613Y-84170037D01*
X163902613Y-84170037D01*
G37*
X163902613Y-84170037D02*
X164051181Y-84318864D01*
X164245394Y-84399508D01*
X164363700Y-84399612D01*
X164363700Y-93550181D01*
X164269819Y-93456136D01*
X164075606Y-93375492D01*
X163872366Y-93375314D01*
X163830300Y-93333248D01*
X163830300Y-83995026D01*
X163902613Y-84170037D01*
G36*
X154980880Y-82424932D02*
X155219700Y-82663752D01*
X155219700Y-84315500D01*
X155242902Y-84432142D01*
X155308974Y-84531026D01*
X155346700Y-84568752D01*
X155346700Y-93333248D01*
X155304463Y-93375485D01*
X155102316Y-93375308D01*
X154940300Y-93442252D01*
X154940300Y-90601252D01*
X155105026Y-90436526D01*
X155171098Y-90337642D01*
X155194300Y-90221000D01*
X155194300Y-88062000D01*
X155171098Y-87945358D01*
X155105026Y-87846474D01*
X154813300Y-87554748D01*
X154813300Y-84632252D01*
X154851026Y-84594526D01*
X154917098Y-84495642D01*
X154940300Y-84379000D01*
X154940300Y-83996134D01*
X155083364Y-83853319D01*
X155164008Y-83659106D01*
X155164192Y-83448816D01*
X155083887Y-83254463D01*
X154935319Y-83105636D01*
X154741106Y-83024992D01*
X154530816Y-83024808D01*
X154336463Y-83105113D01*
X154187636Y-83253681D01*
X154106992Y-83447894D01*
X154106808Y-83658184D01*
X154187113Y-83852537D01*
X154330700Y-83996374D01*
X154330700Y-84252748D01*
X154292974Y-84290474D01*
X154226902Y-84389358D01*
X154203700Y-84506000D01*
X154203700Y-87681000D01*
X154226902Y-87797642D01*
X154292974Y-87896526D01*
X154584700Y-88188252D01*
X154584700Y-90094748D01*
X154419974Y-90259474D01*
X154353902Y-90358358D01*
X154330700Y-90475000D01*
X154330700Y-93442384D01*
X154169606Y-93375492D01*
X154051300Y-93375388D01*
X154051300Y-82710752D01*
X154326526Y-82435526D01*
X154333722Y-82424756D01*
X154980880Y-82424932D01*
X154980880Y-82424932D01*
G37*
X154980880Y-82424932D02*
X155219700Y-82663752D01*
X155219700Y-84315500D01*
X155242902Y-84432142D01*
X155308974Y-84531026D01*
X155346700Y-84568752D01*
X155346700Y-93333248D01*
X155304463Y-93375485D01*
X155102316Y-93375308D01*
X154940300Y-93442252D01*
X154940300Y-90601252D01*
X155105026Y-90436526D01*
X155171098Y-90337642D01*
X155194300Y-90221000D01*
X155194300Y-88062000D01*
X155171098Y-87945358D01*
X155105026Y-87846474D01*
X154813300Y-87554748D01*
X154813300Y-84632252D01*
X154851026Y-84594526D01*
X154917098Y-84495642D01*
X154940300Y-84379000D01*
X154940300Y-83996134D01*
X155083364Y-83853319D01*
X155164008Y-83659106D01*
X155164192Y-83448816D01*
X155083887Y-83254463D01*
X154935319Y-83105636D01*
X154741106Y-83024992D01*
X154530816Y-83024808D01*
X154336463Y-83105113D01*
X154187636Y-83253681D01*
X154106992Y-83447894D01*
X154106808Y-83658184D01*
X154187113Y-83852537D01*
X154330700Y-83996374D01*
X154330700Y-84252748D01*
X154292974Y-84290474D01*
X154226902Y-84389358D01*
X154203700Y-84506000D01*
X154203700Y-87681000D01*
X154226902Y-87797642D01*
X154292974Y-87896526D01*
X154584700Y-88188252D01*
X154584700Y-90094748D01*
X154419974Y-90259474D01*
X154353902Y-90358358D01*
X154330700Y-90475000D01*
X154330700Y-93442384D01*
X154169606Y-93375492D01*
X154051300Y-93375388D01*
X154051300Y-82710752D01*
X154326526Y-82435526D01*
X154333722Y-82424756D01*
X154980880Y-82424932D01*
G36*
X168806200Y-82667748D02*
X168453474Y-83020474D01*
X168387402Y-83119358D01*
X168364200Y-83236000D01*
X168364200Y-84887748D01*
X168072474Y-85179474D01*
X168006402Y-85278358D01*
X167983200Y-85395000D01*
X167983200Y-86538000D01*
X168006402Y-86654642D01*
X168072474Y-86753526D01*
X168364200Y-87045252D01*
X168364200Y-88443000D01*
X168387402Y-88559642D01*
X168453474Y-88658526D01*
X168491200Y-88696252D01*
X168491200Y-89459748D01*
X168453474Y-89497474D01*
X168387402Y-89596358D01*
X168364200Y-89713000D01*
X168364200Y-92362884D01*
X168203106Y-92295992D01*
X167992816Y-92295808D01*
X167798463Y-92376113D01*
X167767300Y-92407222D01*
X167767300Y-90410752D01*
X167995526Y-90182526D01*
X168005327Y-90167858D01*
X168061598Y-90083642D01*
X168084800Y-89967000D01*
X168084800Y-89520634D01*
X168227864Y-89377819D01*
X168308508Y-89183606D01*
X168308692Y-88973316D01*
X168228387Y-88778963D01*
X168084800Y-88635126D01*
X168084800Y-88125500D01*
X168061598Y-88008858D01*
X167995526Y-87909974D01*
X167767300Y-87681748D01*
X167767300Y-84399589D01*
X167884684Y-84399692D01*
X168079037Y-84319387D01*
X168227864Y-84170819D01*
X168308508Y-83976606D01*
X168308692Y-83766316D01*
X168228387Y-83571963D01*
X168079819Y-83423136D01*
X167885606Y-83342492D01*
X167675316Y-83342308D01*
X167480963Y-83422613D01*
X167332136Y-83571181D01*
X167251492Y-83765394D01*
X167251314Y-83968634D01*
X167246974Y-83972974D01*
X167180902Y-84071858D01*
X167157700Y-84188500D01*
X167157700Y-87808000D01*
X167180902Y-87924642D01*
X167246974Y-88023526D01*
X167475200Y-88251752D01*
X167475200Y-88635366D01*
X167332136Y-88778181D01*
X167251492Y-88972394D01*
X167251308Y-89182684D01*
X167331613Y-89377037D01*
X167475200Y-89520874D01*
X167475200Y-89840748D01*
X167246974Y-90068974D01*
X167180902Y-90167858D01*
X167157700Y-90284500D01*
X167157700Y-93205500D01*
X167180902Y-93322142D01*
X167216529Y-93375462D01*
X167047366Y-93375314D01*
X166878300Y-93206248D01*
X166878300Y-82883752D01*
X167326526Y-82435526D01*
X167333062Y-82425744D01*
X168806200Y-82425628D01*
X168806200Y-82667748D01*
X168806200Y-82667748D01*
G37*
X168806200Y-82667748D02*
X168453474Y-83020474D01*
X168387402Y-83119358D01*
X168364200Y-83236000D01*
X168364200Y-84887748D01*
X168072474Y-85179474D01*
X168006402Y-85278358D01*
X167983200Y-85395000D01*
X167983200Y-86538000D01*
X168006402Y-86654642D01*
X168072474Y-86753526D01*
X168364200Y-87045252D01*
X168364200Y-88443000D01*
X168387402Y-88559642D01*
X168453474Y-88658526D01*
X168491200Y-88696252D01*
X168491200Y-89459748D01*
X168453474Y-89497474D01*
X168387402Y-89596358D01*
X168364200Y-89713000D01*
X168364200Y-92362884D01*
X168203106Y-92295992D01*
X167992816Y-92295808D01*
X167798463Y-92376113D01*
X167767300Y-92407222D01*
X167767300Y-90410752D01*
X167995526Y-90182526D01*
X168005327Y-90167858D01*
X168061598Y-90083642D01*
X168084800Y-89967000D01*
X168084800Y-89520634D01*
X168227864Y-89377819D01*
X168308508Y-89183606D01*
X168308692Y-88973316D01*
X168228387Y-88778963D01*
X168084800Y-88635126D01*
X168084800Y-88125500D01*
X168061598Y-88008858D01*
X167995526Y-87909974D01*
X167767300Y-87681748D01*
X167767300Y-84399589D01*
X167884684Y-84399692D01*
X168079037Y-84319387D01*
X168227864Y-84170819D01*
X168308508Y-83976606D01*
X168308692Y-83766316D01*
X168228387Y-83571963D01*
X168079819Y-83423136D01*
X167885606Y-83342492D01*
X167675316Y-83342308D01*
X167480963Y-83422613D01*
X167332136Y-83571181D01*
X167251492Y-83765394D01*
X167251314Y-83968634D01*
X167246974Y-83972974D01*
X167180902Y-84071858D01*
X167157700Y-84188500D01*
X167157700Y-87808000D01*
X167180902Y-87924642D01*
X167246974Y-88023526D01*
X167475200Y-88251752D01*
X167475200Y-88635366D01*
X167332136Y-88778181D01*
X167251492Y-88972394D01*
X167251308Y-89182684D01*
X167331613Y-89377037D01*
X167475200Y-89520874D01*
X167475200Y-89840748D01*
X167246974Y-90068974D01*
X167180902Y-90167858D01*
X167157700Y-90284500D01*
X167157700Y-93205500D01*
X167180902Y-93322142D01*
X167216529Y-93375462D01*
X167047366Y-93375314D01*
X166878300Y-93206248D01*
X166878300Y-82883752D01*
X167326526Y-82435526D01*
X167333062Y-82425744D01*
X168806200Y-82425628D01*
X168806200Y-82667748D01*
G36*
X161806200Y-92124957D02*
X161800000Y-92123800D01*
X161562066Y-92123800D01*
X161550000Y-92121400D01*
X159650000Y-92121400D01*
X159639300Y-92123528D01*
X159639300Y-86226472D01*
X159650000Y-86228600D01*
X161550000Y-86228600D01*
X161562066Y-86226200D01*
X161800000Y-86226200D01*
X161806200Y-86224945D01*
X161806200Y-92124957D01*
X161806200Y-92124957D01*
G37*
X161806200Y-92124957D02*
X161800000Y-92123800D01*
X161562066Y-92123800D01*
X161550000Y-92121400D01*
X159650000Y-92121400D01*
X159639300Y-92123528D01*
X159639300Y-86226472D01*
X159650000Y-86228600D01*
X161550000Y-86228600D01*
X161562066Y-86226200D01*
X161800000Y-86226200D01*
X161806200Y-86224945D01*
X161806200Y-92124957D01*
G36*
X181826200Y-84399667D02*
X181826200Y-85332248D01*
X181661474Y-85496974D01*
X181595402Y-85595858D01*
X181572200Y-85712500D01*
X181572200Y-86665000D01*
X181595402Y-86781642D01*
X181661474Y-86880526D01*
X181826200Y-87045252D01*
X181826200Y-87300748D01*
X181591250Y-87535698D01*
X181292800Y-87237248D01*
X181292800Y-85076752D01*
X181648026Y-84721526D01*
X181672565Y-84684800D01*
X181714098Y-84622642D01*
X181737300Y-84506000D01*
X181737300Y-84399589D01*
X181826200Y-84399667D01*
X181826200Y-84399667D01*
G37*
X181826200Y-84399667D02*
X181826200Y-85332248D01*
X181661474Y-85496974D01*
X181595402Y-85595858D01*
X181572200Y-85712500D01*
X181572200Y-86665000D01*
X181595402Y-86781642D01*
X181661474Y-86880526D01*
X181826200Y-87045252D01*
X181826200Y-87300748D01*
X181591250Y-87535698D01*
X181292800Y-87237248D01*
X181292800Y-85076752D01*
X181648026Y-84721526D01*
X181672565Y-84684800D01*
X181714098Y-84622642D01*
X181737300Y-84506000D01*
X181737300Y-84399589D01*
X181826200Y-84399667D01*
D19*
X168097500Y-92824500D03*
X151111000Y-82696000D03*
X151111000Y-95333000D03*
X148984000Y-92761000D03*
X149111000Y-83871000D03*
X149111000Y-87046000D03*
X150000000Y-90094000D03*
X150000000Y-88062000D03*
X152730500Y-88379500D03*
X152667000Y-89713000D03*
X154318000Y-89713000D03*
X172733000Y-89967000D03*
X174701500Y-89903500D03*
X176733500Y-89903500D03*
X178384500Y-89903500D03*
X170574000Y-90475000D03*
X168034000Y-90475000D03*
X167145000Y-89840000D03*
X165621000Y-89840000D03*
X164097000Y-89840000D03*
X182575500Y-85776000D03*
X182448500Y-88316000D03*
X182448500Y-92888000D03*
X182448500Y-89776500D03*
X181559500Y-85204500D03*
X181559500Y-87109500D03*
X190513000Y-95428000D03*
X194577000Y-95301000D03*
X198387000Y-90157500D03*
X198323500Y-87554000D03*
X196609000Y-88316000D03*
X194640500Y-88316000D03*
X192545000Y-88316000D03*
X190576500Y-88316000D03*
X188608000Y-88316000D03*
X186576000Y-88316000D03*
X184798000Y-88316000D03*
X180480000Y-95555000D03*
X180226000Y-88316000D03*
X180226000Y-89903500D03*
X172606000Y-95301000D03*
X168859500Y-85649000D03*
X174701500Y-82982000D03*
X172606000Y-82728000D03*
X178321000Y-88316000D03*
X176670000Y-88316000D03*
X174638000Y-88316000D03*
X172733000Y-88316000D03*
X170574000Y-88316000D03*
X168034000Y-84760000D03*
X168034000Y-87173000D03*
X167145000Y-88316000D03*
X165621000Y-88316000D03*
X164097000Y-88316000D03*
X158572500Y-94729500D03*
X155080000Y-84887000D03*
X158763000Y-88316000D03*
X158763000Y-89840000D03*
X198323500Y-85268000D03*
X154318000Y-88379500D03*
X156500000Y-88379500D03*
X156500000Y-89776500D03*
X184861500Y-89776500D03*
X186639500Y-89776500D03*
X188608000Y-89776500D03*
X190576500Y-89776500D03*
X192545000Y-89776500D03*
X194640500Y-89713000D03*
X196672500Y-89776500D03*
X161366500Y-91745000D03*
X159906000Y-91745000D03*
X159906000Y-89840000D03*
X161430000Y-89840000D03*
X161430000Y-88316000D03*
X159906000Y-88316000D03*
X159906000Y-86665000D03*
X161366500Y-86665000D03*
X198387000Y-93015000D03*
X154699000Y-82728000D03*
X196615000Y-82722000D03*
X199111000Y-82639000D03*
X194577000Y-82728000D03*
X178384500Y-82664500D03*
X192545000Y-95301000D03*
X188608000Y-95428000D03*
X190640000Y-82728000D03*
X186576000Y-82728000D03*
X184671000Y-82653000D03*
X181623000Y-82724000D03*
X176797000Y-82728000D03*
X170701000Y-82646000D03*
X168111000Y-82651000D03*
X165621000Y-82728000D03*
X162636500Y-82855000D03*
X196609000Y-95301000D03*
X184671000Y-95428000D03*
X181686500Y-95428000D03*
X178575000Y-95400000D03*
X174638000Y-95428000D03*
X170574000Y-95301000D03*
X168111000Y-95351000D03*
X165621000Y-95319000D03*
X162700000Y-95331000D03*
X152111000Y-82680000D03*
X154826000Y-95459000D03*
X152111000Y-95349000D03*
X199111000Y-95301000D03*
X156477000Y-82728000D03*
X158111000Y-82711000D03*
X158111000Y-95445000D03*
X156477000Y-95428000D03*
X149619000Y-89078000D03*
X167780000Y-89078000D03*
X181750000Y-83871000D03*
X198768000Y-83871000D03*
X198700000Y-89078000D03*
X181432500Y-89141500D03*
X167780000Y-83871000D03*
X149619000Y-93904000D03*
X158382000Y-93904000D03*
X152159000Y-83871000D03*
X154635500Y-83553500D03*
X156985000Y-83871000D03*
X159111000Y-83871000D03*
X162111000Y-83871000D03*
X164351000Y-83871000D03*
X165113000Y-83871000D03*
X169304000Y-83871000D03*
X170066000Y-83871000D03*
X173241000Y-83871000D03*
X174130000Y-83871000D03*
X177051000Y-83871000D03*
X177940000Y-83871000D03*
X180607000Y-83871000D03*
X183591500Y-83871000D03*
X184417000Y-83871000D03*
X187084000Y-83871000D03*
X187973000Y-83871000D03*
X191021000Y-83871000D03*
X191910000Y-83871000D03*
X195212000Y-83871000D03*
X196101000Y-83871000D03*
X153175000Y-93904000D03*
X154064000Y-93904000D03*
X155207000Y-93904000D03*
X156096000Y-93904000D03*
X163081000Y-93904000D03*
X163970000Y-93904000D03*
X166256000Y-93904000D03*
X167145000Y-93904000D03*
X168542000Y-93904000D03*
X171209000Y-93904000D03*
X172098000Y-93904000D03*
X175146000Y-93904000D03*
X176035000Y-93904000D03*
X179210000Y-93904000D03*
X179972000Y-93904000D03*
X182131000Y-93904000D03*
X182893000Y-94666000D03*
X185179000Y-93904000D03*
X186068000Y-93904000D03*
X189243000Y-93904000D03*
X190005000Y-93904000D03*
X193180000Y-93904000D03*
X193942000Y-93904000D03*
X197244000Y-93904000D03*
X198006000Y-93904000D03*
M02*
