G04 #@! TF.FileFunction,Copper,L2,Bot,Signal*
%FSLAX46Y46*%
G04 Gerber Fmt 4.6, Leading zero omitted, Abs format (unit mm)*
G04 Created by KiCad (PCBNEW 4.0.4+e1-6308~48~ubuntu14.04.1-stable) date Sat Oct 15 18:13:20 2016*
%MOMM*%
%LPD*%
G01*
G04 APERTURE LIST*
%ADD10C,0.350000*%
%ADD11C,0.100000*%
%ADD12R,0.650240X4.599940*%
%ADD13R,0.650240X3.599180*%
%ADD14C,0.650240*%
%ADD15O,0.650240X0.650240*%
%ADD16C,0.600000*%
%ADD17C,0.600000*%
%ADD18C,0.152400*%
%ADD19C,0.300000*%
G04 APERTURE END LIST*
D10*
D11*
X148500000Y-88575000D02*
X148500000Y-76900000D01*
X148800000Y-89075000D02*
X148500000Y-89575000D01*
X148500000Y-88575000D02*
X148800000Y-89075000D01*
X199550000Y-89050000D02*
X199750000Y-88550000D01*
X199750000Y-89550000D02*
X199550000Y-89050000D01*
X199750000Y-88550000D02*
X199750000Y-76900000D01*
X199250000Y-101800000D02*
X199750000Y-101300000D01*
X162050000Y-101800000D02*
X161550000Y-101300000D01*
X159150000Y-101800000D02*
X159650000Y-101300000D01*
X149000000Y-101800000D02*
X148500000Y-101300000D01*
X199750000Y-76900000D02*
X199250000Y-76400000D01*
X159650000Y-76900000D02*
X159150000Y-76400000D01*
X161550000Y-76900000D02*
X162050000Y-76400000D01*
X148500000Y-76900000D02*
X149000000Y-76400000D01*
X159650000Y-92400000D02*
X161550000Y-92400000D01*
X159650000Y-85950000D02*
X161550000Y-85950000D01*
X162050000Y-101800000D02*
X199250000Y-101800000D01*
X161550000Y-92400000D02*
X161550000Y-101300000D01*
X159650000Y-101300000D02*
X159650000Y-92400000D01*
X149000000Y-101800000D02*
X159150000Y-101800000D01*
X148500000Y-89575000D02*
X148500000Y-101300000D01*
X159150000Y-76400000D02*
X149000000Y-76400000D01*
X159650000Y-85950000D02*
X159650000Y-76900000D01*
X161550000Y-76900000D02*
X161550000Y-85950000D01*
X199250000Y-76400000D02*
X162050000Y-76400000D01*
X199750000Y-101300000D02*
X199750000Y-89550000D01*
D12*
X149111000Y-79725620D03*
X150111000Y-79725620D03*
X151111000Y-79725620D03*
X152111000Y-79725620D03*
X153111000Y-79725620D03*
X154111000Y-79725620D03*
X155111000Y-79725620D03*
X156111000Y-79725620D03*
X157111000Y-79725620D03*
X158111000Y-79725620D03*
X159111000Y-79725620D03*
X162111000Y-79725620D03*
X163111000Y-79725620D03*
X164111000Y-79725620D03*
X165111000Y-79725620D03*
X166111000Y-79725620D03*
D13*
X167111000Y-80225620D03*
D12*
X168111000Y-79725620D03*
X169111000Y-79725620D03*
X170111000Y-79725620D03*
X171111000Y-79725620D03*
X172111000Y-79725620D03*
X173111000Y-79725620D03*
X174111000Y-79725620D03*
X175111000Y-79725620D03*
X176111000Y-79725620D03*
X177111000Y-79725620D03*
X178111000Y-79725620D03*
X179111000Y-79725620D03*
X180111000Y-79725620D03*
D13*
X181111000Y-80225620D03*
D12*
X182111000Y-79725620D03*
X183111000Y-79725620D03*
X184111000Y-79725620D03*
X185111000Y-79725620D03*
X186111000Y-79725620D03*
X187111000Y-79725620D03*
X188111000Y-79725620D03*
X189111000Y-79725620D03*
X190111000Y-79725620D03*
X191111000Y-79725620D03*
X192111000Y-79725620D03*
X193111000Y-79725620D03*
X194111000Y-79725620D03*
X195111000Y-79725620D03*
X196111000Y-79725620D03*
X197111000Y-79725620D03*
D13*
X198111000Y-80225620D03*
D12*
X199111000Y-79725620D03*
D14*
X149111000Y-77424380D03*
X150111000Y-77424380D03*
X151111000Y-77424380D03*
X152111000Y-77424380D03*
X153111000Y-77424380D03*
X154111000Y-77424380D03*
X155111000Y-77424380D03*
X156111000Y-77424380D03*
X157111000Y-77424380D03*
X158111000Y-77424380D03*
X159111000Y-77424380D03*
X162111000Y-77424380D03*
X163111000Y-77424380D03*
X164111000Y-77424380D03*
X165111000Y-77424380D03*
X166111000Y-77424380D03*
X168111000Y-77424380D03*
X169111000Y-77424380D03*
X170111000Y-77424380D03*
X171111000Y-77424380D03*
X172111000Y-77424380D03*
X173111000Y-77424380D03*
X174111000Y-77424380D03*
X175111000Y-77424380D03*
X176111000Y-77424380D03*
X177111000Y-77424380D03*
X178111000Y-77424380D03*
X179111000Y-77424380D03*
X180111000Y-77424380D03*
X182111000Y-77424380D03*
X183111000Y-77424380D03*
X184111000Y-77424380D03*
X185111000Y-77424380D03*
X186111000Y-77424380D03*
X187111000Y-77424380D03*
X188111000Y-77424380D03*
X189111000Y-77424380D03*
X190111000Y-77424380D03*
X191111000Y-77424380D03*
X192111000Y-77424380D03*
X193111000Y-77424380D03*
X194111000Y-77424380D03*
X195111000Y-77424380D03*
X196111000Y-77424380D03*
X197111000Y-77424380D03*
X199111000Y-77424380D03*
D13*
X149111000Y-97976000D03*
D12*
X150111000Y-98476000D03*
X151111000Y-98476000D03*
X152111000Y-98476000D03*
X153111000Y-98476000D03*
X154111000Y-98476000D03*
X155111000Y-98476000D03*
X156111000Y-98476000D03*
X157111000Y-98476000D03*
X158111000Y-98476000D03*
X159111000Y-98476000D03*
X162111000Y-98476000D03*
X163111000Y-98476000D03*
X164111000Y-98476000D03*
X165111000Y-98476000D03*
X166111000Y-98476000D03*
X167111000Y-98476000D03*
X168111000Y-98476000D03*
X169111000Y-98476000D03*
X170111000Y-98476000D03*
X171111000Y-98476000D03*
X172111000Y-98476000D03*
X173111000Y-98476000D03*
X174111000Y-98476000D03*
X175111000Y-98476000D03*
X176111000Y-98476000D03*
X177111000Y-98476000D03*
X178111000Y-98476000D03*
X179111000Y-98476000D03*
X180111000Y-98476000D03*
X181111000Y-98476000D03*
X182111000Y-98476000D03*
X183111000Y-98476000D03*
X184111000Y-98476000D03*
X185111000Y-98476000D03*
X186111000Y-98476000D03*
X187111000Y-98476000D03*
X188111000Y-98476000D03*
X189111000Y-98476000D03*
X190111000Y-98476000D03*
X191111000Y-98476000D03*
X192111000Y-98476000D03*
X193111000Y-98476000D03*
X194111000Y-98476000D03*
X195111000Y-98476000D03*
X196111000Y-98476000D03*
X197111000Y-98476000D03*
X198111000Y-98476000D03*
X199111000Y-98476000D03*
D15*
X150111000Y-100777240D03*
X151111000Y-100777240D03*
X152111000Y-100777240D03*
X153111000Y-100777240D03*
X154111000Y-100777240D03*
X155111000Y-100777240D03*
X156111000Y-100777240D03*
X157111000Y-100777240D03*
X158111000Y-100777240D03*
X159111000Y-100777240D03*
X162111000Y-100777240D03*
X163111000Y-100777240D03*
X164111000Y-100777240D03*
X165111000Y-100777240D03*
X166111000Y-100777240D03*
X167111000Y-100777240D03*
X168111000Y-100777240D03*
X169111000Y-100777240D03*
X170111000Y-100777240D03*
X171111000Y-100777240D03*
X172111000Y-100777240D03*
X173111000Y-100777240D03*
X174111000Y-100777240D03*
X175111000Y-100777240D03*
X176111000Y-100777240D03*
X177111000Y-100777240D03*
X178111000Y-100777240D03*
X179111000Y-100777240D03*
X180111000Y-100777240D03*
X181111000Y-100777240D03*
X182111000Y-100777240D03*
X183111000Y-100777240D03*
X184111000Y-100777240D03*
X185111000Y-100777240D03*
X186111000Y-100777240D03*
X187111000Y-100777240D03*
X188111000Y-100777240D03*
X189111000Y-100777240D03*
X190111000Y-100777240D03*
X191111000Y-100777240D03*
X192111000Y-100777240D03*
X193111000Y-100777240D03*
X194111000Y-100777240D03*
X195111000Y-100777240D03*
X196111000Y-100777240D03*
X197111000Y-100777240D03*
X198111000Y-100777240D03*
X199111000Y-100777240D03*
D16*
X168097500Y-92824500D03*
X151111000Y-82696000D03*
X151111000Y-95333000D03*
X148984000Y-92761000D03*
X149111000Y-83871000D03*
X149111000Y-87046000D03*
X150000000Y-90094000D03*
X150000000Y-88062000D03*
X152730500Y-88379500D03*
X152667000Y-89713000D03*
X154318000Y-89713000D03*
X172733000Y-89967000D03*
X174701500Y-89903500D03*
X176733500Y-89903500D03*
X178384500Y-89903500D03*
X170574000Y-90475000D03*
X168034000Y-90475000D03*
X167145000Y-89840000D03*
X165621000Y-89840000D03*
X164097000Y-89840000D03*
X182575500Y-85776000D03*
X182448500Y-88316000D03*
X182448500Y-92888000D03*
X182448500Y-89776500D03*
X181559500Y-85204500D03*
X181559500Y-87109500D03*
X190513000Y-95428000D03*
X194577000Y-95301000D03*
X198387000Y-90157500D03*
X198323500Y-87554000D03*
X196609000Y-88316000D03*
X194640500Y-88316000D03*
X192545000Y-88316000D03*
X190576500Y-88316000D03*
X188608000Y-88316000D03*
X186576000Y-88316000D03*
X184798000Y-88316000D03*
X180480000Y-95555000D03*
X180226000Y-88316000D03*
X180226000Y-89903500D03*
X172606000Y-95301000D03*
X168859500Y-85649000D03*
X174701500Y-82982000D03*
X172606000Y-82728000D03*
X178321000Y-88316000D03*
X176670000Y-88316000D03*
X174638000Y-88316000D03*
X172733000Y-88316000D03*
X170574000Y-88316000D03*
X168034000Y-84760000D03*
X168034000Y-87173000D03*
X167145000Y-88316000D03*
X165621000Y-88316000D03*
X164097000Y-88316000D03*
X158572500Y-94729500D03*
X155080000Y-84887000D03*
X158763000Y-88316000D03*
X158763000Y-89840000D03*
X198323500Y-85268000D03*
X154318000Y-88379500D03*
X156500000Y-88379500D03*
X156500000Y-89776500D03*
X184861500Y-89776500D03*
X186639500Y-89776500D03*
X188608000Y-89776500D03*
X190576500Y-89776500D03*
X192545000Y-89776500D03*
X194640500Y-89713000D03*
X196672500Y-89776500D03*
X161366500Y-91745000D03*
X159906000Y-91745000D03*
X159906000Y-89840000D03*
X161430000Y-89840000D03*
X161430000Y-88316000D03*
X159906000Y-88316000D03*
X159906000Y-86665000D03*
X161366500Y-86665000D03*
X198387000Y-93015000D03*
X154699000Y-82728000D03*
X196615000Y-82722000D03*
X199111000Y-82639000D03*
X194577000Y-82728000D03*
X178384500Y-82664500D03*
X192545000Y-95301000D03*
X188608000Y-95428000D03*
X190640000Y-82728000D03*
X186576000Y-82728000D03*
X184671000Y-82653000D03*
X181623000Y-82724000D03*
X176797000Y-82728000D03*
X170701000Y-82646000D03*
X168111000Y-82651000D03*
X165621000Y-82728000D03*
X162636500Y-82855000D03*
X196609000Y-95301000D03*
X184671000Y-95428000D03*
X181686500Y-95428000D03*
X178575000Y-95400000D03*
X174638000Y-95428000D03*
X170574000Y-95301000D03*
X168111000Y-95351000D03*
X165621000Y-95319000D03*
X162700000Y-95331000D03*
X152111000Y-82680000D03*
X154826000Y-95459000D03*
X152111000Y-95349000D03*
X199111000Y-95301000D03*
X156477000Y-82728000D03*
X158111000Y-82711000D03*
X158111000Y-95445000D03*
X156477000Y-95428000D03*
X149619000Y-89078000D03*
X167780000Y-89078000D03*
X181750000Y-83871000D03*
X198768000Y-83871000D03*
X198700000Y-89078000D03*
X181432500Y-89141500D03*
X167780000Y-83871000D03*
X149619000Y-93904000D03*
X158382000Y-93904000D03*
X152159000Y-83871000D03*
X154635500Y-83553500D03*
X156985000Y-83871000D03*
X159111000Y-83871000D03*
X162111000Y-83871000D03*
X164351000Y-83871000D03*
X165113000Y-83871000D03*
X169304000Y-83871000D03*
X170066000Y-83871000D03*
X173241000Y-83871000D03*
X174130000Y-83871000D03*
X177051000Y-83871000D03*
X177940000Y-83871000D03*
X180607000Y-83871000D03*
X183591500Y-83871000D03*
X184417000Y-83871000D03*
X187084000Y-83871000D03*
X187973000Y-83871000D03*
X191021000Y-83871000D03*
X191910000Y-83871000D03*
X195212000Y-83871000D03*
X196101000Y-83871000D03*
X153175000Y-93904000D03*
X154064000Y-93904000D03*
X155207000Y-93904000D03*
X156096000Y-93904000D03*
X163081000Y-93904000D03*
X163970000Y-93904000D03*
X166256000Y-93904000D03*
X167145000Y-93904000D03*
X168542000Y-93904000D03*
X171209000Y-93904000D03*
X172098000Y-93904000D03*
X175146000Y-93904000D03*
X176035000Y-93904000D03*
X179210000Y-93904000D03*
X179972000Y-93904000D03*
X182131000Y-93904000D03*
X182893000Y-94666000D03*
X185179000Y-93904000D03*
X186068000Y-93904000D03*
X189243000Y-93904000D03*
X190005000Y-93904000D03*
X193180000Y-93904000D03*
X193942000Y-93904000D03*
X197244000Y-93904000D03*
X198006000Y-93904000D03*
D17*
X151111000Y-100777240D02*
X151111000Y-98476000D01*
X150111000Y-100777240D02*
X150111000Y-98476000D01*
X150111000Y-95571000D02*
X150349000Y-95333000D01*
X150349000Y-95333000D02*
X151111000Y-95333000D01*
X150111000Y-98476000D02*
X150111000Y-95571000D01*
X149111000Y-82728000D02*
X150127000Y-82728000D01*
X150127000Y-82728000D02*
X151079000Y-82728000D01*
X150111000Y-79725620D02*
X150111000Y-82712000D01*
X150111000Y-82712000D02*
X150127000Y-82728000D01*
X151079000Y-82728000D02*
X151111000Y-82696000D01*
X149111000Y-79725620D02*
X149111000Y-82728000D01*
X151111000Y-79725620D02*
X151111000Y-77424380D01*
X150111000Y-79725620D02*
X150111000Y-77424380D01*
X149111000Y-79725620D02*
X149111000Y-77424380D01*
X151111000Y-82696000D02*
X151111000Y-79725620D01*
X151095000Y-95317000D02*
X151111000Y-95333000D01*
X151111000Y-98476000D02*
X151111000Y-95333000D01*
X151111000Y-98476000D02*
X151111000Y-96501150D01*
D18*
X198387000Y-93015000D02*
X196736000Y-93015000D01*
X199111000Y-93612000D02*
X198984000Y-93612000D01*
X198984000Y-93612000D02*
X198387000Y-93015000D01*
X176797000Y-82728000D02*
X176670000Y-82728000D01*
X176670000Y-82728000D02*
X176492000Y-82550000D01*
X175349000Y-82550000D02*
X175133500Y-82550000D01*
X175133500Y-82550000D02*
X174701500Y-82982000D01*
X168380000Y-84270000D02*
X168380000Y-82920000D01*
X168380000Y-82920000D02*
X168111000Y-82651000D01*
X168034000Y-84616000D02*
X168380000Y-84270000D01*
X168034000Y-84760000D02*
X168034000Y-84616000D01*
X170574000Y-90475000D02*
X172225000Y-90475000D01*
X172225000Y-90475000D02*
X172733000Y-89967000D01*
X180226000Y-89903500D02*
X182321500Y-89903500D01*
X182321500Y-89903500D02*
X182448500Y-89776500D01*
D17*
X194111000Y-79725620D02*
X194111000Y-77424380D01*
X193111000Y-79725620D02*
X193111000Y-77424380D01*
X182111000Y-79725620D02*
X182111000Y-77424380D01*
X179111000Y-79725620D02*
X179111000Y-77424380D01*
X168111000Y-79725620D02*
X168111000Y-77424380D01*
X171111000Y-79725620D02*
X171111000Y-77424380D01*
X152111000Y-82789000D02*
X151029000Y-83871000D01*
X151029000Y-83871000D02*
X149111000Y-83871000D01*
X152111000Y-82680000D02*
X152111000Y-82789000D01*
X152111000Y-100777240D02*
X152111000Y-98476000D01*
D18*
X150000000Y-87935000D02*
X149111000Y-87046000D01*
X150000000Y-88062000D02*
X150000000Y-87935000D01*
X150254000Y-89713000D02*
X150000000Y-89967000D01*
X150000000Y-89967000D02*
X150000000Y-90094000D01*
X152667000Y-89713000D02*
X150254000Y-89713000D01*
X150317500Y-88379500D02*
X150000000Y-88062000D01*
X152730500Y-88379500D02*
X150317500Y-88379500D01*
X154318000Y-88379500D02*
X152730500Y-88379500D01*
X154318000Y-89713000D02*
X152667000Y-89713000D01*
X154381500Y-89776500D02*
X154318000Y-89713000D01*
X156500000Y-89776500D02*
X154381500Y-89776500D01*
X172796500Y-89903500D02*
X172733000Y-89967000D01*
X174701500Y-89903500D02*
X172796500Y-89903500D01*
X176733500Y-89903500D02*
X174701500Y-89903500D01*
X178384500Y-89903500D02*
X176733500Y-89903500D01*
X180226000Y-89903500D02*
X178384500Y-89903500D01*
X168034000Y-90475000D02*
X170574000Y-90475000D01*
X167653000Y-89840000D02*
X168034000Y-90221000D01*
X168034000Y-90221000D02*
X168034000Y-90475000D01*
X167145000Y-89840000D02*
X167653000Y-89840000D01*
X165621000Y-89840000D02*
X167145000Y-89840000D01*
X164097000Y-89840000D02*
X165621000Y-89840000D01*
X162700000Y-89840000D02*
X164097000Y-89840000D01*
X161430000Y-89840000D02*
X162700000Y-89840000D01*
D17*
X162636500Y-82855000D02*
X162700000Y-82855000D01*
X162700000Y-82855000D02*
X163111000Y-82444000D01*
D18*
X182448500Y-85331500D02*
X182575500Y-85458500D01*
X182575500Y-85458500D02*
X182575500Y-85966500D01*
X182448500Y-88316000D02*
X182448500Y-85331500D01*
X182448500Y-88316000D02*
X184798000Y-88316000D01*
X181940500Y-88316000D02*
X182448500Y-88316000D01*
X182448500Y-89776500D02*
X182448500Y-92888000D01*
X183210500Y-89776500D02*
X182448500Y-89776500D01*
X181940500Y-87490500D02*
X181559500Y-87109500D01*
X181940500Y-87744500D02*
X181940500Y-84696500D01*
X181940500Y-88316000D02*
X181940500Y-87744500D01*
X181940500Y-87744500D02*
X181940500Y-87490500D01*
X180162500Y-88316000D02*
X181940500Y-88316000D01*
X198323500Y-87554000D02*
X198323500Y-85268000D01*
X198323500Y-88316000D02*
X198323500Y-87554000D01*
X196609000Y-88316000D02*
X198323500Y-88316000D01*
X194640500Y-88316000D02*
X196609000Y-88316000D01*
X192545000Y-88316000D02*
X194640500Y-88316000D01*
X190576500Y-88316000D02*
X192545000Y-88316000D01*
X188608000Y-88316000D02*
X190576500Y-88316000D01*
X186576000Y-88316000D02*
X188608000Y-88316000D01*
X184798000Y-88316000D02*
X186576000Y-88316000D01*
X180607000Y-95428000D02*
X180480000Y-95555000D01*
X181750000Y-95428000D02*
X180607000Y-95428000D01*
X181686500Y-95428000D02*
X180607000Y-95428000D01*
X178384500Y-88316000D02*
X180162500Y-88316000D01*
X180162500Y-88316000D02*
X180226000Y-88316000D01*
X172733000Y-95428000D02*
X172606000Y-95301000D01*
X174638000Y-95428000D02*
X172733000Y-95428000D01*
X168034000Y-86601500D02*
X168859500Y-85776000D01*
X168859500Y-85776000D02*
X168859500Y-85649000D01*
X168034000Y-87173000D02*
X168034000Y-86601500D01*
D17*
X172860000Y-82728000D02*
X172606000Y-82728000D01*
X172606000Y-82728000D02*
X172008000Y-82728000D01*
D18*
X176670000Y-88316000D02*
X178384500Y-88316000D01*
X174701500Y-88316000D02*
X176670000Y-88316000D01*
X174701500Y-88316000D02*
X174638000Y-88316000D01*
X172733000Y-88316000D02*
X174701500Y-88316000D01*
X170574000Y-88316000D02*
X172733000Y-88316000D01*
X168161000Y-88316000D02*
X170574000Y-88316000D01*
X168034000Y-87173000D02*
X168034000Y-84760000D01*
X168161000Y-87300000D02*
X168034000Y-87173000D01*
X168161000Y-88316000D02*
X168161000Y-87300000D01*
X167208500Y-88316000D02*
X168161000Y-88316000D01*
X168161000Y-88316000D02*
X168161000Y-87554000D01*
X165684500Y-88316000D02*
X167208500Y-88316000D01*
X165557500Y-88316000D02*
X165684500Y-88316000D01*
X164033500Y-88316000D02*
X165557500Y-88316000D01*
X164097000Y-88316000D02*
X165557500Y-88316000D01*
X161430000Y-88316000D02*
X164033500Y-88316000D01*
X164033500Y-88316000D02*
X164097000Y-88316000D01*
X158763000Y-88316000D02*
X156540500Y-88316000D01*
X159779000Y-88316000D02*
X158763000Y-88316000D01*
X158763000Y-89840000D02*
X156540500Y-89840000D01*
X159779000Y-89840000D02*
X158763000Y-89840000D01*
X184671000Y-89776500D02*
X183210500Y-89776500D01*
X156477000Y-88379500D02*
X154635500Y-88379500D01*
X156540500Y-88316000D02*
X156477000Y-88379500D01*
X156540500Y-89840000D02*
X156477000Y-89776500D01*
X186639500Y-89776500D02*
X184671000Y-89776500D01*
X188608000Y-89776500D02*
X186639500Y-89776500D01*
X190576500Y-89776500D02*
X188608000Y-89776500D01*
X192545000Y-89776500D02*
X190576500Y-89776500D01*
X192608500Y-89713000D02*
X192545000Y-89776500D01*
X194640500Y-89713000D02*
X192608500Y-89713000D01*
X194704000Y-89776500D02*
X194640500Y-89713000D01*
X196672500Y-89776500D02*
X194704000Y-89776500D01*
X197498000Y-89776500D02*
X196672500Y-89776500D01*
X198387000Y-90665500D02*
X197498000Y-89776500D01*
X198387000Y-93015000D02*
X198387000Y-90665500D01*
X162128500Y-90538500D02*
X161430000Y-89840000D01*
X162128500Y-94793000D02*
X162128500Y-90538500D01*
X162666500Y-95331000D02*
X162128500Y-94793000D01*
X162700000Y-95331000D02*
X162666500Y-95331000D01*
X159779000Y-88316000D02*
X161430000Y-88316000D01*
X159779000Y-86665000D02*
X159779000Y-88316000D01*
X161366500Y-86665000D02*
X159779000Y-86665000D01*
X162700000Y-85649000D02*
X161684000Y-86665000D01*
X161684000Y-86665000D02*
X161366500Y-86665000D01*
X162700000Y-82728000D02*
X162700000Y-85649000D01*
D17*
X196228000Y-93523000D02*
X196228000Y-94920000D01*
X196228000Y-94920000D02*
X196609000Y-95301000D01*
X196736000Y-93015000D02*
X196228000Y-93523000D01*
X199111000Y-95301000D02*
X199111000Y-93612000D01*
X199111000Y-79725620D02*
X199111000Y-77424380D01*
X197111000Y-77424380D02*
X197111000Y-79725620D01*
X190111000Y-79725620D02*
X190111000Y-77424380D01*
X189111000Y-77424380D02*
X189111000Y-79725620D01*
X186111000Y-77424380D02*
X186111000Y-79725620D01*
X185111000Y-77424380D02*
X185111000Y-79725620D01*
X176111000Y-79725620D02*
X176111000Y-77424380D01*
X175111000Y-77424380D02*
X175111000Y-79725620D01*
X172111000Y-77424380D02*
X172111000Y-79725620D01*
X163111000Y-79725620D02*
X163111000Y-77424380D01*
X166111000Y-79725620D02*
X166111000Y-77424380D01*
X155111000Y-77424380D02*
X155111000Y-79725620D01*
X199111000Y-100777240D02*
X199111000Y-98476000D01*
X196111000Y-100777240D02*
X196111000Y-98476000D01*
X195111000Y-100777240D02*
X195111000Y-98476000D01*
X192111000Y-100777240D02*
X192111000Y-98476000D01*
X191111000Y-100777240D02*
X191111000Y-98476000D01*
X188111000Y-100777240D02*
X188111000Y-98476000D01*
X187111000Y-100777240D02*
X187111000Y-98476000D01*
X184111000Y-100777240D02*
X184111000Y-98476000D01*
X181111000Y-100777240D02*
X181111000Y-98476000D01*
X178111000Y-100777240D02*
X178111000Y-98476000D01*
X177111000Y-100777240D02*
X177111000Y-98476000D01*
X174111000Y-100777240D02*
X174111000Y-98476000D01*
X173111000Y-100777240D02*
X173111000Y-98476000D01*
X170111000Y-100777240D02*
X170111000Y-98476000D01*
X168111000Y-100777240D02*
X168111000Y-98476000D01*
X165111000Y-100777240D02*
X165111000Y-98476000D01*
X162111000Y-100777240D02*
X162111000Y-98476000D01*
X195111000Y-98476000D02*
X195111000Y-95402000D01*
X195111000Y-95402000D02*
X195212000Y-95301000D01*
X195212000Y-95301000D02*
X195720000Y-95301000D01*
X195720000Y-95301000D02*
X196609000Y-95301000D01*
X191111000Y-95592000D02*
X191402000Y-95301000D01*
X191402000Y-95301000D02*
X192545000Y-95301000D01*
X191111000Y-98476000D02*
X191111000Y-95592000D01*
X187111000Y-95782000D02*
X187465000Y-95428000D01*
X187465000Y-95428000D02*
X188503000Y-95428000D01*
X187111000Y-98476000D02*
X187111000Y-95782000D01*
X177111000Y-95495000D02*
X177206000Y-95400000D01*
X177206000Y-95400000D02*
X178575000Y-95400000D01*
X177111000Y-98476000D02*
X177111000Y-95495000D01*
X173111000Y-95685000D02*
X173368000Y-95428000D01*
X173368000Y-95428000D02*
X174638000Y-95428000D01*
X173111000Y-98476000D02*
X173111000Y-95685000D01*
X193180000Y-82728000D02*
X194069000Y-82728000D01*
X194069000Y-82728000D02*
X194577000Y-82728000D01*
X194111000Y-79725620D02*
X194111000Y-82686000D01*
X194111000Y-82686000D02*
X194069000Y-82728000D01*
X193111000Y-82659000D02*
X193180000Y-82728000D01*
X193111000Y-79725620D02*
X193111000Y-82659000D01*
X190640000Y-82728000D02*
X190005000Y-82728000D01*
X190005000Y-82728000D02*
X189116000Y-82728000D01*
X190111000Y-79725620D02*
X190111000Y-82622000D01*
X190111000Y-82622000D02*
X190005000Y-82728000D01*
X189116000Y-82728000D02*
X189116000Y-79730620D01*
X189116000Y-79730620D02*
X189111000Y-79725620D01*
X185052000Y-82653000D02*
X186068000Y-82653000D01*
X186068000Y-82653000D02*
X186501000Y-82653000D01*
X186111000Y-79725620D02*
X186111000Y-82610000D01*
X186111000Y-82610000D02*
X186068000Y-82653000D01*
X184671000Y-82653000D02*
X185052000Y-82653000D01*
X185111000Y-79725620D02*
X185111000Y-82594000D01*
X185111000Y-82594000D02*
X185052000Y-82653000D01*
X186501000Y-82653000D02*
X186576000Y-82728000D01*
X175111000Y-82312000D02*
X175349000Y-82550000D01*
X175349000Y-82550000D02*
X176111000Y-82550000D01*
X175111000Y-79725620D02*
X175111000Y-82312000D01*
X179111000Y-82700000D02*
X178702000Y-82700000D01*
X172008000Y-82728000D02*
X171926000Y-82646000D01*
X171926000Y-82646000D02*
X171082000Y-82646000D01*
X171082000Y-82646000D02*
X170701000Y-82646000D01*
X171111000Y-79725620D02*
X171111000Y-82617000D01*
X171111000Y-82617000D02*
X171082000Y-82646000D01*
X172111000Y-82461000D02*
X171926000Y-82646000D01*
X172111000Y-79725620D02*
X172111000Y-82461000D01*
X165621000Y-82728000D02*
X165748000Y-82728000D01*
X155111000Y-82316000D02*
X154699000Y-82728000D01*
X155111000Y-79725620D02*
X155111000Y-82220000D01*
X155111000Y-82220000D02*
X155111000Y-82316000D01*
X152111000Y-79725620D02*
X152111000Y-77424380D01*
X174638000Y-95463000D02*
X174349000Y-95463000D01*
X174349000Y-95463000D02*
X174111000Y-95701000D01*
X170574000Y-95301000D02*
X170320000Y-95301000D01*
X170320000Y-95301000D02*
X170111000Y-95510000D01*
X196609000Y-95301000D02*
X196482000Y-95301000D01*
X196482000Y-95301000D02*
X196111000Y-95672000D01*
X184671000Y-95428000D02*
X184544000Y-95428000D01*
X184544000Y-95428000D02*
X184111000Y-95861000D01*
X184111000Y-95861000D02*
X184111000Y-98476000D01*
X181623000Y-95428000D02*
X181369000Y-95428000D01*
X181369000Y-95428000D02*
X181111000Y-95686000D01*
X181111000Y-95686000D02*
X181111000Y-98476000D01*
X197111000Y-82722000D02*
X196615000Y-82722000D01*
X178575000Y-95400000D02*
X178349000Y-95400000D01*
X178349000Y-95400000D02*
X178111000Y-95638000D01*
X176111000Y-82550000D02*
X176492000Y-82550000D01*
X176492000Y-82550000D02*
X176543000Y-82601000D01*
X199111000Y-95301000D02*
X199111000Y-98476000D01*
X199111000Y-79725620D02*
X199111000Y-82639000D01*
X181623000Y-82724000D02*
X181881000Y-82724000D01*
X181881000Y-82724000D02*
X182111000Y-82494000D01*
X196111000Y-98476000D02*
X196111000Y-95672000D01*
X196111000Y-95672000D02*
X196476000Y-95307000D01*
X192111000Y-98476000D02*
X192111000Y-95735000D01*
X192111000Y-95735000D02*
X192545000Y-95301000D01*
X188608000Y-95428000D02*
X188503000Y-95428000D01*
X188503000Y-95428000D02*
X188111000Y-95820000D01*
X176111000Y-79725620D02*
X176111000Y-82550000D01*
X165621000Y-95319000D02*
X165349000Y-95319000D01*
X162111000Y-98476000D02*
X162111000Y-95509000D01*
X162111000Y-95509000D02*
X162289000Y-95331000D01*
X162289000Y-95331000D02*
X162700000Y-95331000D01*
X197111000Y-79725620D02*
X197111000Y-82722000D01*
X182111000Y-79725620D02*
X182111000Y-82494000D01*
X179111000Y-79725620D02*
X179111000Y-82700000D01*
X176111000Y-79725620D02*
X176111000Y-82398000D01*
X168111000Y-79725620D02*
X168111000Y-82651000D01*
X166111000Y-82365000D02*
X165748000Y-82728000D01*
X166111000Y-79725620D02*
X166111000Y-82365000D01*
X163111000Y-79725620D02*
X163111000Y-82444000D01*
X188111000Y-98476000D02*
X188111000Y-95820000D01*
X178111000Y-98476000D02*
X178111000Y-95638000D01*
X174111000Y-98476000D02*
X174111000Y-95701000D01*
X170111000Y-95510000D02*
X170291000Y-95330000D01*
X170111000Y-98476000D02*
X170111000Y-95510000D01*
X168111000Y-98476000D02*
X168111000Y-95351000D01*
X165111000Y-95557000D02*
X165349000Y-95319000D01*
X165111000Y-98476000D02*
X165111000Y-95557000D01*
X152111000Y-82680000D02*
X152111000Y-79725620D01*
X152111000Y-98476000D02*
X152111000Y-95349000D01*
X156111000Y-79725620D02*
X156111000Y-77424380D01*
X158111000Y-100777240D02*
X158111000Y-98476000D01*
X157111000Y-100777240D02*
X157111000Y-98476000D01*
X156111000Y-82362000D02*
X156477000Y-82728000D01*
X156111000Y-79725620D02*
X156111000Y-82362000D01*
X158111000Y-79725620D02*
X158111000Y-77424380D01*
X158111000Y-82711000D02*
X158111000Y-79725620D01*
X157112000Y-95428000D02*
X158094000Y-95428000D01*
X156477000Y-95428000D02*
X157112000Y-95428000D01*
X157112000Y-95428000D02*
X157112000Y-98475000D01*
X157112000Y-98475000D02*
X157111000Y-98476000D01*
X158094000Y-95428000D02*
X158111000Y-95445000D01*
X158111000Y-98476000D02*
X158111000Y-95445000D01*
D18*
X198768000Y-89078000D02*
X181369000Y-89078000D01*
X181369000Y-89078000D02*
X167780000Y-89078000D01*
X198111000Y-80225620D02*
X198133000Y-80247620D01*
X198133000Y-80247620D02*
X198133000Y-83236000D01*
X198133000Y-83236000D02*
X198768000Y-83871000D01*
X181369000Y-83871000D02*
X181750000Y-83871000D01*
X149111000Y-95301000D02*
X149111000Y-94412000D01*
X149619000Y-93904000D02*
X149111000Y-94412000D01*
X149619000Y-89078000D02*
X167780000Y-89078000D01*
X149111000Y-97976000D02*
X149111000Y-95301000D01*
X181369000Y-83871000D02*
X180861000Y-83363000D01*
X180861000Y-83363000D02*
X181115000Y-83617000D01*
X180861000Y-82474000D02*
X180861000Y-83363000D01*
X181111000Y-82224000D02*
X180861000Y-82474000D01*
X181111000Y-80225620D02*
X181111000Y-82224000D01*
X167780000Y-83871000D02*
X167111000Y-83202000D01*
X167111000Y-83202000D02*
X167111000Y-80225620D01*
X159111000Y-100777240D02*
X159111000Y-98476000D01*
X159111000Y-95268000D02*
X159111000Y-94506000D01*
X159111000Y-94506000D02*
X158509000Y-93904000D01*
X159111000Y-98476000D02*
X159111000Y-95268000D01*
X153111000Y-77424380D02*
X153111000Y-79725620D01*
X153111000Y-82601000D02*
X153111000Y-82919000D01*
X153111000Y-82919000D02*
X152159000Y-83871000D01*
X153111000Y-82665000D02*
X153111000Y-82601000D01*
X153111000Y-82601000D02*
X153111000Y-79725620D01*
X154111000Y-79725620D02*
X154111000Y-83045500D01*
X154635500Y-83553500D02*
X154619000Y-83553500D01*
X154619000Y-83553500D02*
X154111000Y-83045500D01*
X154111000Y-79725620D02*
X154111000Y-77424380D01*
X157111000Y-83237000D02*
X156985000Y-83363000D01*
X156985000Y-83363000D02*
X156985000Y-83871000D01*
X157111000Y-83235000D02*
X157111000Y-83237000D01*
X157111000Y-79725620D02*
X157111000Y-82601000D01*
X157111000Y-82601000D02*
X157111000Y-82727000D01*
X157112000Y-83236000D02*
X157111000Y-83235000D01*
X157111000Y-83235000D02*
X157111000Y-82601000D01*
X157111000Y-77424380D02*
X157111000Y-79725620D01*
X157111000Y-82727000D02*
X157112000Y-82728000D01*
X159111000Y-79725620D02*
X159111000Y-77424380D01*
X159144000Y-83490000D02*
X159144000Y-83711000D01*
X159144000Y-79680000D02*
X159144000Y-83490000D01*
X159144000Y-83490000D02*
X159144000Y-83838000D01*
X159144000Y-83838000D02*
X159111000Y-83871000D01*
X162111000Y-79725620D02*
X162111000Y-77424380D01*
X162111000Y-79725620D02*
X162111000Y-82301000D01*
X162111000Y-82301000D02*
X162065000Y-82347000D01*
X162065000Y-83190000D02*
X162111000Y-83236000D01*
X162065000Y-82347000D02*
X162065000Y-83190000D01*
X162111000Y-83236000D02*
X162111000Y-83871000D01*
X164111000Y-79725620D02*
X164111000Y-77424380D01*
X164492000Y-82601000D02*
X164492000Y-83730000D01*
X164492000Y-83730000D02*
X164351000Y-83871000D01*
X164111000Y-82220000D02*
X164111000Y-82234000D01*
X164111000Y-79725620D02*
X164111000Y-82220000D01*
X164492000Y-82601000D02*
X164111000Y-82220000D01*
X164111000Y-82234000D02*
X164351000Y-82474000D01*
X165111000Y-79725620D02*
X165111000Y-77424380D01*
X165111000Y-79725620D02*
X165111000Y-82222000D01*
X165111000Y-82222000D02*
X164859000Y-82474000D01*
X164859000Y-82474000D02*
X164859000Y-83617000D01*
X164859000Y-83617000D02*
X165113000Y-83871000D01*
X169111000Y-79725620D02*
X169111000Y-77424380D01*
X169111000Y-79725620D02*
X169111000Y-82220000D01*
X169431000Y-83490000D02*
X169431000Y-82540000D01*
X169431000Y-82540000D02*
X169111000Y-82220000D01*
X169304000Y-83617000D02*
X169431000Y-83490000D01*
X169304000Y-83871000D02*
X169304000Y-83617000D01*
X170111000Y-79725620D02*
X170111000Y-77424380D01*
X169812000Y-82474000D02*
X170111000Y-82175000D01*
X170111000Y-82175000D02*
X170111000Y-79725620D01*
X169812000Y-83490000D02*
X169812000Y-82474000D01*
X170066000Y-83744000D02*
X169812000Y-83490000D01*
X170066000Y-83871000D02*
X170066000Y-83744000D01*
X170111000Y-79725620D02*
X170111000Y-81794000D01*
X173111000Y-79725620D02*
X173111000Y-77424380D01*
X173111000Y-82220000D02*
X173111000Y-79725620D01*
X173492000Y-82601000D02*
X173111000Y-82220000D01*
X173495000Y-83617000D02*
X173495000Y-82601000D01*
X173241000Y-83871000D02*
X173495000Y-83617000D01*
X174111000Y-79725620D02*
X174111000Y-82239000D01*
X173876000Y-82474000D02*
X173876000Y-83617000D01*
X174111000Y-82239000D02*
X173876000Y-82474000D01*
X173876000Y-83617000D02*
X174130000Y-83871000D01*
X174111000Y-77424380D02*
X174111000Y-79725620D01*
X177111000Y-77424380D02*
X177111000Y-79725620D01*
X177111000Y-79725620D02*
X177111000Y-82093000D01*
X177051000Y-83871000D02*
X177432000Y-83490000D01*
X177432000Y-83490000D02*
X177432000Y-82414000D01*
X177432000Y-82414000D02*
X177111000Y-82093000D01*
X178111000Y-77424380D02*
X178111000Y-79725620D01*
X177813000Y-82474000D02*
X178111000Y-82176000D01*
X178111000Y-82176000D02*
X178111000Y-79725620D01*
X177813000Y-83617000D02*
X177813000Y-82474000D01*
X177940000Y-83744000D02*
X177813000Y-83617000D01*
X177940000Y-83871000D02*
X177940000Y-83744000D01*
X178111000Y-79725620D02*
X178111000Y-81922000D01*
X180111000Y-79725620D02*
X180111000Y-77424380D01*
X180111000Y-83490000D02*
X180492000Y-83871000D01*
X180492000Y-83871000D02*
X180607000Y-83871000D01*
X180111000Y-83490000D02*
X180111000Y-79725620D01*
X183111000Y-82156500D02*
X183111000Y-79725620D01*
X183591500Y-83871000D02*
X183591500Y-82637000D01*
X183591500Y-82637000D02*
X183111000Y-82156500D01*
X183111000Y-77424380D02*
X183111000Y-79725620D01*
X183909000Y-83363000D02*
X183909000Y-82347000D01*
X184417000Y-83871000D02*
X183909000Y-83363000D01*
X184111000Y-77424380D02*
X184111000Y-79725620D01*
X183909000Y-82347000D02*
X184111000Y-82145000D01*
X184111000Y-82145000D02*
X184111000Y-79725620D01*
X187111000Y-77424380D02*
X187111000Y-79725620D01*
X187111000Y-82220000D02*
X187111000Y-79725620D01*
X187084000Y-83871000D02*
X187338000Y-83617000D01*
X187338000Y-83617000D02*
X187338000Y-82447000D01*
X187338000Y-82447000D02*
X187111000Y-82220000D01*
X188111000Y-79725620D02*
X188111000Y-77424380D01*
X187719000Y-82474000D02*
X187719000Y-83617000D01*
X187719000Y-82474000D02*
X187730000Y-82474000D01*
X187730000Y-82474000D02*
X188111000Y-82093000D01*
X188111000Y-79725620D02*
X188111000Y-82093000D01*
X187719000Y-83617000D02*
X187973000Y-83871000D01*
X191111000Y-77424380D02*
X191111000Y-79725620D01*
X191021000Y-83871000D02*
X191402000Y-83490000D01*
X191402000Y-83490000D02*
X191402000Y-82474000D01*
X191402000Y-82474000D02*
X191111000Y-82183000D01*
X191111000Y-82183000D02*
X191111000Y-79725620D01*
X192111000Y-77424380D02*
X192111000Y-79725620D01*
X191783000Y-82548000D02*
X192111000Y-82220000D01*
X191910000Y-83617000D02*
X191783000Y-83490000D01*
X191783000Y-83490000D02*
X191783000Y-82548000D01*
X191910000Y-83871000D02*
X191910000Y-83617000D01*
X192111000Y-82220000D02*
X192111000Y-79725620D01*
X195466000Y-82474000D02*
X195466000Y-83236000D01*
X195466000Y-83236000D02*
X195466000Y-83363000D01*
X195212000Y-83744000D02*
X195466000Y-83490000D01*
X195466000Y-83490000D02*
X195466000Y-83236000D01*
X195212000Y-83871000D02*
X195212000Y-83744000D01*
X195111000Y-82119000D02*
X195466000Y-82474000D01*
X195111000Y-79725620D02*
X195111000Y-82119000D01*
X196111000Y-77424380D02*
X196111000Y-79725620D01*
X195847000Y-83617000D02*
X195847000Y-83490000D01*
X196101000Y-83871000D02*
X195847000Y-83617000D01*
X195847000Y-82474000D02*
X195847000Y-83490000D01*
X196111000Y-82210000D02*
X195847000Y-82474000D01*
X196111000Y-79725620D02*
X196111000Y-82210000D01*
X153111000Y-100777240D02*
X153111000Y-98476000D01*
X153175000Y-93904000D02*
X153429000Y-94158000D01*
X153429000Y-95682000D02*
X153111000Y-96000000D01*
X153429000Y-94158000D02*
X153429000Y-95682000D01*
X153111000Y-96000000D02*
X153111000Y-98476000D01*
X154111000Y-100777240D02*
X154111000Y-98476000D01*
X154064000Y-93904000D02*
X153810000Y-94158000D01*
X153810000Y-94158000D02*
X153810000Y-95762000D01*
X153810000Y-95762000D02*
X154111000Y-96063000D01*
X154111000Y-96063000D02*
X154111000Y-98476000D01*
X153937000Y-94031000D02*
X154064000Y-93904000D01*
X155111000Y-98476000D02*
X155111000Y-100777240D01*
X155461000Y-94285000D02*
X155461000Y-94158000D01*
X155461000Y-94158000D02*
X155207000Y-93904000D01*
X155111000Y-98476000D02*
X155111000Y-96032000D01*
X155111000Y-96032000D02*
X155461000Y-95682000D01*
X155461000Y-95682000D02*
X155461000Y-94285000D01*
X156111000Y-100777240D02*
X156111000Y-98476000D01*
X155842000Y-94285000D02*
X155842000Y-94158000D01*
X155842000Y-94158000D02*
X156096000Y-93904000D01*
X156111000Y-98476000D02*
X156111000Y-95951000D01*
X156111000Y-95951000D02*
X155842000Y-95682000D01*
X155842000Y-95682000D02*
X155842000Y-94285000D01*
X163111000Y-100777240D02*
X163111000Y-98476000D01*
X163335000Y-94158000D02*
X163335000Y-94285000D01*
X163081000Y-93904000D02*
X163335000Y-94158000D01*
X163111000Y-98476000D02*
X163111000Y-95779000D01*
X163335000Y-95555000D02*
X163335000Y-94285000D01*
X163111000Y-95779000D02*
X163335000Y-95555000D01*
X164111000Y-100777240D02*
X164111000Y-98476000D01*
X164111000Y-98476000D02*
X164111000Y-95950000D01*
X164111000Y-95950000D02*
X163716000Y-95555000D01*
X163716000Y-95555000D02*
X163716000Y-94920000D01*
X163716000Y-94920000D02*
X163716000Y-94666000D01*
X163716000Y-94158000D02*
X163716000Y-94920000D01*
X163970000Y-93904000D02*
X163716000Y-94158000D01*
X166111000Y-100777240D02*
X166111000Y-98476000D01*
X166510000Y-95682000D02*
X166510000Y-94158000D01*
X166510000Y-94158000D02*
X166256000Y-93904000D01*
X166129000Y-96063000D02*
X166510000Y-95682000D01*
X166111000Y-98476000D02*
X166111000Y-96063000D01*
X166111000Y-96063000D02*
X166129000Y-96063000D01*
X167111000Y-100777240D02*
X167111000Y-98476000D01*
X166891000Y-94412000D02*
X166891000Y-95682000D01*
X166891000Y-95682000D02*
X167145000Y-95936000D01*
X167145000Y-95936000D02*
X167145000Y-98442000D01*
X167145000Y-98442000D02*
X167111000Y-98476000D01*
X166891000Y-94158000D02*
X166891000Y-94412000D01*
X167145000Y-93904000D02*
X166891000Y-94158000D01*
X169111000Y-100777240D02*
X169111000Y-98476000D01*
X168542000Y-93904000D02*
X169111000Y-94473000D01*
X169111000Y-94473000D02*
X169111000Y-94854000D01*
X169111000Y-94854000D02*
X169111000Y-98476000D01*
X171111000Y-100777240D02*
X171111000Y-98476000D01*
X171463000Y-95682000D02*
X171463000Y-94158000D01*
X171463000Y-94158000D02*
X171209000Y-93904000D01*
X171111000Y-96034000D02*
X171463000Y-95682000D01*
X171111000Y-98476000D02*
X171111000Y-96034000D01*
X172111000Y-100777240D02*
X172111000Y-98476000D01*
X171844000Y-95682000D02*
X171844000Y-94158000D01*
X171844000Y-94158000D02*
X172098000Y-93904000D01*
X172111000Y-95949000D02*
X171844000Y-95682000D01*
X172111000Y-98476000D02*
X172111000Y-95949000D01*
X172098000Y-98463000D02*
X172111000Y-98476000D01*
X175111000Y-100777240D02*
X175111000Y-98476000D01*
X175527000Y-95682000D02*
X175492000Y-95682000D01*
X175492000Y-95682000D02*
X175111000Y-96063000D01*
X175111000Y-98476000D02*
X175111000Y-96063000D01*
X175527000Y-95682000D02*
X175527000Y-94285000D01*
X175527000Y-94285000D02*
X175146000Y-93904000D01*
X175111000Y-96225000D02*
X175111000Y-98476000D01*
X176111000Y-100777240D02*
X176111000Y-98476000D01*
X175908000Y-95809000D02*
X176111000Y-96012000D01*
X176111000Y-96012000D02*
X176111000Y-98476000D01*
X175908000Y-94158000D02*
X175908000Y-95809000D01*
X176035000Y-94031000D02*
X175908000Y-94158000D01*
X176035000Y-93904000D02*
X176035000Y-94031000D01*
X179111000Y-100777240D02*
X179111000Y-98476000D01*
X179111000Y-96063000D02*
X179111000Y-95908000D01*
X179464000Y-95555000D02*
X179464000Y-94158000D01*
X179111000Y-95908000D02*
X179464000Y-95555000D01*
X179464000Y-94158000D02*
X179210000Y-93904000D01*
X179111000Y-96063000D02*
X179111000Y-98476000D01*
X179111000Y-96063000D02*
X179111000Y-96035000D01*
X180111000Y-100777240D02*
X180111000Y-98476000D01*
X179845000Y-95670000D02*
X180111000Y-95936000D01*
X179845000Y-95670000D02*
X179845000Y-94031000D01*
X179845000Y-94031000D02*
X179972000Y-93904000D01*
X180111000Y-95936000D02*
X180111000Y-98476000D01*
X182258000Y-95809000D02*
X182258000Y-95110500D01*
X182131000Y-93904000D02*
X182131000Y-94983500D01*
X182131000Y-94983500D02*
X182258000Y-95110500D01*
X182111000Y-100777240D02*
X182111000Y-98476000D01*
X182111000Y-95956000D02*
X182258000Y-95809000D01*
X182111000Y-98476000D02*
X182111000Y-95956000D01*
X182956500Y-94666000D02*
X182956500Y-95872500D01*
X182956500Y-95872500D02*
X183111000Y-96027000D01*
X183111000Y-100777240D02*
X183111000Y-98476000D01*
X183111000Y-96027000D02*
X183111000Y-98476000D01*
X185111000Y-100777240D02*
X185111000Y-98476000D01*
X185111000Y-96004000D02*
X185433000Y-95682000D01*
X185433000Y-94158000D02*
X185433000Y-95682000D01*
X185179000Y-93904000D02*
X185433000Y-94158000D01*
X185111000Y-98476000D02*
X185111000Y-96004000D01*
X186111000Y-100777240D02*
X186111000Y-98476000D01*
X186111000Y-96063000D02*
X186111000Y-98476000D01*
X185814000Y-94158000D02*
X185814000Y-95766000D01*
X185814000Y-95766000D02*
X186111000Y-96063000D01*
X186068000Y-93904000D02*
X185814000Y-94158000D01*
X189111000Y-100777240D02*
X189111000Y-98476000D01*
X189497000Y-95682000D02*
X189497000Y-94158000D01*
X189111000Y-96063000D02*
X189116000Y-96063000D01*
X189116000Y-96063000D02*
X189497000Y-95682000D01*
X189111000Y-98476000D02*
X189111000Y-96063000D01*
X189497000Y-94158000D02*
X189243000Y-93904000D01*
X190111000Y-100777240D02*
X190111000Y-98476000D01*
X190111000Y-98476000D02*
X190111000Y-96042000D01*
X189878000Y-94158000D02*
X190005000Y-94031000D01*
X190111000Y-96042000D02*
X189878000Y-95809000D01*
X189878000Y-95809000D02*
X189878000Y-94158000D01*
X190005000Y-94031000D02*
X190005000Y-93904000D01*
X193111000Y-100777240D02*
X193111000Y-98476000D01*
X193434000Y-95682000D02*
X193434000Y-94158000D01*
X193434000Y-94158000D02*
X193180000Y-93904000D01*
X193111000Y-96005000D02*
X193434000Y-95682000D01*
X193111000Y-98476000D02*
X193111000Y-96005000D01*
X194111000Y-100777240D02*
X194111000Y-98476000D01*
X193942000Y-95682000D02*
X193815000Y-95555000D01*
X193815000Y-95555000D02*
X193815000Y-94031000D01*
X193815000Y-94031000D02*
X193942000Y-93904000D01*
X194111000Y-98476000D02*
X194111000Y-95851000D01*
X194111000Y-95851000D02*
X193942000Y-95682000D01*
X197111000Y-100777240D02*
X197111000Y-98476000D01*
X197498000Y-95682000D02*
X197498000Y-94158000D01*
X197111000Y-96063000D02*
X197117000Y-96063000D01*
X197117000Y-96063000D02*
X197498000Y-95682000D01*
X197111000Y-98476000D02*
X197111000Y-96063000D01*
X197498000Y-94158000D02*
X197244000Y-93904000D01*
X198111000Y-98476000D02*
X198111000Y-100777240D01*
X198111000Y-96041000D02*
X197879000Y-95809000D01*
X198006000Y-94031000D02*
X197879000Y-94158000D01*
X197879000Y-94158000D02*
X197879000Y-95809000D01*
X198006000Y-93904000D02*
X198006000Y-94031000D01*
X198111000Y-98476000D02*
X198111000Y-96041000D01*
G36*
X199453800Y-88540346D02*
X199291326Y-88946531D01*
X199281983Y-88996688D01*
X199271420Y-89046603D01*
X199272053Y-89050000D01*
X199271420Y-89053397D01*
X199281983Y-89103312D01*
X199291326Y-89153469D01*
X199453800Y-89559654D01*
X199453800Y-95732782D01*
X198233545Y-95732493D01*
X198183800Y-95682748D01*
X198183800Y-94402481D01*
X198305037Y-94352387D01*
X198453864Y-94203819D01*
X198534508Y-94009606D01*
X198534692Y-93799316D01*
X198454387Y-93604963D01*
X198305819Y-93456136D01*
X198111606Y-93375492D01*
X197901316Y-93375308D01*
X197706963Y-93455613D01*
X197624987Y-93537446D01*
X197543819Y-93456136D01*
X197349606Y-93375492D01*
X197139316Y-93375308D01*
X196944963Y-93455613D01*
X196796136Y-93604181D01*
X196715492Y-93798394D01*
X196715308Y-94008684D01*
X196795613Y-94203037D01*
X196944181Y-94351864D01*
X197138394Y-94432508D01*
X197193200Y-94432556D01*
X197193200Y-95555748D01*
X197016744Y-95732204D01*
X194390743Y-95731582D01*
X194326526Y-95635474D01*
X194119800Y-95428748D01*
X194119800Y-94402481D01*
X194241037Y-94352387D01*
X194389864Y-94203819D01*
X194470508Y-94009606D01*
X194470692Y-93799316D01*
X194390387Y-93604963D01*
X194241819Y-93456136D01*
X194047606Y-93375492D01*
X193837316Y-93375308D01*
X193642963Y-93455613D01*
X193560987Y-93537446D01*
X193479819Y-93456136D01*
X193285606Y-93375492D01*
X193075316Y-93375308D01*
X192880963Y-93455613D01*
X192732136Y-93604181D01*
X192651492Y-93798394D01*
X192651308Y-94008684D01*
X192731613Y-94203037D01*
X192880181Y-94351864D01*
X193074394Y-94432508D01*
X193129200Y-94432556D01*
X193129200Y-95555748D01*
X192953706Y-95731242D01*
X190230648Y-95730596D01*
X190182800Y-95682748D01*
X190182800Y-94402481D01*
X190304037Y-94352387D01*
X190452864Y-94203819D01*
X190533508Y-94009606D01*
X190533692Y-93799316D01*
X190453387Y-93604963D01*
X190304819Y-93456136D01*
X190110606Y-93375492D01*
X189900316Y-93375308D01*
X189705963Y-93455613D01*
X189623987Y-93537446D01*
X189542819Y-93456136D01*
X189348606Y-93375492D01*
X189138316Y-93375308D01*
X188943963Y-93455613D01*
X188795136Y-93604181D01*
X188714492Y-93798394D01*
X188714308Y-94008684D01*
X188794613Y-94203037D01*
X188943181Y-94351864D01*
X189137394Y-94432508D01*
X189192200Y-94432556D01*
X189192200Y-95555748D01*
X189017639Y-95730309D01*
X186208695Y-95729643D01*
X186118800Y-95639748D01*
X186118800Y-94432645D01*
X186172684Y-94432692D01*
X186367037Y-94352387D01*
X186515864Y-94203819D01*
X186596508Y-94009606D01*
X186596692Y-93799316D01*
X186516387Y-93604963D01*
X186367819Y-93456136D01*
X186173606Y-93375492D01*
X185963316Y-93375308D01*
X185768963Y-93455613D01*
X185623377Y-93600946D01*
X185478819Y-93456136D01*
X185284606Y-93375492D01*
X185074316Y-93375308D01*
X184879963Y-93455613D01*
X184731136Y-93604181D01*
X184650492Y-93798394D01*
X184650308Y-94008684D01*
X184730613Y-94203037D01*
X184879181Y-94351864D01*
X185073394Y-94432508D01*
X185128200Y-94432556D01*
X185128200Y-95555748D01*
X184954602Y-95729346D01*
X183261300Y-95728945D01*
X183261300Y-95045245D01*
X183340864Y-94965819D01*
X183421508Y-94771606D01*
X183421692Y-94561316D01*
X183341387Y-94366963D01*
X183192819Y-94218136D01*
X182998606Y-94137492D01*
X182788316Y-94137308D01*
X182593963Y-94217613D01*
X182445136Y-94366181D01*
X182435800Y-94388665D01*
X182435800Y-94346634D01*
X182578864Y-94203819D01*
X182659508Y-94009606D01*
X182659692Y-93799316D01*
X182579387Y-93604963D01*
X182430819Y-93456136D01*
X182236606Y-93375492D01*
X182026316Y-93375308D01*
X181831963Y-93455613D01*
X181683136Y-93604181D01*
X181602492Y-93798394D01*
X181602308Y-94008684D01*
X181682613Y-94203037D01*
X181826200Y-94346874D01*
X181826200Y-94983500D01*
X181849402Y-95100142D01*
X181915474Y-95199026D01*
X181953200Y-95236752D01*
X181953200Y-95682748D01*
X181907324Y-95728624D01*
X180331722Y-95728251D01*
X180326526Y-95720474D01*
X180149800Y-95543748D01*
X180149800Y-94402481D01*
X180271037Y-94352387D01*
X180419864Y-94203819D01*
X180500508Y-94009606D01*
X180500692Y-93799316D01*
X180420387Y-93604963D01*
X180271819Y-93456136D01*
X180077606Y-93375492D01*
X179867316Y-93375308D01*
X179672963Y-93455613D01*
X179590987Y-93537446D01*
X179509819Y-93456136D01*
X179315606Y-93375492D01*
X179105316Y-93375308D01*
X178910963Y-93455613D01*
X178762136Y-93604181D01*
X178681492Y-93798394D01*
X178681308Y-94008684D01*
X178761613Y-94203037D01*
X178910181Y-94351864D01*
X179104394Y-94432508D01*
X179159200Y-94432556D01*
X179159200Y-95428748D01*
X178895474Y-95692474D01*
X178871800Y-95727905D01*
X176257337Y-95727285D01*
X176212800Y-95682748D01*
X176212800Y-94402481D01*
X176334037Y-94352387D01*
X176482864Y-94203819D01*
X176563508Y-94009606D01*
X176563692Y-93799316D01*
X176483387Y-93604963D01*
X176334819Y-93456136D01*
X176140606Y-93375492D01*
X175930316Y-93375308D01*
X175735963Y-93455613D01*
X175590377Y-93600946D01*
X175445819Y-93456136D01*
X175251606Y-93375492D01*
X175041316Y-93375308D01*
X174846963Y-93455613D01*
X174698136Y-93604181D01*
X174617492Y-93798394D01*
X174617308Y-94008684D01*
X174697613Y-94203037D01*
X174846181Y-94351864D01*
X175040394Y-94432508D01*
X175222200Y-94432667D01*
X175222200Y-95520748D01*
X175015957Y-95726991D01*
X172319404Y-95726352D01*
X172148800Y-95555748D01*
X172148800Y-94432645D01*
X172202684Y-94432692D01*
X172397037Y-94352387D01*
X172545864Y-94203819D01*
X172626508Y-94009606D01*
X172626692Y-93799316D01*
X172546387Y-93604963D01*
X172397819Y-93456136D01*
X172203606Y-93375492D01*
X171993316Y-93375308D01*
X171798963Y-93455613D01*
X171653377Y-93600946D01*
X171508819Y-93456136D01*
X171314606Y-93375492D01*
X171104316Y-93375308D01*
X170909963Y-93455613D01*
X170761136Y-93604181D01*
X170680492Y-93798394D01*
X170680308Y-94008684D01*
X170760613Y-94203037D01*
X170909181Y-94351864D01*
X171103394Y-94432508D01*
X171158200Y-94432556D01*
X171158200Y-95555748D01*
X170987912Y-95726036D01*
X169415800Y-95725664D01*
X169415800Y-94473000D01*
X169407782Y-94432692D01*
X169392599Y-94356359D01*
X169326526Y-94257474D01*
X169070515Y-94001463D01*
X169070692Y-93799316D01*
X168990387Y-93604963D01*
X168841819Y-93456136D01*
X168647606Y-93375492D01*
X168437316Y-93375308D01*
X168242963Y-93455613D01*
X168094136Y-93604181D01*
X168013492Y-93798394D01*
X168013308Y-94008684D01*
X168093613Y-94203037D01*
X168242181Y-94351864D01*
X168436394Y-94432508D01*
X168639634Y-94432686D01*
X168806200Y-94599252D01*
X168806200Y-95725519D01*
X167363669Y-95725178D01*
X167360526Y-95720474D01*
X167195800Y-95555748D01*
X167195800Y-94432645D01*
X167249684Y-94432692D01*
X167444037Y-94352387D01*
X167592864Y-94203819D01*
X167673508Y-94009606D01*
X167673692Y-93799316D01*
X167593387Y-93604963D01*
X167444819Y-93456136D01*
X167250606Y-93375492D01*
X167040316Y-93375308D01*
X166845963Y-93455613D01*
X166700377Y-93600946D01*
X166555819Y-93456136D01*
X166361606Y-93375492D01*
X166151316Y-93375308D01*
X165956963Y-93455613D01*
X165808136Y-93604181D01*
X165727492Y-93798394D01*
X165727308Y-94008684D01*
X165807613Y-94203037D01*
X165956181Y-94351864D01*
X166150394Y-94432508D01*
X166205200Y-94432556D01*
X166205200Y-95555748D01*
X166036085Y-95724863D01*
X164316508Y-95724456D01*
X164020800Y-95428748D01*
X164020800Y-94432645D01*
X164074684Y-94432692D01*
X164269037Y-94352387D01*
X164417864Y-94203819D01*
X164498508Y-94009606D01*
X164498692Y-93799316D01*
X164418387Y-93604963D01*
X164269819Y-93456136D01*
X164075606Y-93375492D01*
X163865316Y-93375308D01*
X163670963Y-93455613D01*
X163525377Y-93600946D01*
X163380819Y-93456136D01*
X163186606Y-93375492D01*
X162976316Y-93375308D01*
X162781963Y-93455613D01*
X162633136Y-93604181D01*
X162552492Y-93798394D01*
X162552308Y-94008684D01*
X162632613Y-94203037D01*
X162781181Y-94351864D01*
X162975394Y-94432508D01*
X163030200Y-94432556D01*
X163030200Y-95428748D01*
X162895474Y-95563474D01*
X162829402Y-95662358D01*
X162817120Y-95724100D01*
X161828600Y-95723866D01*
X161828600Y-92929184D01*
X167568808Y-92929184D01*
X167649113Y-93123537D01*
X167797681Y-93272364D01*
X167991894Y-93353008D01*
X168202184Y-93353192D01*
X168396537Y-93272887D01*
X168545364Y-93124319D01*
X168626008Y-92930106D01*
X168626192Y-92719816D01*
X168545887Y-92525463D01*
X168397319Y-92376636D01*
X168203106Y-92295992D01*
X167992816Y-92295808D01*
X167798463Y-92376113D01*
X167649636Y-92524681D01*
X167568992Y-92718894D01*
X167568808Y-92929184D01*
X161828600Y-92929184D01*
X161828600Y-92400000D01*
X161807393Y-92293384D01*
X161747000Y-92203000D01*
X161656616Y-92142607D01*
X161550000Y-92121400D01*
X159650000Y-92121400D01*
X159543384Y-92142607D01*
X159453000Y-92203000D01*
X159392607Y-92293384D01*
X159371400Y-92400000D01*
X159371400Y-94357633D01*
X159326526Y-94290474D01*
X158910626Y-93874574D01*
X158910692Y-93799316D01*
X158830387Y-93604963D01*
X158681819Y-93456136D01*
X158487606Y-93375492D01*
X158277316Y-93375308D01*
X158082963Y-93455613D01*
X157934136Y-93604181D01*
X157853492Y-93798394D01*
X157853308Y-94008684D01*
X157933613Y-94203037D01*
X158082181Y-94351864D01*
X158276394Y-94432508D01*
X158486684Y-94432692D01*
X158571567Y-94397619D01*
X158806200Y-94632252D01*
X158806200Y-95724496D01*
X158639600Y-95724633D01*
X158639600Y-95445005D01*
X158639601Y-95445000D01*
X158639600Y-95444997D01*
X158639692Y-95340316D01*
X158559387Y-95145963D01*
X158410819Y-94997136D01*
X158335589Y-94965898D01*
X158296287Y-94939637D01*
X158250330Y-94930496D01*
X158216606Y-94916492D01*
X158179769Y-94916460D01*
X158094000Y-94899399D01*
X158093995Y-94899400D01*
X156477461Y-94899400D01*
X156372316Y-94899308D01*
X156177963Y-94979613D01*
X156146800Y-95010722D01*
X156146800Y-94432645D01*
X156200684Y-94432692D01*
X156395037Y-94352387D01*
X156543864Y-94203819D01*
X156624508Y-94009606D01*
X156624692Y-93799316D01*
X156544387Y-93604963D01*
X156395819Y-93456136D01*
X156201606Y-93375492D01*
X155991316Y-93375308D01*
X155796963Y-93455613D01*
X155651377Y-93600946D01*
X155506819Y-93456136D01*
X155312606Y-93375492D01*
X155102316Y-93375308D01*
X154907963Y-93455613D01*
X154759136Y-93604181D01*
X154678492Y-93798394D01*
X154678308Y-94008684D01*
X154758613Y-94203037D01*
X154907181Y-94351864D01*
X155101394Y-94432508D01*
X155156200Y-94432556D01*
X155156200Y-95555748D01*
X154984303Y-95727645D01*
X154207338Y-95728286D01*
X154114800Y-95635748D01*
X154114800Y-94432645D01*
X154168684Y-94432692D01*
X154363037Y-94352387D01*
X154511864Y-94203819D01*
X154592508Y-94009606D01*
X154592692Y-93799316D01*
X154512387Y-93604963D01*
X154363819Y-93456136D01*
X154169606Y-93375492D01*
X153959316Y-93375308D01*
X153764963Y-93455613D01*
X153619377Y-93600946D01*
X153474819Y-93456136D01*
X153280606Y-93375492D01*
X153070316Y-93375308D01*
X152875963Y-93455613D01*
X152727136Y-93604181D01*
X152646492Y-93798394D01*
X152646308Y-94008684D01*
X152726613Y-94203037D01*
X152875181Y-94351864D01*
X153069394Y-94432508D01*
X153124200Y-94432556D01*
X153124200Y-95555748D01*
X152950627Y-95729321D01*
X151639600Y-95730402D01*
X151639600Y-95333000D01*
X151639692Y-95228316D01*
X151559387Y-95033963D01*
X151410819Y-94885136D01*
X151334278Y-94853353D01*
X151297287Y-94828637D01*
X151254034Y-94820033D01*
X151216606Y-94804492D01*
X151175724Y-94804456D01*
X151095000Y-94788399D01*
X151014983Y-94804316D01*
X151006316Y-94804308D01*
X151006093Y-94804400D01*
X150349005Y-94804400D01*
X150349000Y-94804399D01*
X150146713Y-94844637D01*
X149975223Y-94959223D01*
X149737223Y-95197223D01*
X149622637Y-95368713D01*
X149582399Y-95571000D01*
X149582400Y-95571005D01*
X149582400Y-95732097D01*
X149415800Y-95732235D01*
X149415800Y-94538252D01*
X149521537Y-94432515D01*
X149723684Y-94432692D01*
X149918037Y-94352387D01*
X150066864Y-94203819D01*
X150147508Y-94009606D01*
X150147692Y-93799316D01*
X150067387Y-93604963D01*
X149918819Y-93456136D01*
X149724606Y-93375492D01*
X149514316Y-93375308D01*
X149319963Y-93455613D01*
X149171136Y-93604181D01*
X149090492Y-93798394D01*
X149090314Y-94001634D01*
X148895474Y-94196474D01*
X148829402Y-94295358D01*
X148806200Y-94412000D01*
X148806200Y-89606169D01*
X149038897Y-89218339D01*
X149051673Y-89182684D01*
X149090308Y-89182684D01*
X149170613Y-89377037D01*
X149319181Y-89525864D01*
X149513394Y-89606508D01*
X149723684Y-89606692D01*
X149918037Y-89526387D01*
X150061874Y-89382800D01*
X167337366Y-89382800D01*
X167480181Y-89525864D01*
X167674394Y-89606508D01*
X167884684Y-89606692D01*
X168079037Y-89526387D01*
X168222874Y-89382800D01*
X180960257Y-89382800D01*
X180984113Y-89440537D01*
X181132681Y-89589364D01*
X181326894Y-89670008D01*
X181537184Y-89670192D01*
X181731537Y-89589887D01*
X181880364Y-89441319D01*
X181904663Y-89382800D01*
X198257366Y-89382800D01*
X198400181Y-89525864D01*
X198594394Y-89606508D01*
X198804684Y-89606692D01*
X198999037Y-89526387D01*
X199147864Y-89377819D01*
X199228508Y-89183606D01*
X199228692Y-88973316D01*
X199148387Y-88778963D01*
X198999819Y-88630136D01*
X198805606Y-88549492D01*
X198595316Y-88549308D01*
X198400963Y-88629613D01*
X198257126Y-88773200D01*
X181811745Y-88773200D01*
X181732319Y-88693636D01*
X181538106Y-88612992D01*
X181327816Y-88612808D01*
X181133463Y-88693113D01*
X181053236Y-88773200D01*
X168222634Y-88773200D01*
X168079819Y-88630136D01*
X167885606Y-88549492D01*
X167675316Y-88549308D01*
X167480963Y-88629613D01*
X167337126Y-88773200D01*
X150061634Y-88773200D01*
X149918819Y-88630136D01*
X149724606Y-88549492D01*
X149514316Y-88549308D01*
X149319963Y-88629613D01*
X149171136Y-88778181D01*
X149090492Y-88972394D01*
X149090308Y-89182684D01*
X149051673Y-89182684D01*
X149052745Y-89179694D01*
X149070282Y-89142570D01*
X149070948Y-89128894D01*
X149075566Y-89116005D01*
X149073570Y-89075000D01*
X149075566Y-89033995D01*
X149070948Y-89021106D01*
X149070282Y-89007430D01*
X149052745Y-88970306D01*
X149038897Y-88931661D01*
X148806200Y-88543831D01*
X148806200Y-83147866D01*
X148908714Y-83216363D01*
X149111000Y-83256600D01*
X151078995Y-83256600D01*
X151079000Y-83256601D01*
X151281287Y-83216363D01*
X151354928Y-83167157D01*
X151410037Y-83144387D01*
X151452608Y-83101890D01*
X151452777Y-83101777D01*
X151484777Y-83069777D01*
X151558864Y-82995819D01*
X151639508Y-82801606D01*
X151639600Y-82696003D01*
X151639601Y-82696000D01*
X151639600Y-82695997D01*
X151639692Y-82591316D01*
X151639600Y-82591093D01*
X151639600Y-82424007D01*
X152806200Y-82424330D01*
X152806200Y-82792748D01*
X152256463Y-83342485D01*
X152054316Y-83342308D01*
X151859963Y-83422613D01*
X151711136Y-83571181D01*
X151630492Y-83765394D01*
X151630308Y-83975684D01*
X151710613Y-84170037D01*
X151859181Y-84318864D01*
X152053394Y-84399508D01*
X152263684Y-84399692D01*
X152458037Y-84319387D01*
X152606864Y-84170819D01*
X152687508Y-83976606D01*
X152687686Y-83773366D01*
X153326526Y-83134526D01*
X153392598Y-83035642D01*
X153415800Y-82919000D01*
X153415800Y-82424499D01*
X153806200Y-82424607D01*
X153806200Y-83045500D01*
X153829402Y-83162142D01*
X153895474Y-83261026D01*
X154106970Y-83472522D01*
X154106808Y-83658184D01*
X154187113Y-83852537D01*
X154335681Y-84001364D01*
X154529894Y-84082008D01*
X154740184Y-84082192D01*
X154934537Y-84001887D01*
X155083364Y-83853319D01*
X155164008Y-83659106D01*
X155164192Y-83448816D01*
X155083887Y-83254463D01*
X154935319Y-83105636D01*
X154741106Y-83024992D01*
X154530816Y-83024808D01*
X154524125Y-83027573D01*
X154415800Y-82919248D01*
X154415800Y-82424776D01*
X155594951Y-82425103D01*
X155622637Y-82564287D01*
X155737223Y-82735777D01*
X156103184Y-83101738D01*
X156177181Y-83175864D01*
X156371394Y-83256508D01*
X156581684Y-83256692D01*
X156740284Y-83191160D01*
X156703402Y-83246358D01*
X156680200Y-83363000D01*
X156680200Y-83428366D01*
X156537136Y-83571181D01*
X156456492Y-83765394D01*
X156456308Y-83975684D01*
X156536613Y-84170037D01*
X156685181Y-84318864D01*
X156879394Y-84399508D01*
X157089684Y-84399692D01*
X157284037Y-84319387D01*
X157432864Y-84170819D01*
X157513508Y-83976606D01*
X157513692Y-83766316D01*
X157433387Y-83571963D01*
X157320337Y-83458715D01*
X157326526Y-83452526D01*
X157326927Y-83451927D01*
X157327526Y-83451526D01*
X157393598Y-83352641D01*
X157416800Y-83236000D01*
X157415800Y-83230973D01*
X157415800Y-82733027D01*
X157416800Y-82728000D01*
X157415800Y-82722973D01*
X157415800Y-82425608D01*
X157582400Y-82425655D01*
X157582400Y-82710539D01*
X157582308Y-82815684D01*
X157662613Y-83010037D01*
X157811181Y-83158864D01*
X158005394Y-83239508D01*
X158215684Y-83239692D01*
X158410037Y-83159387D01*
X158558864Y-83010819D01*
X158639508Y-82816606D01*
X158639692Y-82606316D01*
X158639600Y-82606093D01*
X158639600Y-82425948D01*
X158839200Y-82426003D01*
X158839200Y-83411359D01*
X158811963Y-83422613D01*
X158663136Y-83571181D01*
X158582492Y-83765394D01*
X158582308Y-83975684D01*
X158662613Y-84170037D01*
X158811181Y-84318864D01*
X159005394Y-84399508D01*
X159215684Y-84399692D01*
X159371400Y-84335351D01*
X159371400Y-85950000D01*
X159392607Y-86056616D01*
X159453000Y-86147000D01*
X159543384Y-86207393D01*
X159650000Y-86228600D01*
X161550000Y-86228600D01*
X161656616Y-86207393D01*
X161747000Y-86147000D01*
X161807393Y-86056616D01*
X161824370Y-85971265D01*
X161829646Y-85970197D01*
X161854621Y-85953132D01*
X161870989Y-85927695D01*
X161876200Y-85900000D01*
X161876200Y-84345862D01*
X162005394Y-84399508D01*
X162215684Y-84399692D01*
X162410037Y-84319387D01*
X162558864Y-84170819D01*
X162639508Y-83976606D01*
X162639692Y-83766316D01*
X162559387Y-83571963D01*
X162415800Y-83428126D01*
X162415800Y-83236000D01*
X162392598Y-83119358D01*
X162369800Y-83085238D01*
X162369800Y-82451762D01*
X162386911Y-82426153D01*
X163879778Y-82426035D01*
X163895474Y-82449526D01*
X164135474Y-82689526D01*
X164177665Y-82717717D01*
X164187200Y-82727252D01*
X164187200Y-83366734D01*
X164051963Y-83422613D01*
X163903136Y-83571181D01*
X163822492Y-83765394D01*
X163822308Y-83975684D01*
X163902613Y-84170037D01*
X164051181Y-84318864D01*
X164245394Y-84399508D01*
X164455684Y-84399692D01*
X164650037Y-84319387D01*
X164732013Y-84237554D01*
X164813181Y-84318864D01*
X165007394Y-84399508D01*
X165217684Y-84399692D01*
X165412037Y-84319387D01*
X165560864Y-84170819D01*
X165641508Y-83976606D01*
X165641692Y-83766316D01*
X165561387Y-83571963D01*
X165412819Y-83423136D01*
X165218606Y-83342492D01*
X165163800Y-83342444D01*
X165163800Y-82600252D01*
X165326526Y-82437526D01*
X165334281Y-82425919D01*
X166806200Y-82425802D01*
X166806200Y-83202000D01*
X166829402Y-83318642D01*
X166895474Y-83417526D01*
X167251485Y-83773537D01*
X167251308Y-83975684D01*
X167331613Y-84170037D01*
X167480181Y-84318864D01*
X167674394Y-84399508D01*
X167884684Y-84399692D01*
X168079037Y-84319387D01*
X168227864Y-84170819D01*
X168308508Y-83976606D01*
X168308692Y-83766316D01*
X168228387Y-83571963D01*
X168079819Y-83423136D01*
X167885606Y-83342492D01*
X167682366Y-83342314D01*
X167415800Y-83075748D01*
X167415800Y-82425754D01*
X168888866Y-82425636D01*
X168895474Y-82435526D01*
X169126200Y-82666252D01*
X169126200Y-83363748D01*
X169111253Y-83378695D01*
X169004963Y-83422613D01*
X168856136Y-83571181D01*
X168775492Y-83765394D01*
X168775308Y-83975684D01*
X168855613Y-84170037D01*
X169004181Y-84318864D01*
X169198394Y-84399508D01*
X169408684Y-84399692D01*
X169603037Y-84319387D01*
X169685013Y-84237554D01*
X169766181Y-84318864D01*
X169960394Y-84399508D01*
X170170684Y-84399692D01*
X170365037Y-84319387D01*
X170513864Y-84170819D01*
X170594508Y-83976606D01*
X170594692Y-83766316D01*
X170514387Y-83571963D01*
X170365819Y-83423136D01*
X170171606Y-83342492D01*
X170116800Y-83342444D01*
X170116800Y-82600252D01*
X170291527Y-82425525D01*
X172888653Y-82425318D01*
X172895474Y-82435526D01*
X173190200Y-82730252D01*
X173190200Y-83342355D01*
X173136316Y-83342308D01*
X172941963Y-83422613D01*
X172793136Y-83571181D01*
X172712492Y-83765394D01*
X172712308Y-83975684D01*
X172792613Y-84170037D01*
X172941181Y-84318864D01*
X173135394Y-84399508D01*
X173345684Y-84399692D01*
X173540037Y-84319387D01*
X173685623Y-84174054D01*
X173830181Y-84318864D01*
X174024394Y-84399508D01*
X174234684Y-84399692D01*
X174429037Y-84319387D01*
X174577864Y-84170819D01*
X174658508Y-83976606D01*
X174658692Y-83766316D01*
X174578387Y-83571963D01*
X174429819Y-83423136D01*
X174235606Y-83342492D01*
X174180800Y-83342444D01*
X174180800Y-82600252D01*
X174326526Y-82454526D01*
X174346119Y-82425202D01*
X177011938Y-82424990D01*
X177127200Y-82540252D01*
X177127200Y-83342466D01*
X176946316Y-83342308D01*
X176751963Y-83422613D01*
X176603136Y-83571181D01*
X176522492Y-83765394D01*
X176522308Y-83975684D01*
X176602613Y-84170037D01*
X176751181Y-84318864D01*
X176945394Y-84399508D01*
X177155684Y-84399692D01*
X177350037Y-84319387D01*
X177495623Y-84174054D01*
X177640181Y-84318864D01*
X177834394Y-84399508D01*
X178044684Y-84399692D01*
X178239037Y-84319387D01*
X178387864Y-84170819D01*
X178468508Y-83976606D01*
X178468692Y-83766316D01*
X178388387Y-83571963D01*
X178239819Y-83423136D01*
X178117800Y-83372469D01*
X178117800Y-82600252D01*
X178293163Y-82424889D01*
X179806200Y-82424768D01*
X179806200Y-83490000D01*
X179829402Y-83606642D01*
X179895474Y-83705526D01*
X180078384Y-83888436D01*
X180078308Y-83975684D01*
X180158613Y-84170037D01*
X180307181Y-84318864D01*
X180501394Y-84399508D01*
X180711684Y-84399692D01*
X180906037Y-84319387D01*
X181054864Y-84170819D01*
X181108528Y-84041580D01*
X181153474Y-84086526D01*
X181252358Y-84152598D01*
X181298173Y-84161711D01*
X181301613Y-84170037D01*
X181450181Y-84318864D01*
X181644394Y-84399508D01*
X181854684Y-84399692D01*
X182049037Y-84319387D01*
X182197864Y-84170819D01*
X182278508Y-83976606D01*
X182278692Y-83766316D01*
X182198387Y-83571963D01*
X182049819Y-83423136D01*
X181855606Y-83342492D01*
X181645316Y-83342308D01*
X181450963Y-83422613D01*
X181401271Y-83472219D01*
X181165800Y-83236748D01*
X181165800Y-82600252D01*
X181326526Y-82439526D01*
X181336468Y-82424647D01*
X182947966Y-82424518D01*
X183286700Y-82763252D01*
X183286700Y-83428366D01*
X183143636Y-83571181D01*
X183062992Y-83765394D01*
X183062808Y-83975684D01*
X183143113Y-84170037D01*
X183291681Y-84318864D01*
X183485894Y-84399508D01*
X183696184Y-84399692D01*
X183890537Y-84319387D01*
X184004318Y-84205804D01*
X184117181Y-84318864D01*
X184311394Y-84399508D01*
X184521684Y-84399692D01*
X184716037Y-84319387D01*
X184864864Y-84170819D01*
X184945508Y-83976606D01*
X184945692Y-83766316D01*
X184865387Y-83571963D01*
X184716819Y-83423136D01*
X184522606Y-83342492D01*
X184319366Y-83342314D01*
X184213800Y-83236748D01*
X184213800Y-82473252D01*
X184262638Y-82424414D01*
X186887910Y-82424205D01*
X186895474Y-82435526D01*
X187033200Y-82573252D01*
X187033200Y-83342355D01*
X186979316Y-83342308D01*
X186784963Y-83422613D01*
X186636136Y-83571181D01*
X186555492Y-83765394D01*
X186555308Y-83975684D01*
X186635613Y-84170037D01*
X186784181Y-84318864D01*
X186978394Y-84399508D01*
X187188684Y-84399692D01*
X187383037Y-84319387D01*
X187528623Y-84174054D01*
X187673181Y-84318864D01*
X187867394Y-84399508D01*
X188077684Y-84399692D01*
X188272037Y-84319387D01*
X188420864Y-84170819D01*
X188501508Y-83976606D01*
X188501692Y-83766316D01*
X188421387Y-83571963D01*
X188272819Y-83423136D01*
X188078606Y-83342492D01*
X188023800Y-83342444D01*
X188023800Y-82611252D01*
X188210952Y-82424100D01*
X190920833Y-82423885D01*
X191097200Y-82600252D01*
X191097200Y-83342466D01*
X190916316Y-83342308D01*
X190721963Y-83422613D01*
X190573136Y-83571181D01*
X190492492Y-83765394D01*
X190492308Y-83975684D01*
X190572613Y-84170037D01*
X190721181Y-84318864D01*
X190915394Y-84399508D01*
X191125684Y-84399692D01*
X191320037Y-84319387D01*
X191465623Y-84174054D01*
X191610181Y-84318864D01*
X191804394Y-84399508D01*
X192014684Y-84399692D01*
X192209037Y-84319387D01*
X192357864Y-84170819D01*
X192438508Y-83976606D01*
X192438692Y-83766316D01*
X192358387Y-83571963D01*
X192209819Y-83423136D01*
X192102714Y-83378662D01*
X192087800Y-83363748D01*
X192087800Y-82674252D01*
X192326526Y-82435526D01*
X192334380Y-82423772D01*
X194984509Y-82423561D01*
X195161200Y-82600252D01*
X195161200Y-83342355D01*
X195107316Y-83342308D01*
X194912963Y-83422613D01*
X194764136Y-83571181D01*
X194683492Y-83765394D01*
X194683308Y-83975684D01*
X194763613Y-84170037D01*
X194912181Y-84318864D01*
X195106394Y-84399508D01*
X195316684Y-84399692D01*
X195511037Y-84319387D01*
X195656623Y-84174054D01*
X195801181Y-84318864D01*
X195995394Y-84399508D01*
X196205684Y-84399692D01*
X196400037Y-84319387D01*
X196548864Y-84170819D01*
X196629508Y-83976606D01*
X196629692Y-83766316D01*
X196549387Y-83571963D01*
X196400819Y-83423136D01*
X196206606Y-83342492D01*
X196151800Y-83342444D01*
X196151800Y-82600252D01*
X196326526Y-82425526D01*
X196327910Y-82423455D01*
X197828200Y-82423335D01*
X197828200Y-83236000D01*
X197851402Y-83352642D01*
X197917474Y-83451526D01*
X198239485Y-83773537D01*
X198239308Y-83975684D01*
X198319613Y-84170037D01*
X198468181Y-84318864D01*
X198662394Y-84399508D01*
X198872684Y-84399692D01*
X199067037Y-84319387D01*
X199215864Y-84170819D01*
X199296508Y-83976606D01*
X199296692Y-83766316D01*
X199216387Y-83571963D01*
X199067819Y-83423136D01*
X198873606Y-83342492D01*
X198670366Y-83342314D01*
X198437800Y-83109748D01*
X198437800Y-82423287D01*
X199453800Y-82423206D01*
X199453800Y-88540346D01*
X199453800Y-88540346D01*
G37*
X199453800Y-88540346D02*
X199291326Y-88946531D01*
X199281983Y-88996688D01*
X199271420Y-89046603D01*
X199272053Y-89050000D01*
X199271420Y-89053397D01*
X199281983Y-89103312D01*
X199291326Y-89153469D01*
X199453800Y-89559654D01*
X199453800Y-95732782D01*
X198233545Y-95732493D01*
X198183800Y-95682748D01*
X198183800Y-94402481D01*
X198305037Y-94352387D01*
X198453864Y-94203819D01*
X198534508Y-94009606D01*
X198534692Y-93799316D01*
X198454387Y-93604963D01*
X198305819Y-93456136D01*
X198111606Y-93375492D01*
X197901316Y-93375308D01*
X197706963Y-93455613D01*
X197624987Y-93537446D01*
X197543819Y-93456136D01*
X197349606Y-93375492D01*
X197139316Y-93375308D01*
X196944963Y-93455613D01*
X196796136Y-93604181D01*
X196715492Y-93798394D01*
X196715308Y-94008684D01*
X196795613Y-94203037D01*
X196944181Y-94351864D01*
X197138394Y-94432508D01*
X197193200Y-94432556D01*
X197193200Y-95555748D01*
X197016744Y-95732204D01*
X194390743Y-95731582D01*
X194326526Y-95635474D01*
X194119800Y-95428748D01*
X194119800Y-94402481D01*
X194241037Y-94352387D01*
X194389864Y-94203819D01*
X194470508Y-94009606D01*
X194470692Y-93799316D01*
X194390387Y-93604963D01*
X194241819Y-93456136D01*
X194047606Y-93375492D01*
X193837316Y-93375308D01*
X193642963Y-93455613D01*
X193560987Y-93537446D01*
X193479819Y-93456136D01*
X193285606Y-93375492D01*
X193075316Y-93375308D01*
X192880963Y-93455613D01*
X192732136Y-93604181D01*
X192651492Y-93798394D01*
X192651308Y-94008684D01*
X192731613Y-94203037D01*
X192880181Y-94351864D01*
X193074394Y-94432508D01*
X193129200Y-94432556D01*
X193129200Y-95555748D01*
X192953706Y-95731242D01*
X190230648Y-95730596D01*
X190182800Y-95682748D01*
X190182800Y-94402481D01*
X190304037Y-94352387D01*
X190452864Y-94203819D01*
X190533508Y-94009606D01*
X190533692Y-93799316D01*
X190453387Y-93604963D01*
X190304819Y-93456136D01*
X190110606Y-93375492D01*
X189900316Y-93375308D01*
X189705963Y-93455613D01*
X189623987Y-93537446D01*
X189542819Y-93456136D01*
X189348606Y-93375492D01*
X189138316Y-93375308D01*
X188943963Y-93455613D01*
X188795136Y-93604181D01*
X188714492Y-93798394D01*
X188714308Y-94008684D01*
X188794613Y-94203037D01*
X188943181Y-94351864D01*
X189137394Y-94432508D01*
X189192200Y-94432556D01*
X189192200Y-95555748D01*
X189017639Y-95730309D01*
X186208695Y-95729643D01*
X186118800Y-95639748D01*
X186118800Y-94432645D01*
X186172684Y-94432692D01*
X186367037Y-94352387D01*
X186515864Y-94203819D01*
X186596508Y-94009606D01*
X186596692Y-93799316D01*
X186516387Y-93604963D01*
X186367819Y-93456136D01*
X186173606Y-93375492D01*
X185963316Y-93375308D01*
X185768963Y-93455613D01*
X185623377Y-93600946D01*
X185478819Y-93456136D01*
X185284606Y-93375492D01*
X185074316Y-93375308D01*
X184879963Y-93455613D01*
X184731136Y-93604181D01*
X184650492Y-93798394D01*
X184650308Y-94008684D01*
X184730613Y-94203037D01*
X184879181Y-94351864D01*
X185073394Y-94432508D01*
X185128200Y-94432556D01*
X185128200Y-95555748D01*
X184954602Y-95729346D01*
X183261300Y-95728945D01*
X183261300Y-95045245D01*
X183340864Y-94965819D01*
X183421508Y-94771606D01*
X183421692Y-94561316D01*
X183341387Y-94366963D01*
X183192819Y-94218136D01*
X182998606Y-94137492D01*
X182788316Y-94137308D01*
X182593963Y-94217613D01*
X182445136Y-94366181D01*
X182435800Y-94388665D01*
X182435800Y-94346634D01*
X182578864Y-94203819D01*
X182659508Y-94009606D01*
X182659692Y-93799316D01*
X182579387Y-93604963D01*
X182430819Y-93456136D01*
X182236606Y-93375492D01*
X182026316Y-93375308D01*
X181831963Y-93455613D01*
X181683136Y-93604181D01*
X181602492Y-93798394D01*
X181602308Y-94008684D01*
X181682613Y-94203037D01*
X181826200Y-94346874D01*
X181826200Y-94983500D01*
X181849402Y-95100142D01*
X181915474Y-95199026D01*
X181953200Y-95236752D01*
X181953200Y-95682748D01*
X181907324Y-95728624D01*
X180331722Y-95728251D01*
X180326526Y-95720474D01*
X180149800Y-95543748D01*
X180149800Y-94402481D01*
X180271037Y-94352387D01*
X180419864Y-94203819D01*
X180500508Y-94009606D01*
X180500692Y-93799316D01*
X180420387Y-93604963D01*
X180271819Y-93456136D01*
X180077606Y-93375492D01*
X179867316Y-93375308D01*
X179672963Y-93455613D01*
X179590987Y-93537446D01*
X179509819Y-93456136D01*
X179315606Y-93375492D01*
X179105316Y-93375308D01*
X178910963Y-93455613D01*
X178762136Y-93604181D01*
X178681492Y-93798394D01*
X178681308Y-94008684D01*
X178761613Y-94203037D01*
X178910181Y-94351864D01*
X179104394Y-94432508D01*
X179159200Y-94432556D01*
X179159200Y-95428748D01*
X178895474Y-95692474D01*
X178871800Y-95727905D01*
X176257337Y-95727285D01*
X176212800Y-95682748D01*
X176212800Y-94402481D01*
X176334037Y-94352387D01*
X176482864Y-94203819D01*
X176563508Y-94009606D01*
X176563692Y-93799316D01*
X176483387Y-93604963D01*
X176334819Y-93456136D01*
X176140606Y-93375492D01*
X175930316Y-93375308D01*
X175735963Y-93455613D01*
X175590377Y-93600946D01*
X175445819Y-93456136D01*
X175251606Y-93375492D01*
X175041316Y-93375308D01*
X174846963Y-93455613D01*
X174698136Y-93604181D01*
X174617492Y-93798394D01*
X174617308Y-94008684D01*
X174697613Y-94203037D01*
X174846181Y-94351864D01*
X175040394Y-94432508D01*
X175222200Y-94432667D01*
X175222200Y-95520748D01*
X175015957Y-95726991D01*
X172319404Y-95726352D01*
X172148800Y-95555748D01*
X172148800Y-94432645D01*
X172202684Y-94432692D01*
X172397037Y-94352387D01*
X172545864Y-94203819D01*
X172626508Y-94009606D01*
X172626692Y-93799316D01*
X172546387Y-93604963D01*
X172397819Y-93456136D01*
X172203606Y-93375492D01*
X171993316Y-93375308D01*
X171798963Y-93455613D01*
X171653377Y-93600946D01*
X171508819Y-93456136D01*
X171314606Y-93375492D01*
X171104316Y-93375308D01*
X170909963Y-93455613D01*
X170761136Y-93604181D01*
X170680492Y-93798394D01*
X170680308Y-94008684D01*
X170760613Y-94203037D01*
X170909181Y-94351864D01*
X171103394Y-94432508D01*
X171158200Y-94432556D01*
X171158200Y-95555748D01*
X170987912Y-95726036D01*
X169415800Y-95725664D01*
X169415800Y-94473000D01*
X169407782Y-94432692D01*
X169392599Y-94356359D01*
X169326526Y-94257474D01*
X169070515Y-94001463D01*
X169070692Y-93799316D01*
X168990387Y-93604963D01*
X168841819Y-93456136D01*
X168647606Y-93375492D01*
X168437316Y-93375308D01*
X168242963Y-93455613D01*
X168094136Y-93604181D01*
X168013492Y-93798394D01*
X168013308Y-94008684D01*
X168093613Y-94203037D01*
X168242181Y-94351864D01*
X168436394Y-94432508D01*
X168639634Y-94432686D01*
X168806200Y-94599252D01*
X168806200Y-95725519D01*
X167363669Y-95725178D01*
X167360526Y-95720474D01*
X167195800Y-95555748D01*
X167195800Y-94432645D01*
X167249684Y-94432692D01*
X167444037Y-94352387D01*
X167592864Y-94203819D01*
X167673508Y-94009606D01*
X167673692Y-93799316D01*
X167593387Y-93604963D01*
X167444819Y-93456136D01*
X167250606Y-93375492D01*
X167040316Y-93375308D01*
X166845963Y-93455613D01*
X166700377Y-93600946D01*
X166555819Y-93456136D01*
X166361606Y-93375492D01*
X166151316Y-93375308D01*
X165956963Y-93455613D01*
X165808136Y-93604181D01*
X165727492Y-93798394D01*
X165727308Y-94008684D01*
X165807613Y-94203037D01*
X165956181Y-94351864D01*
X166150394Y-94432508D01*
X166205200Y-94432556D01*
X166205200Y-95555748D01*
X166036085Y-95724863D01*
X164316508Y-95724456D01*
X164020800Y-95428748D01*
X164020800Y-94432645D01*
X164074684Y-94432692D01*
X164269037Y-94352387D01*
X164417864Y-94203819D01*
X164498508Y-94009606D01*
X164498692Y-93799316D01*
X164418387Y-93604963D01*
X164269819Y-93456136D01*
X164075606Y-93375492D01*
X163865316Y-93375308D01*
X163670963Y-93455613D01*
X163525377Y-93600946D01*
X163380819Y-93456136D01*
X163186606Y-93375492D01*
X162976316Y-93375308D01*
X162781963Y-93455613D01*
X162633136Y-93604181D01*
X162552492Y-93798394D01*
X162552308Y-94008684D01*
X162632613Y-94203037D01*
X162781181Y-94351864D01*
X162975394Y-94432508D01*
X163030200Y-94432556D01*
X163030200Y-95428748D01*
X162895474Y-95563474D01*
X162829402Y-95662358D01*
X162817120Y-95724100D01*
X161828600Y-95723866D01*
X161828600Y-92929184D01*
X167568808Y-92929184D01*
X167649113Y-93123537D01*
X167797681Y-93272364D01*
X167991894Y-93353008D01*
X168202184Y-93353192D01*
X168396537Y-93272887D01*
X168545364Y-93124319D01*
X168626008Y-92930106D01*
X168626192Y-92719816D01*
X168545887Y-92525463D01*
X168397319Y-92376636D01*
X168203106Y-92295992D01*
X167992816Y-92295808D01*
X167798463Y-92376113D01*
X167649636Y-92524681D01*
X167568992Y-92718894D01*
X167568808Y-92929184D01*
X161828600Y-92929184D01*
X161828600Y-92400000D01*
X161807393Y-92293384D01*
X161747000Y-92203000D01*
X161656616Y-92142607D01*
X161550000Y-92121400D01*
X159650000Y-92121400D01*
X159543384Y-92142607D01*
X159453000Y-92203000D01*
X159392607Y-92293384D01*
X159371400Y-92400000D01*
X159371400Y-94357633D01*
X159326526Y-94290474D01*
X158910626Y-93874574D01*
X158910692Y-93799316D01*
X158830387Y-93604963D01*
X158681819Y-93456136D01*
X158487606Y-93375492D01*
X158277316Y-93375308D01*
X158082963Y-93455613D01*
X157934136Y-93604181D01*
X157853492Y-93798394D01*
X157853308Y-94008684D01*
X157933613Y-94203037D01*
X158082181Y-94351864D01*
X158276394Y-94432508D01*
X158486684Y-94432692D01*
X158571567Y-94397619D01*
X158806200Y-94632252D01*
X158806200Y-95724496D01*
X158639600Y-95724633D01*
X158639600Y-95445005D01*
X158639601Y-95445000D01*
X158639600Y-95444997D01*
X158639692Y-95340316D01*
X158559387Y-95145963D01*
X158410819Y-94997136D01*
X158335589Y-94965898D01*
X158296287Y-94939637D01*
X158250330Y-94930496D01*
X158216606Y-94916492D01*
X158179769Y-94916460D01*
X158094000Y-94899399D01*
X158093995Y-94899400D01*
X156477461Y-94899400D01*
X156372316Y-94899308D01*
X156177963Y-94979613D01*
X156146800Y-95010722D01*
X156146800Y-94432645D01*
X156200684Y-94432692D01*
X156395037Y-94352387D01*
X156543864Y-94203819D01*
X156624508Y-94009606D01*
X156624692Y-93799316D01*
X156544387Y-93604963D01*
X156395819Y-93456136D01*
X156201606Y-93375492D01*
X155991316Y-93375308D01*
X155796963Y-93455613D01*
X155651377Y-93600946D01*
X155506819Y-93456136D01*
X155312606Y-93375492D01*
X155102316Y-93375308D01*
X154907963Y-93455613D01*
X154759136Y-93604181D01*
X154678492Y-93798394D01*
X154678308Y-94008684D01*
X154758613Y-94203037D01*
X154907181Y-94351864D01*
X155101394Y-94432508D01*
X155156200Y-94432556D01*
X155156200Y-95555748D01*
X154984303Y-95727645D01*
X154207338Y-95728286D01*
X154114800Y-95635748D01*
X154114800Y-94432645D01*
X154168684Y-94432692D01*
X154363037Y-94352387D01*
X154511864Y-94203819D01*
X154592508Y-94009606D01*
X154592692Y-93799316D01*
X154512387Y-93604963D01*
X154363819Y-93456136D01*
X154169606Y-93375492D01*
X153959316Y-93375308D01*
X153764963Y-93455613D01*
X153619377Y-93600946D01*
X153474819Y-93456136D01*
X153280606Y-93375492D01*
X153070316Y-93375308D01*
X152875963Y-93455613D01*
X152727136Y-93604181D01*
X152646492Y-93798394D01*
X152646308Y-94008684D01*
X152726613Y-94203037D01*
X152875181Y-94351864D01*
X153069394Y-94432508D01*
X153124200Y-94432556D01*
X153124200Y-95555748D01*
X152950627Y-95729321D01*
X151639600Y-95730402D01*
X151639600Y-95333000D01*
X151639692Y-95228316D01*
X151559387Y-95033963D01*
X151410819Y-94885136D01*
X151334278Y-94853353D01*
X151297287Y-94828637D01*
X151254034Y-94820033D01*
X151216606Y-94804492D01*
X151175724Y-94804456D01*
X151095000Y-94788399D01*
X151014983Y-94804316D01*
X151006316Y-94804308D01*
X151006093Y-94804400D01*
X150349005Y-94804400D01*
X150349000Y-94804399D01*
X150146713Y-94844637D01*
X149975223Y-94959223D01*
X149737223Y-95197223D01*
X149622637Y-95368713D01*
X149582399Y-95571000D01*
X149582400Y-95571005D01*
X149582400Y-95732097D01*
X149415800Y-95732235D01*
X149415800Y-94538252D01*
X149521537Y-94432515D01*
X149723684Y-94432692D01*
X149918037Y-94352387D01*
X150066864Y-94203819D01*
X150147508Y-94009606D01*
X150147692Y-93799316D01*
X150067387Y-93604963D01*
X149918819Y-93456136D01*
X149724606Y-93375492D01*
X149514316Y-93375308D01*
X149319963Y-93455613D01*
X149171136Y-93604181D01*
X149090492Y-93798394D01*
X149090314Y-94001634D01*
X148895474Y-94196474D01*
X148829402Y-94295358D01*
X148806200Y-94412000D01*
X148806200Y-89606169D01*
X149038897Y-89218339D01*
X149051673Y-89182684D01*
X149090308Y-89182684D01*
X149170613Y-89377037D01*
X149319181Y-89525864D01*
X149513394Y-89606508D01*
X149723684Y-89606692D01*
X149918037Y-89526387D01*
X150061874Y-89382800D01*
X167337366Y-89382800D01*
X167480181Y-89525864D01*
X167674394Y-89606508D01*
X167884684Y-89606692D01*
X168079037Y-89526387D01*
X168222874Y-89382800D01*
X180960257Y-89382800D01*
X180984113Y-89440537D01*
X181132681Y-89589364D01*
X181326894Y-89670008D01*
X181537184Y-89670192D01*
X181731537Y-89589887D01*
X181880364Y-89441319D01*
X181904663Y-89382800D01*
X198257366Y-89382800D01*
X198400181Y-89525864D01*
X198594394Y-89606508D01*
X198804684Y-89606692D01*
X198999037Y-89526387D01*
X199147864Y-89377819D01*
X199228508Y-89183606D01*
X199228692Y-88973316D01*
X199148387Y-88778963D01*
X198999819Y-88630136D01*
X198805606Y-88549492D01*
X198595316Y-88549308D01*
X198400963Y-88629613D01*
X198257126Y-88773200D01*
X181811745Y-88773200D01*
X181732319Y-88693636D01*
X181538106Y-88612992D01*
X181327816Y-88612808D01*
X181133463Y-88693113D01*
X181053236Y-88773200D01*
X168222634Y-88773200D01*
X168079819Y-88630136D01*
X167885606Y-88549492D01*
X167675316Y-88549308D01*
X167480963Y-88629613D01*
X167337126Y-88773200D01*
X150061634Y-88773200D01*
X149918819Y-88630136D01*
X149724606Y-88549492D01*
X149514316Y-88549308D01*
X149319963Y-88629613D01*
X149171136Y-88778181D01*
X149090492Y-88972394D01*
X149090308Y-89182684D01*
X149051673Y-89182684D01*
X149052745Y-89179694D01*
X149070282Y-89142570D01*
X149070948Y-89128894D01*
X149075566Y-89116005D01*
X149073570Y-89075000D01*
X149075566Y-89033995D01*
X149070948Y-89021106D01*
X149070282Y-89007430D01*
X149052745Y-88970306D01*
X149038897Y-88931661D01*
X148806200Y-88543831D01*
X148806200Y-83147866D01*
X148908714Y-83216363D01*
X149111000Y-83256600D01*
X151078995Y-83256600D01*
X151079000Y-83256601D01*
X151281287Y-83216363D01*
X151354928Y-83167157D01*
X151410037Y-83144387D01*
X151452608Y-83101890D01*
X151452777Y-83101777D01*
X151484777Y-83069777D01*
X151558864Y-82995819D01*
X151639508Y-82801606D01*
X151639600Y-82696003D01*
X151639601Y-82696000D01*
X151639600Y-82695997D01*
X151639692Y-82591316D01*
X151639600Y-82591093D01*
X151639600Y-82424007D01*
X152806200Y-82424330D01*
X152806200Y-82792748D01*
X152256463Y-83342485D01*
X152054316Y-83342308D01*
X151859963Y-83422613D01*
X151711136Y-83571181D01*
X151630492Y-83765394D01*
X151630308Y-83975684D01*
X151710613Y-84170037D01*
X151859181Y-84318864D01*
X152053394Y-84399508D01*
X152263684Y-84399692D01*
X152458037Y-84319387D01*
X152606864Y-84170819D01*
X152687508Y-83976606D01*
X152687686Y-83773366D01*
X153326526Y-83134526D01*
X153392598Y-83035642D01*
X153415800Y-82919000D01*
X153415800Y-82424499D01*
X153806200Y-82424607D01*
X153806200Y-83045500D01*
X153829402Y-83162142D01*
X153895474Y-83261026D01*
X154106970Y-83472522D01*
X154106808Y-83658184D01*
X154187113Y-83852537D01*
X154335681Y-84001364D01*
X154529894Y-84082008D01*
X154740184Y-84082192D01*
X154934537Y-84001887D01*
X155083364Y-83853319D01*
X155164008Y-83659106D01*
X155164192Y-83448816D01*
X155083887Y-83254463D01*
X154935319Y-83105636D01*
X154741106Y-83024992D01*
X154530816Y-83024808D01*
X154524125Y-83027573D01*
X154415800Y-82919248D01*
X154415800Y-82424776D01*
X155594951Y-82425103D01*
X155622637Y-82564287D01*
X155737223Y-82735777D01*
X156103184Y-83101738D01*
X156177181Y-83175864D01*
X156371394Y-83256508D01*
X156581684Y-83256692D01*
X156740284Y-83191160D01*
X156703402Y-83246358D01*
X156680200Y-83363000D01*
X156680200Y-83428366D01*
X156537136Y-83571181D01*
X156456492Y-83765394D01*
X156456308Y-83975684D01*
X156536613Y-84170037D01*
X156685181Y-84318864D01*
X156879394Y-84399508D01*
X157089684Y-84399692D01*
X157284037Y-84319387D01*
X157432864Y-84170819D01*
X157513508Y-83976606D01*
X157513692Y-83766316D01*
X157433387Y-83571963D01*
X157320337Y-83458715D01*
X157326526Y-83452526D01*
X157326927Y-83451927D01*
X157327526Y-83451526D01*
X157393598Y-83352641D01*
X157416800Y-83236000D01*
X157415800Y-83230973D01*
X157415800Y-82733027D01*
X157416800Y-82728000D01*
X157415800Y-82722973D01*
X157415800Y-82425608D01*
X157582400Y-82425655D01*
X157582400Y-82710539D01*
X157582308Y-82815684D01*
X157662613Y-83010037D01*
X157811181Y-83158864D01*
X158005394Y-83239508D01*
X158215684Y-83239692D01*
X158410037Y-83159387D01*
X158558864Y-83010819D01*
X158639508Y-82816606D01*
X158639692Y-82606316D01*
X158639600Y-82606093D01*
X158639600Y-82425948D01*
X158839200Y-82426003D01*
X158839200Y-83411359D01*
X158811963Y-83422613D01*
X158663136Y-83571181D01*
X158582492Y-83765394D01*
X158582308Y-83975684D01*
X158662613Y-84170037D01*
X158811181Y-84318864D01*
X159005394Y-84399508D01*
X159215684Y-84399692D01*
X159371400Y-84335351D01*
X159371400Y-85950000D01*
X159392607Y-86056616D01*
X159453000Y-86147000D01*
X159543384Y-86207393D01*
X159650000Y-86228600D01*
X161550000Y-86228600D01*
X161656616Y-86207393D01*
X161747000Y-86147000D01*
X161807393Y-86056616D01*
X161824370Y-85971265D01*
X161829646Y-85970197D01*
X161854621Y-85953132D01*
X161870989Y-85927695D01*
X161876200Y-85900000D01*
X161876200Y-84345862D01*
X162005394Y-84399508D01*
X162215684Y-84399692D01*
X162410037Y-84319387D01*
X162558864Y-84170819D01*
X162639508Y-83976606D01*
X162639692Y-83766316D01*
X162559387Y-83571963D01*
X162415800Y-83428126D01*
X162415800Y-83236000D01*
X162392598Y-83119358D01*
X162369800Y-83085238D01*
X162369800Y-82451762D01*
X162386911Y-82426153D01*
X163879778Y-82426035D01*
X163895474Y-82449526D01*
X164135474Y-82689526D01*
X164177665Y-82717717D01*
X164187200Y-82727252D01*
X164187200Y-83366734D01*
X164051963Y-83422613D01*
X163903136Y-83571181D01*
X163822492Y-83765394D01*
X163822308Y-83975684D01*
X163902613Y-84170037D01*
X164051181Y-84318864D01*
X164245394Y-84399508D01*
X164455684Y-84399692D01*
X164650037Y-84319387D01*
X164732013Y-84237554D01*
X164813181Y-84318864D01*
X165007394Y-84399508D01*
X165217684Y-84399692D01*
X165412037Y-84319387D01*
X165560864Y-84170819D01*
X165641508Y-83976606D01*
X165641692Y-83766316D01*
X165561387Y-83571963D01*
X165412819Y-83423136D01*
X165218606Y-83342492D01*
X165163800Y-83342444D01*
X165163800Y-82600252D01*
X165326526Y-82437526D01*
X165334281Y-82425919D01*
X166806200Y-82425802D01*
X166806200Y-83202000D01*
X166829402Y-83318642D01*
X166895474Y-83417526D01*
X167251485Y-83773537D01*
X167251308Y-83975684D01*
X167331613Y-84170037D01*
X167480181Y-84318864D01*
X167674394Y-84399508D01*
X167884684Y-84399692D01*
X168079037Y-84319387D01*
X168227864Y-84170819D01*
X168308508Y-83976606D01*
X168308692Y-83766316D01*
X168228387Y-83571963D01*
X168079819Y-83423136D01*
X167885606Y-83342492D01*
X167682366Y-83342314D01*
X167415800Y-83075748D01*
X167415800Y-82425754D01*
X168888866Y-82425636D01*
X168895474Y-82435526D01*
X169126200Y-82666252D01*
X169126200Y-83363748D01*
X169111253Y-83378695D01*
X169004963Y-83422613D01*
X168856136Y-83571181D01*
X168775492Y-83765394D01*
X168775308Y-83975684D01*
X168855613Y-84170037D01*
X169004181Y-84318864D01*
X169198394Y-84399508D01*
X169408684Y-84399692D01*
X169603037Y-84319387D01*
X169685013Y-84237554D01*
X169766181Y-84318864D01*
X169960394Y-84399508D01*
X170170684Y-84399692D01*
X170365037Y-84319387D01*
X170513864Y-84170819D01*
X170594508Y-83976606D01*
X170594692Y-83766316D01*
X170514387Y-83571963D01*
X170365819Y-83423136D01*
X170171606Y-83342492D01*
X170116800Y-83342444D01*
X170116800Y-82600252D01*
X170291527Y-82425525D01*
X172888653Y-82425318D01*
X172895474Y-82435526D01*
X173190200Y-82730252D01*
X173190200Y-83342355D01*
X173136316Y-83342308D01*
X172941963Y-83422613D01*
X172793136Y-83571181D01*
X172712492Y-83765394D01*
X172712308Y-83975684D01*
X172792613Y-84170037D01*
X172941181Y-84318864D01*
X173135394Y-84399508D01*
X173345684Y-84399692D01*
X173540037Y-84319387D01*
X173685623Y-84174054D01*
X173830181Y-84318864D01*
X174024394Y-84399508D01*
X174234684Y-84399692D01*
X174429037Y-84319387D01*
X174577864Y-84170819D01*
X174658508Y-83976606D01*
X174658692Y-83766316D01*
X174578387Y-83571963D01*
X174429819Y-83423136D01*
X174235606Y-83342492D01*
X174180800Y-83342444D01*
X174180800Y-82600252D01*
X174326526Y-82454526D01*
X174346119Y-82425202D01*
X177011938Y-82424990D01*
X177127200Y-82540252D01*
X177127200Y-83342466D01*
X176946316Y-83342308D01*
X176751963Y-83422613D01*
X176603136Y-83571181D01*
X176522492Y-83765394D01*
X176522308Y-83975684D01*
X176602613Y-84170037D01*
X176751181Y-84318864D01*
X176945394Y-84399508D01*
X177155684Y-84399692D01*
X177350037Y-84319387D01*
X177495623Y-84174054D01*
X177640181Y-84318864D01*
X177834394Y-84399508D01*
X178044684Y-84399692D01*
X178239037Y-84319387D01*
X178387864Y-84170819D01*
X178468508Y-83976606D01*
X178468692Y-83766316D01*
X178388387Y-83571963D01*
X178239819Y-83423136D01*
X178117800Y-83372469D01*
X178117800Y-82600252D01*
X178293163Y-82424889D01*
X179806200Y-82424768D01*
X179806200Y-83490000D01*
X179829402Y-83606642D01*
X179895474Y-83705526D01*
X180078384Y-83888436D01*
X180078308Y-83975684D01*
X180158613Y-84170037D01*
X180307181Y-84318864D01*
X180501394Y-84399508D01*
X180711684Y-84399692D01*
X180906037Y-84319387D01*
X181054864Y-84170819D01*
X181108528Y-84041580D01*
X181153474Y-84086526D01*
X181252358Y-84152598D01*
X181298173Y-84161711D01*
X181301613Y-84170037D01*
X181450181Y-84318864D01*
X181644394Y-84399508D01*
X181854684Y-84399692D01*
X182049037Y-84319387D01*
X182197864Y-84170819D01*
X182278508Y-83976606D01*
X182278692Y-83766316D01*
X182198387Y-83571963D01*
X182049819Y-83423136D01*
X181855606Y-83342492D01*
X181645316Y-83342308D01*
X181450963Y-83422613D01*
X181401271Y-83472219D01*
X181165800Y-83236748D01*
X181165800Y-82600252D01*
X181326526Y-82439526D01*
X181336468Y-82424647D01*
X182947966Y-82424518D01*
X183286700Y-82763252D01*
X183286700Y-83428366D01*
X183143636Y-83571181D01*
X183062992Y-83765394D01*
X183062808Y-83975684D01*
X183143113Y-84170037D01*
X183291681Y-84318864D01*
X183485894Y-84399508D01*
X183696184Y-84399692D01*
X183890537Y-84319387D01*
X184004318Y-84205804D01*
X184117181Y-84318864D01*
X184311394Y-84399508D01*
X184521684Y-84399692D01*
X184716037Y-84319387D01*
X184864864Y-84170819D01*
X184945508Y-83976606D01*
X184945692Y-83766316D01*
X184865387Y-83571963D01*
X184716819Y-83423136D01*
X184522606Y-83342492D01*
X184319366Y-83342314D01*
X184213800Y-83236748D01*
X184213800Y-82473252D01*
X184262638Y-82424414D01*
X186887910Y-82424205D01*
X186895474Y-82435526D01*
X187033200Y-82573252D01*
X187033200Y-83342355D01*
X186979316Y-83342308D01*
X186784963Y-83422613D01*
X186636136Y-83571181D01*
X186555492Y-83765394D01*
X186555308Y-83975684D01*
X186635613Y-84170037D01*
X186784181Y-84318864D01*
X186978394Y-84399508D01*
X187188684Y-84399692D01*
X187383037Y-84319387D01*
X187528623Y-84174054D01*
X187673181Y-84318864D01*
X187867394Y-84399508D01*
X188077684Y-84399692D01*
X188272037Y-84319387D01*
X188420864Y-84170819D01*
X188501508Y-83976606D01*
X188501692Y-83766316D01*
X188421387Y-83571963D01*
X188272819Y-83423136D01*
X188078606Y-83342492D01*
X188023800Y-83342444D01*
X188023800Y-82611252D01*
X188210952Y-82424100D01*
X190920833Y-82423885D01*
X191097200Y-82600252D01*
X191097200Y-83342466D01*
X190916316Y-83342308D01*
X190721963Y-83422613D01*
X190573136Y-83571181D01*
X190492492Y-83765394D01*
X190492308Y-83975684D01*
X190572613Y-84170037D01*
X190721181Y-84318864D01*
X190915394Y-84399508D01*
X191125684Y-84399692D01*
X191320037Y-84319387D01*
X191465623Y-84174054D01*
X191610181Y-84318864D01*
X191804394Y-84399508D01*
X192014684Y-84399692D01*
X192209037Y-84319387D01*
X192357864Y-84170819D01*
X192438508Y-83976606D01*
X192438692Y-83766316D01*
X192358387Y-83571963D01*
X192209819Y-83423136D01*
X192102714Y-83378662D01*
X192087800Y-83363748D01*
X192087800Y-82674252D01*
X192326526Y-82435526D01*
X192334380Y-82423772D01*
X194984509Y-82423561D01*
X195161200Y-82600252D01*
X195161200Y-83342355D01*
X195107316Y-83342308D01*
X194912963Y-83422613D01*
X194764136Y-83571181D01*
X194683492Y-83765394D01*
X194683308Y-83975684D01*
X194763613Y-84170037D01*
X194912181Y-84318864D01*
X195106394Y-84399508D01*
X195316684Y-84399692D01*
X195511037Y-84319387D01*
X195656623Y-84174054D01*
X195801181Y-84318864D01*
X195995394Y-84399508D01*
X196205684Y-84399692D01*
X196400037Y-84319387D01*
X196548864Y-84170819D01*
X196629508Y-83976606D01*
X196629692Y-83766316D01*
X196549387Y-83571963D01*
X196400819Y-83423136D01*
X196206606Y-83342492D01*
X196151800Y-83342444D01*
X196151800Y-82600252D01*
X196326526Y-82425526D01*
X196327910Y-82423455D01*
X197828200Y-82423335D01*
X197828200Y-83236000D01*
X197851402Y-83352642D01*
X197917474Y-83451526D01*
X198239485Y-83773537D01*
X198239308Y-83975684D01*
X198319613Y-84170037D01*
X198468181Y-84318864D01*
X198662394Y-84399508D01*
X198872684Y-84399692D01*
X199067037Y-84319387D01*
X199215864Y-84170819D01*
X199296508Y-83976606D01*
X199296692Y-83766316D01*
X199216387Y-83571963D01*
X199067819Y-83423136D01*
X198873606Y-83342492D01*
X198670366Y-83342314D01*
X198437800Y-83109748D01*
X198437800Y-82423287D01*
X199453800Y-82423206D01*
X199453800Y-88540346D01*
D19*
X168097500Y-92824500D03*
X151111000Y-82696000D03*
X151111000Y-95333000D03*
X148984000Y-92761000D03*
X149111000Y-83871000D03*
X149111000Y-87046000D03*
X150000000Y-90094000D03*
X150000000Y-88062000D03*
X152730500Y-88379500D03*
X152667000Y-89713000D03*
X154318000Y-89713000D03*
X172733000Y-89967000D03*
X174701500Y-89903500D03*
X176733500Y-89903500D03*
X178384500Y-89903500D03*
X170574000Y-90475000D03*
X168034000Y-90475000D03*
X167145000Y-89840000D03*
X165621000Y-89840000D03*
X164097000Y-89840000D03*
X182575500Y-85776000D03*
X182448500Y-88316000D03*
X182448500Y-92888000D03*
X182448500Y-89776500D03*
X181559500Y-85204500D03*
X181559500Y-87109500D03*
X190513000Y-95428000D03*
X194577000Y-95301000D03*
X198387000Y-90157500D03*
X198323500Y-87554000D03*
X196609000Y-88316000D03*
X194640500Y-88316000D03*
X192545000Y-88316000D03*
X190576500Y-88316000D03*
X188608000Y-88316000D03*
X186576000Y-88316000D03*
X184798000Y-88316000D03*
X180480000Y-95555000D03*
X180226000Y-88316000D03*
X180226000Y-89903500D03*
X172606000Y-95301000D03*
X168859500Y-85649000D03*
X174701500Y-82982000D03*
X172606000Y-82728000D03*
X178321000Y-88316000D03*
X176670000Y-88316000D03*
X174638000Y-88316000D03*
X172733000Y-88316000D03*
X170574000Y-88316000D03*
X168034000Y-84760000D03*
X168034000Y-87173000D03*
X167145000Y-88316000D03*
X165621000Y-88316000D03*
X164097000Y-88316000D03*
X158572500Y-94729500D03*
X155080000Y-84887000D03*
X158763000Y-88316000D03*
X158763000Y-89840000D03*
X198323500Y-85268000D03*
X154318000Y-88379500D03*
X156500000Y-88379500D03*
X156500000Y-89776500D03*
X184861500Y-89776500D03*
X186639500Y-89776500D03*
X188608000Y-89776500D03*
X190576500Y-89776500D03*
X192545000Y-89776500D03*
X194640500Y-89713000D03*
X196672500Y-89776500D03*
X161366500Y-91745000D03*
X159906000Y-91745000D03*
X159906000Y-89840000D03*
X161430000Y-89840000D03*
X161430000Y-88316000D03*
X159906000Y-88316000D03*
X159906000Y-86665000D03*
X161366500Y-86665000D03*
X198387000Y-93015000D03*
X154699000Y-82728000D03*
X196615000Y-82722000D03*
X199111000Y-82639000D03*
X194577000Y-82728000D03*
X178384500Y-82664500D03*
X192545000Y-95301000D03*
X188608000Y-95428000D03*
X190640000Y-82728000D03*
X186576000Y-82728000D03*
X184671000Y-82653000D03*
X181623000Y-82724000D03*
X176797000Y-82728000D03*
X170701000Y-82646000D03*
X168111000Y-82651000D03*
X165621000Y-82728000D03*
X162636500Y-82855000D03*
X196609000Y-95301000D03*
X184671000Y-95428000D03*
X181686500Y-95428000D03*
X178575000Y-95400000D03*
X174638000Y-95428000D03*
X170574000Y-95301000D03*
X168111000Y-95351000D03*
X165621000Y-95319000D03*
X162700000Y-95331000D03*
X152111000Y-82680000D03*
X154826000Y-95459000D03*
X152111000Y-95349000D03*
X199111000Y-95301000D03*
X156477000Y-82728000D03*
X158111000Y-82711000D03*
X158111000Y-95445000D03*
X156477000Y-95428000D03*
X149619000Y-89078000D03*
X167780000Y-89078000D03*
X181750000Y-83871000D03*
X198768000Y-83871000D03*
X198700000Y-89078000D03*
X181432500Y-89141500D03*
X167780000Y-83871000D03*
X149619000Y-93904000D03*
X158382000Y-93904000D03*
X152159000Y-83871000D03*
X154635500Y-83553500D03*
X156985000Y-83871000D03*
X159111000Y-83871000D03*
X162111000Y-83871000D03*
X164351000Y-83871000D03*
X165113000Y-83871000D03*
X169304000Y-83871000D03*
X170066000Y-83871000D03*
X173241000Y-83871000D03*
X174130000Y-83871000D03*
X177051000Y-83871000D03*
X177940000Y-83871000D03*
X180607000Y-83871000D03*
X183591500Y-83871000D03*
X184417000Y-83871000D03*
X187084000Y-83871000D03*
X187973000Y-83871000D03*
X191021000Y-83871000D03*
X191910000Y-83871000D03*
X195212000Y-83871000D03*
X196101000Y-83871000D03*
X153175000Y-93904000D03*
X154064000Y-93904000D03*
X155207000Y-93904000D03*
X156096000Y-93904000D03*
X163081000Y-93904000D03*
X163970000Y-93904000D03*
X166256000Y-93904000D03*
X167145000Y-93904000D03*
X168542000Y-93904000D03*
X171209000Y-93904000D03*
X172098000Y-93904000D03*
X175146000Y-93904000D03*
X176035000Y-93904000D03*
X179210000Y-93904000D03*
X179972000Y-93904000D03*
X182131000Y-93904000D03*
X182893000Y-94666000D03*
X185179000Y-93904000D03*
X186068000Y-93904000D03*
X189243000Y-93904000D03*
X190005000Y-93904000D03*
X193180000Y-93904000D03*
X193942000Y-93904000D03*
X197244000Y-93904000D03*
X198006000Y-93904000D03*
M02*
