G04 #@! TF.FileFunction,Legend,Bot*
%FSLAX46Y46*%
G04 Gerber Fmt 4.6, Leading zero omitted, Abs format (unit mm)*
G04 Created by KiCad (PCBNEW 4.0.4+e1-6308~48~ubuntu14.04.1-stable) date Sat Oct 15 18:13:20 2016*
%MOMM*%
%LPD*%
G01*
G04 APERTURE LIST*
%ADD10C,0.350000*%
%ADD11C,0.100000*%
%ADD12C,0.300000*%
%ADD13C,0.400000*%
%ADD14C,0.200000*%
%ADD15C,0.010000*%
G04 APERTURE END LIST*
D10*
D11*
X148500000Y-88575000D02*
X148500000Y-76900000D01*
X148800000Y-89075000D02*
X148500000Y-89575000D01*
X148500000Y-88575000D02*
X148800000Y-89075000D01*
D12*
X198957143Y-86578571D02*
X198385714Y-86578571D01*
X198742857Y-86078571D02*
X198742857Y-87364286D01*
X198671429Y-87507143D01*
X198528571Y-87578571D01*
X198385714Y-87578571D01*
X197671428Y-87578571D02*
X197814286Y-87507143D01*
X197885714Y-87435714D01*
X197957143Y-87292857D01*
X197957143Y-86864286D01*
X197885714Y-86721429D01*
X197814286Y-86650000D01*
X197671428Y-86578571D01*
X197457143Y-86578571D01*
X197314286Y-86650000D01*
X197242857Y-86721429D01*
X197171428Y-86864286D01*
X197171428Y-87292857D01*
X197242857Y-87435714D01*
X197314286Y-87507143D01*
X197457143Y-87578571D01*
X197671428Y-87578571D01*
X196742857Y-86578571D02*
X196171428Y-86578571D01*
X196528571Y-87578571D02*
X196528571Y-86292857D01*
X196457143Y-86150000D01*
X196314285Y-86078571D01*
X196171428Y-86078571D01*
X195100000Y-87507143D02*
X195242857Y-87578571D01*
X195528571Y-87578571D01*
X195671428Y-87507143D01*
X195742857Y-87364286D01*
X195742857Y-86792857D01*
X195671428Y-86650000D01*
X195528571Y-86578571D01*
X195242857Y-86578571D01*
X195100000Y-86650000D01*
X195028571Y-86792857D01*
X195028571Y-86935714D01*
X195742857Y-87078571D01*
X194385714Y-87435714D02*
X194314286Y-87507143D01*
X194385714Y-87578571D01*
X194457143Y-87507143D01*
X194385714Y-87435714D01*
X194385714Y-87578571D01*
X193671428Y-87578571D02*
X193671428Y-86578571D01*
X193671428Y-86078571D02*
X193742857Y-86150000D01*
X193671428Y-86221429D01*
X193600000Y-86150000D01*
X193671428Y-86078571D01*
X193671428Y-86221429D01*
X192742856Y-87578571D02*
X192885714Y-87507143D01*
X192957142Y-87435714D01*
X193028571Y-87292857D01*
X193028571Y-86864286D01*
X192957142Y-86721429D01*
X192885714Y-86650000D01*
X192742856Y-86578571D01*
X192528571Y-86578571D01*
X192385714Y-86650000D01*
X192314285Y-86721429D01*
X192242856Y-86864286D01*
X192242856Y-87292857D01*
X192314285Y-87435714D01*
X192385714Y-87507143D01*
X192528571Y-87578571D01*
X192742856Y-87578571D01*
X190528571Y-86007143D02*
X191814285Y-87935714D01*
X189385713Y-87578571D02*
X189385713Y-86792857D01*
X189457142Y-86650000D01*
X189599999Y-86578571D01*
X189885713Y-86578571D01*
X190028570Y-86650000D01*
X189385713Y-87507143D02*
X189528570Y-87578571D01*
X189885713Y-87578571D01*
X190028570Y-87507143D01*
X190099999Y-87364286D01*
X190099999Y-87221429D01*
X190028570Y-87078571D01*
X189885713Y-87007143D01*
X189528570Y-87007143D01*
X189385713Y-86935714D01*
X188028570Y-87578571D02*
X188028570Y-86078571D01*
X188028570Y-87507143D02*
X188171427Y-87578571D01*
X188457141Y-87578571D01*
X188599999Y-87507143D01*
X188671427Y-87435714D01*
X188742856Y-87292857D01*
X188742856Y-86864286D01*
X188671427Y-86721429D01*
X188599999Y-86650000D01*
X188457141Y-86578571D01*
X188171427Y-86578571D01*
X188028570Y-86650000D01*
X186671427Y-87578571D02*
X186671427Y-86792857D01*
X186742856Y-86650000D01*
X186885713Y-86578571D01*
X187171427Y-86578571D01*
X187314284Y-86650000D01*
X186671427Y-87507143D02*
X186814284Y-87578571D01*
X187171427Y-87578571D01*
X187314284Y-87507143D01*
X187385713Y-87364286D01*
X187385713Y-87221429D01*
X187314284Y-87078571D01*
X187171427Y-87007143D01*
X186814284Y-87007143D01*
X186671427Y-86935714D01*
X185957141Y-86578571D02*
X185957141Y-88078571D01*
X185957141Y-86650000D02*
X185814284Y-86578571D01*
X185528570Y-86578571D01*
X185385713Y-86650000D01*
X185314284Y-86721429D01*
X185242855Y-86864286D01*
X185242855Y-87292857D01*
X185314284Y-87435714D01*
X185385713Y-87507143D01*
X185528570Y-87578571D01*
X185814284Y-87578571D01*
X185957141Y-87507143D01*
X184814284Y-86578571D02*
X184242855Y-86578571D01*
X184599998Y-86078571D02*
X184599998Y-87364286D01*
X184528570Y-87507143D01*
X184385712Y-87578571D01*
X184242855Y-87578571D01*
X183171427Y-87507143D02*
X183314284Y-87578571D01*
X183599998Y-87578571D01*
X183742855Y-87507143D01*
X183814284Y-87364286D01*
X183814284Y-86792857D01*
X183742855Y-86650000D01*
X183599998Y-86578571D01*
X183314284Y-86578571D01*
X183171427Y-86650000D01*
X183099998Y-86792857D01*
X183099998Y-86935714D01*
X183814284Y-87078571D01*
X182457141Y-87578571D02*
X182457141Y-86578571D01*
X182457141Y-86864286D02*
X182385713Y-86721429D01*
X182314284Y-86650000D01*
X182171427Y-86578571D01*
X182028570Y-86578571D01*
X181599999Y-87507143D02*
X181457142Y-87578571D01*
X181171427Y-87578571D01*
X181028570Y-87507143D01*
X180957142Y-87364286D01*
X180957142Y-87292857D01*
X181028570Y-87150000D01*
X181171427Y-87078571D01*
X181385713Y-87078571D01*
X181528570Y-87007143D01*
X181599999Y-86864286D01*
X181599999Y-86792857D01*
X181528570Y-86650000D01*
X181385713Y-86578571D01*
X181171427Y-86578571D01*
X181028570Y-86650000D01*
X179242856Y-86007143D02*
X180528570Y-87935714D01*
X178742855Y-87578571D02*
X178742855Y-86578571D01*
X178742855Y-86721429D02*
X178671427Y-86650000D01*
X178528569Y-86578571D01*
X178314284Y-86578571D01*
X178171427Y-86650000D01*
X178099998Y-86792857D01*
X178099998Y-87578571D01*
X178099998Y-86792857D02*
X178028569Y-86650000D01*
X177885712Y-86578571D01*
X177671427Y-86578571D01*
X177528569Y-86650000D01*
X177457141Y-86792857D01*
X177457141Y-87578571D01*
X176814284Y-86221429D02*
X176742855Y-86150000D01*
X176599998Y-86078571D01*
X176242855Y-86078571D01*
X176099998Y-86150000D01*
X176028569Y-86221429D01*
X175957141Y-86364286D01*
X175957141Y-86507143D01*
X176028569Y-86721429D01*
X176885712Y-87578571D01*
X175957141Y-87578571D01*
X175314284Y-87578571D02*
X175314284Y-86578571D01*
X175314284Y-86721429D02*
X175242856Y-86650000D01*
X175099998Y-86578571D01*
X174885713Y-86578571D01*
X174742856Y-86650000D01*
X174671427Y-86792857D01*
X174671427Y-87578571D01*
X174671427Y-86792857D02*
X174599998Y-86650000D01*
X174457141Y-86578571D01*
X174242856Y-86578571D01*
X174099998Y-86650000D01*
X174028570Y-86792857D01*
X174028570Y-87578571D01*
D11*
X199550000Y-89050000D02*
X199750000Y-88550000D01*
X199750000Y-89550000D02*
X199550000Y-89050000D01*
X199750000Y-88550000D02*
X199750000Y-76900000D01*
X199250000Y-101800000D02*
X199750000Y-101300000D01*
X162050000Y-101800000D02*
X161550000Y-101300000D01*
X159150000Y-101800000D02*
X159650000Y-101300000D01*
X149000000Y-101800000D02*
X148500000Y-101300000D01*
X199750000Y-76900000D02*
X199250000Y-76400000D01*
X159650000Y-76900000D02*
X159150000Y-76400000D01*
X161550000Y-76900000D02*
X162050000Y-76400000D01*
X148500000Y-76900000D02*
X149000000Y-76400000D01*
D13*
X198964286Y-91271429D02*
X198488095Y-92604762D01*
X198011905Y-91271429D01*
X196869047Y-90604762D02*
X196678571Y-90604762D01*
X196488095Y-90700000D01*
X196392857Y-90795238D01*
X196297619Y-90985714D01*
X196202380Y-91366667D01*
X196202380Y-91842857D01*
X196297619Y-92223810D01*
X196392857Y-92414286D01*
X196488095Y-92509524D01*
X196678571Y-92604762D01*
X196869047Y-92604762D01*
X197059523Y-92509524D01*
X197154761Y-92414286D01*
X197250000Y-92223810D01*
X197345238Y-91842857D01*
X197345238Y-91366667D01*
X197250000Y-90985714D01*
X197154761Y-90795238D01*
X197059523Y-90700000D01*
X196869047Y-90604762D01*
X195345238Y-92414286D02*
X195249999Y-92509524D01*
X195345238Y-92604762D01*
X195440476Y-92509524D01*
X195345238Y-92414286D01*
X195345238Y-92604762D01*
X194488095Y-90795238D02*
X194392857Y-90700000D01*
X194202380Y-90604762D01*
X193726190Y-90604762D01*
X193535714Y-90700000D01*
X193440476Y-90795238D01*
X193345237Y-90985714D01*
X193345237Y-91176190D01*
X193440476Y-91461905D01*
X194583333Y-92604762D01*
X193345237Y-92604762D01*
X192488095Y-91842857D02*
X190964285Y-91842857D01*
X190107143Y-90795238D02*
X190011905Y-90700000D01*
X189821428Y-90604762D01*
X189345238Y-90604762D01*
X189154762Y-90700000D01*
X189059524Y-90795238D01*
X188964285Y-90985714D01*
X188964285Y-91176190D01*
X189059524Y-91461905D01*
X190202381Y-92604762D01*
X188964285Y-92604762D01*
X187250000Y-90604762D02*
X187630952Y-90604762D01*
X187821428Y-90700000D01*
X187916666Y-90795238D01*
X188107143Y-91080952D01*
X188202381Y-91461905D01*
X188202381Y-92223810D01*
X188107143Y-92414286D01*
X188011904Y-92509524D01*
X187821428Y-92604762D01*
X187440476Y-92604762D01*
X187250000Y-92509524D01*
X187154762Y-92414286D01*
X187059523Y-92223810D01*
X187059523Y-91747619D01*
X187154762Y-91557143D01*
X187250000Y-91461905D01*
X187440476Y-91366667D01*
X187821428Y-91366667D01*
X188011904Y-91461905D01*
X188107143Y-91557143D01*
X188202381Y-91747619D01*
X186202381Y-91842857D02*
X184678571Y-91842857D01*
X182869048Y-91271429D02*
X182869048Y-92890476D01*
X182964286Y-93080952D01*
X183059524Y-93176190D01*
X183250000Y-93271429D01*
X183535714Y-93271429D01*
X183726191Y-93176190D01*
X182869048Y-92509524D02*
X183059524Y-92604762D01*
X183440476Y-92604762D01*
X183630952Y-92509524D01*
X183726191Y-92414286D01*
X183821429Y-92223810D01*
X183821429Y-91652381D01*
X183726191Y-91461905D01*
X183630952Y-91366667D01*
X183440476Y-91271429D01*
X183059524Y-91271429D01*
X182869048Y-91366667D01*
X181059524Y-92604762D02*
X181059524Y-91557143D01*
X181154762Y-91366667D01*
X181345238Y-91271429D01*
X181726190Y-91271429D01*
X181916667Y-91366667D01*
X181059524Y-92509524D02*
X181250000Y-92604762D01*
X181726190Y-92604762D01*
X181916667Y-92509524D01*
X182011905Y-92319048D01*
X182011905Y-92128571D01*
X181916667Y-91938095D01*
X181726190Y-91842857D01*
X181250000Y-91842857D01*
X181059524Y-91747619D01*
X179250000Y-92509524D02*
X179440476Y-92604762D01*
X179821428Y-92604762D01*
X180011904Y-92509524D01*
X180107143Y-92414286D01*
X180202381Y-92223810D01*
X180202381Y-91652381D01*
X180107143Y-91461905D01*
X180011904Y-91366667D01*
X179821428Y-91271429D01*
X179440476Y-91271429D01*
X179250000Y-91366667D01*
X178488095Y-90795238D02*
X178392857Y-90700000D01*
X178202380Y-90604762D01*
X177726190Y-90604762D01*
X177535714Y-90700000D01*
X177440476Y-90795238D01*
X177345237Y-90985714D01*
X177345237Y-91176190D01*
X177440476Y-91461905D01*
X178583333Y-92604762D01*
X177345237Y-92604762D01*
X176488095Y-92604762D02*
X176488095Y-90604762D01*
X176488095Y-91366667D02*
X176297618Y-91271429D01*
X175916666Y-91271429D01*
X175726190Y-91366667D01*
X175630952Y-91461905D01*
X175535714Y-91652381D01*
X175535714Y-92223810D01*
X175630952Y-92414286D01*
X175726190Y-92509524D01*
X175916666Y-92604762D01*
X176297618Y-92604762D01*
X176488095Y-92509524D01*
X173726190Y-90604762D02*
X174678571Y-90604762D01*
X174773809Y-91557143D01*
X174678571Y-91461905D01*
X174488094Y-91366667D01*
X174011904Y-91366667D01*
X173821428Y-91461905D01*
X173726190Y-91557143D01*
X173630951Y-91747619D01*
X173630951Y-92223810D01*
X173726190Y-92414286D01*
X173821428Y-92509524D01*
X174011904Y-92604762D01*
X174488094Y-92604762D01*
X174678571Y-92509524D01*
X174773809Y-92414286D01*
X172488094Y-91461905D02*
X172678570Y-91366667D01*
X172773809Y-91271429D01*
X172869047Y-91080952D01*
X172869047Y-90985714D01*
X172773809Y-90795238D01*
X172678570Y-90700000D01*
X172488094Y-90604762D01*
X172107142Y-90604762D01*
X171916666Y-90700000D01*
X171821428Y-90795238D01*
X171726189Y-90985714D01*
X171726189Y-91080952D01*
X171821428Y-91271429D01*
X171916666Y-91366667D01*
X172107142Y-91461905D01*
X172488094Y-91461905D01*
X172678570Y-91557143D01*
X172773809Y-91652381D01*
X172869047Y-91842857D01*
X172869047Y-92223810D01*
X172773809Y-92414286D01*
X172678570Y-92509524D01*
X172488094Y-92604762D01*
X172107142Y-92604762D01*
X171916666Y-92509524D01*
X171821428Y-92414286D01*
X171726189Y-92223810D01*
X171726189Y-91842857D01*
X171821428Y-91652381D01*
X171916666Y-91557143D01*
X172107142Y-91461905D01*
X170869047Y-92604762D02*
X170869047Y-90604762D01*
X170869047Y-91366667D02*
X170678570Y-91271429D01*
X170297618Y-91271429D01*
X170107142Y-91366667D01*
X170011904Y-91461905D01*
X169916666Y-91652381D01*
X169916666Y-92223810D01*
X170011904Y-92414286D01*
X170107142Y-92509524D01*
X170297618Y-92604762D01*
X170678570Y-92604762D01*
X170869047Y-92509524D01*
D11*
X159650000Y-92400000D02*
X161550000Y-92400000D01*
X159650000Y-85950000D02*
X161550000Y-85950000D01*
X162050000Y-101800000D02*
X199250000Y-101800000D01*
X161550000Y-92400000D02*
X161550000Y-101300000D01*
X159650000Y-101300000D02*
X159650000Y-92400000D01*
X149000000Y-101800000D02*
X159150000Y-101800000D01*
X148500000Y-89575000D02*
X148500000Y-101300000D01*
X159150000Y-76400000D02*
X149000000Y-76400000D01*
X159650000Y-85950000D02*
X159650000Y-76900000D01*
X161550000Y-76900000D02*
X161550000Y-85950000D01*
X199250000Y-76400000D02*
X162050000Y-76400000D01*
X199750000Y-101300000D02*
X199750000Y-89550000D01*
D14*
X159611000Y-82225620D02*
X148611000Y-82225620D01*
X199611000Y-82225620D02*
X161611000Y-82225620D01*
D15*
G36*
X156461640Y-90477468D02*
X156426408Y-90494874D01*
X156382960Y-90525206D01*
X156351294Y-90558283D01*
X156329606Y-90599817D01*
X156316097Y-90655522D01*
X156308962Y-90731111D01*
X156306400Y-90832296D01*
X156306250Y-90875797D01*
X156306688Y-90971135D01*
X156308504Y-91039271D01*
X156312455Y-91086418D01*
X156319298Y-91118790D01*
X156329789Y-91142600D01*
X156340704Y-91158843D01*
X156410381Y-91227952D01*
X156492434Y-91269521D01*
X156580950Y-91282023D01*
X156670019Y-91263934D01*
X156698237Y-91251142D01*
X156765790Y-91215931D01*
X156765790Y-91767700D01*
X156716488Y-91742205D01*
X156651527Y-91722480D01*
X156571680Y-91717427D01*
X156491948Y-91726756D01*
X156431735Y-91747714D01*
X156381792Y-91787627D01*
X156339119Y-91844741D01*
X156335910Y-91850605D01*
X156322378Y-91878227D01*
X156312495Y-91906068D01*
X156305691Y-91939794D01*
X156301399Y-91985071D01*
X156299049Y-92047562D01*
X156298072Y-92132935D01*
X156297895Y-92229010D01*
X156297895Y-92535526D01*
X156481711Y-92535526D01*
X156481711Y-91970339D01*
X156533125Y-91927077D01*
X156586534Y-91892472D01*
X156637112Y-91886180D01*
X156687970Y-91902372D01*
X156715075Y-91918227D01*
X156735249Y-91940810D01*
X156749597Y-91974940D01*
X156759224Y-92025434D01*
X156765237Y-92097111D01*
X156768740Y-92194788D01*
X156769974Y-92259802D01*
X156774145Y-92527171D01*
X156861875Y-92532222D01*
X156949606Y-92537273D01*
X156949606Y-90878101D01*
X156765790Y-90878101D01*
X156761104Y-90970600D01*
X156745312Y-91034809D01*
X156715817Y-91074759D01*
X156670020Y-91094480D01*
X156623750Y-91098421D01*
X156571372Y-91093892D01*
X156536610Y-91076069D01*
X156514872Y-91052519D01*
X156497760Y-91027189D01*
X156487573Y-90998969D01*
X156483040Y-90959431D01*
X156482891Y-90900142D01*
X156484416Y-90850498D01*
X156487919Y-90775710D01*
X156493133Y-90726611D01*
X156501913Y-90695467D01*
X156516114Y-90674545D01*
X156529516Y-90662452D01*
X156585513Y-90636081D01*
X156651789Y-90631822D01*
X156689844Y-90640906D01*
X156727523Y-90673196D01*
X156752481Y-90736006D01*
X156764578Y-90828894D01*
X156765790Y-90878101D01*
X156949606Y-90878101D01*
X156949606Y-90463421D01*
X156857698Y-90463421D01*
X156802517Y-90465603D01*
X156774048Y-90473351D01*
X156765794Y-90488468D01*
X156765790Y-90488916D01*
X156761960Y-90503720D01*
X156745067Y-90502039D01*
X156711481Y-90485772D01*
X156633222Y-90460887D01*
X156545173Y-90458271D01*
X156461640Y-90477468D01*
X156461640Y-90477468D01*
G37*
X156461640Y-90477468D02*
X156426408Y-90494874D01*
X156382960Y-90525206D01*
X156351294Y-90558283D01*
X156329606Y-90599817D01*
X156316097Y-90655522D01*
X156308962Y-90731111D01*
X156306400Y-90832296D01*
X156306250Y-90875797D01*
X156306688Y-90971135D01*
X156308504Y-91039271D01*
X156312455Y-91086418D01*
X156319298Y-91118790D01*
X156329789Y-91142600D01*
X156340704Y-91158843D01*
X156410381Y-91227952D01*
X156492434Y-91269521D01*
X156580950Y-91282023D01*
X156670019Y-91263934D01*
X156698237Y-91251142D01*
X156765790Y-91215931D01*
X156765790Y-91767700D01*
X156716488Y-91742205D01*
X156651527Y-91722480D01*
X156571680Y-91717427D01*
X156491948Y-91726756D01*
X156431735Y-91747714D01*
X156381792Y-91787627D01*
X156339119Y-91844741D01*
X156335910Y-91850605D01*
X156322378Y-91878227D01*
X156312495Y-91906068D01*
X156305691Y-91939794D01*
X156301399Y-91985071D01*
X156299049Y-92047562D01*
X156298072Y-92132935D01*
X156297895Y-92229010D01*
X156297895Y-92535526D01*
X156481711Y-92535526D01*
X156481711Y-91970339D01*
X156533125Y-91927077D01*
X156586534Y-91892472D01*
X156637112Y-91886180D01*
X156687970Y-91902372D01*
X156715075Y-91918227D01*
X156735249Y-91940810D01*
X156749597Y-91974940D01*
X156759224Y-92025434D01*
X156765237Y-92097111D01*
X156768740Y-92194788D01*
X156769974Y-92259802D01*
X156774145Y-92527171D01*
X156861875Y-92532222D01*
X156949606Y-92537273D01*
X156949606Y-90878101D01*
X156765790Y-90878101D01*
X156761104Y-90970600D01*
X156745312Y-91034809D01*
X156715817Y-91074759D01*
X156670020Y-91094480D01*
X156623750Y-91098421D01*
X156571372Y-91093892D01*
X156536610Y-91076069D01*
X156514872Y-91052519D01*
X156497760Y-91027189D01*
X156487573Y-90998969D01*
X156483040Y-90959431D01*
X156482891Y-90900142D01*
X156484416Y-90850498D01*
X156487919Y-90775710D01*
X156493133Y-90726611D01*
X156501913Y-90695467D01*
X156516114Y-90674545D01*
X156529516Y-90662452D01*
X156585513Y-90636081D01*
X156651789Y-90631822D01*
X156689844Y-90640906D01*
X156727523Y-90673196D01*
X156752481Y-90736006D01*
X156764578Y-90828894D01*
X156765790Y-90878101D01*
X156949606Y-90878101D01*
X156949606Y-90463421D01*
X156857698Y-90463421D01*
X156802517Y-90465603D01*
X156774048Y-90473351D01*
X156765794Y-90488468D01*
X156765790Y-90488916D01*
X156761960Y-90503720D01*
X156745067Y-90502039D01*
X156711481Y-90485772D01*
X156633222Y-90460887D01*
X156545173Y-90458271D01*
X156461640Y-90477468D01*
G36*
X155764543Y-91723184D02*
X155685930Y-91744160D01*
X155626084Y-91782180D01*
X155583853Y-91831978D01*
X155570725Y-91853230D01*
X155561032Y-91875492D01*
X155554256Y-91903970D01*
X155549877Y-91943871D01*
X155547376Y-92000401D01*
X155546232Y-92078767D01*
X155545928Y-92184176D01*
X155545922Y-92212142D01*
X155545922Y-92535526D01*
X155626132Y-92535526D01*
X155677294Y-92531943D01*
X155715123Y-92522866D01*
X155724601Y-92517268D01*
X155750512Y-92507606D01*
X155776976Y-92517268D01*
X155820548Y-92529330D01*
X155883840Y-92534185D01*
X155953990Y-92532078D01*
X156018140Y-92523256D01*
X156055593Y-92511937D01*
X156128067Y-92465412D01*
X156173360Y-92400846D01*
X156193722Y-92315000D01*
X156193912Y-92312796D01*
X156192125Y-92274713D01*
X156030527Y-92274713D01*
X156016399Y-92318030D01*
X155993388Y-92342408D01*
X155947196Y-92360845D01*
X155886225Y-92368205D01*
X155824051Y-92364583D01*
X155774249Y-92350074D01*
X155760297Y-92340765D01*
X155735915Y-92297753D01*
X155729737Y-92248857D01*
X155729737Y-92184605D01*
X155822182Y-92184605D01*
X155910005Y-92191366D01*
X155976582Y-92210520D01*
X156017998Y-92240376D01*
X156030527Y-92274713D01*
X156192125Y-92274713D01*
X156189510Y-92219004D01*
X156158576Y-92144847D01*
X156100419Y-92088767D01*
X156092380Y-92083665D01*
X156057837Y-92067055D01*
X156015082Y-92056996D01*
X155955314Y-92052107D01*
X155884310Y-92050983D01*
X155729737Y-92050921D01*
X155729737Y-91986125D01*
X155736294Y-91935850D01*
X155753025Y-91902169D01*
X155754984Y-91900376D01*
X155792217Y-91885642D01*
X155848420Y-91879931D01*
X155910533Y-91882737D01*
X155965490Y-91893556D01*
X155998101Y-91909782D01*
X156015772Y-91922780D01*
X156034431Y-91925262D01*
X156060181Y-91914613D01*
X156099127Y-91888218D01*
X156157370Y-91843465D01*
X156162716Y-91839273D01*
X156159977Y-91823760D01*
X156137124Y-91797960D01*
X156102391Y-91769289D01*
X156064010Y-91745166D01*
X156051952Y-91739470D01*
X156007966Y-91728103D01*
X155943513Y-91719995D01*
X155871503Y-91716743D01*
X155868136Y-91716736D01*
X155764543Y-91723184D01*
X155764543Y-91723184D01*
G37*
X155764543Y-91723184D02*
X155685930Y-91744160D01*
X155626084Y-91782180D01*
X155583853Y-91831978D01*
X155570725Y-91853230D01*
X155561032Y-91875492D01*
X155554256Y-91903970D01*
X155549877Y-91943871D01*
X155547376Y-92000401D01*
X155546232Y-92078767D01*
X155545928Y-92184176D01*
X155545922Y-92212142D01*
X155545922Y-92535526D01*
X155626132Y-92535526D01*
X155677294Y-92531943D01*
X155715123Y-92522866D01*
X155724601Y-92517268D01*
X155750512Y-92507606D01*
X155776976Y-92517268D01*
X155820548Y-92529330D01*
X155883840Y-92534185D01*
X155953990Y-92532078D01*
X156018140Y-92523256D01*
X156055593Y-92511937D01*
X156128067Y-92465412D01*
X156173360Y-92400846D01*
X156193722Y-92315000D01*
X156193912Y-92312796D01*
X156192125Y-92274713D01*
X156030527Y-92274713D01*
X156016399Y-92318030D01*
X155993388Y-92342408D01*
X155947196Y-92360845D01*
X155886225Y-92368205D01*
X155824051Y-92364583D01*
X155774249Y-92350074D01*
X155760297Y-92340765D01*
X155735915Y-92297753D01*
X155729737Y-92248857D01*
X155729737Y-92184605D01*
X155822182Y-92184605D01*
X155910005Y-92191366D01*
X155976582Y-92210520D01*
X156017998Y-92240376D01*
X156030527Y-92274713D01*
X156192125Y-92274713D01*
X156189510Y-92219004D01*
X156158576Y-92144847D01*
X156100419Y-92088767D01*
X156092380Y-92083665D01*
X156057837Y-92067055D01*
X156015082Y-92056996D01*
X155955314Y-92052107D01*
X155884310Y-92050983D01*
X155729737Y-92050921D01*
X155729737Y-91986125D01*
X155736294Y-91935850D01*
X155753025Y-91902169D01*
X155754984Y-91900376D01*
X155792217Y-91885642D01*
X155848420Y-91879931D01*
X155910533Y-91882737D01*
X155965490Y-91893556D01*
X155998101Y-91909782D01*
X156015772Y-91922780D01*
X156034431Y-91925262D01*
X156060181Y-91914613D01*
X156099127Y-91888218D01*
X156157370Y-91843465D01*
X156162716Y-91839273D01*
X156159977Y-91823760D01*
X156137124Y-91797960D01*
X156102391Y-91769289D01*
X156064010Y-91745166D01*
X156051952Y-91739470D01*
X156007966Y-91728103D01*
X155943513Y-91719995D01*
X155871503Y-91716743D01*
X155868136Y-91716736D01*
X155764543Y-91723184D01*
G36*
X155245119Y-91718486D02*
X155220112Y-91725982D01*
X155212050Y-91742451D01*
X155211711Y-91749886D01*
X155210264Y-91770594D01*
X155200302Y-91773845D01*
X155173388Y-91759648D01*
X155157402Y-91749948D01*
X155106967Y-91729175D01*
X155046728Y-91718904D01*
X154983566Y-91718114D01*
X154924363Y-91725786D01*
X154875998Y-91740898D01*
X154845354Y-91762432D01*
X154839311Y-91789366D01*
X154842361Y-91796660D01*
X154864594Y-91826937D01*
X154899070Y-91864175D01*
X154905306Y-91870195D01*
X154938167Y-91897875D01*
X154966520Y-91906818D01*
X155006173Y-91900576D01*
X155022058Y-91896429D01*
X155071491Y-91886467D01*
X155106248Y-91890947D01*
X155135600Y-91906746D01*
X155162487Y-91927949D01*
X155182290Y-91954614D01*
X155196052Y-91991827D01*
X155204816Y-92044673D01*
X155209626Y-92118237D01*
X155211526Y-92217605D01*
X155211711Y-92277601D01*
X155211711Y-92535526D01*
X155378816Y-92535526D01*
X155378816Y-91716710D01*
X155295264Y-91716710D01*
X155245119Y-91718486D01*
X155245119Y-91718486D01*
G37*
X155245119Y-91718486D02*
X155220112Y-91725982D01*
X155212050Y-91742451D01*
X155211711Y-91749886D01*
X155210264Y-91770594D01*
X155200302Y-91773845D01*
X155173388Y-91759648D01*
X155157402Y-91749948D01*
X155106967Y-91729175D01*
X155046728Y-91718904D01*
X154983566Y-91718114D01*
X154924363Y-91725786D01*
X154875998Y-91740898D01*
X154845354Y-91762432D01*
X154839311Y-91789366D01*
X154842361Y-91796660D01*
X154864594Y-91826937D01*
X154899070Y-91864175D01*
X154905306Y-91870195D01*
X154938167Y-91897875D01*
X154966520Y-91906818D01*
X155006173Y-91900576D01*
X155022058Y-91896429D01*
X155071491Y-91886467D01*
X155106248Y-91890947D01*
X155135600Y-91906746D01*
X155162487Y-91927949D01*
X155182290Y-91954614D01*
X155196052Y-91991827D01*
X155204816Y-92044673D01*
X155209626Y-92118237D01*
X155211526Y-92217605D01*
X155211711Y-92277601D01*
X155211711Y-92535526D01*
X155378816Y-92535526D01*
X155378816Y-91716710D01*
X155295264Y-91716710D01*
X155245119Y-91718486D01*
G36*
X154192369Y-92535526D02*
X154284277Y-92535526D01*
X154337623Y-92533962D01*
X154365407Y-92527485D01*
X154375410Y-92513418D01*
X154376185Y-92503906D01*
X154377872Y-92484832D01*
X154388510Y-92481174D01*
X154416465Y-92492932D01*
X154438205Y-92503906D01*
X154521668Y-92529911D01*
X154612396Y-92531416D01*
X154686158Y-92512021D01*
X154754846Y-92465165D01*
X154807206Y-92396004D01*
X154835878Y-92314427D01*
X154836608Y-92309866D01*
X154840868Y-92260101D01*
X154842986Y-92188659D01*
X154842816Y-92134626D01*
X154660280Y-92134626D01*
X154656051Y-92206441D01*
X154646432Y-92265634D01*
X154633410Y-92299060D01*
X154584144Y-92344740D01*
X154525650Y-92361115D01*
X154465329Y-92347873D01*
X154413783Y-92308373D01*
X154394262Y-92281807D01*
X154382848Y-92250106D01*
X154377502Y-92203832D01*
X154376185Y-92134328D01*
X154378542Y-92065499D01*
X154384767Y-92005026D01*
X154393592Y-91964556D01*
X154395063Y-91960929D01*
X154430653Y-91917802D01*
X154482600Y-91894124D01*
X154540722Y-91890301D01*
X154594840Y-91906738D01*
X154634774Y-91943840D01*
X154638917Y-91951222D01*
X154651884Y-91996239D01*
X154658948Y-92060967D01*
X154660280Y-92134626D01*
X154842816Y-92134626D01*
X154842729Y-92107230D01*
X154841528Y-92063405D01*
X154833355Y-91954988D01*
X154816370Y-91873588D01*
X154788113Y-91813412D01*
X154746128Y-91768666D01*
X154705368Y-91742400D01*
X154648419Y-91723935D01*
X154577589Y-91717602D01*
X154505059Y-91722760D01*
X154443014Y-91738769D01*
X154410232Y-91757920D01*
X154376185Y-91788732D01*
X154376185Y-91399210D01*
X154192369Y-91399210D01*
X154192369Y-92535526D01*
X154192369Y-92535526D01*
G37*
X154192369Y-92535526D02*
X154284277Y-92535526D01*
X154337623Y-92533962D01*
X154365407Y-92527485D01*
X154375410Y-92513418D01*
X154376185Y-92503906D01*
X154377872Y-92484832D01*
X154388510Y-92481174D01*
X154416465Y-92492932D01*
X154438205Y-92503906D01*
X154521668Y-92529911D01*
X154612396Y-92531416D01*
X154686158Y-92512021D01*
X154754846Y-92465165D01*
X154807206Y-92396004D01*
X154835878Y-92314427D01*
X154836608Y-92309866D01*
X154840868Y-92260101D01*
X154842986Y-92188659D01*
X154842816Y-92134626D01*
X154660280Y-92134626D01*
X154656051Y-92206441D01*
X154646432Y-92265634D01*
X154633410Y-92299060D01*
X154584144Y-92344740D01*
X154525650Y-92361115D01*
X154465329Y-92347873D01*
X154413783Y-92308373D01*
X154394262Y-92281807D01*
X154382848Y-92250106D01*
X154377502Y-92203832D01*
X154376185Y-92134328D01*
X154378542Y-92065499D01*
X154384767Y-92005026D01*
X154393592Y-91964556D01*
X154395063Y-91960929D01*
X154430653Y-91917802D01*
X154482600Y-91894124D01*
X154540722Y-91890301D01*
X154594840Y-91906738D01*
X154634774Y-91943840D01*
X154638917Y-91951222D01*
X154651884Y-91996239D01*
X154658948Y-92060967D01*
X154660280Y-92134626D01*
X154842816Y-92134626D01*
X154842729Y-92107230D01*
X154841528Y-92063405D01*
X154833355Y-91954988D01*
X154816370Y-91873588D01*
X154788113Y-91813412D01*
X154746128Y-91768666D01*
X154705368Y-91742400D01*
X154648419Y-91723935D01*
X154577589Y-91717602D01*
X154505059Y-91722760D01*
X154443014Y-91738769D01*
X154410232Y-91757920D01*
X154376185Y-91788732D01*
X154376185Y-91399210D01*
X154192369Y-91399210D01*
X154192369Y-92535526D01*
G36*
X153550870Y-91720104D02*
X153484780Y-91725066D01*
X153398374Y-91984079D01*
X153311969Y-92243092D01*
X153284876Y-92151184D01*
X153268572Y-92094384D01*
X153247125Y-92017625D01*
X153223965Y-91933251D01*
X153211720Y-91887993D01*
X153165656Y-91716710D01*
X152975613Y-91716710D01*
X153032418Y-91896349D01*
X153060393Y-91984704D01*
X153094187Y-92091281D01*
X153129480Y-92202454D01*
X153160987Y-92301579D01*
X153232750Y-92527171D01*
X153387714Y-92537253D01*
X153429730Y-92398528D01*
X153455641Y-92312351D01*
X153483917Y-92217347D01*
X153508631Y-92133441D01*
X153509606Y-92130102D01*
X153528065Y-92073248D01*
X153544351Y-92034456D01*
X153555758Y-92019787D01*
X153558102Y-92021483D01*
X153566329Y-92044225D01*
X153581962Y-92092940D01*
X153603096Y-92161502D01*
X153627830Y-92243785D01*
X153641213Y-92289046D01*
X153713689Y-92535526D01*
X153867505Y-92535526D01*
X153990469Y-92147006D01*
X154025012Y-92038022D01*
X154056479Y-91939048D01*
X154083384Y-91854736D01*
X154104241Y-91789734D01*
X154117562Y-91748692D01*
X154121612Y-91736701D01*
X154118406Y-91724423D01*
X154093235Y-91719046D01*
X154040854Y-91719584D01*
X154032655Y-91719990D01*
X153935518Y-91725066D01*
X153871900Y-91959013D01*
X153848516Y-92044333D01*
X153827619Y-92119335D01*
X153811049Y-92177507D01*
X153800646Y-92212337D01*
X153798724Y-92218016D01*
X153790759Y-92211486D01*
X153774696Y-92177654D01*
X153752379Y-92121127D01*
X153725655Y-92046510D01*
X153703063Y-91979107D01*
X153616959Y-91715143D01*
X153550870Y-91720104D01*
X153550870Y-91720104D01*
G37*
X153550870Y-91720104D02*
X153484780Y-91725066D01*
X153398374Y-91984079D01*
X153311969Y-92243092D01*
X153284876Y-92151184D01*
X153268572Y-92094384D01*
X153247125Y-92017625D01*
X153223965Y-91933251D01*
X153211720Y-91887993D01*
X153165656Y-91716710D01*
X152975613Y-91716710D01*
X153032418Y-91896349D01*
X153060393Y-91984704D01*
X153094187Y-92091281D01*
X153129480Y-92202454D01*
X153160987Y-92301579D01*
X153232750Y-92527171D01*
X153387714Y-92537253D01*
X153429730Y-92398528D01*
X153455641Y-92312351D01*
X153483917Y-92217347D01*
X153508631Y-92133441D01*
X153509606Y-92130102D01*
X153528065Y-92073248D01*
X153544351Y-92034456D01*
X153555758Y-92019787D01*
X153558102Y-92021483D01*
X153566329Y-92044225D01*
X153581962Y-92092940D01*
X153603096Y-92161502D01*
X153627830Y-92243785D01*
X153641213Y-92289046D01*
X153713689Y-92535526D01*
X153867505Y-92535526D01*
X153990469Y-92147006D01*
X154025012Y-92038022D01*
X154056479Y-91939048D01*
X154083384Y-91854736D01*
X154104241Y-91789734D01*
X154117562Y-91748692D01*
X154121612Y-91736701D01*
X154118406Y-91724423D01*
X154093235Y-91719046D01*
X154040854Y-91719584D01*
X154032655Y-91719990D01*
X153935518Y-91725066D01*
X153871900Y-91959013D01*
X153848516Y-92044333D01*
X153827619Y-92119335D01*
X153811049Y-92177507D01*
X153800646Y-92212337D01*
X153798724Y-92218016D01*
X153790759Y-92211486D01*
X153774696Y-92177654D01*
X153752379Y-92121127D01*
X153725655Y-92046510D01*
X153703063Y-91979107D01*
X153616959Y-91715143D01*
X153550870Y-91720104D01*
G36*
X152545008Y-91721673D02*
X152474573Y-91738780D01*
X152454213Y-91747844D01*
X152414747Y-91771583D01*
X152384459Y-91798321D01*
X152362048Y-91832699D01*
X152346214Y-91879360D01*
X152335657Y-91942946D01*
X152329076Y-92028099D01*
X152325172Y-92139462D01*
X152323690Y-92213849D01*
X152318235Y-92535526D01*
X152411420Y-92535526D01*
X152467953Y-92533156D01*
X152497078Y-92525055D01*
X152504606Y-92511451D01*
X152508580Y-92496741D01*
X152526348Y-92499554D01*
X152550560Y-92511348D01*
X152611172Y-92529427D01*
X152689071Y-92534299D01*
X152771005Y-92526330D01*
X152843719Y-92505889D01*
X152850241Y-92503051D01*
X152916698Y-92456365D01*
X152960509Y-92391464D01*
X152980668Y-92315600D01*
X152979128Y-92288344D01*
X152814655Y-92288344D01*
X152800163Y-92325024D01*
X152757195Y-92351309D01*
X152687871Y-92365417D01*
X152650823Y-92367290D01*
X152589081Y-92362494D01*
X152548040Y-92343858D01*
X152538027Y-92335000D01*
X152510900Y-92286806D01*
X152504606Y-92243092D01*
X152504606Y-92184605D01*
X152586070Y-92184605D01*
X152680766Y-92189432D01*
X152747187Y-92204613D01*
X152789154Y-92231200D01*
X152798551Y-92243052D01*
X152814655Y-92288344D01*
X152979128Y-92288344D01*
X152976171Y-92236026D01*
X152946015Y-92159995D01*
X152904869Y-92108612D01*
X152879948Y-92086397D01*
X152855552Y-92071798D01*
X152823809Y-92062897D01*
X152776848Y-92057775D01*
X152706796Y-92054515D01*
X152679010Y-92053577D01*
X152504606Y-92047879D01*
X152504862Y-91995091D01*
X152511616Y-91939603D01*
X152536036Y-91906052D01*
X152585370Y-91884618D01*
X152586694Y-91884236D01*
X152656640Y-91875808D01*
X152725086Y-91886816D01*
X152775953Y-91913585D01*
X152796363Y-91926803D01*
X152818346Y-91924974D01*
X152852174Y-91905824D01*
X152872039Y-91892308D01*
X152910894Y-91863432D01*
X152934962Y-91841786D01*
X152938824Y-91835589D01*
X152922921Y-91803519D01*
X152875935Y-91765219D01*
X152855527Y-91752297D01*
X152796857Y-91730041D01*
X152717788Y-91717432D01*
X152629959Y-91714600D01*
X152545008Y-91721673D01*
X152545008Y-91721673D01*
G37*
X152545008Y-91721673D02*
X152474573Y-91738780D01*
X152454213Y-91747844D01*
X152414747Y-91771583D01*
X152384459Y-91798321D01*
X152362048Y-91832699D01*
X152346214Y-91879360D01*
X152335657Y-91942946D01*
X152329076Y-92028099D01*
X152325172Y-92139462D01*
X152323690Y-92213849D01*
X152318235Y-92535526D01*
X152411420Y-92535526D01*
X152467953Y-92533156D01*
X152497078Y-92525055D01*
X152504606Y-92511451D01*
X152508580Y-92496741D01*
X152526348Y-92499554D01*
X152550560Y-92511348D01*
X152611172Y-92529427D01*
X152689071Y-92534299D01*
X152771005Y-92526330D01*
X152843719Y-92505889D01*
X152850241Y-92503051D01*
X152916698Y-92456365D01*
X152960509Y-92391464D01*
X152980668Y-92315600D01*
X152979128Y-92288344D01*
X152814655Y-92288344D01*
X152800163Y-92325024D01*
X152757195Y-92351309D01*
X152687871Y-92365417D01*
X152650823Y-92367290D01*
X152589081Y-92362494D01*
X152548040Y-92343858D01*
X152538027Y-92335000D01*
X152510900Y-92286806D01*
X152504606Y-92243092D01*
X152504606Y-92184605D01*
X152586070Y-92184605D01*
X152680766Y-92189432D01*
X152747187Y-92204613D01*
X152789154Y-92231200D01*
X152798551Y-92243052D01*
X152814655Y-92288344D01*
X152979128Y-92288344D01*
X152976171Y-92236026D01*
X152946015Y-92159995D01*
X152904869Y-92108612D01*
X152879948Y-92086397D01*
X152855552Y-92071798D01*
X152823809Y-92062897D01*
X152776848Y-92057775D01*
X152706796Y-92054515D01*
X152679010Y-92053577D01*
X152504606Y-92047879D01*
X152504862Y-91995091D01*
X152511616Y-91939603D01*
X152536036Y-91906052D01*
X152585370Y-91884618D01*
X152586694Y-91884236D01*
X152656640Y-91875808D01*
X152725086Y-91886816D01*
X152775953Y-91913585D01*
X152796363Y-91926803D01*
X152818346Y-91924974D01*
X152852174Y-91905824D01*
X152872039Y-91892308D01*
X152910894Y-91863432D01*
X152934962Y-91841786D01*
X152938824Y-91835589D01*
X152922921Y-91803519D01*
X152875935Y-91765219D01*
X152855527Y-91752297D01*
X152796857Y-91730041D01*
X152717788Y-91717432D01*
X152629959Y-91714600D01*
X152545008Y-91721673D01*
G36*
X151751833Y-91716447D02*
X151687592Y-91729112D01*
X151651020Y-91747864D01*
X151612547Y-91779017D01*
X151667283Y-91848127D01*
X151701031Y-91889979D01*
X151723947Y-91910398D01*
X151746721Y-91913517D01*
X151780044Y-91903472D01*
X151795686Y-91897789D01*
X151859458Y-91889404D01*
X151917860Y-91907378D01*
X151960736Y-91947982D01*
X151967701Y-91960929D01*
X151975287Y-91995224D01*
X151981141Y-92058427D01*
X151984989Y-92146060D01*
X151986557Y-92253640D01*
X151986579Y-92268944D01*
X151986579Y-92535526D01*
X152170395Y-92535526D01*
X152170395Y-91716710D01*
X152078487Y-91716710D01*
X152025493Y-91718094D01*
X151997885Y-91724252D01*
X151987676Y-91738194D01*
X151986579Y-91751344D01*
X151986579Y-91785978D01*
X151942550Y-91751344D01*
X151892063Y-91727716D01*
X151824240Y-91716033D01*
X151751833Y-91716447D01*
X151751833Y-91716447D01*
G37*
X151751833Y-91716447D02*
X151687592Y-91729112D01*
X151651020Y-91747864D01*
X151612547Y-91779017D01*
X151667283Y-91848127D01*
X151701031Y-91889979D01*
X151723947Y-91910398D01*
X151746721Y-91913517D01*
X151780044Y-91903472D01*
X151795686Y-91897789D01*
X151859458Y-91889404D01*
X151917860Y-91907378D01*
X151960736Y-91947982D01*
X151967701Y-91960929D01*
X151975287Y-91995224D01*
X151981141Y-92058427D01*
X151984989Y-92146060D01*
X151986557Y-92253640D01*
X151986579Y-92268944D01*
X151986579Y-92535526D01*
X152170395Y-92535526D01*
X152170395Y-91716710D01*
X152078487Y-91716710D01*
X152025493Y-91718094D01*
X151997885Y-91724252D01*
X151987676Y-91738194D01*
X151986579Y-91751344D01*
X151986579Y-91785978D01*
X151942550Y-91751344D01*
X151892063Y-91727716D01*
X151824240Y-91716033D01*
X151751833Y-91716447D01*
G36*
X151223807Y-91721078D02*
X151143932Y-91741845D01*
X151077038Y-91784705D01*
X151044649Y-91816723D01*
X150991555Y-91892413D01*
X150961127Y-91980216D01*
X150950673Y-92088150D01*
X150950620Y-92096875D01*
X150950527Y-92184605D01*
X151455466Y-92184605D01*
X151444702Y-92230559D01*
X151425268Y-92272178D01*
X151391255Y-92315544D01*
X151384140Y-92322467D01*
X151322997Y-92359935D01*
X151253271Y-92366289D01*
X151173013Y-92341638D01*
X151159408Y-92335000D01*
X151117681Y-92314819D01*
X151089732Y-92303321D01*
X151084855Y-92302258D01*
X151067832Y-92312583D01*
X151035367Y-92337845D01*
X151018886Y-92351650D01*
X150984736Y-92383361D01*
X150973522Y-92404299D01*
X150981305Y-92423560D01*
X150985465Y-92428827D01*
X151013643Y-92451878D01*
X151060138Y-92479892D01*
X151092566Y-92496246D01*
X151184615Y-92525059D01*
X151286524Y-92534395D01*
X151383037Y-92523332D01*
X151410066Y-92515412D01*
X151493724Y-92470581D01*
X151555734Y-92401598D01*
X151596455Y-92307794D01*
X151616245Y-92188498D01*
X151618418Y-92126118D01*
X151612074Y-92035298D01*
X151451843Y-92035298D01*
X151436345Y-92042012D01*
X151394688Y-92047280D01*
X151334124Y-92050389D01*
X151293093Y-92050921D01*
X151219289Y-92050408D01*
X151172707Y-92048006D01*
X151147152Y-92042422D01*
X151136431Y-92032361D01*
X151134343Y-92017763D01*
X151148669Y-91972796D01*
X151184738Y-91928353D01*
X151232185Y-91894242D01*
X151279651Y-91880288D01*
X151344121Y-91892666D01*
X151399930Y-91928452D01*
X151438626Y-91980033D01*
X151451843Y-92035298D01*
X151612074Y-92035298D01*
X151609179Y-91993866D01*
X151580664Y-91888498D01*
X151532271Y-91809178D01*
X151463396Y-91755071D01*
X151373435Y-91725343D01*
X151324700Y-91719618D01*
X151223807Y-91721078D01*
X151223807Y-91721078D01*
G37*
X151223807Y-91721078D02*
X151143932Y-91741845D01*
X151077038Y-91784705D01*
X151044649Y-91816723D01*
X150991555Y-91892413D01*
X150961127Y-91980216D01*
X150950673Y-92088150D01*
X150950620Y-92096875D01*
X150950527Y-92184605D01*
X151455466Y-92184605D01*
X151444702Y-92230559D01*
X151425268Y-92272178D01*
X151391255Y-92315544D01*
X151384140Y-92322467D01*
X151322997Y-92359935D01*
X151253271Y-92366289D01*
X151173013Y-92341638D01*
X151159408Y-92335000D01*
X151117681Y-92314819D01*
X151089732Y-92303321D01*
X151084855Y-92302258D01*
X151067832Y-92312583D01*
X151035367Y-92337845D01*
X151018886Y-92351650D01*
X150984736Y-92383361D01*
X150973522Y-92404299D01*
X150981305Y-92423560D01*
X150985465Y-92428827D01*
X151013643Y-92451878D01*
X151060138Y-92479892D01*
X151092566Y-92496246D01*
X151184615Y-92525059D01*
X151286524Y-92534395D01*
X151383037Y-92523332D01*
X151410066Y-92515412D01*
X151493724Y-92470581D01*
X151555734Y-92401598D01*
X151596455Y-92307794D01*
X151616245Y-92188498D01*
X151618418Y-92126118D01*
X151612074Y-92035298D01*
X151451843Y-92035298D01*
X151436345Y-92042012D01*
X151394688Y-92047280D01*
X151334124Y-92050389D01*
X151293093Y-92050921D01*
X151219289Y-92050408D01*
X151172707Y-92048006D01*
X151147152Y-92042422D01*
X151136431Y-92032361D01*
X151134343Y-92017763D01*
X151148669Y-91972796D01*
X151184738Y-91928353D01*
X151232185Y-91894242D01*
X151279651Y-91880288D01*
X151344121Y-91892666D01*
X151399930Y-91928452D01*
X151438626Y-91980033D01*
X151451843Y-92035298D01*
X151612074Y-92035298D01*
X151609179Y-91993866D01*
X151580664Y-91888498D01*
X151532271Y-91809178D01*
X151463396Y-91755071D01*
X151373435Y-91725343D01*
X151324700Y-91719618D01*
X151223807Y-91721078D01*
G36*
X157298216Y-90472104D02*
X157210795Y-90510754D01*
X157144430Y-90575290D01*
X157099024Y-90665812D01*
X157074482Y-90782418D01*
X157072723Y-90800624D01*
X157071344Y-90928984D01*
X157089216Y-91041496D01*
X157125250Y-91132688D01*
X157144545Y-91162022D01*
X157211755Y-91224106D01*
X157297350Y-91264316D01*
X157393110Y-91281003D01*
X157490813Y-91272517D01*
X157565083Y-91246380D01*
X157628953Y-91202335D01*
X157681154Y-91144587D01*
X157682057Y-91143236D01*
X157703256Y-91107593D01*
X157717033Y-91071752D01*
X157725376Y-91026519D01*
X157730273Y-90962701D01*
X157732431Y-90910368D01*
X157733329Y-90862910D01*
X157566257Y-90862910D01*
X157564624Y-90910154D01*
X157558696Y-90973046D01*
X157548239Y-91013407D01*
X157529381Y-91042122D01*
X157511719Y-91058896D01*
X157449106Y-91094016D01*
X157383592Y-91098710D01*
X157322579Y-91073440D01*
X157292072Y-91045124D01*
X157270089Y-91016589D01*
X157257231Y-90989284D01*
X157251588Y-90953750D01*
X157251249Y-90900524D01*
X157252988Y-90851506D01*
X157256729Y-90781482D01*
X157262659Y-90736064D01*
X157273347Y-90706440D01*
X157291361Y-90683797D01*
X157305637Y-90670855D01*
X157365349Y-90636860D01*
X157429766Y-90635165D01*
X157483781Y-90655301D01*
X157529860Y-90697352D01*
X157557311Y-90766428D01*
X157566257Y-90862910D01*
X157733329Y-90862910D01*
X157734401Y-90806299D01*
X157731036Y-90728468D01*
X157720955Y-90669930D01*
X157702774Y-90623737D01*
X157675110Y-90582942D01*
X157664854Y-90570828D01*
X157600722Y-90510474D01*
X157531934Y-90475220D01*
X157447811Y-90460450D01*
X157406791Y-90459243D01*
X157298216Y-90472104D01*
X157298216Y-90472104D01*
G37*
X157298216Y-90472104D02*
X157210795Y-90510754D01*
X157144430Y-90575290D01*
X157099024Y-90665812D01*
X157074482Y-90782418D01*
X157072723Y-90800624D01*
X157071344Y-90928984D01*
X157089216Y-91041496D01*
X157125250Y-91132688D01*
X157144545Y-91162022D01*
X157211755Y-91224106D01*
X157297350Y-91264316D01*
X157393110Y-91281003D01*
X157490813Y-91272517D01*
X157565083Y-91246380D01*
X157628953Y-91202335D01*
X157681154Y-91144587D01*
X157682057Y-91143236D01*
X157703256Y-91107593D01*
X157717033Y-91071752D01*
X157725376Y-91026519D01*
X157730273Y-90962701D01*
X157732431Y-90910368D01*
X157733329Y-90862910D01*
X157566257Y-90862910D01*
X157564624Y-90910154D01*
X157558696Y-90973046D01*
X157548239Y-91013407D01*
X157529381Y-91042122D01*
X157511719Y-91058896D01*
X157449106Y-91094016D01*
X157383592Y-91098710D01*
X157322579Y-91073440D01*
X157292072Y-91045124D01*
X157270089Y-91016589D01*
X157257231Y-90989284D01*
X157251588Y-90953750D01*
X157251249Y-90900524D01*
X157252988Y-90851506D01*
X157256729Y-90781482D01*
X157262659Y-90736064D01*
X157273347Y-90706440D01*
X157291361Y-90683797D01*
X157305637Y-90670855D01*
X157365349Y-90636860D01*
X157429766Y-90635165D01*
X157483781Y-90655301D01*
X157529860Y-90697352D01*
X157557311Y-90766428D01*
X157566257Y-90862910D01*
X157733329Y-90862910D01*
X157734401Y-90806299D01*
X157731036Y-90728468D01*
X157720955Y-90669930D01*
X157702774Y-90623737D01*
X157675110Y-90582942D01*
X157664854Y-90570828D01*
X157600722Y-90510474D01*
X157531934Y-90475220D01*
X157447811Y-90460450D01*
X157406791Y-90459243D01*
X157298216Y-90472104D01*
G36*
X155727982Y-90482027D02*
X155711330Y-90489866D01*
X155653695Y-90532086D01*
X155599195Y-90593700D01*
X155558501Y-90661543D01*
X155546926Y-90692734D01*
X155536366Y-90748449D01*
X155530069Y-90815781D01*
X155529304Y-90843585D01*
X155529211Y-90931316D01*
X156034150Y-90931316D01*
X156023387Y-90977270D01*
X155996967Y-91031620D01*
X155950778Y-91078591D01*
X155895828Y-91108848D01*
X155860811Y-91115131D01*
X155813323Y-91107506D01*
X155756665Y-91088383D01*
X155737418Y-91079584D01*
X155666241Y-91044036D01*
X155605498Y-91090367D01*
X155570448Y-91121703D01*
X155551798Y-91147567D01*
X155550853Y-91155158D01*
X155567515Y-91173556D01*
X155604030Y-91201515D01*
X155637172Y-91223327D01*
X155726607Y-91262537D01*
X155826871Y-91280285D01*
X155926246Y-91275670D01*
X156005461Y-91251551D01*
X156087120Y-91199884D01*
X156145151Y-91131856D01*
X156181454Y-91043843D01*
X156197928Y-90932216D01*
X156199389Y-90881138D01*
X156193543Y-90764091D01*
X156192825Y-90760686D01*
X156025511Y-90760686D01*
X156020903Y-90771662D01*
X156001964Y-90777715D01*
X155962902Y-90780310D01*
X155897923Y-90780910D01*
X155872903Y-90780921D01*
X155796779Y-90780014D01*
X155748504Y-90776720D01*
X155722540Y-90770181D01*
X155713352Y-90759537D01*
X155713027Y-90756119D01*
X155723513Y-90728956D01*
X155749758Y-90690903D01*
X155761041Y-90677579D01*
X155802928Y-90639896D01*
X155846591Y-90625080D01*
X155870115Y-90623842D01*
X155933757Y-90639329D01*
X155987127Y-90680930D01*
X156020981Y-90741353D01*
X156021581Y-90743322D01*
X156025511Y-90760686D01*
X156192825Y-90760686D01*
X156174101Y-90671928D01*
X156139078Y-90598190D01*
X156096244Y-90545848D01*
X156017052Y-90489092D01*
X155923960Y-90458762D01*
X155824945Y-90456021D01*
X155727982Y-90482027D01*
X155727982Y-90482027D01*
G37*
X155727982Y-90482027D02*
X155711330Y-90489866D01*
X155653695Y-90532086D01*
X155599195Y-90593700D01*
X155558501Y-90661543D01*
X155546926Y-90692734D01*
X155536366Y-90748449D01*
X155530069Y-90815781D01*
X155529304Y-90843585D01*
X155529211Y-90931316D01*
X156034150Y-90931316D01*
X156023387Y-90977270D01*
X155996967Y-91031620D01*
X155950778Y-91078591D01*
X155895828Y-91108848D01*
X155860811Y-91115131D01*
X155813323Y-91107506D01*
X155756665Y-91088383D01*
X155737418Y-91079584D01*
X155666241Y-91044036D01*
X155605498Y-91090367D01*
X155570448Y-91121703D01*
X155551798Y-91147567D01*
X155550853Y-91155158D01*
X155567515Y-91173556D01*
X155604030Y-91201515D01*
X155637172Y-91223327D01*
X155726607Y-91262537D01*
X155826871Y-91280285D01*
X155926246Y-91275670D01*
X156005461Y-91251551D01*
X156087120Y-91199884D01*
X156145151Y-91131856D01*
X156181454Y-91043843D01*
X156197928Y-90932216D01*
X156199389Y-90881138D01*
X156193543Y-90764091D01*
X156192825Y-90760686D01*
X156025511Y-90760686D01*
X156020903Y-90771662D01*
X156001964Y-90777715D01*
X155962902Y-90780310D01*
X155897923Y-90780910D01*
X155872903Y-90780921D01*
X155796779Y-90780014D01*
X155748504Y-90776720D01*
X155722540Y-90770181D01*
X155713352Y-90759537D01*
X155713027Y-90756119D01*
X155723513Y-90728956D01*
X155749758Y-90690903D01*
X155761041Y-90677579D01*
X155802928Y-90639896D01*
X155846591Y-90625080D01*
X155870115Y-90623842D01*
X155933757Y-90639329D01*
X155987127Y-90680930D01*
X156020981Y-90741353D01*
X156021581Y-90743322D01*
X156025511Y-90760686D01*
X156192825Y-90760686D01*
X156174101Y-90671928D01*
X156139078Y-90598190D01*
X156096244Y-90545848D01*
X156017052Y-90489092D01*
X155923960Y-90458762D01*
X155824945Y-90456021D01*
X155727982Y-90482027D01*
G36*
X153906372Y-90460547D02*
X153843092Y-90472548D01*
X153777443Y-90497648D01*
X153770428Y-90500848D01*
X153720644Y-90527026D01*
X153686166Y-90551353D01*
X153675022Y-90566937D01*
X153685634Y-90592353D01*
X153711412Y-90629853D01*
X153722854Y-90643852D01*
X153770008Y-90698954D01*
X153830799Y-90663086D01*
X153888653Y-90639192D01*
X153955500Y-90626420D01*
X154019606Y-90625613D01*
X154069236Y-90637615D01*
X154081146Y-90645105D01*
X154103828Y-90679450D01*
X154106584Y-90719013D01*
X154089612Y-90749920D01*
X154079573Y-90755913D01*
X154049490Y-90763357D01*
X153996611Y-90772106D01*
X153931425Y-90780467D01*
X153919400Y-90781778D01*
X153814703Y-90799888D01*
X153738768Y-90830651D01*
X153688408Y-90876907D01*
X153660436Y-90941497D01*
X153651722Y-91020387D01*
X153663760Y-91110065D01*
X153702849Y-91180486D01*
X153769145Y-91231777D01*
X153862806Y-91264067D01*
X153966777Y-91276807D01*
X154051562Y-91276654D01*
X154120335Y-91265083D01*
X154167303Y-91249109D01*
X154226650Y-91221275D01*
X154281494Y-91188973D01*
X154300987Y-91174755D01*
X154351119Y-91133835D01*
X154230197Y-91011477D01*
X154161457Y-91056967D01*
X154092512Y-91091133D01*
X154018889Y-91109004D01*
X153948117Y-91110889D01*
X153887726Y-91097101D01*
X153845243Y-91067949D01*
X153831526Y-91043352D01*
X153833583Y-91003904D01*
X153867670Y-90973737D01*
X153933692Y-90952906D01*
X154006026Y-90943279D01*
X154117348Y-90924910D01*
X154200048Y-90890254D01*
X154255235Y-90838297D01*
X154284012Y-90768023D01*
X154287999Y-90684707D01*
X154268307Y-90597681D01*
X154223411Y-90531902D01*
X154152909Y-90487068D01*
X154056399Y-90462879D01*
X153984900Y-90458137D01*
X153906372Y-90460547D01*
X153906372Y-90460547D01*
G37*
X153906372Y-90460547D02*
X153843092Y-90472548D01*
X153777443Y-90497648D01*
X153770428Y-90500848D01*
X153720644Y-90527026D01*
X153686166Y-90551353D01*
X153675022Y-90566937D01*
X153685634Y-90592353D01*
X153711412Y-90629853D01*
X153722854Y-90643852D01*
X153770008Y-90698954D01*
X153830799Y-90663086D01*
X153888653Y-90639192D01*
X153955500Y-90626420D01*
X154019606Y-90625613D01*
X154069236Y-90637615D01*
X154081146Y-90645105D01*
X154103828Y-90679450D01*
X154106584Y-90719013D01*
X154089612Y-90749920D01*
X154079573Y-90755913D01*
X154049490Y-90763357D01*
X153996611Y-90772106D01*
X153931425Y-90780467D01*
X153919400Y-90781778D01*
X153814703Y-90799888D01*
X153738768Y-90830651D01*
X153688408Y-90876907D01*
X153660436Y-90941497D01*
X153651722Y-91020387D01*
X153663760Y-91110065D01*
X153702849Y-91180486D01*
X153769145Y-91231777D01*
X153862806Y-91264067D01*
X153966777Y-91276807D01*
X154051562Y-91276654D01*
X154120335Y-91265083D01*
X154167303Y-91249109D01*
X154226650Y-91221275D01*
X154281494Y-91188973D01*
X154300987Y-91174755D01*
X154351119Y-91133835D01*
X154230197Y-91011477D01*
X154161457Y-91056967D01*
X154092512Y-91091133D01*
X154018889Y-91109004D01*
X153948117Y-91110889D01*
X153887726Y-91097101D01*
X153845243Y-91067949D01*
X153831526Y-91043352D01*
X153833583Y-91003904D01*
X153867670Y-90973737D01*
X153933692Y-90952906D01*
X154006026Y-90943279D01*
X154117348Y-90924910D01*
X154200048Y-90890254D01*
X154255235Y-90838297D01*
X154284012Y-90768023D01*
X154287999Y-90684707D01*
X154268307Y-90597681D01*
X154223411Y-90531902D01*
X154152909Y-90487068D01*
X154056399Y-90462879D01*
X153984900Y-90458137D01*
X153906372Y-90460547D01*
G36*
X153113331Y-90473310D02*
X153028808Y-90519340D01*
X152962679Y-90592006D01*
X152931522Y-90651106D01*
X152918145Y-90703305D01*
X152909478Y-90777719D01*
X152905763Y-90863442D01*
X152907246Y-90949569D01*
X152914169Y-91025193D01*
X152922255Y-91065584D01*
X152949535Y-91120840D01*
X152996780Y-91179530D01*
X153053718Y-91230852D01*
X153110076Y-91264005D01*
X153111450Y-91264531D01*
X153181384Y-91279018D01*
X153264263Y-91279377D01*
X153343023Y-91266188D01*
X153373434Y-91255617D01*
X153451761Y-91211201D01*
X153507857Y-91153007D01*
X153544714Y-91075965D01*
X153565320Y-90975001D01*
X153569982Y-90922116D01*
X153569387Y-90855663D01*
X153390264Y-90855663D01*
X153384230Y-90952630D01*
X153366862Y-91026523D01*
X153339260Y-91073736D01*
X153319596Y-91087237D01*
X153269213Y-91096651D01*
X153209327Y-91093864D01*
X153157551Y-91080316D01*
X153143973Y-91072862D01*
X153108151Y-91029451D01*
X153084507Y-90963014D01*
X153074442Y-90882161D01*
X153079358Y-90795502D01*
X153090345Y-90743349D01*
X153121891Y-90682951D01*
X153171689Y-90645197D01*
X153231663Y-90632143D01*
X153293736Y-90645849D01*
X153341418Y-90679372D01*
X153366475Y-90707031D01*
X153381100Y-90734294D01*
X153388071Y-90771190D01*
X153390167Y-90827750D01*
X153390264Y-90855663D01*
X153569387Y-90855663D01*
X153568718Y-90780994D01*
X153545735Y-90665271D01*
X153501028Y-90574941D01*
X153434595Y-90510000D01*
X153346435Y-90470445D01*
X153327505Y-90465858D01*
X153213734Y-90455090D01*
X153113331Y-90473310D01*
X153113331Y-90473310D01*
G37*
X153113331Y-90473310D02*
X153028808Y-90519340D01*
X152962679Y-90592006D01*
X152931522Y-90651106D01*
X152918145Y-90703305D01*
X152909478Y-90777719D01*
X152905763Y-90863442D01*
X152907246Y-90949569D01*
X152914169Y-91025193D01*
X152922255Y-91065584D01*
X152949535Y-91120840D01*
X152996780Y-91179530D01*
X153053718Y-91230852D01*
X153110076Y-91264005D01*
X153111450Y-91264531D01*
X153181384Y-91279018D01*
X153264263Y-91279377D01*
X153343023Y-91266188D01*
X153373434Y-91255617D01*
X153451761Y-91211201D01*
X153507857Y-91153007D01*
X153544714Y-91075965D01*
X153565320Y-90975001D01*
X153569982Y-90922116D01*
X153569387Y-90855663D01*
X153390264Y-90855663D01*
X153384230Y-90952630D01*
X153366862Y-91026523D01*
X153339260Y-91073736D01*
X153319596Y-91087237D01*
X153269213Y-91096651D01*
X153209327Y-91093864D01*
X153157551Y-91080316D01*
X153143973Y-91072862D01*
X153108151Y-91029451D01*
X153084507Y-90963014D01*
X153074442Y-90882161D01*
X153079358Y-90795502D01*
X153090345Y-90743349D01*
X153121891Y-90682951D01*
X153171689Y-90645197D01*
X153231663Y-90632143D01*
X153293736Y-90645849D01*
X153341418Y-90679372D01*
X153366475Y-90707031D01*
X153381100Y-90734294D01*
X153388071Y-90771190D01*
X153390167Y-90827750D01*
X153390264Y-90855663D01*
X153569387Y-90855663D01*
X153568718Y-90780994D01*
X153545735Y-90665271D01*
X153501028Y-90574941D01*
X153434595Y-90510000D01*
X153346435Y-90470445D01*
X153327505Y-90465858D01*
X153213734Y-90455090D01*
X153113331Y-90473310D01*
G36*
X152604869Y-90723533D02*
X152603290Y-90846089D01*
X152597519Y-90939179D01*
X152586009Y-91006651D01*
X152567210Y-91052355D01*
X152539574Y-91080139D01*
X152501552Y-91093854D01*
X152454474Y-91097358D01*
X152405168Y-91093432D01*
X152367717Y-91079089D01*
X152340572Y-91050478D01*
X152322185Y-91003751D01*
X152311007Y-90935058D01*
X152305489Y-90840550D01*
X152304079Y-90723533D01*
X152304079Y-90463421D01*
X152120264Y-90463421D01*
X152120264Y-91265526D01*
X152212172Y-91265526D01*
X152267578Y-91263281D01*
X152296109Y-91255396D01*
X152304079Y-91240428D01*
X152308880Y-91227097D01*
X152327986Y-91229917D01*
X152366496Y-91248783D01*
X152454761Y-91277887D01*
X152548377Y-91275825D01*
X152638079Y-91244221D01*
X152680796Y-91219257D01*
X152713379Y-91192226D01*
X152737183Y-91158405D01*
X152753561Y-91113068D01*
X152763869Y-91051489D01*
X152769459Y-90968943D01*
X152771688Y-90860705D01*
X152771974Y-90777004D01*
X152771974Y-90463421D01*
X152604869Y-90463421D01*
X152604869Y-90723533D01*
X152604869Y-90723533D01*
G37*
X152604869Y-90723533D02*
X152603290Y-90846089D01*
X152597519Y-90939179D01*
X152586009Y-91006651D01*
X152567210Y-91052355D01*
X152539574Y-91080139D01*
X152501552Y-91093854D01*
X152454474Y-91097358D01*
X152405168Y-91093432D01*
X152367717Y-91079089D01*
X152340572Y-91050478D01*
X152322185Y-91003751D01*
X152311007Y-90935058D01*
X152305489Y-90840550D01*
X152304079Y-90723533D01*
X152304079Y-90463421D01*
X152120264Y-90463421D01*
X152120264Y-91265526D01*
X152212172Y-91265526D01*
X152267578Y-91263281D01*
X152296109Y-91255396D01*
X152304079Y-91240428D01*
X152308880Y-91227097D01*
X152327986Y-91229917D01*
X152366496Y-91248783D01*
X152454761Y-91277887D01*
X152548377Y-91275825D01*
X152638079Y-91244221D01*
X152680796Y-91219257D01*
X152713379Y-91192226D01*
X152737183Y-91158405D01*
X152753561Y-91113068D01*
X152763869Y-91051489D01*
X152769459Y-90968943D01*
X152771688Y-90860705D01*
X152771974Y-90777004D01*
X152771974Y-90463421D01*
X152604869Y-90463421D01*
X152604869Y-90723533D01*
G36*
X150978424Y-90470419D02*
X150881605Y-90511549D01*
X150851110Y-90531571D01*
X150812135Y-90562340D01*
X150787669Y-90586533D01*
X150783422Y-90594413D01*
X150795416Y-90611899D01*
X150826113Y-90641570D01*
X150850688Y-90662279D01*
X150917954Y-90716336D01*
X150971070Y-90671642D01*
X151012116Y-90642789D01*
X151052137Y-90632829D01*
X151097941Y-90635261D01*
X151170676Y-90653345D01*
X151220744Y-90690881D01*
X151251171Y-90751562D01*
X151264983Y-90839081D01*
X151264987Y-90839136D01*
X151263792Y-90936958D01*
X151245228Y-91008730D01*
X151208196Y-91057595D01*
X151182950Y-91074143D01*
X151115903Y-91094749D01*
X151044291Y-91094762D01*
X150981985Y-91074768D01*
X150967237Y-91065000D01*
X150930250Y-91040047D01*
X150901332Y-91035958D01*
X150870144Y-91054530D01*
X150835664Y-91087887D01*
X150781088Y-91144196D01*
X150841682Y-91194142D01*
X150935302Y-91250513D01*
X151040875Y-91278293D01*
X151151202Y-91276282D01*
X151223657Y-91257862D01*
X151308344Y-91212310D01*
X151376073Y-91140650D01*
X151406843Y-91090066D01*
X151431764Y-91017488D01*
X151444234Y-90925569D01*
X151444330Y-90825948D01*
X151432130Y-90730267D01*
X151407710Y-90650169D01*
X151403864Y-90641956D01*
X151346907Y-90561413D01*
X151269791Y-90502771D01*
X151178610Y-90467247D01*
X151079457Y-90456057D01*
X150978424Y-90470419D01*
X150978424Y-90470419D01*
G37*
X150978424Y-90470419D02*
X150881605Y-90511549D01*
X150851110Y-90531571D01*
X150812135Y-90562340D01*
X150787669Y-90586533D01*
X150783422Y-90594413D01*
X150795416Y-90611899D01*
X150826113Y-90641570D01*
X150850688Y-90662279D01*
X150917954Y-90716336D01*
X150971070Y-90671642D01*
X151012116Y-90642789D01*
X151052137Y-90632829D01*
X151097941Y-90635261D01*
X151170676Y-90653345D01*
X151220744Y-90690881D01*
X151251171Y-90751562D01*
X151264983Y-90839081D01*
X151264987Y-90839136D01*
X151263792Y-90936958D01*
X151245228Y-91008730D01*
X151208196Y-91057595D01*
X151182950Y-91074143D01*
X151115903Y-91094749D01*
X151044291Y-91094762D01*
X150981985Y-91074768D01*
X150967237Y-91065000D01*
X150930250Y-91040047D01*
X150901332Y-91035958D01*
X150870144Y-91054530D01*
X150835664Y-91087887D01*
X150781088Y-91144196D01*
X150841682Y-91194142D01*
X150935302Y-91250513D01*
X151040875Y-91278293D01*
X151151202Y-91276282D01*
X151223657Y-91257862D01*
X151308344Y-91212310D01*
X151376073Y-91140650D01*
X151406843Y-91090066D01*
X151431764Y-91017488D01*
X151444234Y-90925569D01*
X151444330Y-90825948D01*
X151432130Y-90730267D01*
X151407710Y-90650169D01*
X151403864Y-90641956D01*
X151346907Y-90561413D01*
X151269791Y-90502771D01*
X151178610Y-90467247D01*
X151079457Y-90456057D01*
X150978424Y-90470419D01*
G36*
X150366216Y-90460554D02*
X150323426Y-90470949D01*
X150241391Y-90509013D01*
X150171243Y-90567149D01*
X150122695Y-90636852D01*
X150116025Y-90652502D01*
X150106876Y-90693496D01*
X150100471Y-90754138D01*
X150098290Y-90815430D01*
X150098290Y-90931316D01*
X150340593Y-90931316D01*
X150440529Y-90931693D01*
X150510931Y-90933987D01*
X150555687Y-90939938D01*
X150578685Y-90951285D01*
X150583811Y-90969771D01*
X150574952Y-90997136D01*
X150559083Y-91029155D01*
X150514816Y-91082592D01*
X150453301Y-91109215D01*
X150378115Y-91108347D01*
X150292947Y-91079371D01*
X150219341Y-91043611D01*
X150158266Y-91091904D01*
X150097190Y-91140197D01*
X150154649Y-91193285D01*
X150231359Y-91243445D01*
X150325698Y-91273688D01*
X150427173Y-91282151D01*
X150525289Y-91266974D01*
X150541119Y-91261824D01*
X150627353Y-91216791D01*
X150691499Y-91149652D01*
X150734909Y-91058405D01*
X150758936Y-90941044D01*
X150759216Y-90938529D01*
X150761367Y-90810627D01*
X150752671Y-90764997D01*
X150582895Y-90764997D01*
X150567303Y-90772013D01*
X150524971Y-90777388D01*
X150462566Y-90780457D01*
X150423019Y-90780921D01*
X150349272Y-90780630D01*
X150303160Y-90778783D01*
X150278900Y-90773912D01*
X150270706Y-90764555D01*
X150272794Y-90749245D01*
X150274545Y-90743322D01*
X150304440Y-90687668D01*
X150351458Y-90642815D01*
X150392951Y-90623105D01*
X150448074Y-90624295D01*
X150503932Y-90648875D01*
X150550788Y-90689570D01*
X150578906Y-90739108D01*
X150582895Y-90764997D01*
X150752671Y-90764997D01*
X150739926Y-90698133D01*
X150697389Y-90603727D01*
X150636253Y-90530088D01*
X150559015Y-90479893D01*
X150468170Y-90455822D01*
X150366216Y-90460554D01*
X150366216Y-90460554D01*
G37*
X150366216Y-90460554D02*
X150323426Y-90470949D01*
X150241391Y-90509013D01*
X150171243Y-90567149D01*
X150122695Y-90636852D01*
X150116025Y-90652502D01*
X150106876Y-90693496D01*
X150100471Y-90754138D01*
X150098290Y-90815430D01*
X150098290Y-90931316D01*
X150340593Y-90931316D01*
X150440529Y-90931693D01*
X150510931Y-90933987D01*
X150555687Y-90939938D01*
X150578685Y-90951285D01*
X150583811Y-90969771D01*
X150574952Y-90997136D01*
X150559083Y-91029155D01*
X150514816Y-91082592D01*
X150453301Y-91109215D01*
X150378115Y-91108347D01*
X150292947Y-91079371D01*
X150219341Y-91043611D01*
X150158266Y-91091904D01*
X150097190Y-91140197D01*
X150154649Y-91193285D01*
X150231359Y-91243445D01*
X150325698Y-91273688D01*
X150427173Y-91282151D01*
X150525289Y-91266974D01*
X150541119Y-91261824D01*
X150627353Y-91216791D01*
X150691499Y-91149652D01*
X150734909Y-91058405D01*
X150758936Y-90941044D01*
X150759216Y-90938529D01*
X150761367Y-90810627D01*
X150752671Y-90764997D01*
X150582895Y-90764997D01*
X150567303Y-90772013D01*
X150524971Y-90777388D01*
X150462566Y-90780457D01*
X150423019Y-90780921D01*
X150349272Y-90780630D01*
X150303160Y-90778783D01*
X150278900Y-90773912D01*
X150270706Y-90764555D01*
X150272794Y-90749245D01*
X150274545Y-90743322D01*
X150304440Y-90687668D01*
X150351458Y-90642815D01*
X150392951Y-90623105D01*
X150448074Y-90624295D01*
X150503932Y-90648875D01*
X150550788Y-90689570D01*
X150578906Y-90739108D01*
X150582895Y-90764997D01*
X150752671Y-90764997D01*
X150739926Y-90698133D01*
X150697389Y-90603727D01*
X150636253Y-90530088D01*
X150559015Y-90479893D01*
X150468170Y-90455822D01*
X150366216Y-90460554D01*
G36*
X154927043Y-90477226D02*
X154885454Y-90497090D01*
X154845175Y-90525784D01*
X154814490Y-90558809D01*
X154792139Y-90600931D01*
X154776864Y-90656915D01*
X154767408Y-90731528D01*
X154762513Y-90829535D01*
X154760919Y-90955702D01*
X154760894Y-90968914D01*
X154760527Y-91265526D01*
X154944343Y-91265526D01*
X154944343Y-90992081D01*
X154944473Y-90890777D01*
X154945379Y-90817353D01*
X154947827Y-90766271D01*
X154952586Y-90731990D01*
X154960426Y-90708971D01*
X154972115Y-90691673D01*
X154988398Y-90674581D01*
X155045366Y-90637857D01*
X155107555Y-90631042D01*
X155166801Y-90654261D01*
X155187405Y-90671543D01*
X155202530Y-90687791D01*
X155213390Y-90705191D01*
X155220690Y-90729212D01*
X155225137Y-90765322D01*
X155227436Y-90818988D01*
X155228296Y-90895680D01*
X155228422Y-90989043D01*
X155228422Y-91265526D01*
X155412237Y-91265526D01*
X155412237Y-90463421D01*
X155320329Y-90463421D01*
X155265149Y-90465603D01*
X155236680Y-90473351D01*
X155228425Y-90488468D01*
X155228422Y-90488916D01*
X155224592Y-90503720D01*
X155207699Y-90502040D01*
X155174112Y-90485773D01*
X155097937Y-90461840D01*
X155010800Y-90459178D01*
X154927043Y-90477226D01*
X154927043Y-90477226D01*
G37*
X154927043Y-90477226D02*
X154885454Y-90497090D01*
X154845175Y-90525784D01*
X154814490Y-90558809D01*
X154792139Y-90600931D01*
X154776864Y-90656915D01*
X154767408Y-90731528D01*
X154762513Y-90829535D01*
X154760919Y-90955702D01*
X154760894Y-90968914D01*
X154760527Y-91265526D01*
X154944343Y-91265526D01*
X154944343Y-90992081D01*
X154944473Y-90890777D01*
X154945379Y-90817353D01*
X154947827Y-90766271D01*
X154952586Y-90731990D01*
X154960426Y-90708971D01*
X154972115Y-90691673D01*
X154988398Y-90674581D01*
X155045366Y-90637857D01*
X155107555Y-90631042D01*
X155166801Y-90654261D01*
X155187405Y-90671543D01*
X155202530Y-90687791D01*
X155213390Y-90705191D01*
X155220690Y-90729212D01*
X155225137Y-90765322D01*
X155227436Y-90818988D01*
X155228296Y-90895680D01*
X155228422Y-90989043D01*
X155228422Y-91265526D01*
X155412237Y-91265526D01*
X155412237Y-90463421D01*
X155320329Y-90463421D01*
X155265149Y-90465603D01*
X155236680Y-90473351D01*
X155228425Y-90488468D01*
X155228422Y-90488916D01*
X155224592Y-90503720D01*
X155207699Y-90502040D01*
X155174112Y-90485773D01*
X155097937Y-90461840D01*
X155010800Y-90459178D01*
X154927043Y-90477226D01*
G36*
X151533612Y-90462645D02*
X151476135Y-90480206D01*
X151439128Y-90502395D01*
X151427073Y-90519942D01*
X151430391Y-90540742D01*
X151451921Y-90573419D01*
X151470126Y-90596562D01*
X151507656Y-90638402D01*
X151535852Y-90656005D01*
X151559889Y-90654856D01*
X151631192Y-90636710D01*
X151683558Y-90637534D01*
X151726082Y-90658098D01*
X151740358Y-90670134D01*
X151786053Y-90712483D01*
X151786053Y-91265526D01*
X151969869Y-91265526D01*
X151969869Y-90463421D01*
X151877961Y-90463421D01*
X151822781Y-90465603D01*
X151794312Y-90473351D01*
X151786057Y-90488468D01*
X151786053Y-90488916D01*
X151782155Y-90504749D01*
X151764526Y-90502684D01*
X151740099Y-90491261D01*
X151689650Y-90470005D01*
X151648684Y-90457216D01*
X151595972Y-90453938D01*
X151533612Y-90462645D01*
X151533612Y-90462645D01*
G37*
X151533612Y-90462645D02*
X151476135Y-90480206D01*
X151439128Y-90502395D01*
X151427073Y-90519942D01*
X151430391Y-90540742D01*
X151451921Y-90573419D01*
X151470126Y-90596562D01*
X151507656Y-90638402D01*
X151535852Y-90656005D01*
X151559889Y-90654856D01*
X151631192Y-90636710D01*
X151683558Y-90637534D01*
X151726082Y-90658098D01*
X151740358Y-90670134D01*
X151786053Y-90712483D01*
X151786053Y-91265526D01*
X151969869Y-91265526D01*
X151969869Y-90463421D01*
X151877961Y-90463421D01*
X151822781Y-90465603D01*
X151794312Y-90473351D01*
X151786057Y-90488468D01*
X151786053Y-90488916D01*
X151782155Y-90504749D01*
X151764526Y-90502684D01*
X151740099Y-90491261D01*
X151689650Y-90470005D01*
X151648684Y-90457216D01*
X151595972Y-90453938D01*
X151533612Y-90462645D01*
G36*
X153424036Y-84923576D02*
X153348487Y-85324322D01*
X152790959Y-85554154D01*
X152456535Y-85326748D01*
X152362878Y-85263431D01*
X152278218Y-85206896D01*
X152206505Y-85159727D01*
X152151689Y-85124502D01*
X152117720Y-85103805D01*
X152108470Y-85099342D01*
X152091805Y-85110820D01*
X152056194Y-85142551D01*
X152005629Y-85190483D01*
X151944100Y-85250562D01*
X151875601Y-85318733D01*
X151804121Y-85390945D01*
X151733653Y-85463142D01*
X151668189Y-85531273D01*
X151611720Y-85591283D01*
X151568237Y-85639119D01*
X151541732Y-85670727D01*
X151535395Y-85681305D01*
X151544514Y-85700806D01*
X151570080Y-85743531D01*
X151609403Y-85805298D01*
X151659797Y-85881931D01*
X151718573Y-85969248D01*
X151752632Y-86019052D01*
X151814711Y-86109993D01*
X151869874Y-86192059D01*
X151915446Y-86261163D01*
X151948750Y-86313222D01*
X151967110Y-86344150D01*
X151969869Y-86350650D01*
X151963615Y-86369121D01*
X151946566Y-86412172D01*
X151921297Y-86473749D01*
X151890378Y-86547799D01*
X151856382Y-86628270D01*
X151821882Y-86709107D01*
X151789449Y-86784258D01*
X151761657Y-86847671D01*
X151741077Y-86893293D01*
X151730281Y-86915069D01*
X151729644Y-86915926D01*
X151712693Y-86920084D01*
X151667549Y-86929361D01*
X151598890Y-86942844D01*
X151511398Y-86959621D01*
X151409750Y-86978781D01*
X151350444Y-86989830D01*
X151241828Y-87010510D01*
X151143723Y-87030189D01*
X151061091Y-87047789D01*
X150998896Y-87062233D01*
X150962101Y-87072446D01*
X150954704Y-87075686D01*
X150947460Y-87097617D01*
X150941615Y-87147147D01*
X150937165Y-87218485D01*
X150934107Y-87305839D01*
X150932435Y-87403417D01*
X150932147Y-87505426D01*
X150933239Y-87606075D01*
X150935706Y-87699572D01*
X150939544Y-87780125D01*
X150944750Y-87841942D01*
X150951319Y-87879230D01*
X150955259Y-87886993D01*
X150978812Y-87896298D01*
X151028718Y-87909600D01*
X151098377Y-87925337D01*
X151181187Y-87941946D01*
X151210095Y-87947319D01*
X151349469Y-87972848D01*
X151459564Y-87993408D01*
X151544018Y-88009815D01*
X151606470Y-88022887D01*
X151650556Y-88033441D01*
X151679915Y-88042294D01*
X151698185Y-88050263D01*
X151709002Y-88058165D01*
X151710515Y-88059727D01*
X151725623Y-88084886D01*
X151748671Y-88133850D01*
X151777356Y-88200621D01*
X151809378Y-88279205D01*
X151842435Y-88363607D01*
X151874227Y-88447830D01*
X151902451Y-88525879D01*
X151924807Y-88591759D01*
X151938993Y-88639473D01*
X151942707Y-88663027D01*
X151942398Y-88663852D01*
X151929811Y-88683104D01*
X151901256Y-88725463D01*
X151859733Y-88786521D01*
X151808244Y-88861868D01*
X151749789Y-88947096D01*
X151733142Y-88971315D01*
X151673785Y-89059123D01*
X151621553Y-89139238D01*
X151579292Y-89207062D01*
X151549847Y-89257993D01*
X151536063Y-89287431D01*
X151535395Y-89291048D01*
X151546976Y-89310057D01*
X151578976Y-89347714D01*
X151627282Y-89399973D01*
X151687780Y-89462786D01*
X151756356Y-89532106D01*
X151828896Y-89603885D01*
X151901288Y-89674077D01*
X151969416Y-89738635D01*
X152029168Y-89793510D01*
X152076429Y-89834656D01*
X152107087Y-89858026D01*
X152115568Y-89861842D01*
X152135309Y-89852855D01*
X152175726Y-89828616D01*
X152230237Y-89793209D01*
X152272177Y-89764711D01*
X152348171Y-89712418D01*
X152438166Y-89650845D01*
X152528436Y-89589370D01*
X152576968Y-89556469D01*
X152741238Y-89445359D01*
X152879131Y-89519916D01*
X152941951Y-89552578D01*
X152995371Y-89577966D01*
X153031516Y-89592446D01*
X153040716Y-89594460D01*
X153051779Y-89579584D01*
X153073606Y-89537547D01*
X153104566Y-89472227D01*
X153143030Y-89387500D01*
X153187368Y-89287245D01*
X153235953Y-89175339D01*
X153287154Y-89055659D01*
X153339341Y-88932084D01*
X153390887Y-88808491D01*
X153440160Y-88688757D01*
X153485533Y-88576759D01*
X153525375Y-88476377D01*
X153558058Y-88391486D01*
X153581951Y-88325965D01*
X153595426Y-88283690D01*
X153597594Y-88269172D01*
X153580417Y-88250653D01*
X153542810Y-88220590D01*
X153492634Y-88185232D01*
X153488422Y-88182434D01*
X153358736Y-88078625D01*
X153254166Y-87957515D01*
X153175619Y-87822976D01*
X153124001Y-87678882D01*
X153100218Y-87529105D01*
X153105177Y-87377517D01*
X153139783Y-87227992D01*
X153204943Y-87084400D01*
X153224114Y-87052984D01*
X153323826Y-86926125D01*
X153441623Y-86824255D01*
X153573429Y-86747904D01*
X153715167Y-86697602D01*
X153862758Y-86673879D01*
X154012127Y-86677265D01*
X154159197Y-86708288D01*
X154299889Y-86767480D01*
X154430127Y-86855369D01*
X154470414Y-86891042D01*
X154572945Y-87002706D01*
X154647659Y-87120257D01*
X154698910Y-87252020D01*
X154727454Y-87382507D01*
X154734500Y-87529216D01*
X154711004Y-87676653D01*
X154659351Y-87819834D01*
X154581929Y-87953777D01*
X154481125Y-88073498D01*
X154359324Y-88174014D01*
X154343316Y-88184609D01*
X154292602Y-88219306D01*
X154254050Y-88249370D01*
X154235619Y-88268565D01*
X154235351Y-88269172D01*
X154239308Y-88289936D01*
X154254993Y-88337062D01*
X154280778Y-88406673D01*
X154315031Y-88494893D01*
X154356123Y-88597844D01*
X154402424Y-88711650D01*
X154452304Y-88832435D01*
X154504133Y-88956321D01*
X154556281Y-89079432D01*
X154607118Y-89197891D01*
X154655013Y-89307823D01*
X154698338Y-89405349D01*
X154735462Y-89486593D01*
X154764756Y-89547679D01*
X154784588Y-89584730D01*
X154792574Y-89594460D01*
X154816979Y-89586883D01*
X154862642Y-89566560D01*
X154921690Y-89537125D01*
X154954160Y-89519916D01*
X155092053Y-89445359D01*
X155256323Y-89556469D01*
X155340179Y-89613390D01*
X155431987Y-89676030D01*
X155518020Y-89735011D01*
X155561113Y-89764711D01*
X155621723Y-89805410D01*
X155673045Y-89837663D01*
X155708385Y-89857384D01*
X155719863Y-89861554D01*
X155736570Y-89850307D01*
X155773546Y-89818911D01*
X155827205Y-89770624D01*
X155893962Y-89708708D01*
X155970234Y-89636421D01*
X156018473Y-89590008D01*
X156102867Y-89507087D01*
X156175803Y-89432920D01*
X156234331Y-89370680D01*
X156275503Y-89323541D01*
X156296372Y-89294673D01*
X156298374Y-89288815D01*
X156289083Y-89266532D01*
X156263409Y-89221477D01*
X156224200Y-89158211D01*
X156174303Y-89081295D01*
X156116567Y-88995292D01*
X156100149Y-88971315D01*
X156040323Y-88884170D01*
X155986650Y-88805710D01*
X155942130Y-88740345D01*
X155909765Y-88692484D01*
X155892555Y-88666535D01*
X155890893Y-88663852D01*
X155893379Y-88643172D01*
X155906577Y-88597704D01*
X155928186Y-88533444D01*
X155955904Y-88456387D01*
X155987430Y-88372529D01*
X156020463Y-88287866D01*
X156052701Y-88208392D01*
X156081843Y-88140104D01*
X156105588Y-88088997D01*
X156121635Y-88061067D01*
X156122775Y-88059727D01*
X156132588Y-88051745D01*
X156149161Y-88043851D01*
X156176132Y-88035229D01*
X156217139Y-88025062D01*
X156275820Y-88012531D01*
X156355813Y-87996821D01*
X156460755Y-87977113D01*
X156594285Y-87952592D01*
X156623196Y-87947319D01*
X156708882Y-87930764D01*
X156783582Y-87914569D01*
X156840694Y-87900296D01*
X156873617Y-87889508D01*
X156878031Y-87886993D01*
X156885306Y-87864696D01*
X156891219Y-87814869D01*
X156895766Y-87743304D01*
X156898945Y-87655793D01*
X156900749Y-87558128D01*
X156901177Y-87456101D01*
X156900223Y-87355503D01*
X156897884Y-87262127D01*
X156894156Y-87181765D01*
X156889034Y-87120209D01*
X156882516Y-87083250D01*
X156878586Y-87075686D01*
X156856708Y-87068056D01*
X156806891Y-87055642D01*
X156734097Y-87039522D01*
X156643289Y-87020773D01*
X156539431Y-87000471D01*
X156482846Y-86989830D01*
X156375486Y-86969760D01*
X156279746Y-86951580D01*
X156200306Y-86936199D01*
X156141846Y-86924531D01*
X156109045Y-86917488D01*
X156103646Y-86915926D01*
X156094522Y-86898322D01*
X156075235Y-86855918D01*
X156048355Y-86794772D01*
X156016454Y-86720943D01*
X155982102Y-86640489D01*
X155947871Y-86559468D01*
X155916331Y-86483937D01*
X155890054Y-86419955D01*
X155871611Y-86373580D01*
X155863571Y-86350869D01*
X155863422Y-86349876D01*
X155872535Y-86331961D01*
X155898086Y-86290733D01*
X155937388Y-86230291D01*
X155987757Y-86154731D01*
X156046506Y-86068152D01*
X156080658Y-86018421D01*
X156142890Y-85927236D01*
X156198164Y-85844449D01*
X156243782Y-85774249D01*
X156277048Y-85720824D01*
X156295264Y-85688361D01*
X156297895Y-85681083D01*
X156286586Y-85664145D01*
X156255319Y-85627978D01*
X156208090Y-85576635D01*
X156148892Y-85514167D01*
X156081719Y-85444626D01*
X156010566Y-85372065D01*
X155939426Y-85300535D01*
X155872293Y-85234087D01*
X155813161Y-85176774D01*
X155766025Y-85132647D01*
X155734877Y-85105759D01*
X155724457Y-85099342D01*
X155707491Y-85108365D01*
X155666911Y-85133715D01*
X155606663Y-85172810D01*
X155530693Y-85223071D01*
X155442946Y-85281917D01*
X155376756Y-85326748D01*
X155042332Y-85554154D01*
X154763567Y-85439238D01*
X154484803Y-85324322D01*
X154409254Y-84923576D01*
X154333706Y-84522829D01*
X153499585Y-84522829D01*
X153424036Y-84923576D01*
X153424036Y-84923576D01*
G37*
X153424036Y-84923576D02*
X153348487Y-85324322D01*
X152790959Y-85554154D01*
X152456535Y-85326748D01*
X152362878Y-85263431D01*
X152278218Y-85206896D01*
X152206505Y-85159727D01*
X152151689Y-85124502D01*
X152117720Y-85103805D01*
X152108470Y-85099342D01*
X152091805Y-85110820D01*
X152056194Y-85142551D01*
X152005629Y-85190483D01*
X151944100Y-85250562D01*
X151875601Y-85318733D01*
X151804121Y-85390945D01*
X151733653Y-85463142D01*
X151668189Y-85531273D01*
X151611720Y-85591283D01*
X151568237Y-85639119D01*
X151541732Y-85670727D01*
X151535395Y-85681305D01*
X151544514Y-85700806D01*
X151570080Y-85743531D01*
X151609403Y-85805298D01*
X151659797Y-85881931D01*
X151718573Y-85969248D01*
X151752632Y-86019052D01*
X151814711Y-86109993D01*
X151869874Y-86192059D01*
X151915446Y-86261163D01*
X151948750Y-86313222D01*
X151967110Y-86344150D01*
X151969869Y-86350650D01*
X151963615Y-86369121D01*
X151946566Y-86412172D01*
X151921297Y-86473749D01*
X151890378Y-86547799D01*
X151856382Y-86628270D01*
X151821882Y-86709107D01*
X151789449Y-86784258D01*
X151761657Y-86847671D01*
X151741077Y-86893293D01*
X151730281Y-86915069D01*
X151729644Y-86915926D01*
X151712693Y-86920084D01*
X151667549Y-86929361D01*
X151598890Y-86942844D01*
X151511398Y-86959621D01*
X151409750Y-86978781D01*
X151350444Y-86989830D01*
X151241828Y-87010510D01*
X151143723Y-87030189D01*
X151061091Y-87047789D01*
X150998896Y-87062233D01*
X150962101Y-87072446D01*
X150954704Y-87075686D01*
X150947460Y-87097617D01*
X150941615Y-87147147D01*
X150937165Y-87218485D01*
X150934107Y-87305839D01*
X150932435Y-87403417D01*
X150932147Y-87505426D01*
X150933239Y-87606075D01*
X150935706Y-87699572D01*
X150939544Y-87780125D01*
X150944750Y-87841942D01*
X150951319Y-87879230D01*
X150955259Y-87886993D01*
X150978812Y-87896298D01*
X151028718Y-87909600D01*
X151098377Y-87925337D01*
X151181187Y-87941946D01*
X151210095Y-87947319D01*
X151349469Y-87972848D01*
X151459564Y-87993408D01*
X151544018Y-88009815D01*
X151606470Y-88022887D01*
X151650556Y-88033441D01*
X151679915Y-88042294D01*
X151698185Y-88050263D01*
X151709002Y-88058165D01*
X151710515Y-88059727D01*
X151725623Y-88084886D01*
X151748671Y-88133850D01*
X151777356Y-88200621D01*
X151809378Y-88279205D01*
X151842435Y-88363607D01*
X151874227Y-88447830D01*
X151902451Y-88525879D01*
X151924807Y-88591759D01*
X151938993Y-88639473D01*
X151942707Y-88663027D01*
X151942398Y-88663852D01*
X151929811Y-88683104D01*
X151901256Y-88725463D01*
X151859733Y-88786521D01*
X151808244Y-88861868D01*
X151749789Y-88947096D01*
X151733142Y-88971315D01*
X151673785Y-89059123D01*
X151621553Y-89139238D01*
X151579292Y-89207062D01*
X151549847Y-89257993D01*
X151536063Y-89287431D01*
X151535395Y-89291048D01*
X151546976Y-89310057D01*
X151578976Y-89347714D01*
X151627282Y-89399973D01*
X151687780Y-89462786D01*
X151756356Y-89532106D01*
X151828896Y-89603885D01*
X151901288Y-89674077D01*
X151969416Y-89738635D01*
X152029168Y-89793510D01*
X152076429Y-89834656D01*
X152107087Y-89858026D01*
X152115568Y-89861842D01*
X152135309Y-89852855D01*
X152175726Y-89828616D01*
X152230237Y-89793209D01*
X152272177Y-89764711D01*
X152348171Y-89712418D01*
X152438166Y-89650845D01*
X152528436Y-89589370D01*
X152576968Y-89556469D01*
X152741238Y-89445359D01*
X152879131Y-89519916D01*
X152941951Y-89552578D01*
X152995371Y-89577966D01*
X153031516Y-89592446D01*
X153040716Y-89594460D01*
X153051779Y-89579584D01*
X153073606Y-89537547D01*
X153104566Y-89472227D01*
X153143030Y-89387500D01*
X153187368Y-89287245D01*
X153235953Y-89175339D01*
X153287154Y-89055659D01*
X153339341Y-88932084D01*
X153390887Y-88808491D01*
X153440160Y-88688757D01*
X153485533Y-88576759D01*
X153525375Y-88476377D01*
X153558058Y-88391486D01*
X153581951Y-88325965D01*
X153595426Y-88283690D01*
X153597594Y-88269172D01*
X153580417Y-88250653D01*
X153542810Y-88220590D01*
X153492634Y-88185232D01*
X153488422Y-88182434D01*
X153358736Y-88078625D01*
X153254166Y-87957515D01*
X153175619Y-87822976D01*
X153124001Y-87678882D01*
X153100218Y-87529105D01*
X153105177Y-87377517D01*
X153139783Y-87227992D01*
X153204943Y-87084400D01*
X153224114Y-87052984D01*
X153323826Y-86926125D01*
X153441623Y-86824255D01*
X153573429Y-86747904D01*
X153715167Y-86697602D01*
X153862758Y-86673879D01*
X154012127Y-86677265D01*
X154159197Y-86708288D01*
X154299889Y-86767480D01*
X154430127Y-86855369D01*
X154470414Y-86891042D01*
X154572945Y-87002706D01*
X154647659Y-87120257D01*
X154698910Y-87252020D01*
X154727454Y-87382507D01*
X154734500Y-87529216D01*
X154711004Y-87676653D01*
X154659351Y-87819834D01*
X154581929Y-87953777D01*
X154481125Y-88073498D01*
X154359324Y-88174014D01*
X154343316Y-88184609D01*
X154292602Y-88219306D01*
X154254050Y-88249370D01*
X154235619Y-88268565D01*
X154235351Y-88269172D01*
X154239308Y-88289936D01*
X154254993Y-88337062D01*
X154280778Y-88406673D01*
X154315031Y-88494893D01*
X154356123Y-88597844D01*
X154402424Y-88711650D01*
X154452304Y-88832435D01*
X154504133Y-88956321D01*
X154556281Y-89079432D01*
X154607118Y-89197891D01*
X154655013Y-89307823D01*
X154698338Y-89405349D01*
X154735462Y-89486593D01*
X154764756Y-89547679D01*
X154784588Y-89584730D01*
X154792574Y-89594460D01*
X154816979Y-89586883D01*
X154862642Y-89566560D01*
X154921690Y-89537125D01*
X154954160Y-89519916D01*
X155092053Y-89445359D01*
X155256323Y-89556469D01*
X155340179Y-89613390D01*
X155431987Y-89676030D01*
X155518020Y-89735011D01*
X155561113Y-89764711D01*
X155621723Y-89805410D01*
X155673045Y-89837663D01*
X155708385Y-89857384D01*
X155719863Y-89861554D01*
X155736570Y-89850307D01*
X155773546Y-89818911D01*
X155827205Y-89770624D01*
X155893962Y-89708708D01*
X155970234Y-89636421D01*
X156018473Y-89590008D01*
X156102867Y-89507087D01*
X156175803Y-89432920D01*
X156234331Y-89370680D01*
X156275503Y-89323541D01*
X156296372Y-89294673D01*
X156298374Y-89288815D01*
X156289083Y-89266532D01*
X156263409Y-89221477D01*
X156224200Y-89158211D01*
X156174303Y-89081295D01*
X156116567Y-88995292D01*
X156100149Y-88971315D01*
X156040323Y-88884170D01*
X155986650Y-88805710D01*
X155942130Y-88740345D01*
X155909765Y-88692484D01*
X155892555Y-88666535D01*
X155890893Y-88663852D01*
X155893379Y-88643172D01*
X155906577Y-88597704D01*
X155928186Y-88533444D01*
X155955904Y-88456387D01*
X155987430Y-88372529D01*
X156020463Y-88287866D01*
X156052701Y-88208392D01*
X156081843Y-88140104D01*
X156105588Y-88088997D01*
X156121635Y-88061067D01*
X156122775Y-88059727D01*
X156132588Y-88051745D01*
X156149161Y-88043851D01*
X156176132Y-88035229D01*
X156217139Y-88025062D01*
X156275820Y-88012531D01*
X156355813Y-87996821D01*
X156460755Y-87977113D01*
X156594285Y-87952592D01*
X156623196Y-87947319D01*
X156708882Y-87930764D01*
X156783582Y-87914569D01*
X156840694Y-87900296D01*
X156873617Y-87889508D01*
X156878031Y-87886993D01*
X156885306Y-87864696D01*
X156891219Y-87814869D01*
X156895766Y-87743304D01*
X156898945Y-87655793D01*
X156900749Y-87558128D01*
X156901177Y-87456101D01*
X156900223Y-87355503D01*
X156897884Y-87262127D01*
X156894156Y-87181765D01*
X156889034Y-87120209D01*
X156882516Y-87083250D01*
X156878586Y-87075686D01*
X156856708Y-87068056D01*
X156806891Y-87055642D01*
X156734097Y-87039522D01*
X156643289Y-87020773D01*
X156539431Y-87000471D01*
X156482846Y-86989830D01*
X156375486Y-86969760D01*
X156279746Y-86951580D01*
X156200306Y-86936199D01*
X156141846Y-86924531D01*
X156109045Y-86917488D01*
X156103646Y-86915926D01*
X156094522Y-86898322D01*
X156075235Y-86855918D01*
X156048355Y-86794772D01*
X156016454Y-86720943D01*
X155982102Y-86640489D01*
X155947871Y-86559468D01*
X155916331Y-86483937D01*
X155890054Y-86419955D01*
X155871611Y-86373580D01*
X155863571Y-86350869D01*
X155863422Y-86349876D01*
X155872535Y-86331961D01*
X155898086Y-86290733D01*
X155937388Y-86230291D01*
X155987757Y-86154731D01*
X156046506Y-86068152D01*
X156080658Y-86018421D01*
X156142890Y-85927236D01*
X156198164Y-85844449D01*
X156243782Y-85774249D01*
X156277048Y-85720824D01*
X156295264Y-85688361D01*
X156297895Y-85681083D01*
X156286586Y-85664145D01*
X156255319Y-85627978D01*
X156208090Y-85576635D01*
X156148892Y-85514167D01*
X156081719Y-85444626D01*
X156010566Y-85372065D01*
X155939426Y-85300535D01*
X155872293Y-85234087D01*
X155813161Y-85176774D01*
X155766025Y-85132647D01*
X155734877Y-85105759D01*
X155724457Y-85099342D01*
X155707491Y-85108365D01*
X155666911Y-85133715D01*
X155606663Y-85172810D01*
X155530693Y-85223071D01*
X155442946Y-85281917D01*
X155376756Y-85326748D01*
X155042332Y-85554154D01*
X154763567Y-85439238D01*
X154484803Y-85324322D01*
X154409254Y-84923576D01*
X154333706Y-84522829D01*
X153499585Y-84522829D01*
X153424036Y-84923576D01*
D14*
X159611000Y-95976000D02*
X148611000Y-95976000D01*
X199611000Y-95976000D02*
X161611000Y-95976000D01*
D12*
X199142856Y-83178571D02*
X198285713Y-83178571D01*
X198714284Y-84678571D02*
X198714284Y-83178571D01*
X197499999Y-83178571D02*
X197214285Y-83178571D01*
X197071427Y-83250000D01*
X196928570Y-83392857D01*
X196857142Y-83678571D01*
X196857142Y-84178571D01*
X196928570Y-84464286D01*
X197071427Y-84607143D01*
X197214285Y-84678571D01*
X197499999Y-84678571D01*
X197642856Y-84607143D01*
X197785713Y-84464286D01*
X197857142Y-84178571D01*
X197857142Y-83678571D01*
X197785713Y-83392857D01*
X197642856Y-83250000D01*
X197499999Y-83178571D01*
X195714284Y-83892857D02*
X196214284Y-83892857D01*
X196214284Y-84678571D02*
X196214284Y-83178571D01*
X195499998Y-83178571D01*
X194928570Y-83892857D02*
X194428570Y-83892857D01*
X194214284Y-84678571D02*
X194928570Y-84678571D01*
X194928570Y-83178571D01*
X194214284Y-83178571D01*
X193571427Y-84107143D02*
X192428570Y-84107143D01*
X191499998Y-83821429D02*
X191642856Y-83750000D01*
X191714284Y-83678571D01*
X191785713Y-83535714D01*
X191785713Y-83464286D01*
X191714284Y-83321429D01*
X191642856Y-83250000D01*
X191499998Y-83178571D01*
X191214284Y-83178571D01*
X191071427Y-83250000D01*
X190999998Y-83321429D01*
X190928570Y-83464286D01*
X190928570Y-83535714D01*
X190999998Y-83678571D01*
X191071427Y-83750000D01*
X191214284Y-83821429D01*
X191499998Y-83821429D01*
X191642856Y-83892857D01*
X191714284Y-83964286D01*
X191785713Y-84107143D01*
X191785713Y-84392857D01*
X191714284Y-84535714D01*
X191642856Y-84607143D01*
X191499998Y-84678571D01*
X191214284Y-84678571D01*
X191071427Y-84607143D01*
X190999998Y-84535714D01*
X190928570Y-84392857D01*
X190928570Y-84107143D01*
X190999998Y-83964286D01*
X191071427Y-83892857D01*
X191214284Y-83821429D01*
X190428570Y-83178571D02*
X189428570Y-84678571D01*
X189428570Y-83178571D02*
X190428570Y-84678571D01*
X187714285Y-84678571D02*
X187714285Y-83178571D01*
X187214285Y-84250000D01*
X186714285Y-83178571D01*
X186714285Y-84678571D01*
X185357142Y-84678571D02*
X185357142Y-83892857D01*
X185428571Y-83750000D01*
X185571428Y-83678571D01*
X185857142Y-83678571D01*
X185999999Y-83750000D01*
X185357142Y-84607143D02*
X185499999Y-84678571D01*
X185857142Y-84678571D01*
X185999999Y-84607143D01*
X186071428Y-84464286D01*
X186071428Y-84321429D01*
X185999999Y-84178571D01*
X185857142Y-84107143D01*
X185499999Y-84107143D01*
X185357142Y-84035714D01*
X184428570Y-84678571D02*
X184571428Y-84607143D01*
X184642856Y-84464286D01*
X184642856Y-83178571D01*
X183285714Y-84607143D02*
X183428571Y-84678571D01*
X183714285Y-84678571D01*
X183857142Y-84607143D01*
X183928571Y-84464286D01*
X183928571Y-83892857D01*
X183857142Y-83750000D01*
X183714285Y-83678571D01*
X183428571Y-83678571D01*
X183285714Y-83750000D01*
X183214285Y-83892857D01*
X183214285Y-84035714D01*
X183928571Y-84178571D01*
X181642857Y-83678571D02*
X181071428Y-83678571D01*
X181428571Y-83178571D02*
X181428571Y-84464286D01*
X181357143Y-84607143D01*
X181214285Y-84678571D01*
X181071428Y-84678571D01*
X180357142Y-84678571D02*
X180500000Y-84607143D01*
X180571428Y-84535714D01*
X180642857Y-84392857D01*
X180642857Y-83964286D01*
X180571428Y-83821429D01*
X180500000Y-83750000D01*
X180357142Y-83678571D01*
X180142857Y-83678571D01*
X180000000Y-83750000D01*
X179928571Y-83821429D01*
X179857142Y-83964286D01*
X179857142Y-84392857D01*
X179928571Y-84535714D01*
X180000000Y-84607143D01*
X180142857Y-84678571D01*
X180357142Y-84678571D01*
X178071428Y-84678571D02*
X178071428Y-83178571D01*
X177571428Y-84250000D01*
X177071428Y-83178571D01*
X177071428Y-84678571D01*
X175714285Y-84678571D02*
X175714285Y-83892857D01*
X175785714Y-83750000D01*
X175928571Y-83678571D01*
X176214285Y-83678571D01*
X176357142Y-83750000D01*
X175714285Y-84607143D02*
X175857142Y-84678571D01*
X176214285Y-84678571D01*
X176357142Y-84607143D01*
X176428571Y-84464286D01*
X176428571Y-84321429D01*
X176357142Y-84178571D01*
X176214285Y-84107143D01*
X175857142Y-84107143D01*
X175714285Y-84035714D01*
X174785713Y-84678571D02*
X174928571Y-84607143D01*
X174999999Y-84464286D01*
X174999999Y-83178571D01*
X173642857Y-84607143D02*
X173785714Y-84678571D01*
X174071428Y-84678571D01*
X174214285Y-84607143D01*
X174285714Y-84464286D01*
X174285714Y-83892857D01*
X174214285Y-83750000D01*
X174071428Y-83678571D01*
X173785714Y-83678571D01*
X173642857Y-83750000D01*
X173571428Y-83892857D01*
X173571428Y-84035714D01*
X174285714Y-84178571D01*
X171857143Y-84250000D02*
X171142857Y-84250000D01*
X172000000Y-84678571D02*
X171500000Y-83178571D01*
X171000000Y-84678571D01*
X169857143Y-84678571D02*
X169857143Y-83178571D01*
X169857143Y-84607143D02*
X170000000Y-84678571D01*
X170285714Y-84678571D01*
X170428572Y-84607143D01*
X170500000Y-84535714D01*
X170571429Y-84392857D01*
X170571429Y-83964286D01*
X170500000Y-83821429D01*
X170428572Y-83750000D01*
X170285714Y-83678571D01*
X170000000Y-83678571D01*
X169857143Y-83750000D01*
X168500000Y-84678571D02*
X168500000Y-83892857D01*
X168571429Y-83750000D01*
X168714286Y-83678571D01*
X169000000Y-83678571D01*
X169142857Y-83750000D01*
X168500000Y-84607143D02*
X168642857Y-84678571D01*
X169000000Y-84678571D01*
X169142857Y-84607143D01*
X169214286Y-84464286D01*
X169214286Y-84321429D01*
X169142857Y-84178571D01*
X169000000Y-84107143D01*
X168642857Y-84107143D01*
X168500000Y-84035714D01*
X167785714Y-83678571D02*
X167785714Y-85178571D01*
X167785714Y-83750000D02*
X167642857Y-83678571D01*
X167357143Y-83678571D01*
X167214286Y-83750000D01*
X167142857Y-83821429D01*
X167071428Y-83964286D01*
X167071428Y-84392857D01*
X167142857Y-84535714D01*
X167214286Y-84607143D01*
X167357143Y-84678571D01*
X167642857Y-84678571D01*
X167785714Y-84607143D01*
X166642857Y-83678571D02*
X166071428Y-83678571D01*
X166428571Y-83178571D02*
X166428571Y-84464286D01*
X166357143Y-84607143D01*
X166214285Y-84678571D01*
X166071428Y-84678571D01*
X165000000Y-84607143D02*
X165142857Y-84678571D01*
X165428571Y-84678571D01*
X165571428Y-84607143D01*
X165642857Y-84464286D01*
X165642857Y-83892857D01*
X165571428Y-83750000D01*
X165428571Y-83678571D01*
X165142857Y-83678571D01*
X165000000Y-83750000D01*
X164928571Y-83892857D01*
X164928571Y-84035714D01*
X165642857Y-84178571D01*
X164285714Y-84678571D02*
X164285714Y-83678571D01*
X164285714Y-83964286D02*
X164214286Y-83821429D01*
X164142857Y-83750000D01*
X164000000Y-83678571D01*
X163857143Y-83678571D01*
M02*
