M48
;DRILL file {KiCad 4.0.4+e1-6308~48~ubuntu14.04.1-stable} date Sat Oct 15 18:13:20 2016
;FORMAT={-:-/ absolute / metric / decimal}
FMAT,2
METRIC,TZ
T1C0.300
%
G90
G05
M71
T1
X148.984Y-92.761
X149.111Y-83.871
X149.111Y-87.046
X149.619Y-89.078
X149.619Y-93.904
X150.Y-88.062
X150.Y-90.094
X151.111Y-82.696
X151.111Y-95.333
X152.111Y-82.68
X152.111Y-95.349
X152.159Y-83.871
X152.667Y-89.713
X152.731Y-88.379
X153.175Y-93.904
X154.064Y-93.904
X154.318Y-88.379
X154.318Y-89.713
X154.635Y-83.553
X154.699Y-82.728
X154.826Y-95.459
X155.08Y-84.887
X155.207Y-93.904
X156.096Y-93.904
X156.477Y-82.728
X156.477Y-95.428
X156.5Y-88.379
X156.5Y-89.776
X156.985Y-83.871
X158.111Y-82.711
X158.111Y-95.445
X158.382Y-93.904
X158.572Y-94.73
X158.763Y-88.316
X158.763Y-89.84
X159.111Y-83.871
X159.906Y-86.665
X159.906Y-88.316
X159.906Y-89.84
X159.906Y-91.745
X161.367Y-86.665
X161.367Y-91.745
X161.43Y-88.316
X161.43Y-89.84
X162.111Y-83.871
X162.636Y-82.855
X162.7Y-95.331
X163.081Y-93.904
X163.97Y-93.904
X164.097Y-88.316
X164.097Y-89.84
X164.351Y-83.871
X165.113Y-83.871
X165.621Y-82.728
X165.621Y-88.316
X165.621Y-89.84
X165.621Y-95.319
X166.256Y-93.904
X167.145Y-88.316
X167.145Y-89.84
X167.145Y-93.904
X167.78Y-83.871
X167.78Y-89.078
X168.034Y-84.76
X168.034Y-87.173
X168.034Y-90.475
X168.097Y-92.825
X168.111Y-82.651
X168.111Y-95.351
X168.542Y-93.904
X168.859Y-85.649
X169.304Y-83.871
X170.066Y-83.871
X170.574Y-88.316
X170.574Y-90.475
X170.574Y-95.301
X170.701Y-82.646
X171.209Y-93.904
X172.098Y-93.904
X172.606Y-82.728
X172.606Y-95.301
X172.733Y-88.316
X172.733Y-89.967
X173.241Y-83.871
X174.13Y-83.871
X174.638Y-88.316
X174.638Y-95.428
X174.701Y-82.982
X174.701Y-89.903
X175.146Y-93.904
X176.035Y-93.904
X176.67Y-88.316
X176.733Y-89.903
X176.797Y-82.728
X177.051Y-83.871
X177.94Y-83.871
X178.321Y-88.316
X178.385Y-82.664
X178.385Y-89.903
X178.575Y-95.4
X179.21Y-93.904
X179.972Y-93.904
X180.226Y-88.316
X180.226Y-89.903
X180.48Y-95.555
X180.607Y-83.871
X181.433Y-89.141
X181.559Y-85.204
X181.559Y-87.109
X181.623Y-82.724
X181.686Y-95.428
X181.75Y-83.871
X182.131Y-93.904
X182.448Y-88.316
X182.448Y-89.776
X182.448Y-92.888
X182.576Y-85.776
X182.893Y-94.666
X183.591Y-83.871
X184.417Y-83.871
X184.671Y-82.653
X184.671Y-95.428
X184.798Y-88.316
X184.861Y-89.776
X185.179Y-93.904
X186.068Y-93.904
X186.576Y-82.728
X186.576Y-88.316
X186.639Y-89.776
X187.084Y-83.871
X187.973Y-83.871
X188.608Y-88.316
X188.608Y-89.776
X188.608Y-95.428
X189.243Y-93.904
X190.005Y-93.904
X190.513Y-95.428
X190.576Y-88.316
X190.576Y-89.776
X190.64Y-82.728
X191.021Y-83.871
X191.91Y-83.871
X192.545Y-88.316
X192.545Y-89.776
X192.545Y-95.301
X193.18Y-93.904
X193.942Y-93.904
X194.577Y-82.728
X194.577Y-95.301
X194.641Y-88.316
X194.641Y-89.713
X195.212Y-83.871
X196.101Y-83.871
X196.609Y-88.316
X196.609Y-95.301
X196.615Y-82.722
X196.672Y-89.776
X197.244Y-93.904
X198.006Y-93.904
X198.323Y-85.268
X198.323Y-87.554
X198.387Y-90.157
X198.387Y-93.015
X198.7Y-89.078
X198.768Y-83.871
X199.111Y-82.639
X199.111Y-95.301
T0
M30
