G04 (created by PCBNEW (2013-07-07 BZR 4022)-stable) date 03/11/2015 04:39:32 PM*
%MOIN*%
G04 Gerber Fmt 3.4, Leading zero omitted, Abs format*
%FSLAX34Y34*%
G01*
G70*
G90*
G04 APERTURE LIST*
%ADD10C,0.00590551*%
%ADD11R,0.0256X0.1811*%
%ADD12R,0.0256X0.1417*%
%ADD13O,0.0256X0.0256*%
%ADD14C,0.0964567*%
%ADD15R,0.0472441X0.0472441*%
%ADD16C,0.0472441*%
G04 APERTURE END LIST*
G54D10*
G54D11*
X68792Y-72824D03*
X69186Y-72824D03*
X69579Y-72824D03*
X69973Y-72824D03*
X70367Y-72824D03*
X70760Y-72824D03*
X71154Y-72824D03*
X71548Y-72824D03*
X71941Y-72824D03*
X72335Y-72824D03*
X72729Y-72824D03*
X74697Y-72824D03*
X75091Y-72824D03*
X75485Y-72824D03*
G54D12*
X75878Y-72627D03*
G54D11*
X76272Y-72824D03*
X73910Y-72824D03*
X74304Y-72824D03*
G54D12*
X68792Y-72627D03*
G54D11*
X69186Y-72824D03*
X69579Y-72824D03*
X69973Y-72824D03*
X70367Y-72824D03*
X70760Y-72824D03*
X71154Y-72824D03*
X71548Y-72824D03*
X71941Y-72824D03*
X72335Y-72824D03*
X72729Y-72824D03*
X74697Y-72824D03*
X75091Y-72824D03*
X75485Y-72824D03*
X75878Y-72824D03*
X76272Y-72824D03*
X73910Y-72824D03*
X74304Y-72824D03*
G54D13*
X69973Y-73730D03*
X70367Y-73730D03*
X70760Y-73730D03*
X71154Y-73730D03*
X71548Y-73730D03*
X71941Y-73730D03*
X72335Y-73730D03*
X74697Y-73730D03*
X75091Y-73730D03*
X69579Y-73730D03*
X74304Y-73730D03*
X75485Y-73730D03*
X72729Y-73730D03*
X73910Y-73730D03*
X75878Y-73730D03*
X76272Y-73730D03*
X69186Y-73730D03*
G54D11*
X76666Y-72824D03*
X76666Y-72824D03*
X77059Y-72824D03*
X77453Y-72824D03*
X77847Y-72824D03*
X78240Y-72824D03*
X78634Y-72824D03*
X79028Y-72824D03*
X79422Y-72824D03*
X79815Y-72824D03*
X80209Y-72824D03*
X80603Y-72824D03*
X80996Y-72824D03*
X81390Y-72824D03*
X81784Y-72824D03*
X82177Y-72824D03*
X82571Y-72824D03*
X82965Y-72824D03*
X83359Y-72824D03*
X83752Y-72824D03*
X84146Y-72824D03*
X84540Y-72824D03*
X84933Y-72824D03*
X85327Y-72824D03*
X85721Y-72824D03*
X86114Y-72824D03*
X86508Y-72824D03*
X86902Y-72824D03*
X87296Y-72824D03*
X87689Y-72824D03*
X88083Y-72824D03*
X88477Y-72824D03*
X77059Y-72824D03*
X77453Y-72824D03*
X77847Y-72824D03*
X78240Y-72824D03*
X78634Y-72824D03*
X79028Y-72824D03*
X79422Y-72824D03*
X79815Y-72824D03*
X80209Y-72824D03*
X80603Y-72824D03*
X80996Y-72824D03*
G54D12*
X81390Y-72627D03*
G54D11*
X81784Y-72824D03*
X82177Y-72824D03*
X82571Y-72824D03*
X82965Y-72824D03*
X83359Y-72824D03*
X83752Y-72824D03*
X84146Y-72824D03*
X84540Y-72824D03*
X84933Y-72824D03*
X85327Y-72824D03*
X85721Y-72824D03*
X86114Y-72824D03*
X86508Y-72824D03*
X86902Y-72824D03*
X87296Y-72824D03*
X87689Y-72824D03*
G54D12*
X88083Y-72627D03*
G54D11*
X88477Y-72824D03*
G54D13*
X76666Y-73730D03*
X77059Y-73730D03*
X77453Y-73730D03*
X77847Y-73730D03*
X78240Y-73730D03*
X78634Y-73730D03*
X79028Y-73730D03*
X79422Y-73730D03*
X86508Y-73730D03*
X79815Y-73730D03*
X80209Y-73730D03*
X80603Y-73730D03*
X80996Y-73730D03*
X81784Y-73730D03*
X82177Y-73730D03*
X82571Y-73730D03*
X82965Y-73730D03*
X83359Y-73730D03*
X86902Y-73730D03*
X83752Y-73730D03*
X84146Y-73730D03*
X84540Y-73730D03*
X84933Y-73730D03*
X85327Y-73730D03*
X85721Y-73730D03*
X86114Y-73730D03*
X87296Y-73730D03*
X87689Y-73730D03*
X88477Y-73730D03*
X76666Y-73730D03*
X77059Y-73730D03*
X77453Y-73730D03*
X77847Y-73730D03*
X78240Y-73730D03*
X78634Y-73730D03*
X79028Y-73730D03*
X79422Y-73730D03*
X79815Y-73730D03*
X80209Y-73730D03*
X80603Y-73730D03*
X80996Y-73730D03*
X81390Y-73730D03*
X81784Y-73730D03*
X82177Y-73730D03*
X82571Y-73730D03*
X82965Y-73730D03*
X83359Y-73730D03*
X83752Y-73730D03*
X84146Y-73730D03*
X84540Y-73730D03*
X84933Y-73730D03*
X85327Y-73730D03*
X85721Y-73730D03*
X86114Y-73730D03*
X86508Y-73730D03*
X86902Y-73730D03*
X87296Y-73730D03*
X87689Y-73730D03*
X88083Y-73730D03*
X88477Y-73730D03*
G54D14*
X89097Y-65770D03*
X73290Y-65770D03*
G54D15*
X68703Y-66262D03*
G54D16*
X69097Y-67049D03*
X69490Y-66262D03*
X69884Y-67049D03*
X70278Y-66262D03*
X70671Y-67049D03*
X71065Y-66262D03*
X71459Y-67049D03*
X71852Y-66262D03*
X72246Y-67049D03*
X72640Y-66262D03*
X73821Y-67049D03*
X74215Y-66262D03*
X74608Y-67049D03*
X75002Y-66262D03*
X75396Y-67049D03*
X75790Y-66262D03*
X76183Y-67049D03*
X76577Y-66262D03*
X76971Y-67049D03*
X77364Y-66262D03*
X77758Y-67049D03*
X78152Y-66262D03*
X78545Y-67049D03*
X78939Y-66262D03*
X79333Y-67049D03*
X79727Y-66262D03*
X80120Y-67049D03*
X80514Y-66262D03*
X80908Y-67049D03*
X81301Y-66262D03*
X81695Y-67049D03*
X82089Y-66262D03*
X82482Y-67049D03*
X82876Y-66262D03*
X83270Y-67049D03*
X83664Y-66262D03*
X84057Y-67049D03*
X84451Y-66262D03*
X84845Y-67049D03*
X85238Y-66262D03*
X85632Y-67049D03*
X86026Y-66262D03*
X86419Y-67049D03*
X86813Y-66262D03*
X87207Y-67049D03*
X87601Y-66262D03*
X87994Y-67049D03*
X68703Y-65277D03*
X69097Y-64490D03*
X69490Y-65277D03*
X69884Y-64490D03*
X70278Y-65277D03*
X70671Y-64490D03*
X71065Y-65277D03*
X71459Y-64490D03*
X71852Y-65277D03*
X72246Y-64490D03*
X72640Y-65277D03*
X73821Y-64490D03*
X74215Y-65277D03*
X74608Y-64490D03*
X75002Y-65277D03*
X75396Y-64490D03*
X75790Y-65277D03*
X76183Y-64490D03*
X76577Y-65277D03*
X76971Y-64490D03*
X77364Y-65277D03*
X77758Y-64490D03*
X78152Y-65277D03*
X78545Y-64490D03*
X78939Y-65277D03*
X79333Y-64490D03*
X79727Y-65277D03*
X80120Y-64490D03*
X80514Y-65277D03*
X80908Y-64490D03*
X81301Y-65277D03*
X81695Y-64490D03*
X82089Y-65277D03*
X82482Y-64490D03*
X82876Y-65277D03*
X83270Y-64490D03*
X83664Y-65277D03*
X84057Y-64490D03*
X84451Y-65277D03*
X84845Y-64490D03*
X85238Y-65277D03*
X85632Y-64490D03*
X86026Y-65277D03*
X86419Y-64490D03*
X86813Y-65277D03*
X87207Y-64490D03*
X87601Y-65277D03*
X87994Y-64490D03*
X88388Y-66262D03*
X88388Y-65277D03*
M02*
