G04 #@! TF.FileFunction,Soldermask,Bot*
%FSLAX46Y46*%
G04 Gerber Fmt 4.6, Leading zero omitted, Abs format (unit mm)*
G04 Created by KiCad (PCBNEW 4.0.2+e4-6225~38~ubuntu14.04.1-stable) date Wed Aug  3 16:15:20 2016*
%MOMM*%
G01*
G04 APERTURE LIST*
%ADD10C,0.350000*%
%ADD11C,0.100000*%
G04 APERTURE END LIST*
D10*
D11*
X174000000Y-175677360D02*
X173750000Y-175427360D01*
X174000000Y-175720060D02*
X174000000Y-188150000D01*
X185250000Y-179150000D02*
X185250000Y-188150000D01*
X162250000Y-159804100D02*
X162250000Y-181250000D01*
X170225720Y-175488600D02*
X170225720Y-181250000D01*
X170172380Y-181250000D02*
X162250000Y-181250000D01*
X225247200Y-177250000D02*
X231165400Y-177250000D01*
X231162860Y-159804100D02*
X162250000Y-159804100D01*
X231165400Y-177241200D02*
X231165400Y-159806640D01*
X225250000Y-177250000D02*
X225250000Y-177500000D01*
X185250000Y-188150000D02*
X174000000Y-188150000D01*
X187000000Y-179150000D02*
X185250000Y-179150000D01*
X187000000Y-188150000D02*
X187000000Y-179150000D01*
X225250000Y-188150000D02*
X187000000Y-188150000D01*
X225250000Y-177250000D02*
X225250000Y-188150000D01*
X173795515Y-175473408D02*
G75*
G03X170265240Y-175442600I-1780275J-1719192D01*
G01*
D10*
G36*
X225400000Y-188297795D02*
X173900000Y-188297795D01*
X173900000Y-182900000D01*
X225400000Y-182900000D01*
X225400000Y-188297795D01*
X225400000Y-188297795D01*
G37*
G36*
X201580122Y-169606263D02*
X201714599Y-169633867D01*
X201841148Y-169687063D01*
X201954962Y-169763832D01*
X202051688Y-169861235D01*
X202127658Y-169975580D01*
X202179969Y-170102496D01*
X202206529Y-170236634D01*
X202206529Y-170236650D01*
X202206630Y-170237161D01*
X202204441Y-170393958D01*
X202204325Y-170394467D01*
X202204325Y-170394486D01*
X202174031Y-170527824D01*
X202118195Y-170653235D01*
X202039065Y-170765408D01*
X201939651Y-170860079D01*
X201823741Y-170933638D01*
X201695756Y-170983279D01*
X201560563Y-171007118D01*
X201423315Y-171004242D01*
X201289241Y-170974765D01*
X201163444Y-170919805D01*
X201050720Y-170841460D01*
X200955356Y-170742708D01*
X200880993Y-170627319D01*
X200830457Y-170499680D01*
X200805676Y-170364661D01*
X200807594Y-170227392D01*
X200836135Y-170093114D01*
X200890212Y-169966943D01*
X200967774Y-169853667D01*
X201065853Y-169757622D01*
X201180723Y-169682451D01*
X201308003Y-169631027D01*
X201442849Y-169605304D01*
X201580122Y-169606263D01*
X201580122Y-169606263D01*
G37*
G36*
X207580122Y-169606263D02*
X207714599Y-169633867D01*
X207841148Y-169687063D01*
X207954962Y-169763832D01*
X208051688Y-169861235D01*
X208127658Y-169975580D01*
X208179969Y-170102496D01*
X208206529Y-170236634D01*
X208206529Y-170236650D01*
X208206630Y-170237161D01*
X208204441Y-170393958D01*
X208204325Y-170394467D01*
X208204325Y-170394486D01*
X208174031Y-170527824D01*
X208118195Y-170653235D01*
X208039065Y-170765408D01*
X207939651Y-170860079D01*
X207823741Y-170933638D01*
X207695756Y-170983279D01*
X207560563Y-171007118D01*
X207423315Y-171004242D01*
X207289241Y-170974765D01*
X207163444Y-170919805D01*
X207050720Y-170841460D01*
X206955356Y-170742708D01*
X206880993Y-170627319D01*
X206830457Y-170499680D01*
X206805676Y-170364661D01*
X206807594Y-170227392D01*
X206836135Y-170093114D01*
X206890212Y-169966943D01*
X206967774Y-169853667D01*
X207065853Y-169757622D01*
X207180723Y-169682451D01*
X207308003Y-169631027D01*
X207442849Y-169605304D01*
X207580122Y-169606263D01*
X207580122Y-169606263D01*
G37*
G36*
X213580122Y-169606263D02*
X213714599Y-169633867D01*
X213841148Y-169687063D01*
X213954962Y-169763832D01*
X214051688Y-169861235D01*
X214127658Y-169975580D01*
X214179969Y-170102496D01*
X214206529Y-170236634D01*
X214206529Y-170236650D01*
X214206630Y-170237161D01*
X214204441Y-170393958D01*
X214204325Y-170394467D01*
X214204325Y-170394486D01*
X214174031Y-170527824D01*
X214118195Y-170653235D01*
X214039065Y-170765408D01*
X213939651Y-170860079D01*
X213823741Y-170933638D01*
X213695756Y-170983279D01*
X213560563Y-171007118D01*
X213423315Y-171004242D01*
X213289241Y-170974765D01*
X213163444Y-170919805D01*
X213050720Y-170841460D01*
X212955356Y-170742708D01*
X212880993Y-170627319D01*
X212830457Y-170499680D01*
X212805676Y-170364661D01*
X212807594Y-170227392D01*
X212836135Y-170093114D01*
X212890212Y-169966943D01*
X212967774Y-169853667D01*
X213065853Y-169757622D01*
X213180723Y-169682451D01*
X213308003Y-169631027D01*
X213442849Y-169605304D01*
X213580122Y-169606263D01*
X213580122Y-169606263D01*
G37*
G36*
X209580122Y-169606263D02*
X209714599Y-169633867D01*
X209841148Y-169687063D01*
X209954962Y-169763832D01*
X210051688Y-169861235D01*
X210127658Y-169975580D01*
X210179969Y-170102496D01*
X210206529Y-170236634D01*
X210206529Y-170236650D01*
X210206630Y-170237161D01*
X210204441Y-170393958D01*
X210204325Y-170394467D01*
X210204325Y-170394486D01*
X210174031Y-170527824D01*
X210118195Y-170653235D01*
X210039065Y-170765408D01*
X209939651Y-170860079D01*
X209823741Y-170933638D01*
X209695756Y-170983279D01*
X209560563Y-171007118D01*
X209423315Y-171004242D01*
X209289241Y-170974765D01*
X209163444Y-170919805D01*
X209050720Y-170841460D01*
X208955356Y-170742708D01*
X208880993Y-170627319D01*
X208830457Y-170499680D01*
X208805676Y-170364661D01*
X208807594Y-170227392D01*
X208836135Y-170093114D01*
X208890212Y-169966943D01*
X208967774Y-169853667D01*
X209065853Y-169757622D01*
X209180723Y-169682451D01*
X209308003Y-169631027D01*
X209442849Y-169605304D01*
X209580122Y-169606263D01*
X209580122Y-169606263D01*
G37*
G36*
X205580122Y-169606263D02*
X205714599Y-169633867D01*
X205841148Y-169687063D01*
X205954962Y-169763832D01*
X206051688Y-169861235D01*
X206127658Y-169975580D01*
X206179969Y-170102496D01*
X206206529Y-170236634D01*
X206206529Y-170236650D01*
X206206630Y-170237161D01*
X206204441Y-170393958D01*
X206204325Y-170394467D01*
X206204325Y-170394486D01*
X206174031Y-170527824D01*
X206118195Y-170653235D01*
X206039065Y-170765408D01*
X205939651Y-170860079D01*
X205823741Y-170933638D01*
X205695756Y-170983279D01*
X205560563Y-171007118D01*
X205423315Y-171004242D01*
X205289241Y-170974765D01*
X205163444Y-170919805D01*
X205050720Y-170841460D01*
X204955356Y-170742708D01*
X204880993Y-170627319D01*
X204830457Y-170499680D01*
X204805676Y-170364661D01*
X204807594Y-170227392D01*
X204836135Y-170093114D01*
X204890212Y-169966943D01*
X204967774Y-169853667D01*
X205065853Y-169757622D01*
X205180723Y-169682451D01*
X205308003Y-169631027D01*
X205442849Y-169605304D01*
X205580122Y-169606263D01*
X205580122Y-169606263D01*
G37*
G36*
X175580122Y-169606263D02*
X175714599Y-169633867D01*
X175841148Y-169687063D01*
X175954962Y-169763832D01*
X176051688Y-169861235D01*
X176127658Y-169975580D01*
X176179969Y-170102496D01*
X176206529Y-170236634D01*
X176206529Y-170236650D01*
X176206630Y-170237161D01*
X176204441Y-170393958D01*
X176204325Y-170394467D01*
X176204325Y-170394486D01*
X176174031Y-170527824D01*
X176118195Y-170653235D01*
X176039065Y-170765408D01*
X175939651Y-170860079D01*
X175823741Y-170933638D01*
X175695756Y-170983279D01*
X175560563Y-171007118D01*
X175423315Y-171004242D01*
X175289241Y-170974765D01*
X175163444Y-170919805D01*
X175050720Y-170841460D01*
X174955356Y-170742708D01*
X174880993Y-170627319D01*
X174830457Y-170499680D01*
X174805676Y-170364661D01*
X174807594Y-170227392D01*
X174836135Y-170093114D01*
X174890212Y-169966943D01*
X174967774Y-169853667D01*
X175065853Y-169757622D01*
X175180723Y-169682451D01*
X175308003Y-169631027D01*
X175442849Y-169605304D01*
X175580122Y-169606263D01*
X175580122Y-169606263D01*
G37*
G36*
X211580122Y-169606263D02*
X211714599Y-169633867D01*
X211841148Y-169687063D01*
X211954962Y-169763832D01*
X212051688Y-169861235D01*
X212127658Y-169975580D01*
X212179969Y-170102496D01*
X212206529Y-170236634D01*
X212206529Y-170236650D01*
X212206630Y-170237161D01*
X212204441Y-170393958D01*
X212204325Y-170394467D01*
X212204325Y-170394486D01*
X212174031Y-170527824D01*
X212118195Y-170653235D01*
X212039065Y-170765408D01*
X211939651Y-170860079D01*
X211823741Y-170933638D01*
X211695756Y-170983279D01*
X211560563Y-171007118D01*
X211423315Y-171004242D01*
X211289241Y-170974765D01*
X211163444Y-170919805D01*
X211050720Y-170841460D01*
X210955356Y-170742708D01*
X210880993Y-170627319D01*
X210830457Y-170499680D01*
X210805676Y-170364661D01*
X210807594Y-170227392D01*
X210836135Y-170093114D01*
X210890212Y-169966943D01*
X210967774Y-169853667D01*
X211065853Y-169757622D01*
X211180723Y-169682451D01*
X211308003Y-169631027D01*
X211442849Y-169605304D01*
X211580122Y-169606263D01*
X211580122Y-169606263D01*
G37*
G36*
X215580122Y-169606263D02*
X215714599Y-169633867D01*
X215841148Y-169687063D01*
X215954962Y-169763832D01*
X216051688Y-169861235D01*
X216127658Y-169975580D01*
X216179969Y-170102496D01*
X216206529Y-170236634D01*
X216206529Y-170236650D01*
X216206630Y-170237161D01*
X216204441Y-170393958D01*
X216204325Y-170394467D01*
X216204325Y-170394486D01*
X216174031Y-170527824D01*
X216118195Y-170653235D01*
X216039065Y-170765408D01*
X215939651Y-170860079D01*
X215823741Y-170933638D01*
X215695756Y-170983279D01*
X215560563Y-171007118D01*
X215423315Y-171004242D01*
X215289241Y-170974765D01*
X215163444Y-170919805D01*
X215050720Y-170841460D01*
X214955356Y-170742708D01*
X214880993Y-170627319D01*
X214830457Y-170499680D01*
X214805676Y-170364661D01*
X214807594Y-170227392D01*
X214836135Y-170093114D01*
X214890212Y-169966943D01*
X214967774Y-169853667D01*
X215065853Y-169757622D01*
X215180723Y-169682451D01*
X215308003Y-169631027D01*
X215442849Y-169605304D01*
X215580122Y-169606263D01*
X215580122Y-169606263D01*
G37*
G36*
X217580122Y-169606263D02*
X217714599Y-169633867D01*
X217841148Y-169687063D01*
X217954962Y-169763832D01*
X218051688Y-169861235D01*
X218127658Y-169975580D01*
X218179969Y-170102496D01*
X218206529Y-170236634D01*
X218206529Y-170236650D01*
X218206630Y-170237161D01*
X218204441Y-170393958D01*
X218204325Y-170394467D01*
X218204325Y-170394486D01*
X218174031Y-170527824D01*
X218118195Y-170653235D01*
X218039065Y-170765408D01*
X217939651Y-170860079D01*
X217823741Y-170933638D01*
X217695756Y-170983279D01*
X217560563Y-171007118D01*
X217423315Y-171004242D01*
X217289241Y-170974765D01*
X217163444Y-170919805D01*
X217050720Y-170841460D01*
X216955356Y-170742708D01*
X216880993Y-170627319D01*
X216830457Y-170499680D01*
X216805676Y-170364661D01*
X216807594Y-170227392D01*
X216836135Y-170093114D01*
X216890212Y-169966943D01*
X216967774Y-169853667D01*
X217065853Y-169757622D01*
X217180723Y-169682451D01*
X217308003Y-169631027D01*
X217442849Y-169605304D01*
X217580122Y-169606263D01*
X217580122Y-169606263D01*
G37*
G36*
X219580122Y-169606263D02*
X219714599Y-169633867D01*
X219841148Y-169687063D01*
X219954962Y-169763832D01*
X220051688Y-169861235D01*
X220127658Y-169975580D01*
X220179969Y-170102496D01*
X220206529Y-170236634D01*
X220206529Y-170236650D01*
X220206630Y-170237161D01*
X220204441Y-170393958D01*
X220204325Y-170394467D01*
X220204325Y-170394486D01*
X220174031Y-170527824D01*
X220118195Y-170653235D01*
X220039065Y-170765408D01*
X219939651Y-170860079D01*
X219823741Y-170933638D01*
X219695756Y-170983279D01*
X219560563Y-171007118D01*
X219423315Y-171004242D01*
X219289241Y-170974765D01*
X219163444Y-170919805D01*
X219050720Y-170841460D01*
X218955356Y-170742708D01*
X218880993Y-170627319D01*
X218830457Y-170499680D01*
X218805676Y-170364661D01*
X218807594Y-170227392D01*
X218836135Y-170093114D01*
X218890212Y-169966943D01*
X218967774Y-169853667D01*
X219065853Y-169757622D01*
X219180723Y-169682451D01*
X219308003Y-169631027D01*
X219442849Y-169605304D01*
X219580122Y-169606263D01*
X219580122Y-169606263D01*
G37*
G36*
X221580122Y-169606263D02*
X221714599Y-169633867D01*
X221841148Y-169687063D01*
X221954962Y-169763832D01*
X222051688Y-169861235D01*
X222127658Y-169975580D01*
X222179969Y-170102496D01*
X222206529Y-170236634D01*
X222206529Y-170236650D01*
X222206630Y-170237161D01*
X222204441Y-170393958D01*
X222204325Y-170394467D01*
X222204325Y-170394486D01*
X222174031Y-170527824D01*
X222118195Y-170653235D01*
X222039065Y-170765408D01*
X221939651Y-170860079D01*
X221823741Y-170933638D01*
X221695756Y-170983279D01*
X221560563Y-171007118D01*
X221423315Y-171004242D01*
X221289241Y-170974765D01*
X221163444Y-170919805D01*
X221050720Y-170841460D01*
X220955356Y-170742708D01*
X220880993Y-170627319D01*
X220830457Y-170499680D01*
X220805676Y-170364661D01*
X220807594Y-170227392D01*
X220836135Y-170093114D01*
X220890212Y-169966943D01*
X220967774Y-169853667D01*
X221065853Y-169757622D01*
X221180723Y-169682451D01*
X221308003Y-169631027D01*
X221442849Y-169605304D01*
X221580122Y-169606263D01*
X221580122Y-169606263D01*
G37*
G36*
X223580122Y-169606263D02*
X223714599Y-169633867D01*
X223841148Y-169687063D01*
X223954962Y-169763832D01*
X224051688Y-169861235D01*
X224127658Y-169975580D01*
X224179969Y-170102496D01*
X224206529Y-170236634D01*
X224206529Y-170236650D01*
X224206630Y-170237161D01*
X224204441Y-170393958D01*
X224204325Y-170394467D01*
X224204325Y-170394486D01*
X224174031Y-170527824D01*
X224118195Y-170653235D01*
X224039065Y-170765408D01*
X223939651Y-170860079D01*
X223823741Y-170933638D01*
X223695756Y-170983279D01*
X223560563Y-171007118D01*
X223423315Y-171004242D01*
X223289241Y-170974765D01*
X223163444Y-170919805D01*
X223050720Y-170841460D01*
X222955356Y-170742708D01*
X222880993Y-170627319D01*
X222830457Y-170499680D01*
X222805676Y-170364661D01*
X222807594Y-170227392D01*
X222836135Y-170093114D01*
X222890212Y-169966943D01*
X222967774Y-169853667D01*
X223065853Y-169757622D01*
X223180723Y-169682451D01*
X223308003Y-169631027D01*
X223442849Y-169605304D01*
X223580122Y-169606263D01*
X223580122Y-169606263D01*
G37*
G36*
X199580122Y-169606263D02*
X199714599Y-169633867D01*
X199841148Y-169687063D01*
X199954962Y-169763832D01*
X200051688Y-169861235D01*
X200127658Y-169975580D01*
X200179969Y-170102496D01*
X200206529Y-170236634D01*
X200206529Y-170236650D01*
X200206630Y-170237161D01*
X200204441Y-170393958D01*
X200204325Y-170394467D01*
X200204325Y-170394486D01*
X200174031Y-170527824D01*
X200118195Y-170653235D01*
X200039065Y-170765408D01*
X199939651Y-170860079D01*
X199823741Y-170933638D01*
X199695756Y-170983279D01*
X199560563Y-171007118D01*
X199423315Y-171004242D01*
X199289241Y-170974765D01*
X199163444Y-170919805D01*
X199050720Y-170841460D01*
X198955356Y-170742708D01*
X198880993Y-170627319D01*
X198830457Y-170499680D01*
X198805676Y-170364661D01*
X198807594Y-170227392D01*
X198836135Y-170093114D01*
X198890212Y-169966943D01*
X198967774Y-169853667D01*
X199065853Y-169757622D01*
X199180723Y-169682451D01*
X199308003Y-169631027D01*
X199442849Y-169605304D01*
X199580122Y-169606263D01*
X199580122Y-169606263D01*
G37*
G36*
X203580122Y-169606263D02*
X203714599Y-169633867D01*
X203841148Y-169687063D01*
X203954962Y-169763832D01*
X204051688Y-169861235D01*
X204127658Y-169975580D01*
X204179969Y-170102496D01*
X204206529Y-170236634D01*
X204206529Y-170236650D01*
X204206630Y-170237161D01*
X204204441Y-170393958D01*
X204204325Y-170394467D01*
X204204325Y-170394486D01*
X204174031Y-170527824D01*
X204118195Y-170653235D01*
X204039065Y-170765408D01*
X203939651Y-170860079D01*
X203823741Y-170933638D01*
X203695756Y-170983279D01*
X203560563Y-171007118D01*
X203423315Y-171004242D01*
X203289241Y-170974765D01*
X203163444Y-170919805D01*
X203050720Y-170841460D01*
X202955356Y-170742708D01*
X202880993Y-170627319D01*
X202830457Y-170499680D01*
X202805676Y-170364661D01*
X202807594Y-170227392D01*
X202836135Y-170093114D01*
X202890212Y-169966943D01*
X202967774Y-169853667D01*
X203065853Y-169757622D01*
X203180723Y-169682451D01*
X203308003Y-169631027D01*
X203442849Y-169605304D01*
X203580122Y-169606263D01*
X203580122Y-169606263D01*
G37*
G36*
X177580122Y-169606263D02*
X177714599Y-169633867D01*
X177841148Y-169687063D01*
X177954962Y-169763832D01*
X178051688Y-169861235D01*
X178127658Y-169975580D01*
X178179969Y-170102496D01*
X178206529Y-170236634D01*
X178206529Y-170236650D01*
X178206630Y-170237161D01*
X178204441Y-170393958D01*
X178204325Y-170394467D01*
X178204325Y-170394486D01*
X178174031Y-170527824D01*
X178118195Y-170653235D01*
X178039065Y-170765408D01*
X177939651Y-170860079D01*
X177823741Y-170933638D01*
X177695756Y-170983279D01*
X177560563Y-171007118D01*
X177423315Y-171004242D01*
X177289241Y-170974765D01*
X177163444Y-170919805D01*
X177050720Y-170841460D01*
X176955356Y-170742708D01*
X176880993Y-170627319D01*
X176830457Y-170499680D01*
X176805676Y-170364661D01*
X176807594Y-170227392D01*
X176836135Y-170093114D01*
X176890212Y-169966943D01*
X176967774Y-169853667D01*
X177065853Y-169757622D01*
X177180723Y-169682451D01*
X177308003Y-169631027D01*
X177442849Y-169605304D01*
X177580122Y-169606263D01*
X177580122Y-169606263D01*
G37*
G36*
X179580122Y-169606263D02*
X179714599Y-169633867D01*
X179841148Y-169687063D01*
X179954962Y-169763832D01*
X180051688Y-169861235D01*
X180127658Y-169975580D01*
X180179969Y-170102496D01*
X180206529Y-170236634D01*
X180206529Y-170236650D01*
X180206630Y-170237161D01*
X180204441Y-170393958D01*
X180204325Y-170394467D01*
X180204325Y-170394486D01*
X180174031Y-170527824D01*
X180118195Y-170653235D01*
X180039065Y-170765408D01*
X179939651Y-170860079D01*
X179823741Y-170933638D01*
X179695756Y-170983279D01*
X179560563Y-171007118D01*
X179423315Y-171004242D01*
X179289241Y-170974765D01*
X179163444Y-170919805D01*
X179050720Y-170841460D01*
X178955356Y-170742708D01*
X178880993Y-170627319D01*
X178830457Y-170499680D01*
X178805676Y-170364661D01*
X178807594Y-170227392D01*
X178836135Y-170093114D01*
X178890212Y-169966943D01*
X178967774Y-169853667D01*
X179065853Y-169757622D01*
X179180723Y-169682451D01*
X179308003Y-169631027D01*
X179442849Y-169605304D01*
X179580122Y-169606263D01*
X179580122Y-169606263D01*
G37*
G36*
X181580122Y-169606263D02*
X181714599Y-169633867D01*
X181841148Y-169687063D01*
X181954962Y-169763832D01*
X182051688Y-169861235D01*
X182127658Y-169975580D01*
X182179969Y-170102496D01*
X182206529Y-170236634D01*
X182206529Y-170236650D01*
X182206630Y-170237161D01*
X182204441Y-170393958D01*
X182204325Y-170394467D01*
X182204325Y-170394486D01*
X182174031Y-170527824D01*
X182118195Y-170653235D01*
X182039065Y-170765408D01*
X181939651Y-170860079D01*
X181823741Y-170933638D01*
X181695756Y-170983279D01*
X181560563Y-171007118D01*
X181423315Y-171004242D01*
X181289241Y-170974765D01*
X181163444Y-170919805D01*
X181050720Y-170841460D01*
X180955356Y-170742708D01*
X180880993Y-170627319D01*
X180830457Y-170499680D01*
X180805676Y-170364661D01*
X180807594Y-170227392D01*
X180836135Y-170093114D01*
X180890212Y-169966943D01*
X180967774Y-169853667D01*
X181065853Y-169757622D01*
X181180723Y-169682451D01*
X181308003Y-169631027D01*
X181442849Y-169605304D01*
X181580122Y-169606263D01*
X181580122Y-169606263D01*
G37*
G36*
X183580122Y-169606263D02*
X183714599Y-169633867D01*
X183841148Y-169687063D01*
X183954962Y-169763832D01*
X184051688Y-169861235D01*
X184127658Y-169975580D01*
X184179969Y-170102496D01*
X184206529Y-170236634D01*
X184206529Y-170236650D01*
X184206630Y-170237161D01*
X184204441Y-170393958D01*
X184204325Y-170394467D01*
X184204325Y-170394486D01*
X184174031Y-170527824D01*
X184118195Y-170653235D01*
X184039065Y-170765408D01*
X183939651Y-170860079D01*
X183823741Y-170933638D01*
X183695756Y-170983279D01*
X183560563Y-171007118D01*
X183423315Y-171004242D01*
X183289241Y-170974765D01*
X183163444Y-170919805D01*
X183050720Y-170841460D01*
X182955356Y-170742708D01*
X182880993Y-170627319D01*
X182830457Y-170499680D01*
X182805676Y-170364661D01*
X182807594Y-170227392D01*
X182836135Y-170093114D01*
X182890212Y-169966943D01*
X182967774Y-169853667D01*
X183065853Y-169757622D01*
X183180723Y-169682451D01*
X183308003Y-169631027D01*
X183442849Y-169605304D01*
X183580122Y-169606263D01*
X183580122Y-169606263D01*
G37*
G36*
X187580122Y-169606263D02*
X187714599Y-169633867D01*
X187841148Y-169687063D01*
X187954962Y-169763832D01*
X188051688Y-169861235D01*
X188127658Y-169975580D01*
X188179969Y-170102496D01*
X188206529Y-170236634D01*
X188206529Y-170236650D01*
X188206630Y-170237161D01*
X188204441Y-170393958D01*
X188204325Y-170394467D01*
X188204325Y-170394486D01*
X188174031Y-170527824D01*
X188118195Y-170653235D01*
X188039065Y-170765408D01*
X187939651Y-170860079D01*
X187823741Y-170933638D01*
X187695756Y-170983279D01*
X187560563Y-171007118D01*
X187423315Y-171004242D01*
X187289241Y-170974765D01*
X187163444Y-170919805D01*
X187050720Y-170841460D01*
X186955356Y-170742708D01*
X186880993Y-170627319D01*
X186830457Y-170499680D01*
X186805676Y-170364661D01*
X186807594Y-170227392D01*
X186836135Y-170093114D01*
X186890212Y-169966943D01*
X186967774Y-169853667D01*
X187065853Y-169757622D01*
X187180723Y-169682451D01*
X187308003Y-169631027D01*
X187442849Y-169605304D01*
X187580122Y-169606263D01*
X187580122Y-169606263D01*
G37*
G36*
X189580122Y-169606263D02*
X189714599Y-169633867D01*
X189841148Y-169687063D01*
X189954962Y-169763832D01*
X190051688Y-169861235D01*
X190127658Y-169975580D01*
X190179969Y-170102496D01*
X190206529Y-170236634D01*
X190206529Y-170236650D01*
X190206630Y-170237161D01*
X190204441Y-170393958D01*
X190204325Y-170394467D01*
X190204325Y-170394486D01*
X190174031Y-170527824D01*
X190118195Y-170653235D01*
X190039065Y-170765408D01*
X189939651Y-170860079D01*
X189823741Y-170933638D01*
X189695756Y-170983279D01*
X189560563Y-171007118D01*
X189423315Y-171004242D01*
X189289241Y-170974765D01*
X189163444Y-170919805D01*
X189050720Y-170841460D01*
X188955356Y-170742708D01*
X188880993Y-170627319D01*
X188830457Y-170499680D01*
X188805676Y-170364661D01*
X188807594Y-170227392D01*
X188836135Y-170093114D01*
X188890212Y-169966943D01*
X188967774Y-169853667D01*
X189065853Y-169757622D01*
X189180723Y-169682451D01*
X189308003Y-169631027D01*
X189442849Y-169605304D01*
X189580122Y-169606263D01*
X189580122Y-169606263D01*
G37*
G36*
X191580122Y-169606263D02*
X191714599Y-169633867D01*
X191841148Y-169687063D01*
X191954962Y-169763832D01*
X192051688Y-169861235D01*
X192127658Y-169975580D01*
X192179969Y-170102496D01*
X192206529Y-170236634D01*
X192206529Y-170236650D01*
X192206630Y-170237161D01*
X192204441Y-170393958D01*
X192204325Y-170394467D01*
X192204325Y-170394486D01*
X192174031Y-170527824D01*
X192118195Y-170653235D01*
X192039065Y-170765408D01*
X191939651Y-170860079D01*
X191823741Y-170933638D01*
X191695756Y-170983279D01*
X191560563Y-171007118D01*
X191423315Y-171004242D01*
X191289241Y-170974765D01*
X191163444Y-170919805D01*
X191050720Y-170841460D01*
X190955356Y-170742708D01*
X190880993Y-170627319D01*
X190830457Y-170499680D01*
X190805676Y-170364661D01*
X190807594Y-170227392D01*
X190836135Y-170093114D01*
X190890212Y-169966943D01*
X190967774Y-169853667D01*
X191065853Y-169757622D01*
X191180723Y-169682451D01*
X191308003Y-169631027D01*
X191442849Y-169605304D01*
X191580122Y-169606263D01*
X191580122Y-169606263D01*
G37*
G36*
X193580122Y-169606263D02*
X193714599Y-169633867D01*
X193841148Y-169687063D01*
X193954962Y-169763832D01*
X194051688Y-169861235D01*
X194127658Y-169975580D01*
X194179969Y-170102496D01*
X194206529Y-170236634D01*
X194206529Y-170236650D01*
X194206630Y-170237161D01*
X194204441Y-170393958D01*
X194204325Y-170394467D01*
X194204325Y-170394486D01*
X194174031Y-170527824D01*
X194118195Y-170653235D01*
X194039065Y-170765408D01*
X193939651Y-170860079D01*
X193823741Y-170933638D01*
X193695756Y-170983279D01*
X193560563Y-171007118D01*
X193423315Y-171004242D01*
X193289241Y-170974765D01*
X193163444Y-170919805D01*
X193050720Y-170841460D01*
X192955356Y-170742708D01*
X192880993Y-170627319D01*
X192830457Y-170499680D01*
X192805676Y-170364661D01*
X192807594Y-170227392D01*
X192836135Y-170093114D01*
X192890212Y-169966943D01*
X192967774Y-169853667D01*
X193065853Y-169757622D01*
X193180723Y-169682451D01*
X193308003Y-169631027D01*
X193442849Y-169605304D01*
X193580122Y-169606263D01*
X193580122Y-169606263D01*
G37*
G36*
X195580122Y-169606263D02*
X195714599Y-169633867D01*
X195841148Y-169687063D01*
X195954962Y-169763832D01*
X196051688Y-169861235D01*
X196127658Y-169975580D01*
X196179969Y-170102496D01*
X196206529Y-170236634D01*
X196206529Y-170236650D01*
X196206630Y-170237161D01*
X196204441Y-170393958D01*
X196204325Y-170394467D01*
X196204325Y-170394486D01*
X196174031Y-170527824D01*
X196118195Y-170653235D01*
X196039065Y-170765408D01*
X195939651Y-170860079D01*
X195823741Y-170933638D01*
X195695756Y-170983279D01*
X195560563Y-171007118D01*
X195423315Y-171004242D01*
X195289241Y-170974765D01*
X195163444Y-170919805D01*
X195050720Y-170841460D01*
X194955356Y-170742708D01*
X194880993Y-170627319D01*
X194830457Y-170499680D01*
X194805676Y-170364661D01*
X194807594Y-170227392D01*
X194836135Y-170093114D01*
X194890212Y-169966943D01*
X194967774Y-169853667D01*
X195065853Y-169757622D01*
X195180723Y-169682451D01*
X195308003Y-169631027D01*
X195442849Y-169605304D01*
X195580122Y-169606263D01*
X195580122Y-169606263D01*
G37*
G36*
X197580122Y-169606263D02*
X197714599Y-169633867D01*
X197841148Y-169687063D01*
X197954962Y-169763832D01*
X198051688Y-169861235D01*
X198127658Y-169975580D01*
X198179969Y-170102496D01*
X198206529Y-170236634D01*
X198206529Y-170236650D01*
X198206630Y-170237161D01*
X198204441Y-170393958D01*
X198204325Y-170394467D01*
X198204325Y-170394486D01*
X198174031Y-170527824D01*
X198118195Y-170653235D01*
X198039065Y-170765408D01*
X197939651Y-170860079D01*
X197823741Y-170933638D01*
X197695756Y-170983279D01*
X197560563Y-171007118D01*
X197423315Y-171004242D01*
X197289241Y-170974765D01*
X197163444Y-170919805D01*
X197050720Y-170841460D01*
X196955356Y-170742708D01*
X196880993Y-170627319D01*
X196830457Y-170499680D01*
X196805676Y-170364661D01*
X196807594Y-170227392D01*
X196836135Y-170093114D01*
X196890212Y-169966943D01*
X196967774Y-169853667D01*
X197065853Y-169757622D01*
X197180723Y-169682451D01*
X197308003Y-169631027D01*
X197442849Y-169605304D01*
X197580122Y-169606263D01*
X197580122Y-169606263D01*
G37*
G36*
X176580122Y-167606263D02*
X176714599Y-167633867D01*
X176841148Y-167687063D01*
X176954962Y-167763832D01*
X177051688Y-167861235D01*
X177127658Y-167975580D01*
X177179969Y-168102496D01*
X177206529Y-168236634D01*
X177206529Y-168236650D01*
X177206630Y-168237161D01*
X177204441Y-168393958D01*
X177204325Y-168394467D01*
X177204325Y-168394486D01*
X177174031Y-168527824D01*
X177118195Y-168653235D01*
X177039065Y-168765408D01*
X176939651Y-168860079D01*
X176823741Y-168933638D01*
X176695756Y-168983279D01*
X176560563Y-169007118D01*
X176423315Y-169004242D01*
X176289241Y-168974765D01*
X176163444Y-168919805D01*
X176050720Y-168841460D01*
X175955356Y-168742708D01*
X175880993Y-168627319D01*
X175830457Y-168499680D01*
X175805676Y-168364661D01*
X175807594Y-168227392D01*
X175836135Y-168093114D01*
X175890212Y-167966943D01*
X175967774Y-167853667D01*
X176065853Y-167757622D01*
X176180723Y-167682451D01*
X176308003Y-167631027D01*
X176442849Y-167605304D01*
X176580122Y-167606263D01*
X176580122Y-167606263D01*
G37*
G36*
X180580122Y-167606263D02*
X180714599Y-167633867D01*
X180841148Y-167687063D01*
X180954962Y-167763832D01*
X181051688Y-167861235D01*
X181127658Y-167975580D01*
X181179969Y-168102496D01*
X181206529Y-168236634D01*
X181206529Y-168236650D01*
X181206630Y-168237161D01*
X181204441Y-168393958D01*
X181204325Y-168394467D01*
X181204325Y-168394486D01*
X181174031Y-168527824D01*
X181118195Y-168653235D01*
X181039065Y-168765408D01*
X180939651Y-168860079D01*
X180823741Y-168933638D01*
X180695756Y-168983279D01*
X180560563Y-169007118D01*
X180423315Y-169004242D01*
X180289241Y-168974765D01*
X180163444Y-168919805D01*
X180050720Y-168841460D01*
X179955356Y-168742708D01*
X179880993Y-168627319D01*
X179830457Y-168499680D01*
X179805676Y-168364661D01*
X179807594Y-168227392D01*
X179836135Y-168093114D01*
X179890212Y-167966943D01*
X179967774Y-167853667D01*
X180065853Y-167757622D01*
X180180723Y-167682451D01*
X180308003Y-167631027D01*
X180442849Y-167605304D01*
X180580122Y-167606263D01*
X180580122Y-167606263D01*
G37*
G36*
X206580122Y-167606263D02*
X206714599Y-167633867D01*
X206841148Y-167687063D01*
X206954962Y-167763832D01*
X207051688Y-167861235D01*
X207127658Y-167975580D01*
X207179969Y-168102496D01*
X207206529Y-168236634D01*
X207206529Y-168236650D01*
X207206630Y-168237161D01*
X207204441Y-168393958D01*
X207204325Y-168394467D01*
X207204325Y-168394486D01*
X207174031Y-168527824D01*
X207118195Y-168653235D01*
X207039065Y-168765408D01*
X206939651Y-168860079D01*
X206823741Y-168933638D01*
X206695756Y-168983279D01*
X206560563Y-169007118D01*
X206423315Y-169004242D01*
X206289241Y-168974765D01*
X206163444Y-168919805D01*
X206050720Y-168841460D01*
X205955356Y-168742708D01*
X205880993Y-168627319D01*
X205830457Y-168499680D01*
X205805676Y-168364661D01*
X205807594Y-168227392D01*
X205836135Y-168093114D01*
X205890212Y-167966943D01*
X205967774Y-167853667D01*
X206065853Y-167757622D01*
X206180723Y-167682451D01*
X206308003Y-167631027D01*
X206442849Y-167605304D01*
X206580122Y-167606263D01*
X206580122Y-167606263D01*
G37*
G36*
X208580122Y-167606263D02*
X208714599Y-167633867D01*
X208841148Y-167687063D01*
X208954962Y-167763832D01*
X209051688Y-167861235D01*
X209127658Y-167975580D01*
X209179969Y-168102496D01*
X209206529Y-168236634D01*
X209206529Y-168236650D01*
X209206630Y-168237161D01*
X209204441Y-168393958D01*
X209204325Y-168394467D01*
X209204325Y-168394486D01*
X209174031Y-168527824D01*
X209118195Y-168653235D01*
X209039065Y-168765408D01*
X208939651Y-168860079D01*
X208823741Y-168933638D01*
X208695756Y-168983279D01*
X208560563Y-169007118D01*
X208423315Y-169004242D01*
X208289241Y-168974765D01*
X208163444Y-168919805D01*
X208050720Y-168841460D01*
X207955356Y-168742708D01*
X207880993Y-168627319D01*
X207830457Y-168499680D01*
X207805676Y-168364661D01*
X207807594Y-168227392D01*
X207836135Y-168093114D01*
X207890212Y-167966943D01*
X207967774Y-167853667D01*
X208065853Y-167757622D01*
X208180723Y-167682451D01*
X208308003Y-167631027D01*
X208442849Y-167605304D01*
X208580122Y-167606263D01*
X208580122Y-167606263D01*
G37*
G36*
X210580122Y-167606263D02*
X210714599Y-167633867D01*
X210841148Y-167687063D01*
X210954962Y-167763832D01*
X211051688Y-167861235D01*
X211127658Y-167975580D01*
X211179969Y-168102496D01*
X211206529Y-168236634D01*
X211206529Y-168236650D01*
X211206630Y-168237161D01*
X211204441Y-168393958D01*
X211204325Y-168394467D01*
X211204325Y-168394486D01*
X211174031Y-168527824D01*
X211118195Y-168653235D01*
X211039065Y-168765408D01*
X210939651Y-168860079D01*
X210823741Y-168933638D01*
X210695756Y-168983279D01*
X210560563Y-169007118D01*
X210423315Y-169004242D01*
X210289241Y-168974765D01*
X210163444Y-168919805D01*
X210050720Y-168841460D01*
X209955356Y-168742708D01*
X209880993Y-168627319D01*
X209830457Y-168499680D01*
X209805676Y-168364661D01*
X209807594Y-168227392D01*
X209836135Y-168093114D01*
X209890212Y-167966943D01*
X209967774Y-167853667D01*
X210065853Y-167757622D01*
X210180723Y-167682451D01*
X210308003Y-167631027D01*
X210442849Y-167605304D01*
X210580122Y-167606263D01*
X210580122Y-167606263D01*
G37*
G36*
X212580122Y-167606263D02*
X212714599Y-167633867D01*
X212841148Y-167687063D01*
X212954962Y-167763832D01*
X213051688Y-167861235D01*
X213127658Y-167975580D01*
X213179969Y-168102496D01*
X213206529Y-168236634D01*
X213206529Y-168236650D01*
X213206630Y-168237161D01*
X213204441Y-168393958D01*
X213204325Y-168394467D01*
X213204325Y-168394486D01*
X213174031Y-168527824D01*
X213118195Y-168653235D01*
X213039065Y-168765408D01*
X212939651Y-168860079D01*
X212823741Y-168933638D01*
X212695756Y-168983279D01*
X212560563Y-169007118D01*
X212423315Y-169004242D01*
X212289241Y-168974765D01*
X212163444Y-168919805D01*
X212050720Y-168841460D01*
X211955356Y-168742708D01*
X211880993Y-168627319D01*
X211830457Y-168499680D01*
X211805676Y-168364661D01*
X211807594Y-168227392D01*
X211836135Y-168093114D01*
X211890212Y-167966943D01*
X211967774Y-167853667D01*
X212065853Y-167757622D01*
X212180723Y-167682451D01*
X212308003Y-167631027D01*
X212442849Y-167605304D01*
X212580122Y-167606263D01*
X212580122Y-167606263D01*
G37*
G36*
X214580122Y-167606263D02*
X214714599Y-167633867D01*
X214841148Y-167687063D01*
X214954962Y-167763832D01*
X215051688Y-167861235D01*
X215127658Y-167975580D01*
X215179969Y-168102496D01*
X215206529Y-168236634D01*
X215206529Y-168236650D01*
X215206630Y-168237161D01*
X215204441Y-168393958D01*
X215204325Y-168394467D01*
X215204325Y-168394486D01*
X215174031Y-168527824D01*
X215118195Y-168653235D01*
X215039065Y-168765408D01*
X214939651Y-168860079D01*
X214823741Y-168933638D01*
X214695756Y-168983279D01*
X214560563Y-169007118D01*
X214423315Y-169004242D01*
X214289241Y-168974765D01*
X214163444Y-168919805D01*
X214050720Y-168841460D01*
X213955356Y-168742708D01*
X213880993Y-168627319D01*
X213830457Y-168499680D01*
X213805676Y-168364661D01*
X213807594Y-168227392D01*
X213836135Y-168093114D01*
X213890212Y-167966943D01*
X213967774Y-167853667D01*
X214065853Y-167757622D01*
X214180723Y-167682451D01*
X214308003Y-167631027D01*
X214442849Y-167605304D01*
X214580122Y-167606263D01*
X214580122Y-167606263D01*
G37*
G36*
X216580122Y-167606263D02*
X216714599Y-167633867D01*
X216841148Y-167687063D01*
X216954962Y-167763832D01*
X217051688Y-167861235D01*
X217127658Y-167975580D01*
X217179969Y-168102496D01*
X217206529Y-168236634D01*
X217206529Y-168236650D01*
X217206630Y-168237161D01*
X217204441Y-168393958D01*
X217204325Y-168394467D01*
X217204325Y-168394486D01*
X217174031Y-168527824D01*
X217118195Y-168653235D01*
X217039065Y-168765408D01*
X216939651Y-168860079D01*
X216823741Y-168933638D01*
X216695756Y-168983279D01*
X216560563Y-169007118D01*
X216423315Y-169004242D01*
X216289241Y-168974765D01*
X216163444Y-168919805D01*
X216050720Y-168841460D01*
X215955356Y-168742708D01*
X215880993Y-168627319D01*
X215830457Y-168499680D01*
X215805676Y-168364661D01*
X215807594Y-168227392D01*
X215836135Y-168093114D01*
X215890212Y-167966943D01*
X215967774Y-167853667D01*
X216065853Y-167757622D01*
X216180723Y-167682451D01*
X216308003Y-167631027D01*
X216442849Y-167605304D01*
X216580122Y-167606263D01*
X216580122Y-167606263D01*
G37*
G36*
X218580122Y-167606263D02*
X218714599Y-167633867D01*
X218841148Y-167687063D01*
X218954962Y-167763832D01*
X219051688Y-167861235D01*
X219127658Y-167975580D01*
X219179969Y-168102496D01*
X219206529Y-168236634D01*
X219206529Y-168236650D01*
X219206630Y-168237161D01*
X219204441Y-168393958D01*
X219204325Y-168394467D01*
X219204325Y-168394486D01*
X219174031Y-168527824D01*
X219118195Y-168653235D01*
X219039065Y-168765408D01*
X218939651Y-168860079D01*
X218823741Y-168933638D01*
X218695756Y-168983279D01*
X218560563Y-169007118D01*
X218423315Y-169004242D01*
X218289241Y-168974765D01*
X218163444Y-168919805D01*
X218050720Y-168841460D01*
X217955356Y-168742708D01*
X217880993Y-168627319D01*
X217830457Y-168499680D01*
X217805676Y-168364661D01*
X217807594Y-168227392D01*
X217836135Y-168093114D01*
X217890212Y-167966943D01*
X217967774Y-167853667D01*
X218065853Y-167757622D01*
X218180723Y-167682451D01*
X218308003Y-167631027D01*
X218442849Y-167605304D01*
X218580122Y-167606263D01*
X218580122Y-167606263D01*
G37*
G36*
X220580122Y-167606263D02*
X220714599Y-167633867D01*
X220841148Y-167687063D01*
X220954962Y-167763832D01*
X221051688Y-167861235D01*
X221127658Y-167975580D01*
X221179969Y-168102496D01*
X221206529Y-168236634D01*
X221206529Y-168236650D01*
X221206630Y-168237161D01*
X221204441Y-168393958D01*
X221204325Y-168394467D01*
X221204325Y-168394486D01*
X221174031Y-168527824D01*
X221118195Y-168653235D01*
X221039065Y-168765408D01*
X220939651Y-168860079D01*
X220823741Y-168933638D01*
X220695756Y-168983279D01*
X220560563Y-169007118D01*
X220423315Y-169004242D01*
X220289241Y-168974765D01*
X220163444Y-168919805D01*
X220050720Y-168841460D01*
X219955356Y-168742708D01*
X219880993Y-168627319D01*
X219830457Y-168499680D01*
X219805676Y-168364661D01*
X219807594Y-168227392D01*
X219836135Y-168093114D01*
X219890212Y-167966943D01*
X219967774Y-167853667D01*
X220065853Y-167757622D01*
X220180723Y-167682451D01*
X220308003Y-167631027D01*
X220442849Y-167605304D01*
X220580122Y-167606263D01*
X220580122Y-167606263D01*
G37*
G36*
X222580122Y-167606263D02*
X222714599Y-167633867D01*
X222841148Y-167687063D01*
X222954962Y-167763832D01*
X223051688Y-167861235D01*
X223127658Y-167975580D01*
X223179969Y-168102496D01*
X223206529Y-168236634D01*
X223206529Y-168236650D01*
X223206630Y-168237161D01*
X223204441Y-168393958D01*
X223204325Y-168394467D01*
X223204325Y-168394486D01*
X223174031Y-168527824D01*
X223118195Y-168653235D01*
X223039065Y-168765408D01*
X222939651Y-168860079D01*
X222823741Y-168933638D01*
X222695756Y-168983279D01*
X222560563Y-169007118D01*
X222423315Y-169004242D01*
X222289241Y-168974765D01*
X222163444Y-168919805D01*
X222050720Y-168841460D01*
X221955356Y-168742708D01*
X221880993Y-168627319D01*
X221830457Y-168499680D01*
X221805676Y-168364661D01*
X221807594Y-168227392D01*
X221836135Y-168093114D01*
X221890212Y-167966943D01*
X221967774Y-167853667D01*
X222065853Y-167757622D01*
X222180723Y-167682451D01*
X222308003Y-167631027D01*
X222442849Y-167605304D01*
X222580122Y-167606263D01*
X222580122Y-167606263D01*
G37*
G36*
X224580122Y-167606263D02*
X224714599Y-167633867D01*
X224841148Y-167687063D01*
X224954962Y-167763832D01*
X225051688Y-167861235D01*
X225127658Y-167975580D01*
X225179969Y-168102496D01*
X225206529Y-168236634D01*
X225206529Y-168236650D01*
X225206630Y-168237161D01*
X225204441Y-168393958D01*
X225204325Y-168394467D01*
X225204325Y-168394486D01*
X225174031Y-168527824D01*
X225118195Y-168653235D01*
X225039065Y-168765408D01*
X224939651Y-168860079D01*
X224823741Y-168933638D01*
X224695756Y-168983279D01*
X224560563Y-169007118D01*
X224423315Y-169004242D01*
X224289241Y-168974765D01*
X224163444Y-168919805D01*
X224050720Y-168841460D01*
X223955356Y-168742708D01*
X223880993Y-168627319D01*
X223830457Y-168499680D01*
X223805676Y-168364661D01*
X223807594Y-168227392D01*
X223836135Y-168093114D01*
X223890212Y-167966943D01*
X223967774Y-167853667D01*
X224065853Y-167757622D01*
X224180723Y-167682451D01*
X224308003Y-167631027D01*
X224442849Y-167605304D01*
X224580122Y-167606263D01*
X224580122Y-167606263D01*
G37*
G36*
X182580122Y-167606263D02*
X182714599Y-167633867D01*
X182841148Y-167687063D01*
X182954962Y-167763832D01*
X183051688Y-167861235D01*
X183127658Y-167975580D01*
X183179969Y-168102496D01*
X183206529Y-168236634D01*
X183206529Y-168236650D01*
X183206630Y-168237161D01*
X183204441Y-168393958D01*
X183204325Y-168394467D01*
X183204325Y-168394486D01*
X183174031Y-168527824D01*
X183118195Y-168653235D01*
X183039065Y-168765408D01*
X182939651Y-168860079D01*
X182823741Y-168933638D01*
X182695756Y-168983279D01*
X182560563Y-169007118D01*
X182423315Y-169004242D01*
X182289241Y-168974765D01*
X182163444Y-168919805D01*
X182050720Y-168841460D01*
X181955356Y-168742708D01*
X181880993Y-168627319D01*
X181830457Y-168499680D01*
X181805676Y-168364661D01*
X181807594Y-168227392D01*
X181836135Y-168093114D01*
X181890212Y-167966943D01*
X181967774Y-167853667D01*
X182065853Y-167757622D01*
X182180723Y-167682451D01*
X182308003Y-167631027D01*
X182442849Y-167605304D01*
X182580122Y-167606263D01*
X182580122Y-167606263D01*
G37*
G36*
X178580122Y-167606263D02*
X178714599Y-167633867D01*
X178841148Y-167687063D01*
X178954962Y-167763832D01*
X179051688Y-167861235D01*
X179127658Y-167975580D01*
X179179969Y-168102496D01*
X179206529Y-168236634D01*
X179206529Y-168236650D01*
X179206630Y-168237161D01*
X179204441Y-168393958D01*
X179204325Y-168394467D01*
X179204325Y-168394486D01*
X179174031Y-168527824D01*
X179118195Y-168653235D01*
X179039065Y-168765408D01*
X178939651Y-168860079D01*
X178823741Y-168933638D01*
X178695756Y-168983279D01*
X178560563Y-169007118D01*
X178423315Y-169004242D01*
X178289241Y-168974765D01*
X178163444Y-168919805D01*
X178050720Y-168841460D01*
X177955356Y-168742708D01*
X177880993Y-168627319D01*
X177830457Y-168499680D01*
X177805676Y-168364661D01*
X177807594Y-168227392D01*
X177836135Y-168093114D01*
X177890212Y-167966943D01*
X177967774Y-167853667D01*
X178065853Y-167757622D01*
X178180723Y-167682451D01*
X178308003Y-167631027D01*
X178442849Y-167605304D01*
X178580122Y-167606263D01*
X178580122Y-167606263D01*
G37*
G36*
X198580122Y-167606263D02*
X198714599Y-167633867D01*
X198841148Y-167687063D01*
X198954962Y-167763832D01*
X199051688Y-167861235D01*
X199127658Y-167975580D01*
X199179969Y-168102496D01*
X199206529Y-168236634D01*
X199206529Y-168236650D01*
X199206630Y-168237161D01*
X199204441Y-168393958D01*
X199204325Y-168394467D01*
X199204325Y-168394486D01*
X199174031Y-168527824D01*
X199118195Y-168653235D01*
X199039065Y-168765408D01*
X198939651Y-168860079D01*
X198823741Y-168933638D01*
X198695756Y-168983279D01*
X198560563Y-169007118D01*
X198423315Y-169004242D01*
X198289241Y-168974765D01*
X198163444Y-168919805D01*
X198050720Y-168841460D01*
X197955356Y-168742708D01*
X197880993Y-168627319D01*
X197830457Y-168499680D01*
X197805676Y-168364661D01*
X197807594Y-168227392D01*
X197836135Y-168093114D01*
X197890212Y-167966943D01*
X197967774Y-167853667D01*
X198065853Y-167757622D01*
X198180723Y-167682451D01*
X198308003Y-167631027D01*
X198442849Y-167605304D01*
X198580122Y-167606263D01*
X198580122Y-167606263D01*
G37*
G36*
X200580122Y-167606263D02*
X200714599Y-167633867D01*
X200841148Y-167687063D01*
X200954962Y-167763832D01*
X201051688Y-167861235D01*
X201127658Y-167975580D01*
X201179969Y-168102496D01*
X201206529Y-168236634D01*
X201206529Y-168236650D01*
X201206630Y-168237161D01*
X201204441Y-168393958D01*
X201204325Y-168394467D01*
X201204325Y-168394486D01*
X201174031Y-168527824D01*
X201118195Y-168653235D01*
X201039065Y-168765408D01*
X200939651Y-168860079D01*
X200823741Y-168933638D01*
X200695756Y-168983279D01*
X200560563Y-169007118D01*
X200423315Y-169004242D01*
X200289241Y-168974765D01*
X200163444Y-168919805D01*
X200050720Y-168841460D01*
X199955356Y-168742708D01*
X199880993Y-168627319D01*
X199830457Y-168499680D01*
X199805676Y-168364661D01*
X199807594Y-168227392D01*
X199836135Y-168093114D01*
X199890212Y-167966943D01*
X199967774Y-167853667D01*
X200065853Y-167757622D01*
X200180723Y-167682451D01*
X200308003Y-167631027D01*
X200442849Y-167605304D01*
X200580122Y-167606263D01*
X200580122Y-167606263D01*
G37*
G36*
X204580122Y-167606263D02*
X204714599Y-167633867D01*
X204841148Y-167687063D01*
X204954962Y-167763832D01*
X205051688Y-167861235D01*
X205127658Y-167975580D01*
X205179969Y-168102496D01*
X205206529Y-168236634D01*
X205206529Y-168236650D01*
X205206630Y-168237161D01*
X205204441Y-168393958D01*
X205204325Y-168394467D01*
X205204325Y-168394486D01*
X205174031Y-168527824D01*
X205118195Y-168653235D01*
X205039065Y-168765408D01*
X204939651Y-168860079D01*
X204823741Y-168933638D01*
X204695756Y-168983279D01*
X204560563Y-169007118D01*
X204423315Y-169004242D01*
X204289241Y-168974765D01*
X204163444Y-168919805D01*
X204050720Y-168841460D01*
X203955356Y-168742708D01*
X203880993Y-168627319D01*
X203830457Y-168499680D01*
X203805676Y-168364661D01*
X203807594Y-168227392D01*
X203836135Y-168093114D01*
X203890212Y-167966943D01*
X203967774Y-167853667D01*
X204065853Y-167757622D01*
X204180723Y-167682451D01*
X204308003Y-167631027D01*
X204442849Y-167605304D01*
X204580122Y-167606263D01*
X204580122Y-167606263D01*
G37*
G36*
X184580122Y-165106263D02*
X184714599Y-165133867D01*
X184841148Y-165187063D01*
X184954962Y-165263832D01*
X185051688Y-165361235D01*
X185127658Y-165475580D01*
X185179969Y-165602496D01*
X185206529Y-165736634D01*
X185206529Y-165736650D01*
X185206630Y-165737161D01*
X185204441Y-165893958D01*
X185204325Y-165894467D01*
X185204325Y-165894486D01*
X185191774Y-165949728D01*
X185190012Y-165971098D01*
X185194274Y-165992112D01*
X185204222Y-166011107D01*
X185219067Y-166026579D01*
X185237635Y-166037302D01*
X185258456Y-166042428D01*
X185279880Y-166041550D01*
X185300211Y-166034739D01*
X185319393Y-166021054D01*
X185322331Y-166018177D01*
X185539760Y-165875895D01*
X185780686Y-165778555D01*
X186035929Y-165729865D01*
X186295768Y-165731679D01*
X186550311Y-165783929D01*
X186789851Y-165884622D01*
X187005279Y-166029931D01*
X187188372Y-166214306D01*
X187332171Y-166430740D01*
X187431188Y-166670974D01*
X187481555Y-166925349D01*
X187481555Y-166925361D01*
X187481657Y-166925877D01*
X187477512Y-167222670D01*
X187477397Y-167223175D01*
X187477397Y-167223199D01*
X187419947Y-167476060D01*
X187314259Y-167713438D01*
X187164473Y-167925775D01*
X186976301Y-168104968D01*
X186756904Y-168244202D01*
X186514642Y-168338170D01*
X186258745Y-168383291D01*
X185998955Y-168377849D01*
X185745173Y-168322052D01*
X185507056Y-168218021D01*
X185309168Y-168080485D01*
X185290015Y-168070847D01*
X185268934Y-168066927D01*
X185247596Y-168069034D01*
X185227689Y-168077003D01*
X185210791Y-168090202D01*
X185198239Y-168107586D01*
X185191027Y-168127779D01*
X185190931Y-168157858D01*
X185206529Y-168236634D01*
X185206529Y-168236650D01*
X185206630Y-168237161D01*
X185204441Y-168393958D01*
X185204325Y-168394467D01*
X185204325Y-168394486D01*
X185174031Y-168527824D01*
X185118195Y-168653235D01*
X185039065Y-168765408D01*
X184939651Y-168860079D01*
X184823741Y-168933638D01*
X184695756Y-168983279D01*
X184560563Y-169007118D01*
X184423315Y-169004242D01*
X184289241Y-168974765D01*
X184163444Y-168919805D01*
X184050720Y-168841460D01*
X183955356Y-168742708D01*
X183880993Y-168627319D01*
X183830457Y-168499680D01*
X183805676Y-168364661D01*
X183807594Y-168227392D01*
X183836135Y-168093114D01*
X183890212Y-167966943D01*
X183967774Y-167853667D01*
X184065853Y-167757622D01*
X184180723Y-167682451D01*
X184308003Y-167631027D01*
X184442849Y-167605304D01*
X184580122Y-167606263D01*
X184714599Y-167633867D01*
X184842290Y-167687543D01*
X184863030Y-167692988D01*
X184884465Y-167692440D01*
X184904898Y-167685942D01*
X184922713Y-167674009D01*
X184936498Y-167657585D01*
X184945161Y-167637971D01*
X184948017Y-167616720D01*
X184942668Y-167589246D01*
X184876762Y-167422787D01*
X184829855Y-167167213D01*
X184833484Y-166907387D01*
X184887509Y-166653218D01*
X184943635Y-166522266D01*
X184949225Y-166501566D01*
X184948827Y-166480127D01*
X184942472Y-166459649D01*
X184930663Y-166441751D01*
X184914336Y-166427852D01*
X184894782Y-166419052D01*
X184873552Y-166416048D01*
X184852325Y-166419077D01*
X184832767Y-166427910D01*
X184823741Y-166433638D01*
X184695756Y-166483279D01*
X184560563Y-166507118D01*
X184423315Y-166504242D01*
X184289241Y-166474765D01*
X184163444Y-166419805D01*
X184050720Y-166341460D01*
X183955356Y-166242708D01*
X183880993Y-166127319D01*
X183830457Y-165999680D01*
X183805676Y-165864661D01*
X183807594Y-165727392D01*
X183836135Y-165593114D01*
X183890212Y-165466943D01*
X183967774Y-165353667D01*
X184065853Y-165257622D01*
X184180723Y-165182451D01*
X184308003Y-165131027D01*
X184442849Y-165105304D01*
X184580122Y-165106263D01*
X184580122Y-165106263D01*
G37*
G36*
X202580122Y-167606263D02*
X202714599Y-167633867D01*
X202841148Y-167687063D01*
X202954962Y-167763832D01*
X203051688Y-167861235D01*
X203127658Y-167975580D01*
X203179969Y-168102496D01*
X203206529Y-168236634D01*
X203206529Y-168236650D01*
X203206630Y-168237161D01*
X203204441Y-168393958D01*
X203204325Y-168394467D01*
X203204325Y-168394486D01*
X203174031Y-168527824D01*
X203118195Y-168653235D01*
X203039065Y-168765408D01*
X202939651Y-168860079D01*
X202823741Y-168933638D01*
X202695756Y-168983279D01*
X202560563Y-169007118D01*
X202423315Y-169004242D01*
X202289241Y-168974765D01*
X202163444Y-168919805D01*
X202050720Y-168841460D01*
X201955356Y-168742708D01*
X201880993Y-168627319D01*
X201830457Y-168499680D01*
X201805676Y-168364661D01*
X201807594Y-168227392D01*
X201836135Y-168093114D01*
X201890212Y-167966943D01*
X201967774Y-167853667D01*
X202065853Y-167757622D01*
X202180723Y-167682451D01*
X202308003Y-167631027D01*
X202442849Y-167605304D01*
X202580122Y-167606263D01*
X202580122Y-167606263D01*
G37*
G36*
X188580122Y-167606263D02*
X188714599Y-167633867D01*
X188841148Y-167687063D01*
X188954962Y-167763832D01*
X189051688Y-167861235D01*
X189127658Y-167975580D01*
X189179969Y-168102496D01*
X189206529Y-168236634D01*
X189206529Y-168236650D01*
X189206630Y-168237161D01*
X189204441Y-168393958D01*
X189204325Y-168394467D01*
X189204325Y-168394486D01*
X189174031Y-168527824D01*
X189118195Y-168653235D01*
X189039065Y-168765408D01*
X188939651Y-168860079D01*
X188823741Y-168933638D01*
X188695756Y-168983279D01*
X188560563Y-169007118D01*
X188423315Y-169004242D01*
X188289241Y-168974765D01*
X188163444Y-168919805D01*
X188050720Y-168841460D01*
X187955356Y-168742708D01*
X187880993Y-168627319D01*
X187830457Y-168499680D01*
X187805676Y-168364661D01*
X187807594Y-168227392D01*
X187836135Y-168093114D01*
X187890212Y-167966943D01*
X187967774Y-167853667D01*
X188065853Y-167757622D01*
X188180723Y-167682451D01*
X188308003Y-167631027D01*
X188442849Y-167605304D01*
X188580122Y-167606263D01*
X188580122Y-167606263D01*
G37*
G36*
X192580122Y-167606263D02*
X192714599Y-167633867D01*
X192841148Y-167687063D01*
X192954962Y-167763832D01*
X193051688Y-167861235D01*
X193127658Y-167975580D01*
X193179969Y-168102496D01*
X193206529Y-168236634D01*
X193206529Y-168236650D01*
X193206630Y-168237161D01*
X193204441Y-168393958D01*
X193204325Y-168394467D01*
X193204325Y-168394486D01*
X193174031Y-168527824D01*
X193118195Y-168653235D01*
X193039065Y-168765408D01*
X192939651Y-168860079D01*
X192823741Y-168933638D01*
X192695756Y-168983279D01*
X192560563Y-169007118D01*
X192423315Y-169004242D01*
X192289241Y-168974765D01*
X192163444Y-168919805D01*
X192050720Y-168841460D01*
X191955356Y-168742708D01*
X191880993Y-168627319D01*
X191830457Y-168499680D01*
X191805676Y-168364661D01*
X191807594Y-168227392D01*
X191836135Y-168093114D01*
X191890212Y-167966943D01*
X191967774Y-167853667D01*
X192065853Y-167757622D01*
X192180723Y-167682451D01*
X192308003Y-167631027D01*
X192442849Y-167605304D01*
X192580122Y-167606263D01*
X192580122Y-167606263D01*
G37*
G36*
X190580122Y-167606263D02*
X190714599Y-167633867D01*
X190841148Y-167687063D01*
X190954962Y-167763832D01*
X191051688Y-167861235D01*
X191127658Y-167975580D01*
X191179969Y-168102496D01*
X191206529Y-168236634D01*
X191206529Y-168236650D01*
X191206630Y-168237161D01*
X191204441Y-168393958D01*
X191204325Y-168394467D01*
X191204325Y-168394486D01*
X191174031Y-168527824D01*
X191118195Y-168653235D01*
X191039065Y-168765408D01*
X190939651Y-168860079D01*
X190823741Y-168933638D01*
X190695756Y-168983279D01*
X190560563Y-169007118D01*
X190423315Y-169004242D01*
X190289241Y-168974765D01*
X190163444Y-168919805D01*
X190050720Y-168841460D01*
X189955356Y-168742708D01*
X189880993Y-168627319D01*
X189830457Y-168499680D01*
X189805676Y-168364661D01*
X189807594Y-168227392D01*
X189836135Y-168093114D01*
X189890212Y-167966943D01*
X189967774Y-167853667D01*
X190065853Y-167757622D01*
X190180723Y-167682451D01*
X190308003Y-167631027D01*
X190442849Y-167605304D01*
X190580122Y-167606263D01*
X190580122Y-167606263D01*
G37*
G36*
X194580122Y-167606263D02*
X194714599Y-167633867D01*
X194841148Y-167687063D01*
X194954962Y-167763832D01*
X195051688Y-167861235D01*
X195127658Y-167975580D01*
X195179969Y-168102496D01*
X195206529Y-168236634D01*
X195206529Y-168236650D01*
X195206630Y-168237161D01*
X195204441Y-168393958D01*
X195204325Y-168394467D01*
X195204325Y-168394486D01*
X195174031Y-168527824D01*
X195118195Y-168653235D01*
X195039065Y-168765408D01*
X194939651Y-168860079D01*
X194823741Y-168933638D01*
X194695756Y-168983279D01*
X194560563Y-169007118D01*
X194423315Y-169004242D01*
X194289241Y-168974765D01*
X194163444Y-168919805D01*
X194050720Y-168841460D01*
X193955356Y-168742708D01*
X193880993Y-168627319D01*
X193830457Y-168499680D01*
X193805676Y-168364661D01*
X193807594Y-168227392D01*
X193836135Y-168093114D01*
X193890212Y-167966943D01*
X193967774Y-167853667D01*
X194065853Y-167757622D01*
X194180723Y-167682451D01*
X194308003Y-167631027D01*
X194442849Y-167605304D01*
X194580122Y-167606263D01*
X194580122Y-167606263D01*
G37*
G36*
X196580122Y-167606263D02*
X196714599Y-167633867D01*
X196841148Y-167687063D01*
X196954962Y-167763832D01*
X197051688Y-167861235D01*
X197127658Y-167975580D01*
X197179969Y-168102496D01*
X197206529Y-168236634D01*
X197206529Y-168236650D01*
X197206630Y-168237161D01*
X197204441Y-168393958D01*
X197204325Y-168394467D01*
X197204325Y-168394486D01*
X197174031Y-168527824D01*
X197118195Y-168653235D01*
X197039065Y-168765408D01*
X196939651Y-168860079D01*
X196823741Y-168933638D01*
X196695756Y-168983279D01*
X196560563Y-169007118D01*
X196423315Y-169004242D01*
X196289241Y-168974765D01*
X196163444Y-168919805D01*
X196050720Y-168841460D01*
X195955356Y-168742708D01*
X195880993Y-168627319D01*
X195830457Y-168499680D01*
X195805676Y-168364661D01*
X195807594Y-168227392D01*
X195836135Y-168093114D01*
X195890212Y-167966943D01*
X195967774Y-167853667D01*
X196065853Y-167757622D01*
X196180723Y-167682451D01*
X196308003Y-167631027D01*
X196442849Y-167605304D01*
X196580122Y-167606263D01*
X196580122Y-167606263D01*
G37*
G36*
X175206600Y-169005800D02*
X173806600Y-169005800D01*
X173806600Y-167605800D01*
X175206600Y-167605800D01*
X175206600Y-169005800D01*
X175206600Y-169005800D01*
G37*
G36*
X226445768Y-165731679D02*
X226700311Y-165783929D01*
X226939851Y-165884622D01*
X227155279Y-166029931D01*
X227338372Y-166214306D01*
X227482171Y-166430740D01*
X227581188Y-166670974D01*
X227631555Y-166925349D01*
X227631555Y-166925361D01*
X227631657Y-166925877D01*
X227627512Y-167222670D01*
X227627397Y-167223175D01*
X227627397Y-167223199D01*
X227569947Y-167476060D01*
X227464259Y-167713438D01*
X227314473Y-167925775D01*
X227126301Y-168104968D01*
X226906904Y-168244202D01*
X226664642Y-168338170D01*
X226408745Y-168383291D01*
X226148955Y-168377849D01*
X225895173Y-168322052D01*
X225657056Y-168218021D01*
X225443684Y-168069724D01*
X225263177Y-167882804D01*
X225122419Y-167664388D01*
X225026762Y-167422787D01*
X224979855Y-167167213D01*
X224983484Y-166907387D01*
X225037509Y-166653218D01*
X225139871Y-166414389D01*
X225286680Y-166199981D01*
X225472332Y-166018177D01*
X225689760Y-165875895D01*
X225930686Y-165778555D01*
X226185929Y-165729865D01*
X226445768Y-165731679D01*
X226445768Y-165731679D01*
G37*
G36*
X212580122Y-165106263D02*
X212714599Y-165133867D01*
X212841148Y-165187063D01*
X212954962Y-165263832D01*
X213051688Y-165361235D01*
X213127658Y-165475580D01*
X213179969Y-165602496D01*
X213206529Y-165736634D01*
X213206529Y-165736650D01*
X213206630Y-165737161D01*
X213204441Y-165893958D01*
X213204325Y-165894467D01*
X213204325Y-165894486D01*
X213174031Y-166027824D01*
X213118195Y-166153235D01*
X213039065Y-166265408D01*
X212939651Y-166360079D01*
X212823741Y-166433638D01*
X212695756Y-166483279D01*
X212560563Y-166507118D01*
X212423315Y-166504242D01*
X212289241Y-166474765D01*
X212163444Y-166419805D01*
X212050720Y-166341460D01*
X211955356Y-166242708D01*
X211880993Y-166127319D01*
X211830457Y-165999680D01*
X211805676Y-165864661D01*
X211807594Y-165727392D01*
X211836135Y-165593114D01*
X211890212Y-165466943D01*
X211967774Y-165353667D01*
X212065853Y-165257622D01*
X212180723Y-165182451D01*
X212308003Y-165131027D01*
X212442849Y-165105304D01*
X212580122Y-165106263D01*
X212580122Y-165106263D01*
G37*
G36*
X220580122Y-165106263D02*
X220714599Y-165133867D01*
X220841148Y-165187063D01*
X220954962Y-165263832D01*
X221051688Y-165361235D01*
X221127658Y-165475580D01*
X221179969Y-165602496D01*
X221206529Y-165736634D01*
X221206529Y-165736650D01*
X221206630Y-165737161D01*
X221204441Y-165893958D01*
X221204325Y-165894467D01*
X221204325Y-165894486D01*
X221174031Y-166027824D01*
X221118195Y-166153235D01*
X221039065Y-166265408D01*
X220939651Y-166360079D01*
X220823741Y-166433638D01*
X220695756Y-166483279D01*
X220560563Y-166507118D01*
X220423315Y-166504242D01*
X220289241Y-166474765D01*
X220163444Y-166419805D01*
X220050720Y-166341460D01*
X219955356Y-166242708D01*
X219880993Y-166127319D01*
X219830457Y-165999680D01*
X219805676Y-165864661D01*
X219807594Y-165727392D01*
X219836135Y-165593114D01*
X219890212Y-165466943D01*
X219967774Y-165353667D01*
X220065853Y-165257622D01*
X220180723Y-165182451D01*
X220308003Y-165131027D01*
X220442849Y-165105304D01*
X220580122Y-165106263D01*
X220580122Y-165106263D01*
G37*
G36*
X214580122Y-165106263D02*
X214714599Y-165133867D01*
X214841148Y-165187063D01*
X214954962Y-165263832D01*
X215051688Y-165361235D01*
X215127658Y-165475580D01*
X215179969Y-165602496D01*
X215206529Y-165736634D01*
X215206529Y-165736650D01*
X215206630Y-165737161D01*
X215204441Y-165893958D01*
X215204325Y-165894467D01*
X215204325Y-165894486D01*
X215174031Y-166027824D01*
X215118195Y-166153235D01*
X215039065Y-166265408D01*
X214939651Y-166360079D01*
X214823741Y-166433638D01*
X214695756Y-166483279D01*
X214560563Y-166507118D01*
X214423315Y-166504242D01*
X214289241Y-166474765D01*
X214163444Y-166419805D01*
X214050720Y-166341460D01*
X213955356Y-166242708D01*
X213880993Y-166127319D01*
X213830457Y-165999680D01*
X213805676Y-165864661D01*
X213807594Y-165727392D01*
X213836135Y-165593114D01*
X213890212Y-165466943D01*
X213967774Y-165353667D01*
X214065853Y-165257622D01*
X214180723Y-165182451D01*
X214308003Y-165131027D01*
X214442849Y-165105304D01*
X214580122Y-165106263D01*
X214580122Y-165106263D01*
G37*
G36*
X216580122Y-165106263D02*
X216714599Y-165133867D01*
X216841148Y-165187063D01*
X216954962Y-165263832D01*
X217051688Y-165361235D01*
X217127658Y-165475580D01*
X217179969Y-165602496D01*
X217206529Y-165736634D01*
X217206529Y-165736650D01*
X217206630Y-165737161D01*
X217204441Y-165893958D01*
X217204325Y-165894467D01*
X217204325Y-165894486D01*
X217174031Y-166027824D01*
X217118195Y-166153235D01*
X217039065Y-166265408D01*
X216939651Y-166360079D01*
X216823741Y-166433638D01*
X216695756Y-166483279D01*
X216560563Y-166507118D01*
X216423315Y-166504242D01*
X216289241Y-166474765D01*
X216163444Y-166419805D01*
X216050720Y-166341460D01*
X215955356Y-166242708D01*
X215880993Y-166127319D01*
X215830457Y-165999680D01*
X215805676Y-165864661D01*
X215807594Y-165727392D01*
X215836135Y-165593114D01*
X215890212Y-165466943D01*
X215967774Y-165353667D01*
X216065853Y-165257622D01*
X216180723Y-165182451D01*
X216308003Y-165131027D01*
X216442849Y-165105304D01*
X216580122Y-165106263D01*
X216580122Y-165106263D01*
G37*
G36*
X198580122Y-165106263D02*
X198714599Y-165133867D01*
X198841148Y-165187063D01*
X198954962Y-165263832D01*
X199051688Y-165361235D01*
X199127658Y-165475580D01*
X199179969Y-165602496D01*
X199206529Y-165736634D01*
X199206529Y-165736650D01*
X199206630Y-165737161D01*
X199204441Y-165893958D01*
X199204325Y-165894467D01*
X199204325Y-165894486D01*
X199174031Y-166027824D01*
X199118195Y-166153235D01*
X199039065Y-166265408D01*
X198939651Y-166360079D01*
X198823741Y-166433638D01*
X198695756Y-166483279D01*
X198560563Y-166507118D01*
X198423315Y-166504242D01*
X198289241Y-166474765D01*
X198163444Y-166419805D01*
X198050720Y-166341460D01*
X197955356Y-166242708D01*
X197880993Y-166127319D01*
X197830457Y-165999680D01*
X197805676Y-165864661D01*
X197807594Y-165727392D01*
X197836135Y-165593114D01*
X197890212Y-165466943D01*
X197967774Y-165353667D01*
X198065853Y-165257622D01*
X198180723Y-165182451D01*
X198308003Y-165131027D01*
X198442849Y-165105304D01*
X198580122Y-165106263D01*
X198580122Y-165106263D01*
G37*
G36*
X176580122Y-165106263D02*
X176714599Y-165133867D01*
X176841148Y-165187063D01*
X176954962Y-165263832D01*
X177051688Y-165361235D01*
X177127658Y-165475580D01*
X177179969Y-165602496D01*
X177206529Y-165736634D01*
X177206529Y-165736650D01*
X177206630Y-165737161D01*
X177204441Y-165893958D01*
X177204325Y-165894467D01*
X177204325Y-165894486D01*
X177174031Y-166027824D01*
X177118195Y-166153235D01*
X177039065Y-166265408D01*
X176939651Y-166360079D01*
X176823741Y-166433638D01*
X176695756Y-166483279D01*
X176560563Y-166507118D01*
X176423315Y-166504242D01*
X176289241Y-166474765D01*
X176163444Y-166419805D01*
X176050720Y-166341460D01*
X175955356Y-166242708D01*
X175880993Y-166127319D01*
X175830457Y-165999680D01*
X175805676Y-165864661D01*
X175807594Y-165727392D01*
X175836135Y-165593114D01*
X175890212Y-165466943D01*
X175967774Y-165353667D01*
X176065853Y-165257622D01*
X176180723Y-165182451D01*
X176308003Y-165131027D01*
X176442849Y-165105304D01*
X176580122Y-165106263D01*
X176580122Y-165106263D01*
G37*
G36*
X178580122Y-165106263D02*
X178714599Y-165133867D01*
X178841148Y-165187063D01*
X178954962Y-165263832D01*
X179051688Y-165361235D01*
X179127658Y-165475580D01*
X179179969Y-165602496D01*
X179206529Y-165736634D01*
X179206529Y-165736650D01*
X179206630Y-165737161D01*
X179204441Y-165893958D01*
X179204325Y-165894467D01*
X179204325Y-165894486D01*
X179174031Y-166027824D01*
X179118195Y-166153235D01*
X179039065Y-166265408D01*
X178939651Y-166360079D01*
X178823741Y-166433638D01*
X178695756Y-166483279D01*
X178560563Y-166507118D01*
X178423315Y-166504242D01*
X178289241Y-166474765D01*
X178163444Y-166419805D01*
X178050720Y-166341460D01*
X177955356Y-166242708D01*
X177880993Y-166127319D01*
X177830457Y-165999680D01*
X177805676Y-165864661D01*
X177807594Y-165727392D01*
X177836135Y-165593114D01*
X177890212Y-165466943D01*
X177967774Y-165353667D01*
X178065853Y-165257622D01*
X178180723Y-165182451D01*
X178308003Y-165131027D01*
X178442849Y-165105304D01*
X178580122Y-165106263D01*
X178580122Y-165106263D01*
G37*
G36*
X180580122Y-165106263D02*
X180714599Y-165133867D01*
X180841148Y-165187063D01*
X180954962Y-165263832D01*
X181051688Y-165361235D01*
X181127658Y-165475580D01*
X181179969Y-165602496D01*
X181206529Y-165736634D01*
X181206529Y-165736650D01*
X181206630Y-165737161D01*
X181204441Y-165893958D01*
X181204325Y-165894467D01*
X181204325Y-165894486D01*
X181174031Y-166027824D01*
X181118195Y-166153235D01*
X181039065Y-166265408D01*
X180939651Y-166360079D01*
X180823741Y-166433638D01*
X180695756Y-166483279D01*
X180560563Y-166507118D01*
X180423315Y-166504242D01*
X180289241Y-166474765D01*
X180163444Y-166419805D01*
X180050720Y-166341460D01*
X179955356Y-166242708D01*
X179880993Y-166127319D01*
X179830457Y-165999680D01*
X179805676Y-165864661D01*
X179807594Y-165727392D01*
X179836135Y-165593114D01*
X179890212Y-165466943D01*
X179967774Y-165353667D01*
X180065853Y-165257622D01*
X180180723Y-165182451D01*
X180308003Y-165131027D01*
X180442849Y-165105304D01*
X180580122Y-165106263D01*
X180580122Y-165106263D01*
G37*
G36*
X182580122Y-165106263D02*
X182714599Y-165133867D01*
X182841148Y-165187063D01*
X182954962Y-165263832D01*
X183051688Y-165361235D01*
X183127658Y-165475580D01*
X183179969Y-165602496D01*
X183206529Y-165736634D01*
X183206529Y-165736650D01*
X183206630Y-165737161D01*
X183204441Y-165893958D01*
X183204325Y-165894467D01*
X183204325Y-165894486D01*
X183174031Y-166027824D01*
X183118195Y-166153235D01*
X183039065Y-166265408D01*
X182939651Y-166360079D01*
X182823741Y-166433638D01*
X182695756Y-166483279D01*
X182560563Y-166507118D01*
X182423315Y-166504242D01*
X182289241Y-166474765D01*
X182163444Y-166419805D01*
X182050720Y-166341460D01*
X181955356Y-166242708D01*
X181880993Y-166127319D01*
X181830457Y-165999680D01*
X181805676Y-165864661D01*
X181807594Y-165727392D01*
X181836135Y-165593114D01*
X181890212Y-165466943D01*
X181967774Y-165353667D01*
X182065853Y-165257622D01*
X182180723Y-165182451D01*
X182308003Y-165131027D01*
X182442849Y-165105304D01*
X182580122Y-165106263D01*
X182580122Y-165106263D01*
G37*
G36*
X188580122Y-165106263D02*
X188714599Y-165133867D01*
X188841148Y-165187063D01*
X188954962Y-165263832D01*
X189051688Y-165361235D01*
X189127658Y-165475580D01*
X189179969Y-165602496D01*
X189206529Y-165736634D01*
X189206529Y-165736650D01*
X189206630Y-165737161D01*
X189204441Y-165893958D01*
X189204325Y-165894467D01*
X189204325Y-165894486D01*
X189174031Y-166027824D01*
X189118195Y-166153235D01*
X189039065Y-166265408D01*
X188939651Y-166360079D01*
X188823741Y-166433638D01*
X188695756Y-166483279D01*
X188560563Y-166507118D01*
X188423315Y-166504242D01*
X188289241Y-166474765D01*
X188163444Y-166419805D01*
X188050720Y-166341460D01*
X187955356Y-166242708D01*
X187880993Y-166127319D01*
X187830457Y-165999680D01*
X187805676Y-165864661D01*
X187807594Y-165727392D01*
X187836135Y-165593114D01*
X187890212Y-165466943D01*
X187967774Y-165353667D01*
X188065853Y-165257622D01*
X188180723Y-165182451D01*
X188308003Y-165131027D01*
X188442849Y-165105304D01*
X188580122Y-165106263D01*
X188580122Y-165106263D01*
G37*
G36*
X190580122Y-165106263D02*
X190714599Y-165133867D01*
X190841148Y-165187063D01*
X190954962Y-165263832D01*
X191051688Y-165361235D01*
X191127658Y-165475580D01*
X191179969Y-165602496D01*
X191206529Y-165736634D01*
X191206529Y-165736650D01*
X191206630Y-165737161D01*
X191204441Y-165893958D01*
X191204325Y-165894467D01*
X191204325Y-165894486D01*
X191174031Y-166027824D01*
X191118195Y-166153235D01*
X191039065Y-166265408D01*
X190939651Y-166360079D01*
X190823741Y-166433638D01*
X190695756Y-166483279D01*
X190560563Y-166507118D01*
X190423315Y-166504242D01*
X190289241Y-166474765D01*
X190163444Y-166419805D01*
X190050720Y-166341460D01*
X189955356Y-166242708D01*
X189880993Y-166127319D01*
X189830457Y-165999680D01*
X189805676Y-165864661D01*
X189807594Y-165727392D01*
X189836135Y-165593114D01*
X189890212Y-165466943D01*
X189967774Y-165353667D01*
X190065853Y-165257622D01*
X190180723Y-165182451D01*
X190308003Y-165131027D01*
X190442849Y-165105304D01*
X190580122Y-165106263D01*
X190580122Y-165106263D01*
G37*
G36*
X194580122Y-165106263D02*
X194714599Y-165133867D01*
X194841148Y-165187063D01*
X194954962Y-165263832D01*
X195051688Y-165361235D01*
X195127658Y-165475580D01*
X195179969Y-165602496D01*
X195206529Y-165736634D01*
X195206529Y-165736650D01*
X195206630Y-165737161D01*
X195204441Y-165893958D01*
X195204325Y-165894467D01*
X195204325Y-165894486D01*
X195174031Y-166027824D01*
X195118195Y-166153235D01*
X195039065Y-166265408D01*
X194939651Y-166360079D01*
X194823741Y-166433638D01*
X194695756Y-166483279D01*
X194560563Y-166507118D01*
X194423315Y-166504242D01*
X194289241Y-166474765D01*
X194163444Y-166419805D01*
X194050720Y-166341460D01*
X193955356Y-166242708D01*
X193880993Y-166127319D01*
X193830457Y-165999680D01*
X193805676Y-165864661D01*
X193807594Y-165727392D01*
X193836135Y-165593114D01*
X193890212Y-165466943D01*
X193967774Y-165353667D01*
X194065853Y-165257622D01*
X194180723Y-165182451D01*
X194308003Y-165131027D01*
X194442849Y-165105304D01*
X194580122Y-165106263D01*
X194580122Y-165106263D01*
G37*
G36*
X196580122Y-165106263D02*
X196714599Y-165133867D01*
X196841148Y-165187063D01*
X196954962Y-165263832D01*
X197051688Y-165361235D01*
X197127658Y-165475580D01*
X197179969Y-165602496D01*
X197206529Y-165736634D01*
X197206529Y-165736650D01*
X197206630Y-165737161D01*
X197204441Y-165893958D01*
X197204325Y-165894467D01*
X197204325Y-165894486D01*
X197174031Y-166027824D01*
X197118195Y-166153235D01*
X197039065Y-166265408D01*
X196939651Y-166360079D01*
X196823741Y-166433638D01*
X196695756Y-166483279D01*
X196560563Y-166507118D01*
X196423315Y-166504242D01*
X196289241Y-166474765D01*
X196163444Y-166419805D01*
X196050720Y-166341460D01*
X195955356Y-166242708D01*
X195880993Y-166127319D01*
X195830457Y-165999680D01*
X195805676Y-165864661D01*
X195807594Y-165727392D01*
X195836135Y-165593114D01*
X195890212Y-165466943D01*
X195967774Y-165353667D01*
X196065853Y-165257622D01*
X196180723Y-165182451D01*
X196308003Y-165131027D01*
X196442849Y-165105304D01*
X196580122Y-165106263D01*
X196580122Y-165106263D01*
G37*
G36*
X222580122Y-165106263D02*
X222714599Y-165133867D01*
X222841148Y-165187063D01*
X222954962Y-165263832D01*
X223051688Y-165361235D01*
X223127658Y-165475580D01*
X223179969Y-165602496D01*
X223206529Y-165736634D01*
X223206529Y-165736650D01*
X223206630Y-165737161D01*
X223204441Y-165893958D01*
X223204325Y-165894467D01*
X223204325Y-165894486D01*
X223174031Y-166027824D01*
X223118195Y-166153235D01*
X223039065Y-166265408D01*
X222939651Y-166360079D01*
X222823741Y-166433638D01*
X222695756Y-166483279D01*
X222560563Y-166507118D01*
X222423315Y-166504242D01*
X222289241Y-166474765D01*
X222163444Y-166419805D01*
X222050720Y-166341460D01*
X221955356Y-166242708D01*
X221880993Y-166127319D01*
X221830457Y-165999680D01*
X221805676Y-165864661D01*
X221807594Y-165727392D01*
X221836135Y-165593114D01*
X221890212Y-165466943D01*
X221967774Y-165353667D01*
X222065853Y-165257622D01*
X222180723Y-165182451D01*
X222308003Y-165131027D01*
X222442849Y-165105304D01*
X222580122Y-165106263D01*
X222580122Y-165106263D01*
G37*
G36*
X210580122Y-165106263D02*
X210714599Y-165133867D01*
X210841148Y-165187063D01*
X210954962Y-165263832D01*
X211051688Y-165361235D01*
X211127658Y-165475580D01*
X211179969Y-165602496D01*
X211206529Y-165736634D01*
X211206529Y-165736650D01*
X211206630Y-165737161D01*
X211204441Y-165893958D01*
X211204325Y-165894467D01*
X211204325Y-165894486D01*
X211174031Y-166027824D01*
X211118195Y-166153235D01*
X211039065Y-166265408D01*
X210939651Y-166360079D01*
X210823741Y-166433638D01*
X210695756Y-166483279D01*
X210560563Y-166507118D01*
X210423315Y-166504242D01*
X210289241Y-166474765D01*
X210163444Y-166419805D01*
X210050720Y-166341460D01*
X209955356Y-166242708D01*
X209880993Y-166127319D01*
X209830457Y-165999680D01*
X209805676Y-165864661D01*
X209807594Y-165727392D01*
X209836135Y-165593114D01*
X209890212Y-165466943D01*
X209967774Y-165353667D01*
X210065853Y-165257622D01*
X210180723Y-165182451D01*
X210308003Y-165131027D01*
X210442849Y-165105304D01*
X210580122Y-165106263D01*
X210580122Y-165106263D01*
G37*
G36*
X202580122Y-165106263D02*
X202714599Y-165133867D01*
X202841148Y-165187063D01*
X202954962Y-165263832D01*
X203051688Y-165361235D01*
X203127658Y-165475580D01*
X203179969Y-165602496D01*
X203206529Y-165736634D01*
X203206529Y-165736650D01*
X203206630Y-165737161D01*
X203204441Y-165893958D01*
X203204325Y-165894467D01*
X203204325Y-165894486D01*
X203174031Y-166027824D01*
X203118195Y-166153235D01*
X203039065Y-166265408D01*
X202939651Y-166360079D01*
X202823741Y-166433638D01*
X202695756Y-166483279D01*
X202560563Y-166507118D01*
X202423315Y-166504242D01*
X202289241Y-166474765D01*
X202163444Y-166419805D01*
X202050720Y-166341460D01*
X201955356Y-166242708D01*
X201880993Y-166127319D01*
X201830457Y-165999680D01*
X201805676Y-165864661D01*
X201807594Y-165727392D01*
X201836135Y-165593114D01*
X201890212Y-165466943D01*
X201967774Y-165353667D01*
X202065853Y-165257622D01*
X202180723Y-165182451D01*
X202308003Y-165131027D01*
X202442849Y-165105304D01*
X202580122Y-165106263D01*
X202580122Y-165106263D01*
G37*
G36*
X174580122Y-165106263D02*
X174714599Y-165133867D01*
X174841148Y-165187063D01*
X174954962Y-165263832D01*
X175051688Y-165361235D01*
X175127658Y-165475580D01*
X175179969Y-165602496D01*
X175206529Y-165736634D01*
X175206529Y-165736650D01*
X175206630Y-165737161D01*
X175204441Y-165893958D01*
X175204325Y-165894467D01*
X175204325Y-165894486D01*
X175174031Y-166027824D01*
X175118195Y-166153235D01*
X175039065Y-166265408D01*
X174939651Y-166360079D01*
X174823741Y-166433638D01*
X174695756Y-166483279D01*
X174560563Y-166507118D01*
X174423315Y-166504242D01*
X174289241Y-166474765D01*
X174163444Y-166419805D01*
X174050720Y-166341460D01*
X173955356Y-166242708D01*
X173880993Y-166127319D01*
X173830457Y-165999680D01*
X173805676Y-165864661D01*
X173807594Y-165727392D01*
X173836135Y-165593114D01*
X173890212Y-165466943D01*
X173967774Y-165353667D01*
X174065853Y-165257622D01*
X174180723Y-165182451D01*
X174308003Y-165131027D01*
X174442849Y-165105304D01*
X174580122Y-165106263D01*
X174580122Y-165106263D01*
G37*
G36*
X192580122Y-165106263D02*
X192714599Y-165133867D01*
X192841148Y-165187063D01*
X192954962Y-165263832D01*
X193051688Y-165361235D01*
X193127658Y-165475580D01*
X193179969Y-165602496D01*
X193206529Y-165736634D01*
X193206529Y-165736650D01*
X193206630Y-165737161D01*
X193204441Y-165893958D01*
X193204325Y-165894467D01*
X193204325Y-165894486D01*
X193174031Y-166027824D01*
X193118195Y-166153235D01*
X193039065Y-166265408D01*
X192939651Y-166360079D01*
X192823741Y-166433638D01*
X192695756Y-166483279D01*
X192560563Y-166507118D01*
X192423315Y-166504242D01*
X192289241Y-166474765D01*
X192163444Y-166419805D01*
X192050720Y-166341460D01*
X191955356Y-166242708D01*
X191880993Y-166127319D01*
X191830457Y-165999680D01*
X191805676Y-165864661D01*
X191807594Y-165727392D01*
X191836135Y-165593114D01*
X191890212Y-165466943D01*
X191967774Y-165353667D01*
X192065853Y-165257622D01*
X192180723Y-165182451D01*
X192308003Y-165131027D01*
X192442849Y-165105304D01*
X192580122Y-165106263D01*
X192580122Y-165106263D01*
G37*
G36*
X218580122Y-165106263D02*
X218714599Y-165133867D01*
X218841148Y-165187063D01*
X218954962Y-165263832D01*
X219051688Y-165361235D01*
X219127658Y-165475580D01*
X219179969Y-165602496D01*
X219206529Y-165736634D01*
X219206529Y-165736650D01*
X219206630Y-165737161D01*
X219204441Y-165893958D01*
X219204325Y-165894467D01*
X219204325Y-165894486D01*
X219174031Y-166027824D01*
X219118195Y-166153235D01*
X219039065Y-166265408D01*
X218939651Y-166360079D01*
X218823741Y-166433638D01*
X218695756Y-166483279D01*
X218560563Y-166507118D01*
X218423315Y-166504242D01*
X218289241Y-166474765D01*
X218163444Y-166419805D01*
X218050720Y-166341460D01*
X217955356Y-166242708D01*
X217880993Y-166127319D01*
X217830457Y-165999680D01*
X217805676Y-165864661D01*
X217807594Y-165727392D01*
X217836135Y-165593114D01*
X217890212Y-165466943D01*
X217967774Y-165353667D01*
X218065853Y-165257622D01*
X218180723Y-165182451D01*
X218308003Y-165131027D01*
X218442849Y-165105304D01*
X218580122Y-165106263D01*
X218580122Y-165106263D01*
G37*
G36*
X204580122Y-165106263D02*
X204714599Y-165133867D01*
X204841148Y-165187063D01*
X204954962Y-165263832D01*
X205051688Y-165361235D01*
X205127658Y-165475580D01*
X205179969Y-165602496D01*
X205206529Y-165736634D01*
X205206529Y-165736650D01*
X205206630Y-165737161D01*
X205204441Y-165893958D01*
X205204325Y-165894467D01*
X205204325Y-165894486D01*
X205174031Y-166027824D01*
X205118195Y-166153235D01*
X205039065Y-166265408D01*
X204939651Y-166360079D01*
X204823741Y-166433638D01*
X204695756Y-166483279D01*
X204560563Y-166507118D01*
X204423315Y-166504242D01*
X204289241Y-166474765D01*
X204163444Y-166419805D01*
X204050720Y-166341460D01*
X203955356Y-166242708D01*
X203880993Y-166127319D01*
X203830457Y-165999680D01*
X203805676Y-165864661D01*
X203807594Y-165727392D01*
X203836135Y-165593114D01*
X203890212Y-165466943D01*
X203967774Y-165353667D01*
X204065853Y-165257622D01*
X204180723Y-165182451D01*
X204308003Y-165131027D01*
X204442849Y-165105304D01*
X204580122Y-165106263D01*
X204580122Y-165106263D01*
G37*
G36*
X224580122Y-165106263D02*
X224714599Y-165133867D01*
X224841148Y-165187063D01*
X224954962Y-165263832D01*
X225051688Y-165361235D01*
X225127658Y-165475580D01*
X225179969Y-165602496D01*
X225206529Y-165736634D01*
X225206529Y-165736650D01*
X225206630Y-165737161D01*
X225204441Y-165893958D01*
X225204325Y-165894467D01*
X225204325Y-165894486D01*
X225174031Y-166027824D01*
X225118195Y-166153235D01*
X225039065Y-166265408D01*
X224939651Y-166360079D01*
X224823741Y-166433638D01*
X224695756Y-166483279D01*
X224560563Y-166507118D01*
X224423315Y-166504242D01*
X224289241Y-166474765D01*
X224163444Y-166419805D01*
X224050720Y-166341460D01*
X223955356Y-166242708D01*
X223880993Y-166127319D01*
X223830457Y-165999680D01*
X223805676Y-165864661D01*
X223807594Y-165727392D01*
X223836135Y-165593114D01*
X223890212Y-165466943D01*
X223967774Y-165353667D01*
X224065853Y-165257622D01*
X224180723Y-165182451D01*
X224308003Y-165131027D01*
X224442849Y-165105304D01*
X224580122Y-165106263D01*
X224580122Y-165106263D01*
G37*
G36*
X206580122Y-165106263D02*
X206714599Y-165133867D01*
X206841148Y-165187063D01*
X206954962Y-165263832D01*
X207051688Y-165361235D01*
X207127658Y-165475580D01*
X207179969Y-165602496D01*
X207206529Y-165736634D01*
X207206529Y-165736650D01*
X207206630Y-165737161D01*
X207204441Y-165893958D01*
X207204325Y-165894467D01*
X207204325Y-165894486D01*
X207174031Y-166027824D01*
X207118195Y-166153235D01*
X207039065Y-166265408D01*
X206939651Y-166360079D01*
X206823741Y-166433638D01*
X206695756Y-166483279D01*
X206560563Y-166507118D01*
X206423315Y-166504242D01*
X206289241Y-166474765D01*
X206163444Y-166419805D01*
X206050720Y-166341460D01*
X205955356Y-166242708D01*
X205880993Y-166127319D01*
X205830457Y-165999680D01*
X205805676Y-165864661D01*
X205807594Y-165727392D01*
X205836135Y-165593114D01*
X205890212Y-165466943D01*
X205967774Y-165353667D01*
X206065853Y-165257622D01*
X206180723Y-165182451D01*
X206308003Y-165131027D01*
X206442849Y-165105304D01*
X206580122Y-165106263D01*
X206580122Y-165106263D01*
G37*
G36*
X208580122Y-165106263D02*
X208714599Y-165133867D01*
X208841148Y-165187063D01*
X208954962Y-165263832D01*
X209051688Y-165361235D01*
X209127658Y-165475580D01*
X209179969Y-165602496D01*
X209206529Y-165736634D01*
X209206529Y-165736650D01*
X209206630Y-165737161D01*
X209204441Y-165893958D01*
X209204325Y-165894467D01*
X209204325Y-165894486D01*
X209174031Y-166027824D01*
X209118195Y-166153235D01*
X209039065Y-166265408D01*
X208939651Y-166360079D01*
X208823741Y-166433638D01*
X208695756Y-166483279D01*
X208560563Y-166507118D01*
X208423315Y-166504242D01*
X208289241Y-166474765D01*
X208163444Y-166419805D01*
X208050720Y-166341460D01*
X207955356Y-166242708D01*
X207880993Y-166127319D01*
X207830457Y-165999680D01*
X207805676Y-165864661D01*
X207807594Y-165727392D01*
X207836135Y-165593114D01*
X207890212Y-165466943D01*
X207967774Y-165353667D01*
X208065853Y-165257622D01*
X208180723Y-165182451D01*
X208308003Y-165131027D01*
X208442849Y-165105304D01*
X208580122Y-165106263D01*
X208580122Y-165106263D01*
G37*
G36*
X200580122Y-165106263D02*
X200714599Y-165133867D01*
X200841148Y-165187063D01*
X200954962Y-165263832D01*
X201051688Y-165361235D01*
X201127658Y-165475580D01*
X201179969Y-165602496D01*
X201206529Y-165736634D01*
X201206529Y-165736650D01*
X201206630Y-165737161D01*
X201204441Y-165893958D01*
X201204325Y-165894467D01*
X201204325Y-165894486D01*
X201174031Y-166027824D01*
X201118195Y-166153235D01*
X201039065Y-166265408D01*
X200939651Y-166360079D01*
X200823741Y-166433638D01*
X200695756Y-166483279D01*
X200560563Y-166507118D01*
X200423315Y-166504242D01*
X200289241Y-166474765D01*
X200163444Y-166419805D01*
X200050720Y-166341460D01*
X199955356Y-166242708D01*
X199880993Y-166127319D01*
X199830457Y-165999680D01*
X199805676Y-165864661D01*
X199807594Y-165727392D01*
X199836135Y-165593114D01*
X199890212Y-165466943D01*
X199967774Y-165353667D01*
X200065853Y-165257622D01*
X200180723Y-165182451D01*
X200308003Y-165131027D01*
X200442849Y-165105304D01*
X200580122Y-165106263D01*
X200580122Y-165106263D01*
G37*
G36*
X213580122Y-163106263D02*
X213714599Y-163133867D01*
X213841148Y-163187063D01*
X213954962Y-163263832D01*
X214051688Y-163361235D01*
X214127658Y-163475580D01*
X214179969Y-163602496D01*
X214206529Y-163736634D01*
X214206529Y-163736650D01*
X214206630Y-163737161D01*
X214204441Y-163893958D01*
X214204325Y-163894467D01*
X214204325Y-163894486D01*
X214174031Y-164027824D01*
X214118195Y-164153235D01*
X214039065Y-164265408D01*
X213939651Y-164360079D01*
X213823741Y-164433638D01*
X213695756Y-164483279D01*
X213560563Y-164507118D01*
X213423315Y-164504242D01*
X213289241Y-164474765D01*
X213163444Y-164419805D01*
X213050720Y-164341460D01*
X212955356Y-164242708D01*
X212880993Y-164127319D01*
X212830457Y-163999680D01*
X212805676Y-163864661D01*
X212807594Y-163727392D01*
X212836135Y-163593114D01*
X212890212Y-163466943D01*
X212967774Y-163353667D01*
X213065853Y-163257622D01*
X213180723Y-163182451D01*
X213308003Y-163131027D01*
X213442849Y-163105304D01*
X213580122Y-163106263D01*
X213580122Y-163106263D01*
G37*
G36*
X177580122Y-163106263D02*
X177714599Y-163133867D01*
X177841148Y-163187063D01*
X177954962Y-163263832D01*
X178051688Y-163361235D01*
X178127658Y-163475580D01*
X178179969Y-163602496D01*
X178206529Y-163736634D01*
X178206529Y-163736650D01*
X178206630Y-163737161D01*
X178204441Y-163893958D01*
X178204325Y-163894467D01*
X178204325Y-163894486D01*
X178174031Y-164027824D01*
X178118195Y-164153235D01*
X178039065Y-164265408D01*
X177939651Y-164360079D01*
X177823741Y-164433638D01*
X177695756Y-164483279D01*
X177560563Y-164507118D01*
X177423315Y-164504242D01*
X177289241Y-164474765D01*
X177163444Y-164419805D01*
X177050720Y-164341460D01*
X176955356Y-164242708D01*
X176880993Y-164127319D01*
X176830457Y-163999680D01*
X176805676Y-163864661D01*
X176807594Y-163727392D01*
X176836135Y-163593114D01*
X176890212Y-163466943D01*
X176967774Y-163353667D01*
X177065853Y-163257622D01*
X177180723Y-163182451D01*
X177308003Y-163131027D01*
X177442849Y-163105304D01*
X177580122Y-163106263D01*
X177580122Y-163106263D01*
G37*
G36*
X187580122Y-163106263D02*
X187714599Y-163133867D01*
X187841148Y-163187063D01*
X187954962Y-163263832D01*
X188051688Y-163361235D01*
X188127658Y-163475580D01*
X188179969Y-163602496D01*
X188206529Y-163736634D01*
X188206529Y-163736650D01*
X188206630Y-163737161D01*
X188204441Y-163893958D01*
X188204325Y-163894467D01*
X188204325Y-163894486D01*
X188174031Y-164027824D01*
X188118195Y-164153235D01*
X188039065Y-164265408D01*
X187939651Y-164360079D01*
X187823741Y-164433638D01*
X187695756Y-164483279D01*
X187560563Y-164507118D01*
X187423315Y-164504242D01*
X187289241Y-164474765D01*
X187163444Y-164419805D01*
X187050720Y-164341460D01*
X186955356Y-164242708D01*
X186880993Y-164127319D01*
X186830457Y-163999680D01*
X186805676Y-163864661D01*
X186807594Y-163727392D01*
X186836135Y-163593114D01*
X186890212Y-163466943D01*
X186967774Y-163353667D01*
X187065853Y-163257622D01*
X187180723Y-163182451D01*
X187308003Y-163131027D01*
X187442849Y-163105304D01*
X187580122Y-163106263D01*
X187580122Y-163106263D01*
G37*
G36*
X217580122Y-163106263D02*
X217714599Y-163133867D01*
X217841148Y-163187063D01*
X217954962Y-163263832D01*
X218051688Y-163361235D01*
X218127658Y-163475580D01*
X218179969Y-163602496D01*
X218206529Y-163736634D01*
X218206529Y-163736650D01*
X218206630Y-163737161D01*
X218204441Y-163893958D01*
X218204325Y-163894467D01*
X218204325Y-163894486D01*
X218174031Y-164027824D01*
X218118195Y-164153235D01*
X218039065Y-164265408D01*
X217939651Y-164360079D01*
X217823741Y-164433638D01*
X217695756Y-164483279D01*
X217560563Y-164507118D01*
X217423315Y-164504242D01*
X217289241Y-164474765D01*
X217163444Y-164419805D01*
X217050720Y-164341460D01*
X216955356Y-164242708D01*
X216880993Y-164127319D01*
X216830457Y-163999680D01*
X216805676Y-163864661D01*
X216807594Y-163727392D01*
X216836135Y-163593114D01*
X216890212Y-163466943D01*
X216967774Y-163353667D01*
X217065853Y-163257622D01*
X217180723Y-163182451D01*
X217308003Y-163131027D01*
X217442849Y-163105304D01*
X217580122Y-163106263D01*
X217580122Y-163106263D01*
G37*
G36*
X179580122Y-163106263D02*
X179714599Y-163133867D01*
X179841148Y-163187063D01*
X179954962Y-163263832D01*
X180051688Y-163361235D01*
X180127658Y-163475580D01*
X180179969Y-163602496D01*
X180206529Y-163736634D01*
X180206529Y-163736650D01*
X180206630Y-163737161D01*
X180204441Y-163893958D01*
X180204325Y-163894467D01*
X180204325Y-163894486D01*
X180174031Y-164027824D01*
X180118195Y-164153235D01*
X180039065Y-164265408D01*
X179939651Y-164360079D01*
X179823741Y-164433638D01*
X179695756Y-164483279D01*
X179560563Y-164507118D01*
X179423315Y-164504242D01*
X179289241Y-164474765D01*
X179163444Y-164419805D01*
X179050720Y-164341460D01*
X178955356Y-164242708D01*
X178880993Y-164127319D01*
X178830457Y-163999680D01*
X178805676Y-163864661D01*
X178807594Y-163727392D01*
X178836135Y-163593114D01*
X178890212Y-163466943D01*
X178967774Y-163353667D01*
X179065853Y-163257622D01*
X179180723Y-163182451D01*
X179308003Y-163131027D01*
X179442849Y-163105304D01*
X179580122Y-163106263D01*
X179580122Y-163106263D01*
G37*
G36*
X201580122Y-163106263D02*
X201714599Y-163133867D01*
X201841148Y-163187063D01*
X201954962Y-163263832D01*
X202051688Y-163361235D01*
X202127658Y-163475580D01*
X202179969Y-163602496D01*
X202206529Y-163736634D01*
X202206529Y-163736650D01*
X202206630Y-163737161D01*
X202204441Y-163893958D01*
X202204325Y-163894467D01*
X202204325Y-163894486D01*
X202174031Y-164027824D01*
X202118195Y-164153235D01*
X202039065Y-164265408D01*
X201939651Y-164360079D01*
X201823741Y-164433638D01*
X201695756Y-164483279D01*
X201560563Y-164507118D01*
X201423315Y-164504242D01*
X201289241Y-164474765D01*
X201163444Y-164419805D01*
X201050720Y-164341460D01*
X200955356Y-164242708D01*
X200880993Y-164127319D01*
X200830457Y-163999680D01*
X200805676Y-163864661D01*
X200807594Y-163727392D01*
X200836135Y-163593114D01*
X200890212Y-163466943D01*
X200967774Y-163353667D01*
X201065853Y-163257622D01*
X201180723Y-163182451D01*
X201308003Y-163131027D01*
X201442849Y-163105304D01*
X201580122Y-163106263D01*
X201580122Y-163106263D01*
G37*
G36*
X219580122Y-163106263D02*
X219714599Y-163133867D01*
X219841148Y-163187063D01*
X219954962Y-163263832D01*
X220051688Y-163361235D01*
X220127658Y-163475580D01*
X220179969Y-163602496D01*
X220206529Y-163736634D01*
X220206529Y-163736650D01*
X220206630Y-163737161D01*
X220204441Y-163893958D01*
X220204325Y-163894467D01*
X220204325Y-163894486D01*
X220174031Y-164027824D01*
X220118195Y-164153235D01*
X220039065Y-164265408D01*
X219939651Y-164360079D01*
X219823741Y-164433638D01*
X219695756Y-164483279D01*
X219560563Y-164507118D01*
X219423315Y-164504242D01*
X219289241Y-164474765D01*
X219163444Y-164419805D01*
X219050720Y-164341460D01*
X218955356Y-164242708D01*
X218880993Y-164127319D01*
X218830457Y-163999680D01*
X218805676Y-163864661D01*
X218807594Y-163727392D01*
X218836135Y-163593114D01*
X218890212Y-163466943D01*
X218967774Y-163353667D01*
X219065853Y-163257622D01*
X219180723Y-163182451D01*
X219308003Y-163131027D01*
X219442849Y-163105304D01*
X219580122Y-163106263D01*
X219580122Y-163106263D01*
G37*
G36*
X183580122Y-163106263D02*
X183714599Y-163133867D01*
X183841148Y-163187063D01*
X183954962Y-163263832D01*
X184051688Y-163361235D01*
X184127658Y-163475580D01*
X184179969Y-163602496D01*
X184206529Y-163736634D01*
X184206529Y-163736650D01*
X184206630Y-163737161D01*
X184204441Y-163893958D01*
X184204325Y-163894467D01*
X184204325Y-163894486D01*
X184174031Y-164027824D01*
X184118195Y-164153235D01*
X184039065Y-164265408D01*
X183939651Y-164360079D01*
X183823741Y-164433638D01*
X183695756Y-164483279D01*
X183560563Y-164507118D01*
X183423315Y-164504242D01*
X183289241Y-164474765D01*
X183163444Y-164419805D01*
X183050720Y-164341460D01*
X182955356Y-164242708D01*
X182880993Y-164127319D01*
X182830457Y-163999680D01*
X182805676Y-163864661D01*
X182807594Y-163727392D01*
X182836135Y-163593114D01*
X182890212Y-163466943D01*
X182967774Y-163353667D01*
X183065853Y-163257622D01*
X183180723Y-163182451D01*
X183308003Y-163131027D01*
X183442849Y-163105304D01*
X183580122Y-163106263D01*
X183580122Y-163106263D01*
G37*
G36*
X215580122Y-163106263D02*
X215714599Y-163133867D01*
X215841148Y-163187063D01*
X215954962Y-163263832D01*
X216051688Y-163361235D01*
X216127658Y-163475580D01*
X216179969Y-163602496D01*
X216206529Y-163736634D01*
X216206529Y-163736650D01*
X216206630Y-163737161D01*
X216204441Y-163893958D01*
X216204325Y-163894467D01*
X216204325Y-163894486D01*
X216174031Y-164027824D01*
X216118195Y-164153235D01*
X216039065Y-164265408D01*
X215939651Y-164360079D01*
X215823741Y-164433638D01*
X215695756Y-164483279D01*
X215560563Y-164507118D01*
X215423315Y-164504242D01*
X215289241Y-164474765D01*
X215163444Y-164419805D01*
X215050720Y-164341460D01*
X214955356Y-164242708D01*
X214880993Y-164127319D01*
X214830457Y-163999680D01*
X214805676Y-163864661D01*
X214807594Y-163727392D01*
X214836135Y-163593114D01*
X214890212Y-163466943D01*
X214967774Y-163353667D01*
X215065853Y-163257622D01*
X215180723Y-163182451D01*
X215308003Y-163131027D01*
X215442849Y-163105304D01*
X215580122Y-163106263D01*
X215580122Y-163106263D01*
G37*
G36*
X221580122Y-163106263D02*
X221714599Y-163133867D01*
X221841148Y-163187063D01*
X221954962Y-163263832D01*
X222051688Y-163361235D01*
X222127658Y-163475580D01*
X222179969Y-163602496D01*
X222206529Y-163736634D01*
X222206529Y-163736650D01*
X222206630Y-163737161D01*
X222204441Y-163893958D01*
X222204325Y-163894467D01*
X222204325Y-163894486D01*
X222174031Y-164027824D01*
X222118195Y-164153235D01*
X222039065Y-164265408D01*
X221939651Y-164360079D01*
X221823741Y-164433638D01*
X221695756Y-164483279D01*
X221560563Y-164507118D01*
X221423315Y-164504242D01*
X221289241Y-164474765D01*
X221163444Y-164419805D01*
X221050720Y-164341460D01*
X220955356Y-164242708D01*
X220880993Y-164127319D01*
X220830457Y-163999680D01*
X220805676Y-163864661D01*
X220807594Y-163727392D01*
X220836135Y-163593114D01*
X220890212Y-163466943D01*
X220967774Y-163353667D01*
X221065853Y-163257622D01*
X221180723Y-163182451D01*
X221308003Y-163131027D01*
X221442849Y-163105304D01*
X221580122Y-163106263D01*
X221580122Y-163106263D01*
G37*
G36*
X181580122Y-163106263D02*
X181714599Y-163133867D01*
X181841148Y-163187063D01*
X181954962Y-163263832D01*
X182051688Y-163361235D01*
X182127658Y-163475580D01*
X182179969Y-163602496D01*
X182206529Y-163736634D01*
X182206529Y-163736650D01*
X182206630Y-163737161D01*
X182204441Y-163893958D01*
X182204325Y-163894467D01*
X182204325Y-163894486D01*
X182174031Y-164027824D01*
X182118195Y-164153235D01*
X182039065Y-164265408D01*
X181939651Y-164360079D01*
X181823741Y-164433638D01*
X181695756Y-164483279D01*
X181560563Y-164507118D01*
X181423315Y-164504242D01*
X181289241Y-164474765D01*
X181163444Y-164419805D01*
X181050720Y-164341460D01*
X180955356Y-164242708D01*
X180880993Y-164127319D01*
X180830457Y-163999680D01*
X180805676Y-163864661D01*
X180807594Y-163727392D01*
X180836135Y-163593114D01*
X180890212Y-163466943D01*
X180967774Y-163353667D01*
X181065853Y-163257622D01*
X181180723Y-163182451D01*
X181308003Y-163131027D01*
X181442849Y-163105304D01*
X181580122Y-163106263D01*
X181580122Y-163106263D01*
G37*
G36*
X223580122Y-163106263D02*
X223714599Y-163133867D01*
X223841148Y-163187063D01*
X223954962Y-163263832D01*
X224051688Y-163361235D01*
X224127658Y-163475580D01*
X224179969Y-163602496D01*
X224206529Y-163736634D01*
X224206529Y-163736650D01*
X224206630Y-163737161D01*
X224204441Y-163893958D01*
X224204325Y-163894467D01*
X224204325Y-163894486D01*
X224174031Y-164027824D01*
X224118195Y-164153235D01*
X224039065Y-164265408D01*
X223939651Y-164360079D01*
X223823741Y-164433638D01*
X223695756Y-164483279D01*
X223560563Y-164507118D01*
X223423315Y-164504242D01*
X223289241Y-164474765D01*
X223163444Y-164419805D01*
X223050720Y-164341460D01*
X222955356Y-164242708D01*
X222880993Y-164127319D01*
X222830457Y-163999680D01*
X222805676Y-163864661D01*
X222807594Y-163727392D01*
X222836135Y-163593114D01*
X222890212Y-163466943D01*
X222967774Y-163353667D01*
X223065853Y-163257622D01*
X223180723Y-163182451D01*
X223308003Y-163131027D01*
X223442849Y-163105304D01*
X223580122Y-163106263D01*
X223580122Y-163106263D01*
G37*
G36*
X211580122Y-163106263D02*
X211714599Y-163133867D01*
X211841148Y-163187063D01*
X211954962Y-163263832D01*
X212051688Y-163361235D01*
X212127658Y-163475580D01*
X212179969Y-163602496D01*
X212206529Y-163736634D01*
X212206529Y-163736650D01*
X212206630Y-163737161D01*
X212204441Y-163893958D01*
X212204325Y-163894467D01*
X212204325Y-163894486D01*
X212174031Y-164027824D01*
X212118195Y-164153235D01*
X212039065Y-164265408D01*
X211939651Y-164360079D01*
X211823741Y-164433638D01*
X211695756Y-164483279D01*
X211560563Y-164507118D01*
X211423315Y-164504242D01*
X211289241Y-164474765D01*
X211163444Y-164419805D01*
X211050720Y-164341460D01*
X210955356Y-164242708D01*
X210880993Y-164127319D01*
X210830457Y-163999680D01*
X210805676Y-163864661D01*
X210807594Y-163727392D01*
X210836135Y-163593114D01*
X210890212Y-163466943D01*
X210967774Y-163353667D01*
X211065853Y-163257622D01*
X211180723Y-163182451D01*
X211308003Y-163131027D01*
X211442849Y-163105304D01*
X211580122Y-163106263D01*
X211580122Y-163106263D01*
G37*
G36*
X209580122Y-163106263D02*
X209714599Y-163133867D01*
X209841148Y-163187063D01*
X209954962Y-163263832D01*
X210051688Y-163361235D01*
X210127658Y-163475580D01*
X210179969Y-163602496D01*
X210206529Y-163736634D01*
X210206529Y-163736650D01*
X210206630Y-163737161D01*
X210204441Y-163893958D01*
X210204325Y-163894467D01*
X210204325Y-163894486D01*
X210174031Y-164027824D01*
X210118195Y-164153235D01*
X210039065Y-164265408D01*
X209939651Y-164360079D01*
X209823741Y-164433638D01*
X209695756Y-164483279D01*
X209560563Y-164507118D01*
X209423315Y-164504242D01*
X209289241Y-164474765D01*
X209163444Y-164419805D01*
X209050720Y-164341460D01*
X208955356Y-164242708D01*
X208880993Y-164127319D01*
X208830457Y-163999680D01*
X208805676Y-163864661D01*
X208807594Y-163727392D01*
X208836135Y-163593114D01*
X208890212Y-163466943D01*
X208967774Y-163353667D01*
X209065853Y-163257622D01*
X209180723Y-163182451D01*
X209308003Y-163131027D01*
X209442849Y-163105304D01*
X209580122Y-163106263D01*
X209580122Y-163106263D01*
G37*
G36*
X191580122Y-163106263D02*
X191714599Y-163133867D01*
X191841148Y-163187063D01*
X191954962Y-163263832D01*
X192051688Y-163361235D01*
X192127658Y-163475580D01*
X192179969Y-163602496D01*
X192206529Y-163736634D01*
X192206529Y-163736650D01*
X192206630Y-163737161D01*
X192204441Y-163893958D01*
X192204325Y-163894467D01*
X192204325Y-163894486D01*
X192174031Y-164027824D01*
X192118195Y-164153235D01*
X192039065Y-164265408D01*
X191939651Y-164360079D01*
X191823741Y-164433638D01*
X191695756Y-164483279D01*
X191560563Y-164507118D01*
X191423315Y-164504242D01*
X191289241Y-164474765D01*
X191163444Y-164419805D01*
X191050720Y-164341460D01*
X190955356Y-164242708D01*
X190880993Y-164127319D01*
X190830457Y-163999680D01*
X190805676Y-163864661D01*
X190807594Y-163727392D01*
X190836135Y-163593114D01*
X190890212Y-163466943D01*
X190967774Y-163353667D01*
X191065853Y-163257622D01*
X191180723Y-163182451D01*
X191308003Y-163131027D01*
X191442849Y-163105304D01*
X191580122Y-163106263D01*
X191580122Y-163106263D01*
G37*
G36*
X207580122Y-163106263D02*
X207714599Y-163133867D01*
X207841148Y-163187063D01*
X207954962Y-163263832D01*
X208051688Y-163361235D01*
X208127658Y-163475580D01*
X208179969Y-163602496D01*
X208206529Y-163736634D01*
X208206529Y-163736650D01*
X208206630Y-163737161D01*
X208204441Y-163893958D01*
X208204325Y-163894467D01*
X208204325Y-163894486D01*
X208174031Y-164027824D01*
X208118195Y-164153235D01*
X208039065Y-164265408D01*
X207939651Y-164360079D01*
X207823741Y-164433638D01*
X207695756Y-164483279D01*
X207560563Y-164507118D01*
X207423315Y-164504242D01*
X207289241Y-164474765D01*
X207163444Y-164419805D01*
X207050720Y-164341460D01*
X206955356Y-164242708D01*
X206880993Y-164127319D01*
X206830457Y-163999680D01*
X206805676Y-163864661D01*
X206807594Y-163727392D01*
X206836135Y-163593114D01*
X206890212Y-163466943D01*
X206967774Y-163353667D01*
X207065853Y-163257622D01*
X207180723Y-163182451D01*
X207308003Y-163131027D01*
X207442849Y-163105304D01*
X207580122Y-163106263D01*
X207580122Y-163106263D01*
G37*
G36*
X205580122Y-163106263D02*
X205714599Y-163133867D01*
X205841148Y-163187063D01*
X205954962Y-163263832D01*
X206051688Y-163361235D01*
X206127658Y-163475580D01*
X206179969Y-163602496D01*
X206206529Y-163736634D01*
X206206529Y-163736650D01*
X206206630Y-163737161D01*
X206204441Y-163893958D01*
X206204325Y-163894467D01*
X206204325Y-163894486D01*
X206174031Y-164027824D01*
X206118195Y-164153235D01*
X206039065Y-164265408D01*
X205939651Y-164360079D01*
X205823741Y-164433638D01*
X205695756Y-164483279D01*
X205560563Y-164507118D01*
X205423315Y-164504242D01*
X205289241Y-164474765D01*
X205163444Y-164419805D01*
X205050720Y-164341460D01*
X204955356Y-164242708D01*
X204880993Y-164127319D01*
X204830457Y-163999680D01*
X204805676Y-163864661D01*
X204807594Y-163727392D01*
X204836135Y-163593114D01*
X204890212Y-163466943D01*
X204967774Y-163353667D01*
X205065853Y-163257622D01*
X205180723Y-163182451D01*
X205308003Y-163131027D01*
X205442849Y-163105304D01*
X205580122Y-163106263D01*
X205580122Y-163106263D01*
G37*
G36*
X193580122Y-163106263D02*
X193714599Y-163133867D01*
X193841148Y-163187063D01*
X193954962Y-163263832D01*
X194051688Y-163361235D01*
X194127658Y-163475580D01*
X194179969Y-163602496D01*
X194206529Y-163736634D01*
X194206529Y-163736650D01*
X194206630Y-163737161D01*
X194204441Y-163893958D01*
X194204325Y-163894467D01*
X194204325Y-163894486D01*
X194174031Y-164027824D01*
X194118195Y-164153235D01*
X194039065Y-164265408D01*
X193939651Y-164360079D01*
X193823741Y-164433638D01*
X193695756Y-164483279D01*
X193560563Y-164507118D01*
X193423315Y-164504242D01*
X193289241Y-164474765D01*
X193163444Y-164419805D01*
X193050720Y-164341460D01*
X192955356Y-164242708D01*
X192880993Y-164127319D01*
X192830457Y-163999680D01*
X192805676Y-163864661D01*
X192807594Y-163727392D01*
X192836135Y-163593114D01*
X192890212Y-163466943D01*
X192967774Y-163353667D01*
X193065853Y-163257622D01*
X193180723Y-163182451D01*
X193308003Y-163131027D01*
X193442849Y-163105304D01*
X193580122Y-163106263D01*
X193580122Y-163106263D01*
G37*
G36*
X203580122Y-163106263D02*
X203714599Y-163133867D01*
X203841148Y-163187063D01*
X203954962Y-163263832D01*
X204051688Y-163361235D01*
X204127658Y-163475580D01*
X204179969Y-163602496D01*
X204206529Y-163736634D01*
X204206529Y-163736650D01*
X204206630Y-163737161D01*
X204204441Y-163893958D01*
X204204325Y-163894467D01*
X204204325Y-163894486D01*
X204174031Y-164027824D01*
X204118195Y-164153235D01*
X204039065Y-164265408D01*
X203939651Y-164360079D01*
X203823741Y-164433638D01*
X203695756Y-164483279D01*
X203560563Y-164507118D01*
X203423315Y-164504242D01*
X203289241Y-164474765D01*
X203163444Y-164419805D01*
X203050720Y-164341460D01*
X202955356Y-164242708D01*
X202880993Y-164127319D01*
X202830457Y-163999680D01*
X202805676Y-163864661D01*
X202807594Y-163727392D01*
X202836135Y-163593114D01*
X202890212Y-163466943D01*
X202967774Y-163353667D01*
X203065853Y-163257622D01*
X203180723Y-163182451D01*
X203308003Y-163131027D01*
X203442849Y-163105304D01*
X203580122Y-163106263D01*
X203580122Y-163106263D01*
G37*
G36*
X175580122Y-163106263D02*
X175714599Y-163133867D01*
X175841148Y-163187063D01*
X175954962Y-163263832D01*
X176051688Y-163361235D01*
X176127658Y-163475580D01*
X176179969Y-163602496D01*
X176206529Y-163736634D01*
X176206529Y-163736650D01*
X176206630Y-163737161D01*
X176204441Y-163893958D01*
X176204325Y-163894467D01*
X176204325Y-163894486D01*
X176174031Y-164027824D01*
X176118195Y-164153235D01*
X176039065Y-164265408D01*
X175939651Y-164360079D01*
X175823741Y-164433638D01*
X175695756Y-164483279D01*
X175560563Y-164507118D01*
X175423315Y-164504242D01*
X175289241Y-164474765D01*
X175163444Y-164419805D01*
X175050720Y-164341460D01*
X174955356Y-164242708D01*
X174880993Y-164127319D01*
X174830457Y-163999680D01*
X174805676Y-163864661D01*
X174807594Y-163727392D01*
X174836135Y-163593114D01*
X174890212Y-163466943D01*
X174967774Y-163353667D01*
X175065853Y-163257622D01*
X175180723Y-163182451D01*
X175308003Y-163131027D01*
X175442849Y-163105304D01*
X175580122Y-163106263D01*
X175580122Y-163106263D01*
G37*
G36*
X195580122Y-163106263D02*
X195714599Y-163133867D01*
X195841148Y-163187063D01*
X195954962Y-163263832D01*
X196051688Y-163361235D01*
X196127658Y-163475580D01*
X196179969Y-163602496D01*
X196206529Y-163736634D01*
X196206529Y-163736650D01*
X196206630Y-163737161D01*
X196204441Y-163893958D01*
X196204325Y-163894467D01*
X196204325Y-163894486D01*
X196174031Y-164027824D01*
X196118195Y-164153235D01*
X196039065Y-164265408D01*
X195939651Y-164360079D01*
X195823741Y-164433638D01*
X195695756Y-164483279D01*
X195560563Y-164507118D01*
X195423315Y-164504242D01*
X195289241Y-164474765D01*
X195163444Y-164419805D01*
X195050720Y-164341460D01*
X194955356Y-164242708D01*
X194880993Y-164127319D01*
X194830457Y-163999680D01*
X194805676Y-163864661D01*
X194807594Y-163727392D01*
X194836135Y-163593114D01*
X194890212Y-163466943D01*
X194967774Y-163353667D01*
X195065853Y-163257622D01*
X195180723Y-163182451D01*
X195308003Y-163131027D01*
X195442849Y-163105304D01*
X195580122Y-163106263D01*
X195580122Y-163106263D01*
G37*
G36*
X199580122Y-163106263D02*
X199714599Y-163133867D01*
X199841148Y-163187063D01*
X199954962Y-163263832D01*
X200051688Y-163361235D01*
X200127658Y-163475580D01*
X200179969Y-163602496D01*
X200206529Y-163736634D01*
X200206529Y-163736650D01*
X200206630Y-163737161D01*
X200204441Y-163893958D01*
X200204325Y-163894467D01*
X200204325Y-163894486D01*
X200174031Y-164027824D01*
X200118195Y-164153235D01*
X200039065Y-164265408D01*
X199939651Y-164360079D01*
X199823741Y-164433638D01*
X199695756Y-164483279D01*
X199560563Y-164507118D01*
X199423315Y-164504242D01*
X199289241Y-164474765D01*
X199163444Y-164419805D01*
X199050720Y-164341460D01*
X198955356Y-164242708D01*
X198880993Y-164127319D01*
X198830457Y-163999680D01*
X198805676Y-163864661D01*
X198807594Y-163727392D01*
X198836135Y-163593114D01*
X198890212Y-163466943D01*
X198967774Y-163353667D01*
X199065853Y-163257622D01*
X199180723Y-163182451D01*
X199308003Y-163131027D01*
X199442849Y-163105304D01*
X199580122Y-163106263D01*
X199580122Y-163106263D01*
G37*
G36*
X197580122Y-163106263D02*
X197714599Y-163133867D01*
X197841148Y-163187063D01*
X197954962Y-163263832D01*
X198051688Y-163361235D01*
X198127658Y-163475580D01*
X198179969Y-163602496D01*
X198206529Y-163736634D01*
X198206529Y-163736650D01*
X198206630Y-163737161D01*
X198204441Y-163893958D01*
X198204325Y-163894467D01*
X198204325Y-163894486D01*
X198174031Y-164027824D01*
X198118195Y-164153235D01*
X198039065Y-164265408D01*
X197939651Y-164360079D01*
X197823741Y-164433638D01*
X197695756Y-164483279D01*
X197560563Y-164507118D01*
X197423315Y-164504242D01*
X197289241Y-164474765D01*
X197163444Y-164419805D01*
X197050720Y-164341460D01*
X196955356Y-164242708D01*
X196880993Y-164127319D01*
X196830457Y-163999680D01*
X196805676Y-163864661D01*
X196807594Y-163727392D01*
X196836135Y-163593114D01*
X196890212Y-163466943D01*
X196967774Y-163353667D01*
X197065853Y-163257622D01*
X197180723Y-163182451D01*
X197308003Y-163131027D01*
X197442849Y-163105304D01*
X197580122Y-163106263D01*
X197580122Y-163106263D01*
G37*
G36*
X189580122Y-163106263D02*
X189714599Y-163133867D01*
X189841148Y-163187063D01*
X189954962Y-163263832D01*
X190051688Y-163361235D01*
X190127658Y-163475580D01*
X190179969Y-163602496D01*
X190206529Y-163736634D01*
X190206529Y-163736650D01*
X190206630Y-163737161D01*
X190204441Y-163893958D01*
X190204325Y-163894467D01*
X190204325Y-163894486D01*
X190174031Y-164027824D01*
X190118195Y-164153235D01*
X190039065Y-164265408D01*
X189939651Y-164360079D01*
X189823741Y-164433638D01*
X189695756Y-164483279D01*
X189560563Y-164507118D01*
X189423315Y-164504242D01*
X189289241Y-164474765D01*
X189163444Y-164419805D01*
X189050720Y-164341460D01*
X188955356Y-164242708D01*
X188880993Y-164127319D01*
X188830457Y-163999680D01*
X188805676Y-163864661D01*
X188807594Y-163727392D01*
X188836135Y-163593114D01*
X188890212Y-163466943D01*
X188967774Y-163353667D01*
X189065853Y-163257622D01*
X189180723Y-163182451D01*
X189308003Y-163131027D01*
X189442849Y-163105304D01*
X189580122Y-163106263D01*
X189580122Y-163106263D01*
G37*
M02*
